<?xml version="1.0" encoding="utf-8"?>
<svg xmlns="http://www.w3.org/2000/svg" fill="none" viewBox="0 0 557 546">
  <g clip-path="url(#a)">
    <rect fill="#DBD1FC" height="546" rx="80" width="557"/>
    <g filter="url(#b)">
      <g clip-path="url(#c)">
        <rect fill="#fff" height="357" rx="24" width="328" x="114" y="95"/>
        <g clip-path="url(#d)">
          <path d="M114 95h328v118H114z" fill="#AD94FF"/>
          <path d="M228.34 240.41h43.47a4.24 4.24 0 0 0 4.18-3.5l5.4-33.1a4.24 4.24 0 0 0-4.17-4.97H238.8a4.24 4.24 0 0 0-4.18 3.5l-6.28 38.07Z" fill="#fff"/>
          <path d="M228.34 240.73a.31.31 0 0 1-.3-.36l6.28-38.07a4.55 4.55 0 0 1 4.48-3.77h38.42a4.54 4.54 0 0 1 4.48 5.35l-5.4 33.08a4.55 4.55 0 0 1-4.49 3.77h-43.47Zm48.88-41.58H238.8a3.93 3.93 0 0 0-3.87 3.25l-6.23 37.7h43.11a3.93 3.93 0 0 0 3.88-3.24l5.4-33.09a3.93 3.93 0 0 0-3.87-4.62Z" fill="#000"/>
          <path d="M228.34 240.41h3.18l6.29-38.07a4.24 4.24 0 0 1 4.18-3.5h-3.19a4.24 4.24 0 0 0-4.18 3.5l-6.28 38.07Z" fill="#000"/>
          <path d="M231.52 240.72h-3.18a.31.31 0 0 1-.3-.36l6.28-38.07a4.55 4.55 0 0 1 4.48-3.77h3.2a.31.31 0 0 1 0 .62 3.93 3.93 0 0 0-3.88 3.25l-6.28 38.07a.31.31 0 0 1-.3.26Zm-2.81-.62h2.55l6.24-37.81a4.55 4.55 0 0 1 2.19-3.15h-.89a3.93 3.93 0 0 0-3.87 3.25l-6.22 37.71Zm-50.54-74.08a.3.3 0 0 1-.16-.58c.9-.53 1.35-1.15 1.35-1.9.03-2.73-5.53-6.16-5.58-6.2a.31.31 0 0 1 .32-.53c.24.16 5.91 3.66 5.88 6.74 0 .97-.56 1.79-1.65 2.43a.31.31 0 0 1-.16.04Z" fill="#000"/>
          <path d="M170.84 159.85a4.1 4.1 0 1 0 0-8.2 4.1 4.1 0 0 0 0 8.2Z" fill="#BF92FB"/>
          <path d="M170.84 160.17a4.42 4.42 0 1 1 .01-8.84 4.42 4.42 0 0 1 0 8.84Zm0-8.2a3.8 3.8 0 1 0 .01 7.59 3.8 3.8 0 0 0 0-7.6Z" fill="#000"/>
          <path d="M160.17 133.21s8.72.55 12.18 6.79c3.36 6.07-2.93 19.53-1.22 22.75 1.71 3.22 1.53 11.3-6.47 9.11-7.99-2.18-10.01-11-10.01-11l5.55-14.22s2.86-4.72 3.22-5.04c.36-.3-3.25-8.39-3.25-8.39Z" fill="#000"/>
          <path d="M167.14 172.54c-.74 0-1.58-.11-2.55-.38-8.08-2.2-10.22-11.14-10.24-11.23a.31.31 0 0 1 .01-.19l5.55-14.22.03-.04a84.94 84.94 0 0 1 3.2-5.02c-.07-.75-1.92-5.15-3.25-8.13a.3.3 0 0 1 .03-.3.3.3 0 0 1 .27-.13c.36.02 8.93.63 12.43 6.94 2.02 3.64.72 9.6-.43 14.86-.74 3.42-1.45 6.66-.78 7.9 1.04 1.96 1.49 5.9-.37 8.23a4.72 4.72 0 0 1-3.9 1.7Zm-12.17-11.66c.25.93 2.49 8.7 9.78 10.68 2.68.73 4.63.36 5.8-1.12 1.68-2.09 1.24-5.79.3-7.55-.76-1.44-.1-4.48.74-8.32 1.06-4.9 2.4-11 .49-14.43-2.86-5.14-9.5-6.33-11.4-6.57 3.47 7.82 3.14 8.1 2.94 8.27-.23.22-1.79 2.7-3.14 4.94l-5.5 14.1Z" fill="#000"/>
          <path d="M222.04 171.46s4.13 3.75 3.27 6.9c-.08.3-3.42 4.05-4.66 4.74-4.17 2.31-5.9 2.5-5.9 2.5-1.76 2.4-14.02 24.08-20.92 25.36-7.26 1.34-18.24-12-18.24-12l9.36-12.65 7.27 6.55 15.7-15.7c.94-2.15 6.9-11.52 8.57-9.89 1.6 1.59.58 3.62.52 3.75.23-.22 7.94-7.47 9.82-5.96 1.9 1.54-4.8 6.4-4.8 6.4Z" fill="#fff"/>
          <path d="M192.76 211.37c-7.27 0-16.98-11.68-17.41-12.2a.3.3 0 0 1-.01-.39l9.36-12.65a.31.31 0 0 1 .46-.05l7.04 6.36L207.65 177c.88-1.94 5.77-9.75 8.13-10.2a1 1 0 0 1 .92.26c1 .99 1.08 2.13.95 2.95 2.31-2.08 7.66-6.57 9.38-5.19.3.25.46.6.45 1-.04 1.84-3.79 4.8-4.96 5.68.93.92 3.86 4.1 3.09 6.94-.14.5-3.62 4.27-4.81 4.93-3.56 1.98-5.37 2.42-5.87 2.52-.32.45-.9 1.39-1.7 2.65-4.04 6.48-13.5 21.65-19.35 22.73-.36.07-.74.1-1.12.1Zm-16.78-12.42c1.36 1.6 11.26 12.92 17.8 11.7 5.57-1.02 14.93-16.03 18.93-22.44.86-1.37 1.48-2.37 1.8-2.8a.3.3 0 0 1 .2-.12c.03 0 1.75-.22 5.79-2.46 1.19-.66 4.29-4.16 4.52-4.57.77-2.92-3.15-6.53-3.19-6.56a.31.31 0 0 1 .03-.48c1.38-1 4.97-3.93 5-5.42a.62.62 0 0 0-.22-.5c-1.09-.87-5.67 2.42-9.42 5.95a.31.31 0 0 1-.49-.37c.1-.2.95-1.98-.46-3.38-.07-.06-.17-.13-.38-.09-1.96.38-6.73 7.7-7.7 9.89a.37.37 0 0 1-.06.1l-15.7 15.69a.3.3 0 0 1-.42 0l-7.01-6.32-9.02 12.18Z" fill="#000"/>
          <path d="m221.92 171.5-3.7 2.75c-.6.45-.75 1.29-.32 1.87.44.58 1.28.7 1.88.24l3.7-2.75c.61-.45.75-1.28.32-1.86-.22-.3-.54-.47-.88-.51-.34-.05-.7.04-1 .26Z" fill="#fff"/>
          <path d="M218.96 176.95c-.08 0-.15 0-.22-.02a1.59 1.59 0 0 1-1.08-.63 1.65 1.65 0 0 1 .37-2.3l3.7-2.75c.37-.26.8-.38 1.24-.32a1.58 1.58 0 0 1 1.37 1.85c-.08.43-.31.81-.67 1.08l-3.7 2.75c-.3.22-.65.34-1.01.34Zm3.8-5.42c-.24 0-.46.08-.65.22l-3.7 2.75c-.47.35-.59.99-.26 1.43.16.22.4.35.67.39.28.03.55-.04.78-.2l3.7-2.76c.23-.17.38-.41.43-.69a.97.97 0 0 0-.97-1.14Z" fill="#000"/>
          <path d="m223.4 173.7-3.58 2.65a1.29 1.29 0 0 0-.3 1.8 1.3 1.3 0 0 0 1.81.23l3.57-2.65a1.3 1.3 0 0 0 .3-1.8 1.2 1.2 0 0 0-.84-.49c-.33-.04-.68.04-.97.26Z" fill="#fff"/>
          <path d="M220.53 178.96c-.07 0-.14 0-.2-.02a1.54 1.54 0 0 1-1.34-1.8c.07-.41.3-.79.65-1.04l3.57-2.65c.35-.26.77-.37 1.2-.32.42.06.8.27 1.05.61.51.7.35 1.7-.37 2.24l-3.57 2.65c-.3.22-.64.33-.99.33Zm3.05-5.02L220 176.6a.98.98 0 0 0-.4.65.93.93 0 0 0 .8 1.08c.25.03.52-.04.74-.2l3.57-2.65a.98.98 0 0 0 .24-1.37.93.93 0 0 0-.64-.36.96.96 0 0 0-.74.2Z" fill="#000"/>
          <path d="m224.25 176.22-3 2.24c-.5.36-.58 1.08-.2 1.6.39.52 1.1.65 1.59.28l2.76-2.05c.5-.36.83-1.27.44-1.78a1.2 1.2 0 0 0-.75-.48c-.29-.05-.6.01-.84.2Z" fill="#fff"/>
          <path d="M222 180.86c-.45 0-.9-.22-1.2-.62a1.45 1.45 0 0 1 .26-2.03l3-2.24c.31-.22.7-.31 1.08-.25.38.07.72.28.95.6.49.66.12 1.75-.5 2.22l-2.77 2.05c-.24.18-.53.27-.82.27Zm2.44-4.39-3.01 2.23a.83.83 0 0 0-.13 1.17c.28.38.8.48 1.15.22l2.77-2.05c.38-.28.63-1 .37-1.35a.89.89 0 0 0-.56-.35.77.77 0 0 0-.6.13Z" fill="#000"/>
          <path d="M217 171.02s-.4 2.45-1.86 3.38c0 0 .75 1.4.53 2.94-.21 1.53-1.43 2.21-1.43 2.21" fill="#fff"/>
          <path d="M214.24 179.86a.31.31 0 0 1-.15-.58 2.82 2.82 0 0 0 1.28-1.99c.2-1.4-.5-2.73-.5-2.75a.31.31 0 0 1 .1-.4c1.34-.85 1.73-3.14 1.73-3.17a.31.31 0 0 1 .61.1c-.02.1-.4 2.35-1.78 3.43.22.49.63 1.64.45 2.88a3.45 3.45 0 0 1-1.59 2.44.31.31 0 0 1-.15.04Z" fill="#000"/>
          <path d="M171.88 175.23s2.56.54 6.47 2.86c3.91 2.3 10.93 8.73 10.93 8.73 2.12 1.5-9.05 17.15-11.16 15.65l-12.75-13 6.5-14.24Z" fill="#fff"/>
          <path d="m178.12 202.47-2.9-2.96c2.54-.6 9.66-11.18 10.76-15.3.7.73 3.3 2.61 3.3 2.61 2.12 1.5-9.05 17.15-11.16 15.65Z" fill="#FEC524"/>
          <path d="M178.46 202.88a.86.86 0 0 1-.56-.2l-12.76-13a.31.31 0 0 1-.05-.35l6.84-14.29a.31.31 0 0 1 .32-.17c.08 0 2 .23 5.92 2.55 3.85 2.28 10.86 8.74 11.31 9.16 1.69 1.27-2.94 7.95-3.88 9.29a41.55 41.55 0 0 1-4.3 5.2c-1.25 1.2-2.18 1.81-2.84 1.81Zm-.15-.65c.27.15 1.1-.18 2.55-1.6a39.45 39.45 0 0 0 4.23-5.12 37.5 37.5 0 0 0 3.37-5.57c.87-1.84.89-2.7.64-2.87l-.03-.02c-.07-.07-7.38-6.83-11.21-9.1-3.09-1.82-4.89-2.3-5.47-2.43l-6.65 13.88 12.57 12.83Z" fill="#000"/>
          <path d="M178.34 186.63c.95 22.15-2.4 26.92-2.07 28.4.18.83 1.52 19.78 2.66 25.39H129.5l5.25-26.15s-6.82-29.02-2.75-36.22c2.17-3.83 8.39-4.93 16-5.34 1.5-.08 3.06-.13 4.66-.18 6.51-.18 11.7.63 15.27 1.43 2.65.59 4.4 1.17 5.11 1.34" fill="#fff"/>
          <path d="M178.93 240.72H129.5a.31.31 0 0 1-.3-.37l5.23-26.08c-.44-1.9-6.72-29.26-2.7-36.37 2.37-4.2 9.2-5.12 16.24-5.5 1.32-.07 2.76-.13 4.68-.18a62.95 62.95 0 0 1 19.42 2.49c.45.13.81.23 1.04.28a.31.31 0 1 1-.14.6c-.24-.05-.6-.16-1.07-.29a62.38 62.38 0 0 0-19.23-2.46c-1.91.05-3.35.1-4.66.18-6.54.35-13.51 1.24-15.74 5.18-3.96 7 2.71 35.7 2.78 36v.13l-5.17 25.77h48.68c-.8-4.26-1.66-14.45-2.19-20.61-.2-2.33-.35-4.17-.4-4.4-.1-.43.05-1 .32-2.03.73-2.93 2.47-9.76 1.75-26.42a.31.31 0 0 1 .62-.03c.72 16.75-1.03 23.65-1.77 26.6a5.46 5.46 0 0 0-.31 1.76c.05.24.17 1.62.41 4.47.54 6.33 1.44 16.93 2.25 20.91a.3.3 0 0 1-.06.26.3.3 0 0 1-.24.11Z" fill="#000"/>
          <path d="m160.1 180.57-.06.04-2.37 6s-11.2-3.8-16.32-13.25l4.52-.5 12.22 4.67 2 3.04Z" fill="#FEC524"/>
          <path d="M157.67 186.92c-.04 0-.07 0-.1-.02-.12-.04-11.37-3.95-16.5-13.4a.3.3 0 0 1 .24-.45l4.52-.5h.15l12.21 4.7c.06.01.11.06.15.1l2 3.05c.1.13.07.3-.05.4l-2.33 5.92a.31.31 0 0 1-.3.2Zm-15.83-13.3c4.65 8.12 13.93 11.94 15.65 12.6l2.23-5.65-1.84-2.79-12.05-4.62-3.99.45Z" fill="#000"/>
          <path d="M191.69 224.05s1.75 1.31-.84 2.67c-2.6 1.36-15.44.35-15.44.35l-33.27 4.4c-5.83.66-11.47-4.1-11.2-9.97l-1.45-25.8 17.08-.1 1.23 20.85 25.21-1.8s1.7-6.38 4.46-5.53c2.75.84-.06 4.77-.06 4.77s12.52-2.48 13.72-.73c1.17 1.72-5.3 4.12-5.58 4.22.26-.02 6.15-.5 7.27.52 1.15 1.02.1 2.44-1.13 2.77 0 0 2.77 1.68 0 3.38Z" fill="#fff"/>
          <path d="M141.07 231.83c-2.64 0-5.29-1.04-7.28-2.9a9.64 9.64 0 0 1-3.16-7.43l-1.45-25.78a.31.31 0 0 1 .3-.33l17.08-.1a.3.3 0 0 1 .31.28l1.22 20.54 24.69-1.75c.26-.9 1.37-4.36 3.16-5.36a2.02 2.02 0 0 1 1.62-.18c.68.2 1.13.6 1.32 1.18.38 1.11-.34 2.62-.82 3.45 3.14-.6 12.18-2.14 13.32-.46.2.29.25.62.14.97-.36 1.13-2.5 2.28-4.13 3 2.04-.07 4.83-.03 5.64.7.5.44.69 1.01.55 1.6-.14.6-.63 1.16-1.26 1.5.4.34.9.93.91 1.65 0 .6-.35 1.17-1.06 1.68.21.25.44.64.4 1.13-.05.65-.58 1.25-1.58 1.77-2.61 1.37-14.7.45-15.56.38l-33.25 4.4c-.37.04-.74.06-1.11.06Zm-11.25-35.82 1.43 25.47v.03a9.03 9.03 0 0 0 2.97 6.97c2.13 2 5.08 3 7.88 2.67l33.27-4.4h.07c.13.01 12.77 1 15.26-.3.78-.41 1.22-.86 1.25-1.28.05-.5-.45-.87-.45-.88a.31.31 0 0 1 .02-.5c.72-.45 1.09-.91 1.09-1.38 0-.8-1.07-1.47-1.08-1.48a.3.3 0 0 1 .08-.56c.66-.18 1.24-.7 1.37-1.26.08-.36-.04-.7-.37-.99-.7-.62-4.03-.67-7.02-.43a.32.32 0 0 1-.34-.24.3.3 0 0 1 .19-.36c2.02-.74 5.14-2.24 5.5-3.33a.45.45 0 0 0-.07-.43c-.78-1.15-8.64-.08-13.4.86a.31.31 0 0 1-.31-.48c.44-.62 1.5-2.44 1.13-3.51-.13-.38-.43-.64-.91-.8a1.4 1.4 0 0 0-1.14.14c-1.8 1-2.92 5.15-2.93 5.19a.31.31 0 0 1-.28.23l-25.2 1.8a.3.3 0 0 1-.23-.08.3.3 0 0 1-.1-.22l-1.23-20.56-16.45.11Z" fill="#000"/>
          <path d="M132.78 176.97s-3.7 3.26-4.37 10.79c-.66 7.53-.49 14.9-.49 14.9.14 2.18 20.5-.08 20.36-2.26 0 0-1.32-8.48-2.37-13.38" fill="#fff"/>
          <path d="M148.28 200.4c.14 2.18-20.22 4.44-20.36 2.26v-4.32c3.78.92 16.9-.98 19.73-2.75.24 1.44.63 4.8.63 4.8Z" fill="#FEC524"/>
          <path d="M132.1 203.84c-1.83 0-3.27-.14-3.93-.47-.35-.17-.54-.4-.56-.69 0-.09-.16-7.49.5-14.95.66-7.57 4.32-10.86 4.47-11a.31.31 0 0 1 .41.47c-.04.03-3.63 3.28-4.27 10.58-.65 7.43-.5 14.8-.49 14.87 0 .01.05.08.21.16 2.43 1.2 16.62-.34 19.23-2.08.24-.16.3-.28.3-.31-.01-.06-1.32-8.5-2.36-13.34a.31.31 0 1 1 .6-.13 310.75 310.75 0 0 1 2.37 13.4c.02.34-.17.63-.57.9-2.07 1.38-10.61 2.59-15.92 2.59Z" fill="#000"/>
          <path d="m160.1 180.57 6.34 4.17s3.28-4.23 3.27-10.36l-2.1-.5-3.72 3.6-3.8 3.09Z" fill="#FEC524"/>
          <path d="M166.44 185.06a.31.31 0 0 1-.18-.05l-6.34-4.18a.31.31 0 0 1-.03-.5l3.8-3.1 3.7-3.56c.09-.08.2-.1.3-.08l2.09.5a.3.3 0 0 1 .23.3 18.37 18.37 0 0 1-3.33 10.55.31.31 0 0 1-.24.12Zm-5.83-4.52 5.75 3.78c.65-.94 2.97-4.67 3.03-9.7l-1.68-.4-3.6 3.48-3.5 2.84Z" fill="#000"/>
          <path d="M167.92 173.95c-.47 3.11-3.86 6.47-7.83 6.62-5.88.22-12.55-3.89-14.24-7.72h.02a3.58 3.58 0 0 0 3.34-3.12c.5-3.77.02-7.82-1.34-11.82l18.78 2.53s-2.68 5.37-2.78 9.74a3.53 3.53 0 0 0 2.77 3.49l1.28.28Z" fill="#fff"/>
          <path d="M159.64 180.88c-6 0-12.42-4.16-14.07-7.9a.3.3 0 0 1 .27-.44 3.27 3.27 0 0 0 3.06-2.85c.48-3.68.03-7.72-1.32-11.69a.31.31 0 0 1 .33-.4l18.79 2.53c.1.02.19.08.23.17.05.08.05.19 0 .28-.02.05-2.65 5.35-2.75 9.6a3.22 3.22 0 0 0 2.54 3.18l1.27.29c.16.03.26.19.24.35-.47 3.13-3.93 6.72-8.13 6.88h-.46Zm-13.32-7.77c1.88 3.55 8.08 7.35 13.76 7.15 3.77-.14 6.89-3.25 7.48-6.07l-.98-.22c-1.8-.4-3.06-2-3.02-3.8.1-3.76 2.01-8.16 2.63-9.48l-17.87-2.41a26.62 26.62 0 0 1 1.2 11.48 3.9 3.9 0 0 1-3.2 3.35Z" fill="#000"/>
          <path d="M147.87 157.91s-4.36-2.09-3.34-5.88c1-3.76 4.97-.37 4.97-.37s-.52-3.9.51-7.31c1.7-5.61 8.37-9.94 14.6-7.8.46.16.93.36 1.4.6 9.23 4.76 8.37 26.93-.58 29.62a12.5 12.5 0 0 1-10.28-1.39" fill="#fff"/>
          <path d="M161.8 167.62c-2.31 0-4.6-.66-6.8-1.98a.31.31 0 0 1-.11-.42.3.3 0 0 1 .42-.11 12.12 12.12 0 0 0 10.03 1.35c3.6-1.07 6.2-5.67 6.78-12 .59-6.35-1.12-14.4-6.26-17.04a10.49 10.49 0 0 0-9.6.12 11.86 11.86 0 0 0-5.95 6.9c-1 3.3-.51 7.13-.5 7.17a.3.3 0 0 1-.5.28c-.03-.02-2-1.68-3.35-1.26-.53.16-.92.66-1.14 1.48-.94 3.5 3.14 5.5 3.18 5.52a.31.31 0 1 1-.26.56c-.05-.03-4.59-2.25-3.52-6.25.28-1.03.8-1.67 1.55-1.9 1.17-.36 2.58.41 3.35.94-.1-1.3-.19-4.13.6-6.72a12.48 12.48 0 0 1 6.25-7.27 11.1 11.1 0 0 1 10.17-.12c5.4 2.78 7.2 11.1 6.6 17.65-.61 6.58-3.38 11.39-7.22 12.54-1.25.37-2.5.56-3.72.56Z" fill="#000"/>
          <path d="M169.38 145.97c-6.14 3.34-15.99-.65-15.99-.65s-3.12.39-3.9 6.33c0 0-3.95-3.38-4.96.38-1.02 3.79 3.34 5.88 3.34 5.88 1.45 3.83 2.26 12.22.54 13.66-2.73.9-8.88.98-10.94-.93-2.45-2.28 2.39-21.7 2.39-21.7s-.22-6.74 4.11-10.83c4.34-4.1 16.84-8.85 23.2-2.9 2.35 2.19 7.5 7.88 2.21 10.76Z" fill="#000"/>
          <path d="M143.7 172.5c-2.56 0-5.19-.47-6.44-1.63-2.5-2.32 1.75-19.77 2.3-21.97-.02-.64-.05-7 4.2-11.02 4.69-4.42 17.22-8.89 23.63-2.9 1.5 1.41 4.97 5.03 4.58 8.11-.17 1.3-.99 2.37-2.44 3.16-5.96 3.24-15.11-.2-16.17-.61-.44.1-2.89.94-3.55 6.05a.31.31 0 0 1-.2.25.31.31 0 0 1-.31-.05c-.02-.02-1.99-1.68-3.34-1.26-.53.16-.91.66-1.13 1.48-.94 3.5 3 5.44 3.18 5.52.07.03.12.1.15.17 1.36 3.6 2.43 12.34.45 14a.3.3 0 0 1-.1.06c-1.23.4-3 .64-4.82.64Zm15.45-39.75c-5.72 0-12.05 2.83-14.97 5.58-4.18 3.95-4.01 10.53-4.01 10.6a.3.3 0 0 1 0 .08c-1.93 7.74-4.18 19.82-2.49 21.4 1.87 1.74 7.79 1.77 10.57.88 1.41-1.34.84-9.17-.63-13.16-.7-.38-4.37-2.55-3.4-6.19.29-1.03.8-1.67 1.56-1.9 1.25-.39 2.76.52 3.49 1.05.9-5.62 3.95-6.06 4.08-6.08.06 0 .11 0 .16.02.1.04 9.78 3.9 15.72.67 1.27-.69 1.98-1.6 2.12-2.69.36-2.8-2.95-6.23-4.38-7.57-2.07-1.93-4.86-2.7-7.82-2.7Z" fill="#000"/>
          <path d="M159.6 153.78c.57-.06.97-.7.9-1.45-.08-.75-.6-1.31-1.17-1.25-.58.05-.98.7-.9 1.45.07.75.6 1.3 1.16 1.25Zm8.27-.78c.57-.06.97-.7.9-1.46-.08-.74-.6-1.3-1.17-1.24-.58.05-.98.7-.9 1.45.07.75.6 1.3 1.17 1.25Z" fill="#000"/>
          <path d="M160.86 149.8s-1.87-.96-3.8 1.02l3.8-1.01Z" fill="#fff"/>
          <path d="M157.05 151.13a.31.31 0 0 1-.22-.53c2.07-2.12 4.16-1.08 4.17-1.07a.31.31 0 0 1-.28.55c-.07-.04-1.7-.83-3.45.96a.31.31 0 0 1-.22.09Z" fill="#000"/>
          <path d="M169.18 149.18s-1.88-.98-3.81 1l3.8-1Z" fill="#fff"/>
          <path d="M165.36 150.5a.31.31 0 0 1-.22-.53c2.08-2.12 4.16-1.07 4.18-1.06a.3.3 0 0 1 .13.41.31.31 0 0 1-.42.14c-.07-.04-1.7-.84-3.44.95a.31.31 0 0 1-.23.1Z" fill="#000"/>
          <path d="m163.48 152.1 1.26 4.13c.1.32.2.67.13 1-.08.44-.43.78-.84.97-.4.19-.85.25-1.29.3" fill="#fff"/>
          <path d="M162.75 158.8a.31.31 0 0 1-.04-.6c.4-.06.83-.11 1.2-.28.36-.17.6-.45.66-.75.05-.27-.04-.58-.13-.86l-1.25-4.12a.31.31 0 1 1 .6-.18l1.25 4.12c.1.33.22.74.14 1.16-.1.49-.47.94-1.01 1.19a4.54 4.54 0 0 1-1.42.33Z" fill="#000"/>
          <path d="M160.17 161.1a4.14 4.14 0 0 0 3.83.7l-3.83-.7Z" fill="#fff"/>
          <path d="M162.75 162.3c-.97 0-1.95-.33-2.77-.96a.3.3 0 1 1 .38-.49 3.84 3.84 0 0 0 3.54.65.31.31 0 0 1 .2.58c-.44.15-.9.22-1.35.22Z" fill="#000"/>
          <path d="M145.89 151.77c-2.28-.71-4.2-2.22-5.76-3.63-1.6-1.44-4.72.55-3.99 3.67.7 2.94 6.5 3.37 9.17 4.5l.58-4.54Z" fill="#fff"/>
          <path d="M145.3 156.63c-.03 0-.07 0-.11-.03-.74-.31-1.75-.57-2.81-.85-2.81-.74-6-1.58-6.54-3.87a3.67 3.67 0 0 1 1.6-4.11c1-.6 2.14-.54 2.9.15 1.41 1.28 3.34 2.84 5.64 3.55a.3.3 0 0 1 .21.34l-.57 4.55a.3.3 0 0 1-.31.27Zm-6.44-8.65c-.36 0-.74.1-1.1.32a3.06 3.06 0 0 0-1.32 3.44c.46 1.92 3.45 2.71 6.1 3.4.92.25 1.8.48 2.51.75l.5-3.9c-2.31-.78-4.22-2.34-5.63-3.61-.3-.27-.66-.4-1.06-.4Z" fill="#000"/>
          <path d="M147.82 158.41a4.1 4.1 0 1 0 0-8.2 4.1 4.1 0 0 0 0 8.2Z" fill="#fff"/>
          <path d="M147.82 158.72a4.42 4.42 0 1 1 .01-8.83 4.42 4.42 0 0 1 0 8.83Zm0-8.2a3.8 3.8 0 1 0 .01 7.6 3.8 3.8 0 0 0 0-7.6Z" fill="#000"/>
          <path d="M147.82 156.53a2.21 2.21 0 1 0 0-4.43 2.21 2.21 0 0 0 0 4.43Z" fill="#BF92FB"/>
          <path d="M174.85 166.69c-4.1 0-9.3-1.81-9.59-1.92a.31.31 0 0 1-.19-.4.31.31 0 0 1 .4-.18c.09.03 9.2 3.2 12.54 1.25a.31.31 0 0 1 .32.53c-.9.52-2.13.72-3.48.72Z" fill="#000"/>
          <path d="M165.24 165.3a1.32 1.32 0 1 0 0-2.64 1.32 1.32 0 0 0 0 2.63Z" fill="#000"/>
          <path d="M165.24 165.6a1.63 1.63 0 1 1 0-3.26 1.63 1.63 0 0 1 0 3.26Zm0-2.64a1.01 1.01 0 1 0 0 2.03 1.01 1.01 0 0 0 0-2.03Z" fill="#000"/>
          <path d="m261.43 187.44 2-1.72-2.64-5.39-2.06-1.42.85 7.7a1.12 1.12 0 0 0 1.85.83Z" fill="#71FFCC"/>
          <path d="M260.7 188.03a1.42 1.42 0 0 1-1.44-1.4l-.83-7.69a.31.31 0 0 1 .48-.28l2.06 1.42c.05.03.08.07.1.12l2.65 5.4a.3.3 0 0 1-.08.37l-2 1.71c-.27.23-.6.35-.93.35Zm-1.58-8.48.77 7.03c0 .35.19.62.48.75.3.14.62.09.87-.12l1.82-1.56-2.5-5.1-1.44-1Z" fill="#000"/>
          <path d="m261.05 181.74 4.13 8.42 11.23-19.13a1.14 1.14 0 0 0-1.27-1.69l-23.55 6.17 7.46 4.46" fill="#71FFCC"/>
          <path d="M265.18 190.47h-.01a.31.31 0 0 1-.27-.17l-4.13-8.43a.31.31 0 0 1 .56-.27l3.87 7.9 10.94-18.63a.83.83 0 0 0-.05-.93.82.82 0 0 0-.88-.3l-22.82 5.98 6.82 4.08a.3.3 0 1 1-.31.53l-7.47-4.46a.3.3 0 0 1 .08-.56l23.55-6.17c.58-.15 1.16.05 1.52.53.37.48.4 1.1.1 1.61l-11.23 19.14a.3.3 0 0 1-.27.15Z" fill="#000"/>
          <path d="M264.72 178.7a.3.3 0 0 1-.19-.56l11.56-8.7a.31.31 0 0 1 .37.5l-11.56 8.7a.32.32 0 0 1-.18.06Z" fill="#000"/>
          <path d="M218.57 152.9a9.45 9.45 0 0 1-9.45 9.37h-21.75v-9.37a9.41 9.41 0 0 1 9.45-9.37h12.3c5.22 0 9.45 4.2 9.45 9.37Z" fill="#fff"/>
          <path d="M209.12 162.57h-21.75a.31.31 0 0 1-.3-.31v-9.37a9.73 9.73 0 0 1 9.75-9.67h12.3a9.73 9.73 0 0 1 9.76 9.67 9.73 9.73 0 0 1-9.76 9.68Zm-21.44-.62h21.44a9.11 9.11 0 0 0 9.14-9.06 9.1 9.1 0 0 0-9.14-9.05h-12.3a9.11 9.11 0 0 0-9.14 9.05v9.06Z" fill="#000"/>
          <path d="M212.13 149.63h-18.85v2.11h18.85v-2.12Zm-7.14 4.67h-11.7v2.12h11.7v-2.11Z" fill="#71FFCC"/>
          <path d="m193.04 109.38-20 6.14L177.2 129l20-6.15-4.15-13.47Z" fill="#FEC524"/>
          <path d="M175.91 128.05a.3.3 0 0 1-.3-.22l-4.14-13.48a.3.3 0 0 1 .2-.38l20-6.15a.3.3 0 0 1 .39.2l4.15 13.48a.31.31 0 0 1-.2.4l-20 6.14a.29.29 0 0 1-.1.01Zm-3.75-13.58 3.96 12.89 19.4-5.97-3.96-12.89-19.4 5.97Z" fill="#000"/>
          <path d="M175.91 128.05a.31.31 0 0 1-.25-.5l5.95-8.1a.31.31 0 0 1 .4-.1l.76.42a2.19 2.19 0 0 0 2.98-.92l.41-.77a.3.3 0 0 1 .38-.15l9.47 3.37a.31.31 0 0 1-.01.6l-20 6.14a.35.35 0 0 1-.09.01Zm6.04-8.02-5.24 7.14 18.22-5.6-8.35-2.96-.28.53a2.8 2.8 0 0 1-1.67 1.38 2.8 2.8 0 0 1-2.15-.2l-.53-.3Z" fill="#000"/>
          <path d="M183.8 120.64c-.45 0-.9-.1-1.32-.33l-10.86-5.77a.3.3 0 0 1 .05-.57l20-6.15a.3.3 0 0 1 .37.44l-5.73 10.88a2.8 2.8 0 0 1-2.5 1.5Zm-11.23-6.3 10.2 5.42a2.19 2.19 0 0 0 2.99-.92l5.39-10.21-18.58 5.7Z" fill="#000"/>
          <path d="M209.02 107.63h23.32v-17.2h-23.32v17.2Z" fill="#fff"/>
          <path d="M233.93 92.2h-23.32v17.2h23.32V92.2Z" fill="#BF92FB"/>
          <path d="M232.34 107.94h-23.32a.31.31 0 0 1-.31-.31v-17.2c0-.17.14-.3.3-.3h23.33c.17 0 .3.13.3.3v17.2a.3.3 0 0 1-.3.3Zm-23.01-.62h22.7V90.74h-22.7v16.58Z" fill="#000"/>
          <path d="M229.7 105.16v5.44l-6.32-4.2" fill="#BF92FB"/>
          <path d="M229.7 110.92a.3.3 0 0 1-.16-.06l-6.33-4.2a.3.3 0 1 1 .34-.52l5.85 3.89v-4.86a.31.31 0 0 1 .62 0v5.44c0 .11-.07.22-.17.27a.32.32 0 0 1-.14.04Z" fill="#000"/>
          <path d="M224.14 97.37c0 .4-.06.74-.17 1.05a2.3 2.3 0 0 1-1.2 1.35c-.27.14-.58.23-.92.27l-.06 1.38c0 .09-.07.15-.2.2-.13.04-.32.06-.56.06a6.08 6.08 0 0 1-.65-.05.28.28 0 0 1-.13-.08.22.22 0 0 1-.05-.13l-.07-1.67c0-.15 0-.28.02-.37.02-.1.06-.17.1-.23.06-.05.12-.1.2-.11a.98.98 0 0 1 .26-.04h.1c.25 0 .47-.04.65-.12a1.22 1.22 0 0 0 .7-.79 1.93 1.93 0 0 0-.01-1.2 1.28 1.28 0 0 0-.78-.8 2.56 2.56 0 0 0-1.8.12l-.33.16a.48.48 0 0 1-.2.07.15.15 0 0 1-.09-.03.24.24 0 0 1-.07-.12 3.54 3.54 0 0 1-.04-1 .34.34 0 0 1 .09-.18.9.9 0 0 1 .27-.17l.47-.18a5.11 5.11 0 0 1 1.33-.19c.55 0 1.03.08 1.43.23a2.44 2.44 0 0 1 1.53 1.51c.12.34.18.7.18 1.06Zm-2.1 6.08c0 .2-.01.35-.05.49a.66.66 0 0 1-.16.31.67.67 0 0 1-.31.18 2.17 2.17 0 0 1-.97 0 .66.66 0 0 1-.3-.18.67.67 0 0 1-.17-.31 2.34 2.34 0 0 1 0-1 .68.68 0 0 1 .16-.32.67.67 0 0 1 .31-.18 2.27 2.27 0 0 1 .97 0c.13.04.23.1.31.18.08.08.13.2.16.33s.05.3.05.5Zm-71.79 42.76a.31.31 0 0 1-.29-.42c.65-1.62 2.33-2.43 3.7-2.65 1.52-.25 3.1.04 4.5.29l6.7 1.22c.87.16 1.65.27 2.3-.04.83-.38 1.21-1.37 1.22-2.17a6.5 6.5 0 0 0-.72-2.71.31.31 0 0 1 .57-.26c.41.93.8 1.93.78 2.98-.03 1.22-.65 2.28-1.58 2.72-.89.42-1.93.23-2.69.09l-6.7-1.22c-1.4-.26-2.86-.53-4.29-.3-1.2.2-2.66.9-3.2 2.27a.31.31 0 0 1-.3.2Zm-6.63-1.38-.08-.01a.3.3 0 0 1-.22-.38 11.76 11.76 0 0 1 9.15-8.41.31.31 0 0 1 .1.61c-4.06.7-7.62 3.97-8.65 7.96a.31.31 0 0 1-.3.23Zm-.47 26.3a2.9 2.9 0 0 1-.97-.16c-1.26-.44-2.03-1.86-1.65-3.04a.31.31 0 1 1 .6.2c-.29.85.32 1.93 1.26 2.26.88.31 1.98.04 2.8-.68a5.63 5.63 0 0 0 1.57-2.7 10.3 10.3 0 0 0-.1-6 .31.31 0 0 1 .6-.19c.66 2.04.7 4.3.1 6.36a6.21 6.21 0 0 1-1.76 3c-.71.62-1.6.95-2.45.95Z" fill="#fff"/>
        </g>
        <path d="M138.52 246a4.65 4.65 0 0 1 4.78 4.7 4.65 4.65 0 0 1-4.78 4.7h-2.46v4.6h-2.76v-14h5.22Zm0 6.82c.59 0 1.07-.2 1.46-.6.39-.41.58-.92.58-1.52 0-.61-.2-1.12-.58-1.52-.39-.4-.87-.6-1.46-.6h-2.46v4.24h2.46Zm8.82-1.1a2.7 2.7 0 0 1 1.18-1.44 3.68 3.68 0 0 1 1.86-.48v2.88c-.78-.1-1.5.07-2.12.48-.61.41-.92 1.1-.92 2.06V260h-2.58v-10h2.58v1.72Zm5.83-2.92a1.57 1.57 0 0 1-1.58-1.58c0-.43.15-.8.46-1.12a1.55 1.55 0 0 1 2.24 0 1.53 1.53 0 0 1 0 2.24c-.3.3-.68.46-1.12.46ZM151.9 260v-10h2.58v10h-2.58Zm13.46-1.24a5.15 5.15 0 0 1-3.76 1.52 5.15 5.15 0 0 1-5.28-5.28c0-1.48.5-2.73 1.52-3.74a5.11 5.11 0 0 1 3.76-1.54 5.1 5.1 0 0 1 3.76 1.54 5.05 5.05 0 0 1 1.54 3.74 5.1 5.1 0 0 1-1.54 3.76Zm-5.7-1.78c.52.52 1.17.78 1.94.78a2.68 2.68 0 0 0 2.72-2.76 2.68 2.68 0 0 0-2.72-2.76 2.63 2.63 0 0 0-2.7 2.76c0 .8.26 1.46.76 1.98Zm11.64-5.26a2.7 2.7 0 0 1 1.18-1.44 3.68 3.68 0 0 1 1.86-.48v2.88c-.79-.1-1.5.07-2.12.48-.62.41-.92 1.1-.92 2.06V260h-2.58v-10h2.58v1.72Zm5.83-2.92a1.57 1.57 0 0 1-1.58-1.58c0-.43.15-.8.46-1.12.32-.32.69-.48 1.12-.48.44 0 .81.16 1.12.48a1.53 1.53 0 0 1 0 2.24c-.31.3-.68.46-1.12.46Zm-1.28 11.2v-10h2.58v10h-2.58Zm10.66-7.52h-2.26v4.16c0 .35.08.6.26.76.17.16.42.25.76.28.33.01.74 0 1.24-.02V260c-1.78.2-3.03.03-3.76-.5-.72-.53-1.08-1.49-1.08-2.86v-4.16h-1.74V250h1.74v-2.02l2.58-.78v2.8h2.26v2.48Zm8.55-2.48h2.76l-3.64 10a6.49 6.49 0 0 1-2.08 3.12c-.85.65-1.92.95-3.2.88v-2.4c.7.01 1.24-.13 1.64-.44.41-.3.74-.8.98-1.48l-4.1-9.68h2.82l2.6 6.72 2.22-6.72Zm14.67-4c1.92 0 3.52.67 4.8 2.02 1.3 1.35 1.94 3 1.94 4.98 0 1.97-.65 3.63-1.94 4.98a6.35 6.35 0 0 1-4.8 2.02h-5.56v-14h5.56Zm0 11.36c1.21 0 2.2-.4 2.96-1.2a4.44 4.44 0 0 0 1.14-3.16c0-1.3-.38-2.34-1.14-3.14a3.87 3.87 0 0 0-2.96-1.22h-2.8v8.72h2.8Zm22.4-11.36v14h-2.74v-9.08l-3.94 6.5h-.32l-3.94-6.48V260h-2.76v-14h2.84l4.02 6.62 4-6.62h2.84Z" fill="#000"/>
        <path d="M139.11 278.2h1.29v9.8h-1.29v-4.41h-4.76V288h-1.3v-9.8h1.3v4.16h4.76v-4.16Zm9.06 2.8h1.22v7h-1.22v-1.2a2.97 2.97 0 0 1-2.65 1.38c-.98 0-1.81-.35-2.5-1.06a3.64 3.64 0 0 1-1.04-2.62c0-1.03.34-1.9 1.03-2.6a3.35 3.35 0 0 1 2.51-1.08c1.16 0 2.04.46 2.65 1.38V281Zm-2.5 6a2.42 2.42 0 0 0 2.5-2.5c0-.7-.24-1.3-.72-1.78a2.39 2.39 0 0 0-1.77-.73c-.7 0-1.3.25-1.77.73a2.41 2.41 0 0 0-.71 1.78c0 .7.24 1.3.71 1.8a2.4 2.4 0 0 0 1.77.7Zm10.46-6h1.32l-2.8 7h-1.43l-2.8-7h1.32l2.2 5.7 2.2-5.7Zm2.93 4.06c.12.63.4 1.11.85 1.46.46.34 1.02.51 1.68.51.92 0 1.6-.34 2.02-1.02l1.03.59a3.42 3.42 0 0 1-3.08 1.58 3.7 3.7 0 0 1-2.71-1.03 3.62 3.62 0 0 1-1.04-2.65 3.53 3.53 0 0 1 3.67-3.68c1.03 0 1.86.36 2.5 1.09a3.73 3.73 0 0 1 .94 3.15h-5.86Zm2.42-3.1a2.37 2.37 0 0 0-2.42 2.03h4.67a2.33 2.33 0 0 0-.78-1.5 2.25 2.25 0 0 0-1.47-.52Zm14.18-.96h1.22v7h-1.22v-1.2a2.97 2.97 0 0 1-2.65 1.38c-.97 0-1.81-.35-2.5-1.06a3.64 3.64 0 0 1-1.04-2.62c0-1.03.35-1.9 1.04-2.6a3.35 3.35 0 0 1 2.5-1.08c1.16 0 2.05.46 2.65 1.38V281Zm-2.5 6c.72 0 1.31-.23 1.79-.7.47-.5.71-1.1.71-1.8s-.24-1.3-.71-1.78a2.39 2.39 0 0 0-1.78-.73c-.7 0-1.29.25-1.76.73a2.41 2.41 0 0 0-.72 1.78c0 .7.24 1.3.72 1.8a2.4 2.4 0 0 0 1.76.7Zm9.05-6.18c.82 0 1.48.26 1.97.78.5.51.75 1.21.75 2.1v4.3h-1.22v-4.23c0-.57-.16-1-.46-1.31a1.7 1.7 0 0 0-1.28-.48c-.6 0-1.1.2-1.47.57-.37.38-.56.96-.56 1.74V288h-1.22v-7h1.22v1a2.5 2.5 0 0 1 2.27-1.18Zm9.15.18h1.3l-2.85 7.43c-.3.8-.72 1.4-1.26 1.81a2.6 2.6 0 0 1-1.85.56v-1.13c.86.06 1.49-.42 1.9-1.43l.12-.27-3.06-6.97h1.3l2.39 5.49 2.01-5.49Zm6.13 1.18h-1.86v3.79c0 .34.06.6.2.74.13.14.34.22.62.23l1.04-.03V288c-1.06.14-1.84.06-2.34-.25-.5-.32-.74-.91-.74-1.78v-3.8h-1.39V281h1.39v-1.6l1.22-.36V281h1.86v1.18Zm4.93-1.36c.82 0 1.48.26 1.97.78.5.51.74 1.21.74 2.1v4.3h-1.21v-4.23c0-.57-.16-1-.47-1.31a1.7 1.7 0 0 0-1.27-.48c-.6 0-1.1.2-1.47.57-.37.38-.56.96-.56 1.74V288h-1.22v-9.8h1.22v3.8a2.5 2.5 0 0 1 2.27-1.18Zm5.03-1.1a.8.8 0 0 1-.59-.23.78.78 0 0 1-.24-.58c0-.22.08-.41.24-.57a.78.78 0 0 1 .59-.25c.22 0 .42.08.57.25.16.16.24.35.24.57 0 .23-.08.42-.24.58a.78.78 0 0 1-.57.24Zm-.62 8.28v-7h1.22v7h-1.22Zm6.57-7.18c.82 0 1.48.26 1.97.78.5.51.74 1.21.74 2.1v4.3h-1.22v-4.23c0-.57-.15-1-.46-1.31a1.7 1.7 0 0 0-1.27-.48c-.6 0-1.1.2-1.47.57-.38.38-.56.96-.56 1.74V288h-1.22v-7h1.22v1a2.5 2.5 0 0 1 2.27-1.18Zm10.22.18h1.2v6.7c0 1.04-.34 1.85-1.04 2.41-.7.58-1.54.87-2.52.87-.79 0-1.46-.15-2.03-.45-.57-.28-1-.7-1.3-1.26l1.07-.6c.38.79 1.15 1.18 2.28 1.18.73 0 1.3-.2 1.71-.58a2 2 0 0 0 .63-1.56v-1c-.61.94-1.5 1.4-2.63 1.4-1 0-1.84-.35-2.53-1.06a3.57 3.57 0 0 1-1.04-2.6c0-1 .35-1.87 1.04-2.57a3.4 3.4 0 0 1 2.53-1.06c1.15 0 2.03.46 2.63 1.38V281Zm-4.27 5.24c.48.47 1.07.71 1.78.71a2.44 2.44 0 0 0 2.49-2.49 2.41 2.41 0 0 0-2.5-2.48c-.7 0-1.3.24-1.77.71a2.4 2.4 0 0 0-.71 1.77c0 .7.24 1.3.71 1.78ZM235 281h1.22v7H235v-1a2.5 2.5 0 0 1-2.27 1.18 2.6 2.6 0 0 1-1.97-.77 2.95 2.95 0 0 1-.74-2.11V281h1.22v4.23c0 .57.15 1.01.46 1.33.3.3.73.46 1.27.46a2 2 0 0 0 1.47-.56c.38-.38.56-.97.56-1.75V281Zm4.3 1.18c.4-.87 1.12-1.3 2.18-1.3v1.27c-.6-.03-1.11.13-1.54.47-.43.35-.65.9-.65 1.67V288h-1.22v-7h1.22v1.18Zm8.8-1.18h1.2v6.7c0 1.04-.35 1.85-1.05 2.41-.7.58-1.54.87-2.52.87-.78 0-1.46-.15-2.03-.45-.57-.28-1-.7-1.29-1.26l1.06-.6c.39.79 1.15 1.18 2.29 1.18.73 0 1.3-.2 1.7-.58a2 2 0 0 0 .63-1.56v-1a2.94 2.94 0 0 1-2.63 1.4c-1 0-1.84-.35-2.53-1.06a3.58 3.58 0 0 1-1.04-2.6c0-1 .35-1.87 1.04-2.57a3.4 3.4 0 0 1 2.53-1.06c1.15 0 2.03.46 2.63 1.38V281Zm-4.28 5.24c.48.47 1.07.71 1.78.71a2.44 2.44 0 0 0 2.5-2.49c0-.7-.24-1.29-.72-1.77a2.41 2.41 0 0 0-1.78-.71c-.7 0-1.3.24-1.78.71a2.4 2.4 0 0 0-.7 1.77c0 .7.23 1.3.7 1.78Zm8.18-1.18c.12.63.4 1.11.85 1.46a2.7 2.7 0 0 0 1.68.51c.93 0 1.6-.34 2.02-1.02l1.03.59a3.42 3.42 0 0 1-3.07 1.58 3.7 3.7 0 0 1-2.72-1.03 3.61 3.61 0 0 1-1.04-2.65c0-1.06.34-1.93 1.03-2.63a3.53 3.53 0 0 1 2.64-1.05 3.2 3.2 0 0 1 2.5 1.09 3.74 3.74 0 0 1 .94 3.15H252Zm2.42-3.1A2.36 2.36 0 0 0 252 284h4.68a2.33 2.33 0 0 0-.79-1.5 2.25 2.25 0 0 0-1.47-.52Zm8.37-1.14c.82 0 1.48.26 1.98.78.5.51.74 1.21.74 2.1v4.3h-1.22v-4.23c0-.57-.15-1-.46-1.31a1.7 1.7 0 0 0-1.27-.48c-.61 0-1.1.2-1.48.57-.37.38-.56.96-.56 1.74V288h-1.21v-7h1.21v1a2.5 2.5 0 0 1 2.27-1.18Zm8.23 1.36h-1.87v3.79c0 .34.07.6.2.74.14.14.35.22.63.23l1.04-.03V288c-1.07.14-1.85.06-2.34-.25-.5-.32-.74-.91-.74-1.78v-3.8h-1.39V281h1.39v-1.6l1.21-.36V281h1.87v1.18Zm3.3 4.38-.91 3.4h-1.05l.56-3.4h1.4Zm6.44-4.38c.4-.87 1.13-1.3 2.18-1.3v1.27c-.6-.03-1.1.13-1.54.47-.43.35-.64.9-.64 1.67V288h-1.22v-7h1.22v1.18Zm3.85 2.88c.12.63.4 1.11.85 1.46a2.7 2.7 0 0 0 1.68.51c.92 0 1.6-.34 2.02-1.02l1.03.59a3.42 3.42 0 0 1-3.08 1.58 3.7 3.7 0 0 1-2.71-1.03 3.61 3.61 0 0 1-1.04-2.65 3.53 3.53 0 0 1 3.67-3.68c1.03 0 1.86.36 2.5 1.09a3.74 3.74 0 0 1 .94 3.15h-5.86Zm2.42-3.1a2.37 2.37 0 0 0-2.42 2.03h4.67a2.33 2.33 0 0 0-.78-1.5 2.25 2.25 0 0 0-1.47-.52Zm10.67-.96h1.22v7h-1.22v-1.2a2.97 2.97 0 0 1-2.65 1.38c-.98 0-1.81-.35-2.5-1.06a3.64 3.64 0 0 1-1.04-2.62c0-1.03.34-1.9 1.04-2.6a3.35 3.35 0 0 1 2.5-1.08c1.16 0 2.04.46 2.65 1.38V281Zm-2.5 6a2.44 2.44 0 0 0 2.5-2.5c0-.7-.24-1.3-.72-1.78a2.4 2.4 0 0 0-1.78-.73c-.7 0-1.28.25-1.76.73a2.41 2.41 0 0 0-.71 1.78c0 .7.23 1.3.71 1.8a2.4 2.4 0 0 0 1.76.7Zm8.85 1.18a3.57 3.57 0 0 1-3.68-3.68c0-1.05.35-1.92 1.05-2.62.7-.7 1.57-1.06 2.63-1.06.7 0 1.31.17 1.86.5.55.33.96.77 1.23 1.33l-1.02.59a2.07 2.07 0 0 0-.82-.9 2.33 2.33 0 0 0-1.25-.33 2.4 2.4 0 0 0-2.46 2.49 2.42 2.42 0 0 0 2.46 2.48 2.3 2.3 0 0 0 2.11-1.22l1.04.6a3.6 3.6 0 0 1-3.15 1.83Zm7.84-7.36c.82 0 1.48.26 1.97.78.5.51.75 1.21.75 2.1v4.3h-1.22v-4.23c0-.57-.16-1-.46-1.31a1.7 1.7 0 0 0-1.28-.48c-.6 0-1.1.2-1.47.57-.37.38-.56.96-.56 1.74V288h-1.22v-9.8h1.22v3.8a2.5 2.5 0 0 1 2.27-1.18Zm11.72 1.36h-1.86v3.79c0 .34.07.6.2.74.14.14.35.22.63.23l1.03-.03V288c-1.06.14-1.84.06-2.34-.25-.49-.32-.74-.91-.74-1.78v-3.8h-1.38V281h1.38v-1.6l1.22-.36V281h1.86v1.18Zm4.93-1.36c.82 0 1.48.26 1.97.78.5.51.75 1.21.75 2.1v4.3h-1.22v-4.23c0-.57-.16-1-.46-1.31a1.7 1.7 0 0 0-1.28-.48c-.6 0-1.1.2-1.47.57-.37.38-.56.96-.56 1.74V288h-1.21v-9.8h1.21v3.8a2.5 2.5 0 0 1 2.27-1.18Zm5.27 4.24c.12.63.4 1.11.86 1.46a2.7 2.7 0 0 0 1.68.51c.92 0 1.6-.34 2.01-1.02l1.04.59a3.42 3.42 0 0 1-3.08 1.58 3.7 3.7 0 0 1-2.72-1.03 3.62 3.62 0 0 1-1.04-2.65 3.53 3.53 0 0 1 3.67-3.68c1.03 0 1.87.36 2.5 1.09a3.73 3.73 0 0 1 .95 3.15h-5.87Zm2.42-3.1a2.37 2.37 0 0 0-2.42 2.03h4.68a2.33 2.33 0 0 0-.79-1.5 2.25 2.25 0 0 0-1.47-.52Zm12.2.22h-1.87v3.79c0 .34.07.6.2.74.14.14.35.22.63.23l1.04-.03V288c-1.07.14-1.85.06-2.34-.25-.5-.32-.74-.91-.74-1.78v-3.8h-1.39V281h1.39v-1.6l1.21-.36V281h1.87v1.18Zm7 4.94c-.73.7-1.6 1.06-2.63 1.06-1.02 0-1.9-.35-2.61-1.06a3.56 3.56 0 0 1-1.07-2.62c0-1.04.36-1.9 1.07-2.62a3.6 3.6 0 0 1 2.61-1.06c1.03 0 1.9.35 2.62 1.06.72.71 1.08 1.58 1.08 2.62s-.36 1.9-1.08 2.62Zm-2.63-.13a2.41 2.41 0 0 0 2.48-2.5c0-.7-.24-1.3-.71-1.77a2.4 2.4 0 0 0-1.77-.71 2.41 2.41 0 0 0-2.46 2.5 2.42 2.42 0 0 0 2.46 2.48Zm9-6.17c.98 0 1.81.36 2.5 1.08a3.6 3.6 0 0 1 1.04 2.6c0 1.03-.34 1.9-1.03 2.62-.7.7-1.53 1.06-2.51 1.06a2.97 2.97 0 0 1-2.65-1.38v4h-1.21V281h1.21v1.2a2.97 2.97 0 0 1 2.65-1.38Zm-.15 6.19a2.46 2.46 0 0 0 2.48-2.5c0-.72-.24-1.31-.72-1.79a2.37 2.37 0 0 0-1.76-.73c-.71 0-1.3.25-1.78.73a2.41 2.41 0 0 0-.72 1.78 2.46 2.46 0 0 0 2.5 2.5Zm14.55.1a3.55 3.55 0 0 1-2.62 1.07c-1.02 0-1.9-.35-2.61-1.06a3.56 3.56 0 0 1-1.07-2.62 3.62 3.62 0 0 1 3.68-3.68c1.03 0 1.9.35 2.62 1.06.72.71 1.08 1.58 1.08 2.62s-.36 1.9-1.08 2.62Zm-2.62-.12a2.41 2.41 0 0 0 2.48-2.5c0-.7-.24-1.3-.71-1.77a2.4 2.4 0 0 0-1.77-.71 2.41 2.41 0 0 0-2.46 2.5 2.42 2.42 0 0 0 2.46 2.48Zm8.48-7.8c-1.24-.1-1.85.43-1.85 1.6v.21h1.85v1.18h-1.85V288h-1.22v-5.82h-1.12V281h1.12v-.21c0-.94.26-1.66.78-2.14.54-.49 1.3-.7 2.29-.63v1.17Zm11.98 1.63c.79 0 1.42.25 1.9.77.5.5.74 1.19.74 2.06V288h-1.22v-4.31c0-.54-.14-.96-.42-1.26-.28-.3-.66-.45-1.12-.45-.53 0-.95.18-1.26.53-.31.35-.47.88-.47 1.6V288h-1.21v-4.31c0-.54-.14-.96-.4-1.26-.27-.3-.63-.45-1.09-.45-.51 0-.94.18-1.29.53-.33.36-.5.89-.5 1.6V288h-1.22v-7h1.22v.94a2.32 2.32 0 0 1 2.09-1.12c.94 0 1.63.4 2.06 1.19a2.4 2.4 0 0 1 2.2-1.2Zm9.06.18h1.3l-2.85 7.43c-.3.8-.72 1.4-1.26 1.81a2.6 2.6 0 0 1-1.85.56v-1.13c.86.06 1.49-.42 1.89-1.43l.12-.27-3.05-6.97h1.3l2.38 5.49 2.02-5.49Zm-269.56 18.73a.8.8 0 0 1-.59-.24.78.78 0 0 1-.24-.58c0-.22.08-.41.24-.57a.78.78 0 0 1 .59-.25c.22 0 .42.08.57.25.16.16.24.35.24.57 0 .23-.08.42-.24.58a.78.78 0 0 1-.57.24Zm-.62 8.27v-7h1.22v7h-1.22Zm6.57-7.18c.82 0 1.48.26 1.97.78.5.51.74 1.21.74 2.1v4.3h-1.22v-4.23c0-.57-.15-1-.46-1.31a1.7 1.7 0 0 0-1.27-.48c-.6 0-1.1.2-1.47.57-.38.38-.56.96-.56 1.74V308H136v-7h1.22v1a2.5 2.5 0 0 1 2.27-1.18Zm8.28 0c.98 0 1.81.36 2.5 1.08a3.6 3.6 0 0 1 1.04 2.6c0 1.03-.35 1.9-1.04 2.62a3.39 3.39 0 0 1-2.5 1.06 2.97 2.97 0 0 1-2.65-1.38v1.2h-1.22v-9.8h1.22v4a2.97 2.97 0 0 1 2.65-1.38Zm-.16 6.19a2.46 2.46 0 0 0 2.48-2.5c0-.72-.24-1.31-.71-1.79a2.37 2.37 0 0 0-1.77-.73c-.7 0-1.3.25-1.78.73a2.41 2.41 0 0 0-.7 1.78 2.46 2.46 0 0 0 2.48 2.5Zm11.06.1a3.57 3.57 0 0 1-2.62 1.07c-1.03 0-1.9-.35-2.62-1.06a3.56 3.56 0 0 1-1.06-2.62 3.64 3.64 0 0 1 3.68-3.68c1.03 0 1.9.35 2.62 1.06.72.71 1.08 1.58 1.08 2.62s-.36 1.9-1.08 2.62Zm-2.62-.12a2.41 2.41 0 0 0 2.48-2.5c0-.7-.24-1.3-.71-1.77a2.4 2.4 0 0 0-1.77-.71 2.41 2.41 0 0 0-2.46 2.5 2.42 2.42 0 0 0 2.46 2.48Zm10.72 1.01h-1.43l-1.96-2.65-1.97 2.65h-1.43l2.69-3.6-2.54-3.4h1.44l1.81 2.44 1.8-2.44h1.43l-2.52 3.39 2.68 3.61Z" fill="#5E5F5D"/>
        <g filter="url(#e)">
          <path d="M113 384h360v68H113z" fill="#fff"/>
          <rect fill="#141414" height="38" rx="4" width="79" x="345" y="393"/>
          <path d="m380.07 417-.59-1.76h-3.9l-.6 1.76h-2.08l3.43-9.8h2.4l3.44 9.8h-2.1Zm-3.88-3.57h2.7l-1.35-4-1.35 4Zm8.55-1.44c0 .19.12.34.36.46a6 6 0 0 0 .91.3c.36.1.7.2 1.06.34a2 2 0 0 1 .9.68c.25.31.38.71.38 1.19 0 .72-.27 1.27-.81 1.66-.54.38-1.2.58-2 .58-1.44 0-2.42-.56-2.95-1.67l1.57-.88c.2.6.66.9 1.37.9.65 0 .97-.2.97-.6 0-.18-.13-.33-.38-.44a4.69 4.69 0 0 0-.9-.32c-.35-.1-.7-.21-1.06-.35a2.26 2.26 0 0 1-.9-.66 1.8 1.8 0 0 1-.37-1.15c0-.7.25-1.23.75-1.62a3 3 0 0 1 1.9-.6c.58 0 1.1.13 1.56.39.47.25.84.61 1.1 1.09l-1.53.84c-.23-.48-.6-.72-1.12-.72a1 1 0 0 0-.59.16.49.49 0 0 0-.22.42Zm11.32 5.01h-2.1l-2.54-3.18V417h-1.81v-9.8h1.8v5.88l2.41-3.08h2.16l-2.81 3.46 2.9 3.54Z" fill="#fff"/>
          <path d="M141.43 414.47c0 1.06-.33 1.92-1 2.58a4.44 4.44 0 0 1-2.63 1.17v1.58h-1.21v-1.57c-1-.07-1.87-.35-2.6-.84a4.08 4.08 0 0 1-1.54-2l2.14-1.24c.39.96 1.05 1.5 2 1.64v-3.12h-.02l-.03-.02a7.98 7.98 0 0 1-1.96-.94 3.84 3.84 0 0 1-.83-.7 3.56 3.56 0 0 1-.74-2.21c0-1.05.34-1.9 1.02-2.54.7-.63 1.55-1 2.56-1.1v-1.56h1.2v1.6a4.08 4.08 0 0 1 3.46 2.54l-2.09 1.22c-.28-.72-.74-1.15-1.36-1.31v3c1.11.45 1.86.8 2.25 1.07a3.2 3.2 0 0 1 1.38 2.75Zm-5.96-5.65c0 .26.09.5.26.7.16.2.45.4.86.6v-2.52c-.36.07-.64.21-.83.43-.19.21-.29.48-.29.79Zm2.33 6.93c.76-.17 1.15-.59 1.15-1.26 0-.3-.1-.55-.29-.76-.18-.2-.47-.4-.86-.57v2.59Zm7.84-10.35h2.16V418h-2.49v-9.97l-2.37.66-.61-2.12 3.3-1.17Zm9.37 12.85a4.4 4.4 0 0 1-3.7-1.78c-.9-1.2-1.34-2.79-1.34-4.77 0-1.98.44-3.56 1.33-4.75.9-1.2 2.14-1.8 3.71-1.8 1.58 0 2.82.6 3.7 1.8.9 1.19 1.34 2.77 1.34 4.75s-.44 3.57-1.33 4.77a4.37 4.37 0 0 1-3.71 1.78Zm-1.9-3.47a2.1 2.1 0 0 0 1.9 1.04 2.1 2.1 0 0 0 1.9-1.06c.45-.7.67-1.73.67-3.06a5.9 5.9 0 0 0-.66-3.08 2.1 2.1 0 0 0-1.91-1.06 2.1 2.1 0 0 0-1.9 1.06c-.44.71-.66 1.74-.66 3.08s.22 2.37.65 3.08Z" fill="#141414"/>
        </g>
      </g>
    </g>
  </g>
  <defs>
    <clipPath id="a">
      <rect fill="#fff" height="546" rx="80" width="557"/>
    </clipPath>
    <clipPath id="c">
      <rect fill="#fff" height="357" rx="24" width="328" x="114" y="95"/>
    </clipPath>
    <clipPath id="d">
      <path d="M114 95h328v118H114z" fill="#fff"/>
    </clipPath>
    <filter color-interpolation-filters="sRGB" filterUnits="userSpaceOnUse" height="405" id="b" width="376" x="94" y="75">
      <feFlood flood-opacity="0" result="BackgroundImageFix"/>
      <feColorMatrix in="SourceAlpha" result="hardAlpha" values="0 0 0 0 0 0 0 0 0 0 0 0 0 0 0 0 0 0 127 0"/>
      <feOffset dx="4" dy="4"/>
      <feGaussianBlur stdDeviation="12"/>
      <feComposite in2="hardAlpha" operator="out"/>
      <feColorMatrix values="0 0 0 0 0 0 0 0 0 0 0 0 0 0 0 0 0 0 0.12 0"/>
      <feBlend in2="BackgroundImageFix" result="effect1_dropShadow_7266_21854"/>
      <feBlend in="SourceGraphic" in2="effect1_dropShadow_7266_21854" result="shape"/>
    </filter>
    <filter color-interpolation-filters="sRGB" filterUnits="userSpaceOnUse" height="76" id="e" width="368" x="109" y="376">
      <feFlood flood-opacity="0" result="BackgroundImageFix"/>
      <feColorMatrix in="SourceAlpha" result="hardAlpha" values="0 0 0 0 0 0 0 0 0 0 0 0 0 0 0 0 0 0 127 0"/>
      <feOffset dy="-4"/>
      <feGaussianBlur stdDeviation="2"/>
      <feComposite in2="hardAlpha" operator="out"/>
      <feColorMatrix values="0 0 0 0 0 0 0 0 0 0 0 0 0 0 0 0 0 0 0.05 0"/>
      <feBlend in2="BackgroundImageFix" result="effect1_dropShadow_7266_21854"/>
      <feBlend in="SourceGraphic" in2="effect1_dropShadow_7266_21854" result="shape"/>
    </filter>
  </defs>
</svg>