<?xml version="1.0" encoding="utf-8"?>
<svg xmlns="http://www.w3.org/2000/svg" fill="none" viewBox="0 0 557 546">
  <g clip-path="url(#a)">
    <rect fill="#F8CECA" height="546" rx="80" width="557"/>
    <g filter="url(#b)">
      <g clip-path="url(#c)">
        <rect fill="#fff" height="357" rx="24" width="328" x="114" y="95"/>
        <rect fill="#fff" height="64" rx="3" width="64" x="361" y="203"/>
        <path d="M388.04 216.3v7.7h-1.01v-6.02l-2.52 4.2h-.13l-2.52-4.19V224h-1.02v-7.7h1.15l2.45 4.07 2.45-4.07h1.15Zm6.34 7a2.8 2.8 0 0 1-2.06.84c-.8 0-1.49-.28-2.05-.83a2.8 2.8 0 0 1-.84-2.06c0-.81.28-1.5.84-2.06a2.82 2.82 0 0 1 2.05-.83c.81 0 1.5.28 2.06.83.56.56.85 1.25.85 2.06s-.29 1.5-.85 2.06Zm-2.06-.1a1.9 1.9 0 0 0 1.95-1.96 1.9 1.9 0 0 0-.56-1.39 1.88 1.88 0 0 0-1.39-.56c-.54 0-1 .19-1.37.56a1.9 1.9 0 0 0-.56 1.4 1.92 1.92 0 0 0 1.93 1.96Zm6.93-4.84c.64 0 1.16.2 1.55.61.38.4.58.96.58 1.65V224h-.96v-3.32c0-.45-.12-.8-.36-1.04a1.33 1.33 0 0 0-1-.37c-.48 0-.86.15-1.16.45-.29.3-.44.75-.44 1.37V224h-.95v-5.5h.95v.8c.4-.63.99-.94 1.79-.94Z" fill="#525252"/>
        <path d="M378.7 246.88a3 3 0 0 1-2.6 1.29 3 3 0 0 1-2.58-1.29c-.62-.86-.92-2-.92-3.43 0-1.43.3-2.57.92-3.43a3 3 0 0 1 2.59-1.29 3 3 0 0 1 2.58 1.29c.62.86.93 2 .93 3.43 0 1.43-.31 2.57-.93 3.43Zm-4.3-.82c.4.62.97.93 1.7.93.74 0 1.31-.31 1.71-.93.4-.61.61-1.48.61-2.61s-.2-2-.61-2.61a1.9 1.9 0 0 0-1.7-.94c-.74 0-1.3.3-1.7.92-.4.62-.6 1.5-.6 2.63s.2 2 .6 2.61Zm8.27-7.16h1.04v9.1h-1.2v-7.8l-1.93.57-.3-1.04 2.4-.83Zm14.15 7.9a4.52 4.52 0 0 1-3.34 1.37 4.52 4.52 0 0 1-3.34-1.38 4.57 4.57 0 0 1-1.37-3.34c0-1.32.46-2.43 1.37-3.34a4.52 4.52 0 0 1 3.34-1.38c1.32 0 2.43.46 3.34 1.38a4.53 4.53 0 0 1 1.38 3.34c0 1.3-.46 2.42-1.38 3.34Zm-5.85-.83a3.4 3.4 0 0 0 2.51 1.02 3.45 3.45 0 0 0 3.51-3.54c0-1-.34-1.85-1.01-2.52a3.34 3.34 0 0 0-2.5-1.03c-1 0-1.83.34-2.5 1.03-.68.67-1 1.51-1 2.52 0 1 .32 1.84 1 2.52Zm11.77 2.2a3.32 3.32 0 0 1-3.42-3.42c0-.97.33-1.78.98-2.43a3.3 3.3 0 0 1 2.44-.99c.64 0 1.22.16 1.73.47.51.3.9.71 1.14 1.23l-.94.55a1.91 1.91 0 0 0-.77-.83 2.17 2.17 0 0 0-1.16-.31 2.23 2.23 0 0 0-2.29 2.31 2.25 2.25 0 0 0 2.3 2.3c.42 0 .81-.1 1.16-.3.35-.2.61-.48.8-.83l.96.56a3.2 3.2 0 0 1-1.2 1.23c-.52.3-1.1.46-1.73.46Zm7.73-5.58h-1.73v3.53c0 .32.06.54.18.68.13.13.33.2.59.21.26 0 .58 0 .96-.02V248c-.99.13-1.71.05-2.17-.23-.46-.3-.7-.85-.7-1.66v-3.52h-1.28v-1.09h1.29v-1.48l1.13-.34v1.82h1.73v1.1Z" fill="#141414"/>
        <rect height="63" rx="2.5" stroke="#000" stroke-opacity=".05" width="63" x="361.5" y="203.5"/>
        <rect fill="#fff" height="64" rx="3" width="64" x="130" y="203"/>
        <path d="M159.26 217.27h-3.41v2.5h3.27v.96h-3.27V224h-1.02v-7.7h4.43v.97Zm2.25 2.15c.31-.68.88-1.02 1.71-1.02v1c-.47-.02-.87.1-1.2.38-.35.27-.51.7-.51 1.3V224h-.96v-5.5h.96v.92Zm3.28-1.92a.63.63 0 0 1-.46-.19.61.61 0 0 1-.19-.45c0-.18.07-.33.19-.45.13-.13.28-.2.46-.2a.6.6 0 0 1 .45.2c.13.13.19.28.19.45 0 .18-.06.33-.19.45a.61.61 0 0 1-.45.19Zm-.48 6.5v-5.5h.95v5.5h-.95Z" fill="#525252"/>
        <path d="M139.82 248v-.99l3.22-3.27c.85-.86 1.28-1.6 1.28-2.21 0-.52-.15-.91-.47-1.2-.3-.29-.69-.43-1.14-.43-.86 0-1.48.4-1.87 1.22l-1.02-.6a3.09 3.09 0 0 1 2.88-1.79c.76 0 1.42.25 1.99.76.56.5.84 1.17.84 2.02 0 .92-.54 1.92-1.62 3l-2.33 2.32h4.12V248h-5.88Zm13.13-6.21c0 .7-.18 1.3-.55 1.83l-2.93 4.38h-1.37l2.16-3.19-.44.03c-.92 0-1.67-.28-2.26-.84a2.97 2.97 0 0 1-.87-2.21c0-.9.29-1.64.87-2.2a3.12 3.12 0 0 1 2.26-.86c.92 0 1.67.29 2.25.86.59.56.88 1.3.88 2.2Zm-4.53-1.38c-.36.34-.54.8-.54 1.38 0 .57.18 1.03.54 1.39.36.34.83.52 1.4.52a1.9 1.9 0 0 0 1.4-.52c.36-.36.54-.82.54-1.4 0-.57-.18-1.03-.53-1.37a1.92 1.92 0 0 0-1.4-.52c-.58 0-1.05.17-1.41.52Zm12.36 7.76c-.85 0-1.57-.2-2.18-.6-.6-.4-1.02-.94-1.26-1.64l1.04-.6c.35 1.1 1.16 1.66 2.43 1.66.62 0 1.1-.13 1.43-.38.33-.26.5-.6.5-1.03 0-.43-.17-.76-.5-.97a7.08 7.08 0 0 0-1.65-.7 10.25 10.25 0 0 1-1.63-.62 2.6 2.6 0 0 1-.66-.46 2.22 2.22 0 0 1-.57-1.52c0-.8.27-1.42.83-1.88.55-.47 1.23-.7 2.03-.7a3.25 3.25 0 0 1 3.07 1.99l-1 .59c-.4-.94-1.09-1.4-2.07-1.4-.5 0-.9.11-1.2.35-.3.25-.45.58-.45 1 0 .4.14.7.43.9.28.21.78.43 1.48.65a26.65 26.65 0 0 1 1.01.35 6.15 6.15 0 0 1 1.31.7c.1.1.2.2.3.33a1 1 0 0 1 .26.38c.06.13.1.28.13.45.05.17.07.34.07.54 0 .8-.3 1.43-.87 1.9a3.5 3.5 0 0 1-2.28.7Zm5.56-2.9c.11.58.38 1.03.8 1.35.42.32.94.48 1.55.48.86 0 1.48-.31 1.87-.95l.97.55a3.18 3.18 0 0 1-2.87 1.47 3.44 3.44 0 0 1-2.52-.96 3.36 3.36 0 0 1-.96-2.46 3.28 3.28 0 0 1 3.4-3.42c.96 0 1.74.34 2.33 1.01a3.46 3.46 0 0 1 .88 2.93h-5.45Zm2.25-2.87a2.16 2.16 0 0 0-2.25 1.88h4.34a2.17 2.17 0 0 0-.73-1.4 2.08 2.08 0 0 0-1.36-.48Zm8.27-1.07c.91 0 1.69.33 2.33 1 .64.66.96 1.47.96 2.42s-.32 1.76-.96 2.43c-.64.66-1.42.99-2.33.99-1.07 0-1.9-.43-2.45-1.29v3.72h-1.13v-9.1h1.13v1.12a2.76 2.76 0 0 1 2.45-1.29Zm-.14 5.75a2.28 2.28 0 0 0 2.3-2.33c0-.66-.22-1.2-.66-1.65a2.2 2.2 0 0 0-1.64-.68c-.66 0-1.2.23-1.65.68-.44.44-.66 1-.66 1.65a2.28 2.28 0 0 0 2.31 2.33Z" fill="#141414"/>
        <rect height="63" rx="2.5" stroke="#000" stroke-opacity=".05" width="63" x="130.5" y="203.5"/>
        <rect fill="#000" fill-opacity=".03" height="63" rx="2.5" width="63" x="207.5" y="203.5"/>
        <path d="M231.36 224.14a3.3 3.3 0 0 1-1.85-.5c-.5-.34-.86-.8-1.07-1.39l.88-.5c.3.93.99 1.4 2.06 1.4.53 0 .93-.11 1.21-.33.28-.22.42-.5.42-.87a.92.92 0 0 0-.42-.82 6.03 6.03 0 0 0-1.4-.58l-.73-.25a8.82 8.82 0 0 1-.64-.28 2.15 2.15 0 0 1-.56-.4 1.85 1.85 0 0 1-.48-1.29c0-.66.23-1.19.7-1.58.47-.4 1.04-.6 1.71-.6a2.77 2.77 0 0 1 2.61 1.69l-.86.5c-.33-.8-.91-1.2-1.75-1.2-.41 0-.75.11-1 .32-.27.2-.4.48-.4.83 0 .34.13.6.37.77.24.18.66.36 1.25.55a32.36 32.36 0 0 1 .86.3 5.18 5.18 0 0 1 1.11.6c.08.06.16.16.25.27.1.1.18.2.22.32a2.22 2.22 0 0 1 .17.83c0 .68-.25 1.22-.74 1.62-.49.4-1.13.6-1.92.6Zm8.6-5.64h.96v5.5h-.95v-.95a2.33 2.33 0 0 1-2.08 1.1c-.77 0-1.43-.29-1.97-.84a2.86 2.86 0 0 1-.82-2.06c0-.8.27-1.49.82-2.05.54-.56 1.2-.84 1.97-.84.9 0 1.6.36 2.08 1.09v-.95Zm-1.95 4.72a1.93 1.93 0 0 0 1.96-1.97 1.9 1.9 0 0 0-.57-1.4 1.88 1.88 0 0 0-1.4-.57c-.54 0-1 .2-1.38.57a1.9 1.9 0 0 0-.56 1.4c0 .56.19 1.03.56 1.4.38.38.84.57 1.39.57Zm7.5-3.8h-1.46v2.99c0 .27.05.46.16.58.1.1.27.17.49.17.22 0 .5 0 .81-.02v.86c-.83.11-1.44.04-1.83-.2-.4-.25-.59-.71-.59-1.4v-2.98H242v-.92h1.1v-1.25l.95-.29v1.54h1.46v.92Z" fill="#525252"/>
        <path d="M220.73 242.6a3 3 0 0 1 1.5.95c.38.45.58 1 .58 1.64 0 .94-.32 1.67-.95 2.2-.62.53-1.4.8-2.3.8a3.8 3.8 0 0 1-1.91-.49 2.84 2.84 0 0 1-1.21-1.44l1.53-.89c.23.7.76 1.06 1.59 1.06.46 0 .81-.11 1.06-.33.26-.22.4-.53.4-.9 0-.38-.14-.68-.4-.9-.25-.23-.6-.34-1.06-.34h-.4l-.68-1.04 1.8-2.34h-3.57v-1.68h5.72v1.48l-1.7 2.21Zm6.74 5.58a3.17 3.17 0 0 1-2.68-1.28 5.65 5.65 0 0 1-.96-3.45c0-1.43.32-2.57.96-3.43a3.16 3.16 0 0 1 2.68-1.3c1.14 0 2.03.43 2.68 1.3.64.86.96 2 .96 3.43 0 1.43-.32 2.58-.96 3.45a3.15 3.15 0 0 1-2.68 1.28Zm-1.38-2.5c.31.5.77.75 1.38.75.6 0 1.06-.26 1.38-.77a4.2 4.2 0 0 0 .48-2.21 4.2 4.2 0 0 0-.48-2.22 1.52 1.52 0 0 0-1.38-.77c-.6 0-1.07.26-1.38.77a4.3 4.3 0 0 0-.47 2.22c0 .97.16 1.71.47 2.22Zm12.97 2.5c-.9 0-1.66-.2-2.27-.6a3.27 3.27 0 0 1-1.3-1.65l1.53-.9c.36.93 1.06 1.4 2.1 1.4.5 0 .87-.1 1.1-.28a.84.84 0 0 0 .35-.69.82.82 0 0 0-.43-.74c-.28-.18-.8-.37-1.53-.58-.4-.12-.76-.24-1.04-.36a4.98 4.98 0 0 1-.85-.49c-.27-.2-.49-.46-.63-.78a2.54 2.54 0 0 1-.22-1.09c0-.82.29-1.48.87-1.96a3.2 3.2 0 0 1 2.12-.74c.73 0 1.38.18 1.93.54.57.36 1 .86 1.32 1.5l-1.51.87c-.37-.78-.95-1.17-1.74-1.17-.38 0-.67.09-.89.26a.79.79 0 0 0-.31.65c0 .29.12.52.35.7.24.18.7.37 1.38.57a13.46 13.46 0 0 1 1.78.7c.14.1.3.21.47.36a1.77 1.77 0 0 1 .62 1.02c.07.22.1.46.1.72 0 .84-.3 1.5-.92 2-.6.5-1.4.74-2.38.74Zm6.14-2.74c.23.81.84 1.22 1.84 1.22.64 0 1.12-.22 1.45-.65l1.35.78a3.22 3.22 0 0 1-2.83 1.4 3.5 3.5 0 0 1-2.59-.98 3.33 3.33 0 0 1-.97-2.46 3.34 3.34 0 0 1 3.43-3.43c.95 0 1.74.33 2.35.99.63.66.94 1.47.94 2.44 0 .22-.02.45-.07.69h-4.9Zm-.02-1.3h3.31c-.1-.44-.3-.77-.6-.99-.3-.22-.63-.32-1.01-.32-.45 0-.82.11-1.12.35-.3.22-.49.54-.58.96Zm10.1-2.82c.87 0 1.61.33 2.23 1 .62.66.94 1.47.94 2.43 0 .96-.32 1.78-.94 2.44-.62.66-1.36 1-2.24 1-.9 0-1.6-.32-2.1-.96v3.37h-1.68v-9.1h1.68v.77a2.5 2.5 0 0 1 2.1-.95Zm-1.6 4.76c.33.33.76.5 1.28.5s.95-.17 1.29-.5c.34-.35.52-.8.52-1.33 0-.54-.18-.97-.52-1.31a1.72 1.72 0 0 0-1.29-.52c-.52 0-.95.17-1.29.52-.33.34-.5.77-.5 1.31s.17.98.5 1.33Z" fill="#141414"/>
        <rect height="63" rx="2.5" stroke="#000" width="63" x="207.5" y="203.5"/>
        <rect fill="#fff" height="64" rx="3" width="64" x="284" y="203"/>
        <path d="M307.77 224.14a3.3 3.3 0 0 1-1.85-.5c-.5-.34-.86-.8-1.06-1.39l.88-.5c.3.93.98 1.4 2.05 1.4.53 0 .94-.11 1.21-.33.28-.22.42-.5.42-.87a.92.92 0 0 0-.42-.82 5.99 5.99 0 0 0-1.4-.58l-.73-.25a9.23 9.23 0 0 1-.64-.28 2.18 2.18 0 0 1-.56-.4 1.87 1.87 0 0 1-.48-1.29c0-.66.23-1.19.7-1.58.47-.4 1.04-.6 1.72-.6.6 0 1.13.16 1.58.47.46.3.8.71 1.02 1.22l-.85.5c-.33-.8-.92-1.2-1.75-1.2-.42 0-.76.11-1.01.32a1 1 0 0 0-.39.83c0 .34.12.6.36.77.25.18.66.36 1.26.55a28.45 28.45 0 0 1 .86.3 5.02 5.02 0 0 1 1.1.6 4.82 4.82 0 0 1 .48.59c.04.1.08.23.1.38.05.14.06.3.06.45 0 .68-.24 1.22-.73 1.62-.5.4-1.14.6-1.93.6Zm7.72-5.64h.96v5.5h-.96v-.8c-.39.63-.98.94-1.78.94-.65 0-1.16-.2-1.55-.6a2.32 2.32 0 0 1-.58-1.66v-3.38h.95v3.32c0 .45.12.8.37 1.05.24.24.57.36 1 .36.47 0 .86-.15 1.15-.44.3-.3.44-.76.44-1.38v-2.91Zm5.3-.14c.65 0 1.17.2 1.56.61.38.4.58.96.58 1.65V224h-.96v-3.32c0-.45-.12-.8-.36-1.04a1.33 1.33 0 0 0-1-.37c-.48 0-.86.15-1.16.45-.3.3-.44.75-.44 1.37V224h-.95v-5.5h.95v.8c.4-.63.99-.94 1.79-.94Z" fill="#525252"/>
        <path d="M299.16 242.63a3 3 0 0 1 1.7.9c.44.47.66 1.06.66 1.78 0 .88-.3 1.58-.9 2.1a3.4 3.4 0 0 1-2.22.76c-.69 0-1.3-.16-1.84-.47a2.65 2.65 0 0 1-1.15-1.38l1.02-.6c.27.85.93 1.27 1.97 1.27.57 0 1.03-.15 1.38-.45.36-.3.54-.7.54-1.23s-.18-.94-.54-1.24c-.35-.3-.81-.45-1.38-.45h-.3l-.49-.74 2.1-2.85h-4.04v-1.13h5.46v1.07l-1.97 2.66Zm5.4-3.73h1.05v9.1h-1.2v-7.8l-1.94.57-.3-1.04 2.4-.83Zm9.53 9.27a3.9 3.9 0 0 1-2.19-.6c-.6-.4-1.01-.94-1.26-1.64l1.04-.6c.36 1.1 1.17 1.66 2.44 1.66.62 0 1.1-.13 1.43-.38.32-.26.49-.6.49-1.03 0-.43-.17-.76-.5-.97a7.1 7.1 0 0 0-1.65-.7c-.38-.11-.67-.2-.87-.28a11 11 0 0 1-.75-.34c-.3-.15-.52-.3-.66-.46a2.2 2.2 0 0 1-.57-1.52c0-.8.27-1.42.83-1.88.55-.47 1.23-.7 2.02-.7a3.31 3.31 0 0 1 3.08 1.99l-1 .59c-.4-.94-1.09-1.4-2.08-1.4-.49 0-.89.11-1.2.35-.3.25-.45.58-.45 1 0 .4.15.7.43.9.29.21.78.43 1.48.65a29.01 29.01 0 0 1 1.02.35 6.32 6.32 0 0 1 1.31.7l.3.33c.12.12.2.25.26.38.05.13.1.28.13.45.04.17.06.34.06.54 0 .8-.29 1.43-.87 1.9a3.5 3.5 0 0 1-2.27.7Zm5.56-2.9c.1.58.37 1.03.79 1.35.42.32.94.48 1.56.48.86 0 1.48-.31 1.87-.95l.96.55a3.18 3.18 0 0 1-2.86 1.47 3.44 3.44 0 0 1-2.52-.96 3.36 3.36 0 0 1-.96-2.46 3.28 3.28 0 0 1 3.4-3.42c.96 0 1.73.34 2.33 1.01a3.46 3.46 0 0 1 .87 2.93h-5.44Zm2.24-2.87a2.2 2.2 0 0 0-2.25 1.88H324a2.17 2.17 0 0 0-.73-1.4 2.08 2.08 0 0 0-1.37-.48Zm8.28-1.07c.9 0 1.69.33 2.33 1 .64.66.96 1.47.96 2.42s-.32 1.76-.96 2.43c-.64.66-1.42.99-2.33.99-1.08 0-1.9-.43-2.46-1.29v3.72h-1.13v-9.1h1.13v1.12a2.76 2.76 0 0 1 2.46-1.29Zm-.14 5.75a2.28 2.28 0 0 0 2.3-2.33c0-.66-.22-1.2-.67-1.65a2.2 2.2 0 0 0-1.63-.68c-.66 0-1.21.23-1.65.68-.45.44-.67 1-.67 1.65a2.28 2.28 0 0 0 2.32 2.33Z" fill="#141414"/>
        <rect height="63" rx="2.5" stroke="#000" stroke-opacity=".05" width="63" x="284.5" y="203.5"/>
        <circle cx="158" cy="143" r="28" stroke="url(#d)" stroke-dasharray="3 5" stroke-linecap="round"/>
        <circle cx="158" cy="143" fill="url(#e)" r="24"/>
        <g filter="url(#f)">
          <g clip-path="url(#g)" clip-rule="evenodd" fill-rule="evenodd">
            <path d="M175.6 174.54a111.97 111.97 0 0 1-.75-4.88c-.05-.37-.12-.8.13-1.06.35-.39.67-.72.72-1.27.04-.51-.14-1.08-.25-1.58-.23-1.05-.51-2.1-.83-3.12a95.55 95.55 0 0 0-1.03-3.12c-.34-.97-.66-1.95-1.1-2.87a8.43 8.43 0 0 0-3.95-3.94c-.43-.22-1.3-1-1.75-1.16-.41-.16-.41.3-.82.13a1.63 1.63 0 0 1-.8-.64c-.2-.34-.7-.82-.78-1.21-.16-.84.02-1.55-.58-2.18a4.37 4.37 0 0 0-2-1.15c-1.62-.46-3.8-.14-4.77 1.37-.47.72-.64 1.6-1.27 2.18-.55.51-.43.86-1.15 1.13-.04.01-1.14-.22-1.18-.2-.78-.17-1.53.3-2.25.56-1.07.41-2.09.94-3.05 1.56a19.31 19.31 0 0 0-4.95 4.76 23.27 23.27 0 0 0-3.7 7.77c-.08.3-.17.62-.07.94.08.25.26.44.48.6.28.2.86.34.85.75 0 .32-.12.65-.17.97l-.16 1.12a57.6 57.6 0 0 0-.53 10.26.6.6 0 0 0 .1.3c-.05.02-.06.12 0 .13.05 0 .1.02.14.03.09.06.2.1.33.11a8 8 0 0 1 .27.01 47.56 47.56 0 0 0 6.28.94c2.38.23 4.74.15 7.12.03a91.3 91.3 0 0 1 7.13-.1c2.39.07 4.77.17 7.15.22a82.3 82.3 0 0 0 7.98-.24c.36-.03.59-.32.52-.68-.43-2.16-.92-4.3-1.3-6.47Z" fill="#D08B5B"/>
            <path d="m151.2 151.54.05-.02c.7-.28 1.43-.72 2.2-.56l.86.16-.32.34-.58.1c1.97 3.25 4.3 4.87 7 4.87 2.68 0 4.72-1.62 6.11-4.86l.2-.06.07.03c.45.17 1.32.94 1.75 1.16a8.43 8.43 0 0 1 3.96 3.94c.42.9.73 1.84 1.05 2.77l.04.1c.35 1.03.7 2.07 1.03 3.12.3.98.58 1.98.8 2.98l.03.14c.11.5.29 1.07.25 1.59-.02.2-.07.36-.14.51l-3.9 1.4 1.86 12.62c-1.7.07-3.4.09-5.1.06-2.4-.05-4.77-.15-7.16-.21a94 94 0 0 0-6.92.08l-.58.03c-2.26.11-4.5.17-6.75-.05l-.16-.01v-1.85l.8-10.28-4.02-.75-3.94-1.9a1.05 1.05 0 0 1-.27-.43 1.5 1.5 0 0 1 .05-.87l.02-.06a23.5 23.5 0 0 1 3.7-7.78 19.3 19.3 0 0 1 4.95-4.75 15.8 15.8 0 0 1 3.05-1.56Z" fill="#EC7495"/>
            <path d="M152.7 150.91c.25 0 .5.03.75.05.02 0 .02.04 0 .04-.44.1-.87.22-1.3.35l-.2.05a12.85 12.85 0 0 0-4.08 1.97c-3.16 2.29-5.45 5.74-6.89 9.3a25.52 25.52 0 0 0-1.18 3.73c-.02.07-.1.25-.05.33.04.06.18.1.24.14l.22.11c.43.23 1.15.59 1.22.62l.12.06c1.83.9 3.8 1.66 5.86 1.71l.01-.18c.1-.97.22-1.95.48-2.89.01-.05.08-.03.09.01.14 1.12.1 2.24.04 3.36-.09 1.99-.2 3.97-.31 5.96l-.19 2.97c-.06 1-.08 2.02-.23 3-.03.22-.29.34-.48.32a.44.44 0 0 1-.38-.44c0-.57.06-1.15.1-1.72l.13-1.64c.15-1.98.33-3.97.49-5.95l.18-2.11c-2.18-.07-4.23-.88-6.18-1.82-.03.64-.1 1.27-.16 1.91a150.7 150.7 0 0 0-.61 8.03l-.05 1.33-.01.45v.33c-.01.22-.04.42-.22.57-.18.16-.43.17-.61 0-.24-.22-.2-.53-.2-.83a63.64 63.64 0 0 1 .1-2.27c.09-1.77.27-3.53.5-5.29l.1-.67c.17-1.26.36-2.55.75-3.76l-.45-.23-.8-.4c-.2-.13-.38-.29-.44-.53-.07-.26.03-.55.1-.81v-.03a25.43 25.43 0 0 1 4.57-9.5 17.09 17.09 0 0 1 4.3-4.02c.8-.52 1.68-.94 2.6-1.24a6.92 6.92 0 0 1 2.07-.37Zm4.37-3.18c.29-.32.87 0 .73.42a5.22 5.22 0 0 1-1.68 2.51 3.85 3.85 0 0 1-2.7.9l.08.12c.67.9 1.38 1.8 2.23 2.54a7.18 7.18 0 0 0 6.4 1.74 5.33 5.33 0 0 0 3.84-3.68.38.38 0 0 1-.23.02c-.38-.08-.75-.47-.99-.75-.26-.3-.46-.63-.6-1-.28-.68-.37-1.55 0-2.2.05-.09.16-.04.16.04l.02.12c.07.62.16 1.21.45 1.77a3.7 3.7 0 0 0 .88 1.12c.13.1.28.17.4.28l.02.03c.02-.25.2-.36.36-.35.17 0 .36.08.43.11 1.14.54 2.18 1.25 3.16 2.03a12.5 12.5 0 0 1 4.28 6.23c.36 1.22.57 2.48.79 3.73l.13.77c.2 1.16.43 2.34.9 3.42.11.28.02.54-.27.65a72 72 0 0 1-1.1.4c.18.77.3 1.56.43 2.34.28 1.64.63 3.28.94 4.92l.44 2.53.23 1.21.12.66v.03c.02.12.05.24.02.35-.04.13-.14.23-.23.32-.08.08-.19.08-.28.04l-.03-.02c-.16-.07-.3-.15-.35-.34-.04-.12-.05-.25-.08-.37a33.2 33.2 0 0 1-.38-2.1l-.07-.44c-.26-1.52-.5-3.04-.62-4.57l-.17-2.03-.04-.5c-.06-.65-.13-1.3-.13-1.96l-.22.08-1.08.38c-.26.09-.6.28-.88.25a.54.54 0 0 1-.33-.15c.1 1.4.23 2.78.4 4.15a94.65 94.65 0 0 0 1.07 6.52l.1.46c.02.18-.03.29-.13.44-.08.11-.24.18-.37.1-.18-.12-.27-.21-.32-.4-.05-.19-.08-.38-.11-.56a72.3 72.3 0 0 1-1.36-14.47c0-.64.03-1.29.07-1.93.05-.64.15-1.28.23-1.92 0-.02.04-.02.04 0 .04.72.1 1.44.13 2.16l.07 2.06c.03.9.07 1.81.13 2.72.1-.11.26-.18.42-.15.22-.05.46-.17.68-.24l.8-.27 1.29-.42a32.82 32.82 0 0 1-.87-3.9l-.1-.6c-.2-1.16-.4-2.33-.77-3.46a11.1 11.1 0 0 0-1.68-3.3 17.89 17.89 0 0 0-2.55-2.67c-.79-.7-1.63-1.32-2.44-2v.15a5.65 5.65 0 0 1-1.73 3.27 6.75 6.75 0 0 1-6.87 1.28 7.96 7.96 0 0 1-4.97-4.96c-.02-.04.04-.05.06-.02l.12.16c0-.02 0-.05.03-.06a6.26 6.26 0 0 0 2.26-1.4 4.86 4.86 0 0 0 1.03-1.6l.02-.06c.08-.24.15-.49.34-.68Z" fill="#000"/>
            <path d="M168.21 137.45c-.11-1.48.07-3.04-.5-4.45-1-2.34-3.8-3.12-5.97-4.01-.88-.26-3.8-.3-4.82-.63-2.3-.77-2.85-1.69-4.69-.22-.3.25-.5.52-.64.89a.5.5 0 0 0 .1.43 2.98 2.98 0 0 0-.72 3.1c1.33 2.81 1.27 4.33.84 7.35-.56 2.82.72 3.85 2.84 5.38-.09.17-.1.4 0 .54 2.45 3.44 7.07 5.08 11.02 3.33 1.6-.71 2.32-2.42 2.73-3.96.48-1.72.63-3.54.24-5.3-.16-.81-.36-1.62-.43-2.45Z" fill="#D08B5B"/>
            <path d="m150.68 133.24 1.46.97 5.2-5.49-1.73-1.36s-3.14 2.32-3.76 2.93c-.62.62-1.17 2.95-1.17 2.95Z" fill="#9FD8E5"/>
            <path d="M154.1 121.01c.3-.04.52.14.62.4v.02l.12.26c.75-.37 1.8-.27 2.28.46.33.53.13 1.16 0 1.71l-.08.37c.16.1.28.29.27.48v.01l-.03.52a2.7 2.7 0 0 0 .49-.68c.41-.62 1.33-.08 1 .58a3.22 3.22 0 0 0-.44.9.5.5 0 0 1 .3.46c.03.55-.26 1-.72 1.3a.5.5 0 0 1-.4.06l-.06.1c.18.14.34.3.49.5.42-.07.85-.1 1.28-.1a2.85 2.85 0 0 1 1.71-.16c.36.07.71.19 1.07.27.37.1.76.1 1.14.16.48.08.9.3 1.16.65.29.01.6.13.85.29l1.76 1.13a.6.6 0 0 1 .27.64v.02l-.02.1.05.07c.17.25.37.52.49.8a8.77 8.77 0 0 1 1.13 2.39c.04.12.07.25.09.38.03.17-.02.31-.04.48l-.08.66c-.02.14-.15.21-.27.22a25.82 25.82 0 0 1 .22 2.68c.14.2.43.37.64.42.3.08.6 0 .87-.1.17-.06.31.15.23.3-.26.45-.83.45-1.26.25a1.2 1.2 0 0 1-.45-.37l.02.46v.14c.1 1.61.28 3.29-.03 4.9a6.16 6.16 0 0 1-5.63 5.05 7.8 7.8 0 0 1-3.31-.6c-.61-.24-.38-.73.05-.6a7.9 7.9 0 0 0 3.27.46c2.83-.37 5.23-1.78 4.98-7.87-.03-.86-.14-1.72-.17-2.58-.02-.85-.01-1.7-.05-2.53l-.01-.3a31.2 31.2 0 0 0-.06-1l-.09-.4a5.8 5.8 0 0 0-.4-1 .27.27 0 0 1-.11.05c-.34.06-.65.05-.97-.1a1.51 1.51 0 0 1-.39-.25.6.6 0 0 1-.12-.15.51.51 0 0 1-.4-.15c-.1-.12-.13-.25-.09-.37l.01-.01h-.01c-.13.33-.38.62-.66.81-.44.31-1 .4-1.52.41a10.5 10.5 0 0 1-2.23-.26l-.02.02c-.5.47-1.19.6-1.81.32-.37-.15-.67-.4-.94-.7 0 .16 0 .3-.02.46v.06c-.03.28-.09.57-.3.77-.34.32-.83.2-1.22-.02v.03l.32 1.08.02.08c.08.25.16.51.19.78.04.5-.3 1.01-.87.84-.3-.09-.53-.34-.76-.54l-.15-.12c.38 1.22.63 2.48.66 3.75 0 .07-.06.12-.13.13-.15 0-.31-.03-.47-.09h-.03c-.26-.04-.5-.13-.72-.28.05.16.07.33.06.5 0 .05-.07.07-.08.02a1.32 1.32 0 0 0-1.46-.96c-.66.13-1.15.7-1.27 1.35-.13.7.11 1.5.57 2.04.2.25.48.45.81.5.15.03.3.02.45-.02l.18-.07c.09-.03.19-.04.27-.08.18-.08.37.1.28.28a.8.8 0 0 1-.3.36c.12.13.22.32.25.37.19.25.38.5.6.72.21.24.45.45.7.65l.1.08c.24.2.46.37.63.65.13.21-.04.5-.3.5-.78 0-1.35-.7-1.76-1.3a3.5 3.5 0 0 1-.17-.27.5.5 0 0 1-.06.08l.05.12c.13.35-.44.59-.61.25a5.08 5.08 0 0 0-.42-.68.36.36 0 0 1-.23-.14l-.4-.57a5.05 5.05 0 0 0-.2-.18l-.06.05c-.09.2-.2.39-.33.56l-.03.04c-.26.32-.6.65-1 .73-.14.03-.26-.13-.15-.23.3-.26.64-.44.9-.73.14-.15.26-.3.37-.47l.02-.04.05-.09-.36-.25c-.33.29-.77.42-1.14.66l-.03.02c-.34.22-.69-.27-.42-.54.3-.3.54-.65.8-.98a2 2 0 0 1-.2-.77l-.02-.23a.92.92 0 0 1-.54-.17l-.06-.04c-.2.06-.4.09-.6.09-.45-.02-.64-.54-.35-.87.3-.34.8-.41 1.2-.25l.05-.02a.47.47 0 0 1 0-.24v-.04a1.11 1.11 0 0 1-.16-.85l.05-.13a.85.85 0 0 1-.06-.26l-.02-.03a.68.68 0 0 1 .03-.85v-.05l-.03-.07c-.19-.2-.32-.42-.3-.7a.72.72 0 0 1 .19-.43.24.24 0 0 1 0-.16 2.53 2.53 0 0 1-.03-1.45.66.66 0 0 1-.03-.24c.01-.37.33-.7.7-.7l.13.02v-.01c.01-.1.04-.2.08-.3a.19.19 0 0 1-.05-.03c-.24.12-.5.22-.76.29-.2.05-.4-.17-.27-.36l.18-.23-.29.02c-.17.03-.37-.1-.48-.26l-.43.41c-.35.35-.9.1-.95-.36a.81.81 0 0 1-.3-.15c-.56.25-1.17.38-1.8.4-.44.03-.7-.5-.49-.86.14-.25.31-.47.51-.66-.3.1-.63.16-.95.2-.18.03-.43-.11-.5-.28a2.14 2.14 0 0 1 .06-1.88l.04-.07.1-.24c-.38-.4-.41-1-.2-1.5a.5.5 0 0 1-.06-.44c.16-.42.39-.81.68-1.15a1.18 1.18 0 0 1-.07-.17c-.17-.5.02-1.1.4-1.45a2 2 0 0 1 .83-.44c.12-.22.28-.42.47-.59l.02-.04c.3-.55.83-.85 1.4-.91a.57.57 0 0 1 .37-.5c.06-.18.15-.36.27-.52.18-.25.5-.37.79-.2.16.09.31.2.46.3a.62.62 0 0 1 .22-.05h.02l.47-.02.6-.27a1.6 1.6 0 0 1 .9-.37 4.4 4.4 0 0 1 1.44-.22l.01-.27v-.05c0-.3.23-.52.5-.57Zm-.34 23.37-.14.02.04.11.12.06a.92.92 0 0 1-.02-.19Zm-2.48-.74-.03.06-.02.03h.2l-.02-.01a1.04 1.04 0 0 1-.13-.08Zm1.34-2.7c.43.03.79.1 1.18.28l.03.02c.34.17.91.49.86.94 0 .13-.1.26-.25.25-.4-.03-.63-.43-.9-.69a4.69 4.69 0 0 0-.95-.69c-.05-.02-.03-.1.02-.1Zm-1.94-5.94c-.1 0-.07.1-.02.02l.02-.02Zm5.53-6.64c-.97.03-1.95.6-2.67 1.18-.63.5-1.18 1.1-1.66 1.75a9.25 9.25 0 0 0-.47 1.63l-.02.07a.92.92 0 0 0-.09.23c.1.1.2.16.33.19a.2.2 0 0 1 .1.05c.1-.17.2-.34.24-.53v-.01a11.12 11.12 0 0 1 2.77-3.12 7.06 7.06 0 0 1 2.08-1.09 2.29 2.29 0 0 0-.61-.35Z" fill="#000"/>
            <path d="M163.8 146.3a1.98 1.98 0 0 1-.82-.64.38.38 0 0 1-.08-.3c.02-.1.08-.2.17-.27a.37.37 0 0 1 .55.09l.01.02c.13.17.3.3.48.4.18.09.38.13.6.1.4-.04.67-.26.96-.55l.1-.11a.17.17 0 0 1 .1-.07.2.2 0 0 1 .22.07l.03.12c-.03.3-.18.58-.41.79a1.82 1.82 0 0 1-1.9.34Zm1.18-4.67c.37.22.92.74.53 1.29-.46.48-1.13-.07-1.46-.32-.3-.2-.65.3-.36.53 2.37 1.75 3.33-1.44 1.47-1.76-.2-.03-.28.2-.18.26Zm-4.25-2.04c.04-.5.8-.61.88-.12.06.45-.02.85-.22 1.25-.19.38-.67.2-.7-.14-.05-.47.01-.68.04-.99Zm5.8-.22c.12-.14.27-.23.45-.18.58.17.4.98.2 1.38-.1.22-.46.27-.62.08-.26-.3-.38-.93-.05-1.23 0-.02.02-.03.03-.05Zm-5.14-1.97.09-.01c.28-.05.63-.1.83.13.1.12.14.34 0 .46-.25.2-.53.12-.83.14-.24.01-.48.05-.72.12-.52.15-.94.42-1.39.72-.06.03-.12-.04-.09-.1.26-.5.76-.9 1.25-1.16.27-.13.56-.24.86-.3Zm4.62-.22.07.01c.76.16 1.74.48 2.1 1.22.02.1 0 .13 0 .14h-.01c-.01.02-.02.04-.07.05l-.03-.01c-.17-.04-.3-.1-.42-.16l-.14-.07a5.76 5.76 0 0 0-1.6-.45.45.45 0 0 1-.22-.09.33.33 0 0 1-.13-.19.34.34 0 0 1 .04-.28c.05-.07.1-.12.18-.15a.41.41 0 0 1 .23-.02Z" fill="#000"/>
            <path d="M166 147.04c-.45-.4-.95-1.2-1.6-.57-.16.18-.23.59-.47.67-.33.1-.65-.24-.76-.5-.45-1.47 1.42-1.87 2.49-1.63.52.2.9 1.07.93 1.52.01.3-.24.74-.59.51Zm3.4-2.25a.3.3 0 0 0-.01-.06.37.37 0 0 0-.46.15l.02.1c-.07.16-.14.36-.24.5l-.06-.01c-1.7.17-.87-1.59-2.58-2.03-1.33-.22-3.72.03-4.35 1.4-.5 2.2-3 .67-3.82-.47a14.47 14.47 0 0 1-2-3.54c-.11-.26-.47-.08-.43.17-.51 1.02-.5 2.23-.62 3.34-.21 2.22-.42 5.32 1.64 6.67 2.69 3.03 9.4 4.1 12.5 1.31 1.07-2.3.94-5.1.41-7.53Z" fill="#000"/>
            <path d="M169.06 142.07c-.32.44-.93.58-1.49.53-1.2-.12-1.58-1.48-1.62-2.54.8.23-.06-1.37 2.69-1.55.97-.08.7.5 1.13.93 0 .9-.16 1.87-.7 2.63Zm-5.73-1.03c-.7 3.31-4.6 2.52-5-.46.38-.27.28-.92.75-1.16.74-.47 1.67-.45 2.5-.44 1.09.07 1.4.52 1.95 1-.03.33-.1.71-.2 1.06Zm7.27-3.08a4.9 4.9 0 0 0-.23-.06l-.29-.05c-1.38-.3-4.58.13-4.7 1.3-.45.16-.83.03-1.34.04-.39-1.62-7.1-1.4-7.42-.42-.31-.1-.77-.07-1.13-.09a9.79 9.79 0 0 0-2.25.22c-1.4.22-3.29.47-2.32 2.2.17.17.45.04.46-.2-.32-.81.4-.91.97-1.15 1.4-.5 2.84-.57 4.29-.41.1.12.27.24.45.3.97.16.46.87 1.07.98-.11 2.5 2.94 3.87 4.7 2.22.7-.69.87-1.7 1.04-2.62a.24.24 0 0 0 .17-.13c.2-.2.34-.4.75-.46.41-.05.73.06.77.1l.04.06.07.08c-.4 2.5 1.53 4.07 3.5 2.78.84-.8 1.02-2.03 1.06-3.12.11-.06.19-.2.15-.37-.06-.23.07-.43.28-.53.26-.14.22-.62-.09-.67Z" fill="#000"/>
          </g>
        </g>
        <circle cx="176" cy="161" fill="#0C76E6" r="7" stroke="#FEE5DB" stroke-width="2"/>
        <path d="M205.71 130.2a2.86 2.86 0 0 1 1.57 2.6 3 3 0 0 1-.98 2.29c-.65.6-1.44.91-2.38.91h-4.8v-11.2h4.45c.92 0 1.69.3 2.32.9.64.58.96 1.32.96 2.2a2.7 2.7 0 0 1-1.14 2.3Zm-2.14-3.67h-2.61v2.94h2.6c.41 0 .75-.14 1.03-.41.28-.3.42-.64.42-1.06 0-.42-.14-.76-.42-1.04a1.37 1.37 0 0 0-1.02-.43Zm.35 7.74c.43 0 .78-.15 1.07-.45.3-.3.45-.68.45-1.12 0-.43-.15-.8-.45-1.1a1.4 1.4 0 0 0-1.07-.46h-2.96v3.13h2.96Zm8.7 1.94a4.1 4.1 0 0 1-2.98-1.22 4.04 4.04 0 0 1-1.24-2.99c0-1.18.41-2.18 1.24-3a4.1 4.1 0 0 1 2.99-1.2c1.18 0 2.18.4 2.99 1.2.82.82 1.23 1.82 1.23 3s-.4 2.18-1.23 3a4.07 4.07 0 0 1-3 1.2Zm-1.77-2.4c.48.48 1.07.72 1.78.72a2.45 2.45 0 0 0 2.5-2.53 2.45 2.45 0 0 0-2.5-2.53 2.45 2.45 0 0 0-2.5 2.53c0 .72.24 1.33.72 1.8Zm11.34 2.4a4.1 4.1 0 0 1-3-1.22 4.04 4.04 0 0 1-1.22-2.99c0-1.18.4-2.18 1.23-3a4.1 4.1 0 0 1 2.99-1.2 4.13 4.13 0 0 1 4.22 4.2c0 1.18-.4 2.18-1.23 3a4.06 4.06 0 0 1-2.99 1.2Zm-1.78-2.4c.48.48 1.08.72 1.78.72s1.3-.24 1.78-.72.72-1.09.72-1.81a2.45 2.45 0 0 0-2.5-2.53 2.45 2.45 0 0 0-2.5 2.53c0 .72.24 1.33.72 1.8Zm14.64 2.19h-2.06l-3.28-3.7v3.7h-1.73v-11.2h1.73v6.74l3.1-3.54h2.11l-3.52 3.92 3.65 4.08Zm6.71-5.8c0 .28.15.49.44.65.3.15.65.28 1.07.4.42.1.85.23 1.28.38.42.15.78.4 1.07.77.3.35.45.8.45 1.34 0 .77-.3 1.38-.9 1.81-.59.44-1.33.66-2.22.66-.8 0-1.47-.17-2.03-.5a2.91 2.91 0 0 1-1.24-1.37l1.5-.87c.27.77.86 1.15 1.77 1.15.9 0 1.36-.3 1.36-.9 0-.25-.15-.46-.45-.62a4.7 4.7 0 0 0-1.07-.4c-.42-.11-.84-.25-1.27-.4a2.7 2.7 0 0 1-1.09-.73c-.28-.35-.43-.8-.43-1.33 0-.74.28-1.33.84-1.78a3.27 3.27 0 0 1 2.1-.67c.65 0 1.24.15 1.75.45a3 3 0 0 1 1.2 1.22l-1.45.81c-.28-.6-.78-.91-1.5-.91-.34 0-.62.07-.84.22a.69.69 0 0 0-.34.63Zm6.98 2.54c.13.6.42 1.07.88 1.4.46.32 1.02.48 1.68.48.92 0 1.6-.33 2.07-.99l1.42.83a3.96 3.96 0 0 1-3.5 1.75 4.3 4.3 0 0 1-3.16-1.19 4.1 4.1 0 0 1-1.2-3.02 4.09 4.09 0 0 1 4.23-4.2c1.17 0 2.13.4 2.88 1.22a4.26 4.26 0 0 1 1.07 3.72h-6.37Zm-.01-1.41h4.7a2.29 2.29 0 0 0-.81-1.47 2.3 2.3 0 0 0-1.48-.5c-.64 0-1.17.18-1.6.53-.42.35-.7.83-.81 1.44Zm9.2-1.12c0 .26.15.48.44.64.3.15.65.28 1.07.4.43.1.85.23 1.28.38.43.15.78.4 1.07.77.3.35.45.8.45 1.34 0 .77-.3 1.38-.9 1.81-.58.44-1.32.66-2.22.66-.79 0-1.47-.17-2.03-.5a2.91 2.91 0 0 1-1.23-1.37l1.48-.87c.28.77.87 1.15 1.78 1.15.9 0 1.36-.3 1.36-.9 0-.25-.15-.46-.45-.62a4.53 4.53 0 0 0-1.07-.4c-.42-.11-.84-.25-1.26-.4-.43-.15-.8-.4-1.1-.73-.28-.35-.43-.8-.43-1.33 0-.74.28-1.33.84-1.78a3.27 3.27 0 0 1 2.1-.67c.65 0 1.24.15 1.75.45.53.29.93.7 1.2 1.22l-1.45.81c-.28-.6-.78-.91-1.5-.91-.34 0-.62.07-.84.22a.69.69 0 0 0-.33.63Zm6.9 0c0 .26.14.48.43.64.3.15.65.28 1.07.4.43.1.85.23 1.28.38.43.15.78.4 1.07.77.3.35.45.8.45 1.34 0 .77-.3 1.38-.9 1.81-.58.44-1.32.66-2.22.66-.79 0-1.47-.17-2.03-.5a2.9 2.9 0 0 1-1.23-1.37l1.48-.87c.28.77.87 1.15 1.78 1.15.9 0 1.36-.3 1.36-.9 0-.25-.15-.46-.45-.62a4.53 4.53 0 0 0-1.07-.4c-.42-.11-.84-.25-1.26-.4-.43-.15-.8-.4-1.1-.73-.28-.35-.42-.8-.42-1.33 0-.74.27-1.33.83-1.78a3.27 3.27 0 0 1 2.1-.67c.65 0 1.24.15 1.75.45.53.29.93.7 1.2 1.22l-1.45.81c-.28-.6-.78-.91-1.5-.91-.34 0-.61.07-.84.22a.69.69 0 0 0-.33.63Zm7.36-3.73a1.1 1.1 0 0 1-1.87-.78c0-.3.1-.56.31-.77.22-.23.48-.34.79-.34.3 0 .57.11.78.34.22.21.32.47.32.77 0 .3-.1.56-.33.78Zm-1.63 9.52v-8h1.72v8h-1.72Zm7.5.2a4.1 4.1 0 0 1-2.99-1.2 4.04 4.04 0 0 1-1.23-3c0-1.18.41-2.18 1.23-3a4.1 4.1 0 0 1 3-1.2c1.18 0 2.18.4 2.99 1.2.82.82 1.23 1.82 1.23 3s-.41 2.18-1.23 3a4.06 4.06 0 0 1-3 1.2Zm-1.77-2.4c.48.49 1.07.73 1.77.73s1.3-.24 1.78-.72.72-1.09.72-1.81a2.45 2.45 0 0 0-2.5-2.53 2.45 2.45 0 0 0-2.5 2.53c0 .72.25 1.33.73 1.8Zm11.77-6c.92 0 1.66.29 2.22.87.57.59.85 1.4.85 2.42V136h-1.73v-4.74c0-.6-.16-1.05-.48-1.37a1.77 1.77 0 0 0-1.3-.48c-.62 0-1.1.19-1.48.57-.37.38-.56.95-.56 1.73V136h-1.73v-8h1.73v1.02c.52-.82 1.35-1.23 2.48-1.23Z" fill="#000"/>
        <path d="M202.21 158.18c-.91 0-1.7-.21-2.35-.64a3.41 3.41 0 0 1-1.36-1.77l1.12-.64c.39 1.19 1.26 1.78 2.62 1.78a2.5 2.5 0 0 0 1.54-.4c.36-.29.53-.66.53-1.11 0-.47-.17-.82-.53-1.05a7.65 7.65 0 0 0-1.78-.75l-.93-.3c-.22-.09-.49-.2-.82-.37a2.78 2.78 0 0 1-.71-.5 2.38 2.38 0 0 1-.62-1.64c0-.85.3-1.52.9-2.02a3.3 3.3 0 0 1 2.18-.75 3.58 3.58 0 0 1 3.32 2.14l-1.09.63a2.25 2.25 0 0 0-2.23-1.51 2 2 0 0 0-1.28.39c-.33.26-.5.62-.5 1.06 0 .43.16.76.47.98.3.23.84.46 1.6.7a35.55 35.55 0 0 1 1.09.38 6.44 6.44 0 0 1 1.41.76 3.93 3.93 0 0 1 .6.75c.06.14.1.3.14.5.05.17.07.36.07.57 0 .86-.31 1.54-.94 2.06a3.8 3.8 0 0 1-2.45.75Zm5.83-3.12c.12.63.4 1.11.85 1.46a2.7 2.7 0 0 0 1.68.51c.92 0 1.6-.34 2.02-1.02l1.03.59a3.42 3.42 0 0 1-3.08 1.58 3.7 3.7 0 0 1-2.71-1.03 3.61 3.61 0 0 1-1.04-2.65 3.53 3.53 0 0 1 3.67-3.68 3.2 3.2 0 0 1 2.5 1.09 3.74 3.74 0 0 1 .94 3.15h-5.86Zm2.42-3.1a2.36 2.36 0 0 0-2.42 2.03h4.67a2.33 2.33 0 0 0-.78-1.5 2.25 2.25 0 0 0-1.47-.52Zm4.88 6.04v-10.22h1.22V158h-1.22Zm3.93-2.94c.13.63.41 1.11.86 1.46a2.7 2.7 0 0 0 1.68.51c.92 0 1.6-.34 2.01-1.02l1.04.59a3.42 3.42 0 0 1-3.08 1.58 3.7 3.7 0 0 1-2.72-1.03 3.61 3.61 0 0 1-1.03-2.65 3.53 3.53 0 0 1 3.67-3.68c1.02 0 1.86.36 2.5 1.09a3.74 3.74 0 0 1 .94 3.15h-5.87Zm2.43-3.1a2.37 2.37 0 0 0-2.42 2.03h4.67a2.33 2.33 0 0 0-.78-1.5 2.25 2.25 0 0 0-1.47-.52Zm8.16 6.22a3.57 3.57 0 0 1-3.68-3.68c0-1.04.35-1.92 1.05-2.62.7-.7 1.57-1.06 2.63-1.06.69 0 1.31.17 1.86.5.55.33.96.77 1.23 1.33l-1.02.59a2.07 2.07 0 0 0-.83-.9 2.33 2.33 0 0 0-1.24-.33c-.7 0-1.29.24-1.77.71-.46.48-.7 1.07-.7 1.78a2.42 2.42 0 0 0 2.47 2.48 2.3 2.3 0 0 0 2.11-1.22l1.04.6a3.6 3.6 0 0 1-3.15 1.83Zm8.16-6h-1.86v3.79c0 .34.06.6.2.74.13.14.34.22.62.23l1.04-.03V158c-1.06.14-1.84.06-2.34-.25-.5-.32-.74-.91-.74-1.78v-3.8h-1.39V151h1.39v-1.6l1.22-.36V151h1.86v1.18Zm10.78-3.98h1.22v9.8h-1.22v-1.2a2.97 2.97 0 0 1-2.65 1.38c-.98 0-1.81-.35-2.5-1.06a3.64 3.64 0 0 1-1.04-2.62c0-1.03.34-1.9 1.04-2.6a3.35 3.35 0 0 1 2.5-1.08c1.16 0 2.04.46 2.65 1.38v-4Zm-2.5 8.8a2.44 2.44 0 0 0 2.5-2.5c0-.7-.24-1.3-.72-1.78a2.4 2.4 0 0 0-1.77-.73c-.7 0-1.3.25-1.77.73a2.41 2.41 0 0 0-.71 1.78c0 .7.24 1.3.71 1.8a2.4 2.4 0 0 0 1.77.7Zm11.36-6h1.22v7h-1.22v-1.2a2.97 2.97 0 0 1-2.65 1.38c-.98 0-1.81-.35-2.5-1.06a3.64 3.64 0 0 1-1.04-2.62c0-1.03.34-1.9 1.04-2.6a3.35 3.35 0 0 1 2.5-1.08c1.16 0 2.04.46 2.65 1.38V151Zm-2.5 6a2.42 2.42 0 0 0 2.5-2.5c0-.7-.24-1.3-.72-1.78a2.4 2.4 0 0 0-1.77-.73c-.7 0-1.3.25-1.77.73a2.41 2.41 0 0 0-.71 1.78c0 .7.24 1.3.71 1.8a2.4 2.4 0 0 0 1.77.7Zm9.37-4.82h-1.86v3.79c0 .34.06.6.2.74.13.14.34.22.62.23l1.04-.03V158c-1.06.14-1.84.06-2.34-.25-.5-.32-.74-.91-.74-1.78v-3.8h-1.39V151h1.39v-1.6l1.22-.36V151h1.86v1.18Zm1.94 2.88c.12.63.4 1.11.85 1.46.46.34 1.02.51 1.68.51.93 0 1.6-.34 2.02-1.02l1.04.59a3.42 3.42 0 0 1-3.08 1.58 3.7 3.7 0 0 1-2.72-1.03 3.62 3.62 0 0 1-1.04-2.65 3.53 3.53 0 0 1 3.67-3.68c1.03 0 1.86.36 2.5 1.09a3.73 3.73 0 0 1 .94 3.15h-5.86Zm2.42-3.1a2.37 2.37 0 0 0-2.42 2.03h4.68a2.33 2.33 0 0 0-.79-1.5 2.25 2.25 0 0 0-1.47-.52Zm16.41 5.63-1.1.63-.99-1.06a3.94 3.94 0 0 1-2.8 1.02 3.6 3.6 0 0 1-2.38-.75 2.6 2.6 0 0 1-.9-2.08 3.04 3.04 0 0 1 1.79-2.83 2.8 2.8 0 0 1-.63-1.77c0-.81.28-1.47.84-1.98.56-.5 1.25-.75 2.04-.75a3.1 3.1 0 0 1 2.93 2l-1.1.63a1.99 1.99 0 0 0-.7-1 1.77 1.77 0 0 0-1.1-.37c-.45 0-.83.13-1.15.4-.3.28-.46.63-.46 1.05 0 .31.07.6.2.84.16.25.38.52.67.83l2.67 2.86c.23-.49.4-1.08.5-1.78l1.12.64a5.88 5.88 0 0 1-.75 2.09l1.3 1.38Zm-4.86-.64a2.8 2.8 0 0 0 1.93-.69l-2.64-2.84c-.45.19-.78.45-1 .79a2 2 0 0 0-.3 1.06c0 .52.17.93.53 1.23.35.3.85.45 1.48.45Zm13.42-4.77h-1.87v3.79c0 .34.07.6.2.74.14.14.35.22.63.23l1.04-.03V158c-1.07.14-1.85.06-2.34-.25-.5-.32-.75-.91-.75-1.78v-3.8h-1.38V151h1.38v-1.6l1.22-.36V151h1.87v1.18Zm2.05-2.45a.8.8 0 0 1-.59-.24.78.78 0 0 1-.23-.58c0-.22.08-.41.24-.57a.78.78 0 0 1 .58-.25c.23 0 .42.08.58.25.16.16.24.35.24.57 0 .23-.08.42-.24.58a.78.78 0 0 1-.58.24Zm-.61 8.27v-7h1.21v7h-1.21Zm10.63-7.18c.79 0 1.42.25 1.9.77.5.5.74 1.19.74 2.06V158h-1.22v-4.31c0-.54-.14-.96-.42-1.26-.28-.3-.66-.45-1.12-.45-.52 0-.94.18-1.26.53-.31.35-.47.88-.47 1.6V158h-1.21v-4.31c0-.54-.14-.96-.4-1.26-.27-.3-.63-.45-1.09-.45-.51 0-.94.18-1.28.53-.34.36-.5.89-.5 1.6V158h-1.23v-7h1.22v.94a2.32 2.32 0 0 1 2.09-1.12c.94 0 1.63.4 2.06 1.19a2.4 2.4 0 0 1 2.2-1.2Zm5.18 4.24c.12.63.4 1.11.85 1.46a2.7 2.7 0 0 0 1.68.51c.93 0 1.6-.34 2.02-1.02l1.03.59a3.42 3.42 0 0 1-3.08 1.58 3.7 3.7 0 0 1-2.71-1.03 3.61 3.61 0 0 1-1.04-2.65 3.53 3.53 0 0 1 3.67-3.68c1.03 0 1.86.36 2.5 1.09a3.74 3.74 0 0 1 .94 3.15h-5.86Zm2.42-3.1a2.37 2.37 0 0 0-2.42 2.03h4.67a2.33 2.33 0 0 0-.78-1.5 2.25 2.25 0 0 0-1.47-.52Z" fill="#5E5F5D"/>
        <g filter="url(#h)">
          <path d="M113 384h360v68H113z" fill="#fff"/>
          <rect fill="#141414" height="38" rx="4" width="79" x="345" y="393"/>
          <path d="M374.9 411.92c.86.5 1.29 1.24 1.29 2.24 0 .83-.3 1.51-.88 2.04-.6.53-1.32.8-2.18.8h-4.15v-9.8h3.86a3 3 0 0 1 2.12.78c.57.52.86 1.17.86 1.98s-.3 1.46-.92 1.96Zm-2.06-2.91h-1.93v2.15h1.93a1.05 1.05 0 0 0 1.05-1.08c0-.3-.1-.56-.3-.77a1 1 0 0 0-.75-.3Zm.3 6.18c.32 0 .6-.1.8-.32.22-.22.33-.5.33-.84 0-.32-.1-.6-.32-.81a1.08 1.08 0 0 0-.81-.34h-2.23v2.31h2.22Zm10.4.94a3.6 3.6 0 0 1-2.63 1.07 3.6 3.6 0 0 1-2.63-1.07 3.6 3.6 0 0 1-1.06-2.63c0-1.04.35-1.9 1.06-2.62a3.58 3.58 0 0 1 2.63-1.08c1.04 0 1.91.36 2.63 1.08.72.71 1.08 1.58 1.08 2.62s-.36 1.91-1.08 2.63Zm-3.99-1.24c.37.36.82.54 1.36.54a1.85 1.85 0 0 0 1.91-1.93 1.88 1.88 0 0 0-1.9-1.93 1.84 1.84 0 0 0-1.9 1.93c0 .56.18 1.02.53 1.39Zm12.4 1.24a3.6 3.6 0 0 1-2.63 1.07 3.6 3.6 0 0 1-3.7-3.7c0-1.04.36-1.9 1.07-2.62a3.58 3.58 0 0 1 2.63-1.08c1.04 0 1.92.36 2.63 1.08.72.71 1.08 1.58 1.08 2.62s-.36 1.91-1.07 2.63Zm-3.99-1.24c.37.36.82.54 1.36.54a1.88 1.88 0 0 0 1.91-1.93 1.88 1.88 0 0 0-1.9-1.93 1.84 1.84 0 0 0-1.9 1.93c0 .56.18 1.02.53 1.39Zm12.9 2.11h-2.1l-2.55-3.18V417h-1.8v-9.8h1.8v5.88l2.4-3.08h2.16l-2.81 3.46 2.9 3.54Z" fill="#fff"/>
          <path d="M136.41 427.2a3.42 3.42 0 0 1-2.88-1.39 6.09 6.09 0 0 1-1.04-3.71 6 6 0 0 1 1.04-3.7 3.4 3.4 0 0 1 2.88-1.4c1.23 0 2.2.47 2.88 1.4.7.93 1.04 2.16 1.04 3.7s-.34 2.78-1.04 3.71a3.4 3.4 0 0 1-2.88 1.39Zm-1.48-2.7c.33.54.83.8 1.48.8s1.15-.27 1.48-.82a4.5 4.5 0 0 0 .52-2.38c0-1.05-.17-1.84-.52-2.4a1.63 1.63 0 0 0-1.48-.82 1.6 1.6 0 0 0-1.48.83c-.34.55-.5 1.35-.5 2.39s.16 1.84.5 2.4Zm6.05-7.3h6.33v1.64l-3.32 8.16h-2.05l3.22-7.95h-4.18v-1.85Zm8.81 4.62c-.23.23-.51.35-.84.35-.33 0-.6-.12-.84-.35a1.15 1.15 0 0 1-.35-.84c0-.33.12-.6.35-.84.23-.23.51-.35.84-.35.33 0 .6.12.84.35.23.23.35.51.35.84 0 .33-.12.6-.35.84Zm0 5.01c-.23.24-.51.35-.84.35-.33 0-.6-.12-.84-.35a1.15 1.15 0 0 1-.35-.84c0-.32.12-.6.35-.84.23-.23.51-.35.84-.35.33 0 .6.12.84.35a1.18 1.18 0 0 1 0 1.68Zm5.69.37a3.42 3.42 0 0 1-2.88-1.39 6.1 6.1 0 0 1-1.04-3.71c0-1.54.35-2.77 1.04-3.7a3.4 3.4 0 0 1 2.88-1.4c1.23 0 2.2.47 2.88 1.4.7.93 1.04 2.16 1.04 3.7s-.34 2.78-1.04 3.71a3.4 3.4 0 0 1-2.88 1.39Zm-1.48-2.7c.33.54.83.8 1.48.8s1.15-.27 1.48-.82a4.5 4.5 0 0 0 .52-2.38c0-1.05-.17-1.84-.52-2.4a1.63 1.63 0 0 0-1.48-.82 1.6 1.6 0 0 0-1.48.83c-.34.55-.5 1.35-.5 2.39s.16 1.84.5 2.4Zm10.55 2.7a3.42 3.42 0 0 1-2.89-1.39 6.09 6.09 0 0 1-1.03-3.71c0-1.54.34-2.77 1.03-3.7a3.4 3.4 0 0 1 2.89-1.4c1.23 0 2.2.47 2.88 1.4a6.03 6.03 0 0 1 1.04 3.7 6.1 6.1 0 0 1-1.04 3.71 3.4 3.4 0 0 1-2.88 1.39Zm-1.49-2.7c.34.54.84.8 1.49.8s1.15-.27 1.48-.82a4.5 4.5 0 0 0 .52-2.38c0-1.05-.17-1.84-.52-2.4a1.63 1.63 0 0 0-1.48-.82c-.66 0-1.15.27-1.49.83-.33.55-.5 1.35-.5 2.39s.17 1.84.5 2.4Zm11.05-4.7c.94 0 1.74.36 2.4 1.08.68.71 1.01 1.58 1.01 2.62s-.33 1.91-1 2.63a3.18 3.18 0 0 1-2.41 1.07 2.7 2.7 0 0 1-2.27-1.03v3.63h-1.8V420h1.8v.83a2.71 2.71 0 0 1 2.27-1.03Zm-1.73 5.13c.37.36.83.54 1.4.54a1.9 1.9 0 0 0 1.38-.54c.37-.38.56-.85.56-1.43s-.19-1.05-.56-1.41a1.85 1.85 0 0 0-1.39-.56c-.56 0-1.02.18-1.39.56-.36.36-.54.83-.54 1.41s.18 1.06.54 1.43Zm14.4-5.13c.81 0 1.45.26 1.93.79.48.52.72 1.22.72 2.1V427h-1.8v-4.19c0-.42-.1-.74-.3-.98a1.1 1.1 0 0 0-.88-.35c-.4 0-.73.14-.96.41a1.8 1.8 0 0 0-.34 1.18V427h-1.8v-4.19c0-.42-.1-.74-.31-.98a1.1 1.1 0 0 0-.87-.35c-.4 0-.72.14-.97.41-.23.27-.35.66-.35 1.18V427h-1.8v-7h1.8v.74c.42-.62 1.07-.94 1.95-.94.86 0 1.5.34 1.9 1.01.47-.67 1.17-1 2.09-1Zm6.82 5.27-1.05 3.89h-1.47l.56-3.9h1.96Zm12.08-7.87v1.85h-2.65V427h-1.93v-7.95h-2.63v-1.85h7.21Zm4.75 2.8h1.8v7h-1.8v-.78c-.44.65-1.14.98-2.1.98-.76 0-1.4-.26-1.9-.77a2.94 2.94 0 0 1-.74-2.13V420h1.8v4.07c0 .47.13.83.39 1.08.25.25.59.37 1 .37.47 0 .84-.15 1.13-.44.28-.29.42-.72.42-1.3V420Zm5.23 4.24c.24.88.9 1.32 1.97 1.32.7 0 1.22-.24 1.57-.7l1.46.84c-.7 1-1.7 1.5-3.05 1.5a3.76 3.76 0 0 1-2.79-1.05 3.59 3.59 0 0 1-1.05-2.65 3.6 3.6 0 0 1 3.7-3.7c1.02 0 1.87.36 2.53 1.07.67.7 1 1.58 1 2.63 0 .23-.01.48-.06.74h-5.28Zm-.03-1.4h3.57c-.1-.47-.31-.83-.64-1.06a1.8 1.8 0 0 0-1.1-.35c-.48 0-.88.12-1.2.38-.31.24-.52.58-.63 1.03Zm10.2 4.16v-1.44l3.34-3.45c.74-.78 1.12-1.43 1.12-1.96a1.22 1.22 0 0 0-1.28-1.27c-.73 0-1.28.38-1.63 1.15l-1.63-.95A3.43 3.43 0 0 1 229 417c.88 0 1.64.28 2.28.84.63.56.95 1.3.95 2.24 0 1.02-.54 2.07-1.61 3.14l-1.92 1.92h3.68V427h-6.55Zm14.61-6.6c0 .76-.2 1.43-.59 2h.02l-3.06 4.6h-2.2l2.18-3.2a3.53 3.53 0 0 1-2.5-.96 3.3 3.3 0 0 1-.95-2.43c0-1 .33-1.82.98-2.45a3.55 3.55 0 0 1 2.56-.96c1.06 0 1.91.32 2.57.96.66.62 1 1.44 1 2.45Zm-5.18 0c0 .5.16.88.46 1.17.32.29.7.43 1.16.43.48 0 .87-.14 1.18-.43.3-.3.46-.68.46-1.16 0-.49-.15-.87-.46-1.15-.3-.3-.7-.44-1.18-.44-.45 0-.84.15-1.16.44-.3.29-.46.67-.46 1.15Zm7.97 1.59c0 .19.12.34.36.46.25.11.56.22.91.3.36.1.71.2 1.07.34.35.14.65.36.9.68.24.31.37.71.37 1.19 0 .72-.27 1.27-.81 1.66-.53.38-1.2.58-2 .58-1.44 0-2.42-.56-2.94-1.67l1.56-.88c.21.6.67.9 1.38.9.64 0 .96-.2.96-.6 0-.18-.12-.33-.38-.44a4.66 4.66 0 0 0-.9-.32c-.35-.1-.7-.21-1.06-.35a2.26 2.26 0 0 1-.9-.66 1.8 1.8 0 0 1-.37-1.15c0-.7.25-1.23.76-1.62a3 3 0 0 1 1.9-.6c.57 0 1.09.13 1.55.39.47.25.84.61 1.11 1.09l-1.54.84c-.22-.48-.6-.72-1.12-.72-.23 0-.43.05-.59.16a.49.49 0 0 0-.22.42Zm8.82-.25h-1.58v2.9c0 .25.06.43.18.54.12.11.3.18.53.2.24 0 .53 0 .87-.02V427c-1.24.14-2.12.02-2.63-.35-.5-.37-.76-1.04-.76-2v-2.91h-1.22V420h1.22v-1.41l1.8-.55V420h1.6v1.74Z" fill="#141414"/>
          <path d="M137.1 398h.93v7h-.75l-3.6-5.23V405h-.93v-7h.75l3.6 5.22V398Zm3.05 4.9c.08.45.29.8.6 1.04.33.25.73.37 1.2.37.67 0 1.15-.24 1.45-.73l.74.42a2.44 2.44 0 0 1-2.2 1.13c-.8 0-1.44-.25-1.94-.74-.5-.5-.74-1.13-.74-1.89a2.52 2.52 0 0 1 2.62-2.63c.73 0 1.33.26 1.79.78a2.66 2.66 0 0 1 .67 2.25h-4.2Zm1.73-2.21a1.67 1.67 0 0 0-1.73 1.45h3.34a1.67 1.67 0 0 0-.56-1.08 1.6 1.6 0 0 0-1.05-.37Zm7.7 4.31h-1.03l-1.4-1.89-1.4 1.89h-1.03l1.92-2.57-1.8-2.43h1.02l1.3 1.74 1.28-1.74h1.02l-1.8 2.42 1.91 2.58Zm3.62-4.16h-1.33v2.71c0 .25.05.42.14.53.1.1.25.15.45.16.2 0 .45 0 .74-.02v.78c-.76.1-1.32.04-1.67-.18-.35-.23-.53-.65-.53-1.27v-2.71h-.99V400h.99v-1.14l.87-.26v1.4h1.33v.84Zm7.9-.84h.87v5h-.87v-.86c-.44.66-1.06.99-1.9.99-.7 0-1.29-.25-1.78-.76a2.6 2.6 0 0 1-.74-1.87c0-.73.25-1.35.74-1.86a2.4 2.4 0 0 1 1.79-.77c.82 0 1.45.33 1.89.99V400Zm-1.78 4.29a1.76 1.76 0 0 0 1.78-1.79c0-.5-.17-.93-.51-1.27a1.7 1.7 0 0 0-1.27-.52c-.5 0-.92.17-1.26.52-.34.34-.51.76-.51 1.27 0 .5.17.93.5 1.28.35.34.77.51 1.27.51Zm7.57-4.29h.94l-2 5h-1.02l-2-5h.94l1.57 4.07 1.57-4.07Zm5.72 0h.87v5h-.87v-.86c-.44.66-1.07.99-1.9.99-.7 0-1.29-.25-1.78-.76a2.6 2.6 0 0 1-.74-1.87c0-.73.24-1.35.74-1.86a2.4 2.4 0 0 1 1.79-.77c.82 0 1.45.33 1.89.99V400Zm-1.78 4.29a1.76 1.76 0 0 0 1.78-1.79c0-.5-.17-.93-.51-1.27a1.7 1.7 0 0 0-1.27-.52c-.5 0-.92.17-1.26.52-.34.34-.51.76-.51 1.27 0 .5.17.93.5 1.28.35.34.77.51 1.27.51Zm4.5-5.2a.57.57 0 0 1-.41-.17.56.56 0 0 1-.17-.41c0-.16.05-.3.17-.41a.55.55 0 0 1 .42-.18c.16 0 .3.06.4.18.12.11.18.25.18.41 0 .16-.06.3-.17.41a.56.56 0 0 1-.41.17Zm-.43 5.91v-5h.87v5h-.87Zm2.3 0v-7.3h.86v7.3h-.87Zm6.43-5h.87v5h-.87v-.86c-.43.66-1.06.99-1.89.99-.7 0-1.3-.25-1.79-.76a2.6 2.6 0 0 1-.74-1.87c0-.73.25-1.35.74-1.86a2.4 2.4 0 0 1 1.79-.77c.83 0 1.46.33 1.89.99V400Zm-1.78 4.29a1.76 1.76 0 0 0 1.78-1.79c0-.5-.17-.93-.51-1.27a1.7 1.7 0 0 0-1.27-.52c-.5 0-.92.17-1.26.52-.34.34-.51.76-.51 1.27 0 .5.17.93.51 1.28.34.34.76.51 1.26.51Zm6.83-4.42c.7 0 1.3.26 1.79.77.5.5.74 1.13.74 1.86a2.6 2.6 0 0 1-.74 1.87c-.5.5-1.1.76-1.8.76a2.1 2.1 0 0 1-1.88-.99v.86h-.87v-7h.87v2.86a2.12 2.12 0 0 1 1.89-.99Zm-.11 4.42c.5 0 .92-.17 1.26-.51.34-.35.5-.77.5-1.28 0-.5-.16-.93-.5-1.27a1.7 1.7 0 0 0-1.26-.52c-.5 0-.93.17-1.27.52-.34.34-.51.76-.51 1.27a1.76 1.76 0 0 0 1.78 1.79Zm3.78.71v-7.3h.87v7.3h-.87Zm2.9-2.1c.09.45.3.8.61 1.04.33.25.73.37 1.2.37.66 0 1.14-.24 1.44-.73l.74.42a2.44 2.44 0 0 1-2.2 1.13c-.79 0-1.44-.25-1.94-.74a2.6 2.6 0 0 1-.74-1.89 2.52 2.52 0 0 1 2.62-2.63c.74 0 1.33.26 1.8.78a2.67 2.67 0 0 1 .66 2.25h-4.19Zm1.73-2.21c-.46 0-.85.13-1.16.4-.3.26-.5.61-.57 1.05h3.34a1.67 1.67 0 0 0-.56-1.08 1.6 1.6 0 0 0-1.05-.37Z" fill="#141414" fill-opacity=".61"/>
        </g>
      </g>
    </g>
  </g>
  <defs>
    <clipPath id="a">
      <rect fill="#fff" height="546" rx="80" width="557"/>
    </clipPath>
    <clipPath id="c">
      <rect fill="#fff" height="357" rx="24" width="328" x="114" y="95"/>
    </clipPath>
    <clipPath id="g">
      <rect fill="#fff" height="48" rx="24" width="48" x="134" y="119"/>
    </clipPath>
    <filter color-interpolation-filters="sRGB" filterUnits="userSpaceOnUse" height="405" id="b" width="376" x="94" y="75">
      <feFlood flood-opacity="0" result="BackgroundImageFix"/>
      <feColorMatrix in="SourceAlpha" result="hardAlpha" values="0 0 0 0 0 0 0 0 0 0 0 0 0 0 0 0 0 0 127 0"/>
      <feOffset dx="4" dy="4"/>
      <feGaussianBlur stdDeviation="12"/>
      <feComposite in2="hardAlpha" operator="out"/>
      <feColorMatrix values="0 0 0 0 0 0 0 0 0 0 0 0 0 0 0 0 0 0 0.12 0"/>
      <feBlend in2="BackgroundImageFix" result="effect1_dropShadow_7266_21792"/>
      <feBlend in="SourceGraphic" in2="effect1_dropShadow_7266_21792" result="shape"/>
    </filter>
    <filter color-interpolation-filters="sRGB" filterUnits="userSpaceOnUse" height="55.76" id="f" width="55.76" x="130.12" y="118.35">
      <feFlood flood-opacity="0" result="BackgroundImageFix"/>
      <feColorMatrix in="SourceAlpha" result="hardAlpha" values="0 0 0 0 0 0 0 0 0 0 0 0 0 0 0 0 0 0 127 0"/>
      <feMorphology in="SourceAlpha" radius=".65" result="effect1_dropShadow_7266_21792"/>
      <feOffset dy="1.29"/>
      <feGaussianBlur stdDeviation=".97"/>
      <feColorMatrix values="0 0 0 0 0 0 0 0 0 0 0 0 0 0 0 0 0 0 0.05 0"/>
      <feBlend in2="BackgroundImageFix" result="effect1_dropShadow_7266_21792"/>
      <feColorMatrix in="SourceAlpha" result="hardAlpha" values="0 0 0 0 0 0 0 0 0 0 0 0 0 0 0 0 0 0 127 0"/>
      <feMorphology in="SourceAlpha" radius=".97" result="effect2_dropShadow_7266_21792"/>
      <feOffset dy="3.24"/>
      <feGaussianBlur stdDeviation="2.43"/>
      <feColorMatrix values="0 0 0 0 0 0 0 0 0 0 0 0 0 0 0 0 0 0 0.1 0"/>
      <feBlend in2="effect1_dropShadow_7266_21792" result="effect2_dropShadow_7266_21792"/>
      <feBlend in="SourceGraphic" in2="effect2_dropShadow_7266_21792" result="shape"/>
    </filter>
    <filter color-interpolation-filters="sRGB" filterUnits="userSpaceOnUse" height="76" id="h" width="368" x="109" y="376">
      <feFlood flood-opacity="0" result="BackgroundImageFix"/>
      <feColorMatrix in="SourceAlpha" result="hardAlpha" values="0 0 0 0 0 0 0 0 0 0 0 0 0 0 0 0 0 0 127 0"/>
      <feOffset dy="-4"/>
      <feGaussianBlur stdDeviation="2"/>
      <feComposite in2="hardAlpha" operator="out"/>
      <feColorMatrix values="0 0 0 0 0 0 0 0 0 0 0 0 0 0 0 0 0 0 0.05 0"/>
      <feBlend in2="BackgroundImageFix" result="effect1_dropShadow_7266_21792"/>
      <feBlend in="SourceGraphic" in2="effect1_dropShadow_7266_21792" result="shape"/>
    </filter>
    <radialGradient cx="0" cy="0" gradientTransform="rotate(54.12 -60.97 226.15) scale(31.2354)" gradientUnits="userSpaceOnUse" id="d" r="1">
      <stop stop-color="#E44332"/>
      <stop offset="1" stop-color="#E44332" stop-opacity="0"/>
    </radialGradient>
    <linearGradient gradientUnits="userSpaceOnUse" id="e" x1="158" x2="158" y1="119" y2="167">
      <stop stop-color="#D5A3AC"/>
      <stop offset="1" stop-color="#C28187"/>
    </linearGradient>
  </defs>
</svg>