<?xml version="1.0" encoding="utf-8"?>
<svg xmlns="http://www.w3.org/2000/svg" fill="none" viewBox="0 0 557 546">
  <g clip-path="url(#a)">
    <rect fill="#A9E5E5" height="546" rx="80" width="557"/>
    <g filter="url(#b)">
      <g clip-path="url(#c)">
        <rect fill="#fff" height="357" rx="24" width="328" x="114" y="95"/>
        <g clip-path="url(#d)">
          <path d="M114 95h328v118H114z" fill="#00CACA"/>
          <path d="M240.56 137.78s-2.25-12.05-.36-12.92c1.89-.89 3.2 6.1 3.2 6.1s.47-6.04 1.66-7c1.18-.94 2.38.3 2.51 1.54 0 0 2.08-2.41 3.28.55 0 0 1.56-1.5 2.46 1.24.9 2.74.27 8.56.03 10.55-.58 4.67-.72 8.99-.72 8.99l-13.52-.33" fill="#fff"/>
          <path d="M252.62 147.18h-.01l-13.51-.33a.34.34 0 0 1-.34-.35c0-.19.16-.33.34-.33h.01l13.18.31c.05-1.1.23-4.8.7-8.67.29-2.27.84-7.83 0-10.4-.27-.82-.62-1.3-1.02-1.4-.45-.1-.88.3-.88.3a.35.35 0 0 1-.56-.12c-.3-.76-.69-1.18-1.13-1.25-.75-.13-1.56.78-1.57.8a.34.34 0 0 1-.36.1.35.35 0 0 1-.24-.3c-.06-.64-.48-1.28-.97-1.49-.33-.13-.66-.07-.99.2-.77.62-1.34 4.46-1.52 6.74a.34.34 0 0 1-.33.31.35.35 0 0 1-.36-.27c-.37-2-1.34-5.34-2.33-5.84a.41.41 0 0 0-.39-.02c-1.03.48-.53 6.76.56 12.56a.34.34 0 1 1-.68.13c-.38-2.06-2.2-12.36-.17-13.3a1.1 1.1 0 0 1 1 .01c1.01.53 1.77 2.67 2.23 4.33.25-1.9.73-4.53 1.56-5.2a1.6 1.6 0 0 1 1.68-.28c.56.23 1.02.78 1.25 1.43.41-.33 1.06-.7 1.74-.59.6.1 1.1.53 1.48 1.28.28-.16.7-.3 1.15-.2.64.17 1.15.79 1.5 1.85.86 2.61.4 7.82.04 10.7-.56 4.6-.72 8.92-.72 8.96 0 .18-.16.33-.34.33Z" fill="#000"/>
          <path d="M247.15 131.55h-.03a.34.34 0 0 1-.31-.37l.42-5.7a.34.34 0 0 1 .37-.31c.19 0 .33.17.31.36l-.42 5.7a.34.34 0 0 1-.34.32Zm3.12.57h-.03a.34.34 0 0 1-.31-.38l.58-5.72a.34.34 0 1 1 .68.07l-.58 5.72a.34.34 0 0 1-.34.3Z" fill="#000"/>
          <path d="m212.8 187.84 21.2-9.11 2.46-32.67c-.06-4.47 16.94-5.28 17-.59 0 0 .6 34.32-2.8 42.63-2.54 6.18-26.45 21.04-31.15 22.74-4.7 1.7-6.7-23-6.7-23Z" fill="#fff"/>
          <path d="M219.05 211.27c-.33 0-.64-.1-.95-.3-3.93-2.52-5.57-22.26-5.64-23.1a.34.34 0 0 1 .21-.34l21-9.04 2.45-32.45c-.01-.6.27-1.54 1.69-2.38 3.38-2.01 11.18-2.27 14.38-.47 1.04.59 1.6 1.38 1.61 2.28.02 1.4.56 34.49-2.83 42.76-2.64 6.45-27.09 21.4-31.34 22.94-.2.06-.4.1-.58.1Zm-5.88-23.2c.49 5.8 2.32 20.4 5.3 22.32.31.2.6.24.92.13 4.5-1.63 28.49-16.55 30.95-22.55 3.33-8.15 2.78-42.15 2.77-42.49 0-.66-.43-1.23-1.26-1.7-3.04-1.7-10.46-1.45-13.7.47-.9.54-1.36 1.15-1.35 1.8l-2.46 32.7a.35.35 0 0 1-.2.3l-20.97 9.01Z" fill="#000"/>
          <path d="M220.2 202.8c.63 15.82-3.44 40.11-3.44 40.11-8.75 11.32-56.53 4.01-56.15-6.09 0 0 7.87-44.66 14-51.12 6.5-6.82 29.2-2.18 38.93 2.5" fill="#fff"/>
          <path d="M196.34 248.97c-9.24 0-19.45-1.7-26.52-4.26-4.43-1.61-9.69-4.29-9.55-7.9v-.05c.33-1.83 7.96-44.84 14.1-51.3 2.94-3.09 9.52-4.21 18.54-3.17 7.2.84 15.56 3.09 20.78 5.6.18.08.25.28.16.45a.34.34 0 0 1-.45.16c-9.66-4.63-32.18-9.24-38.53-2.56-5.95 6.25-13.7 49.68-13.91 50.92-.08 2.49 3.15 5.04 9.1 7.2 7.17 2.6 17.23 4.23 26.26 4.23h.03c10.14 0 17.26-1.97 20.09-5.52.26-1.6 4.02-24.82 3.42-39.95a.35.35 0 0 1 .33-.36c.18 0 .35.14.35.33.62 15.67-3.4 39.93-3.44 40.18a.34.34 0 0 1-.07.15c-3.22 4.16-11.47 5.84-20.69 5.84Z" fill="#000"/>
          <path d="M185.45 182.27s-5.5.2-8.77.46c-5.47.44-21.8 3.42-21.8 3.42l-.98-30.03-13.8.46s-4.87 42.55 3.23 48.02c7.01 4.74 26.35 2.56 33.45-1.15" fill="#fff"/>
          <path d="M156.43 207.64c-5.4 0-10.4-.8-13.29-2.75-8.18-5.53-3.57-46.6-3.38-48.34.02-.17.17-.3.34-.3l13.78-.47a.34.34 0 0 1 .36.33l.98 29.63c2.52-.46 16.48-2.96 21.44-3.35 3.24-.26 8.72-.46 8.78-.46.18-.01.35.14.35.33a.35.35 0 0 1-.33.36c-.05 0-5.52.2-8.75.46-5.4.42-21.6 3.38-21.76 3.4a.34.34 0 0 1-.4-.32l-.99-29.68-13.15.44c-.4 3.78-4.38 42.34 3.12 47.4 6.8 4.6 25.88 2.6 33.1-1.17a.34.34 0 1 1 .31.6c-4.31 2.26-12.81 3.89-20.5 3.89Z" fill="#000"/>
          <path d="m103.95 172.76 32.97-32.73 32.5 17.26 79.77-47.73 9.83 15.83-89.5 55.83-32.3-17.56-22 24.45-11.27-15.35Z" fill="#BF92FB"/>
          <path d="M115.22 188.45h-.02c-.1 0-.2-.06-.26-.14l-11.27-15.35a.35.35 0 0 1 .04-.45l32.97-32.73c.1-.1.27-.13.4-.06l32.33 17.18 79.6-47.63c.17-.1.38-.05.48.11l9.83 15.83c.1.16.05.37-.11.47l-89.5 55.83a.34.34 0 0 1-.34.02l-32.08-17.44-21.81 24.25a.35.35 0 0 1-.26.11Zm-10.82-15.66 10.85 14.77 21.71-24.13c.1-.12.28-.15.42-.07l32.14 17.47 89.03-55.55-9.47-15.25-79.49 47.56a.35.35 0 0 1-.34 0L137 140.46l-32.59 32.34Z" fill="#000"/>
          <path d="m280.59 103.92-13.97 29.16a2.72 2.72 0 0 1-4.77.24l-18.35-30.07a2.71 2.71 0 0 1 2.4-4.13l32.32.91a2.71 2.71 0 0 1 2.37 3.89Z" fill="#BF92FB"/>
          <path d="M264.16 134.96a3.02 3.02 0 0 1-2.6-1.46l-18.35-30.08c-.6-.97-.6-2.14-.04-3.12a3.02 3.02 0 0 1 2.74-1.53l32.32.92a3.05 3.05 0 0 1 2.67 4.38l-13.97 29.16a3.02 3.02 0 0 1-2.6 1.73h-.17Zm-18.34-35.5c-.86 0-1.62.44-2.05 1.18-.45.76-.44 1.67.03 2.43l18.35 30.07a2.34 2.34 0 0 0 2.14 1.13 2.34 2.34 0 0 0 2.02-1.34l13.97-29.16a2.37 2.37 0 0 0-2.07-3.4l-32.32-.91h-.07Z" fill="#000"/>
          <path d="m183.9 182.44 12.57 10.58 5.95-8.63s-4.17-2.38-2.4-9.84c-5.19.63-12.37-3.64-12.37-3.64s.6 10.06-3.74 11.53Z" fill="#fff"/>
          <path d="M196.47 193.36a.35.35 0 0 1-.22-.08l-12.56-10.57a.34.34 0 0 1-.12-.33.34.34 0 0 1 .23-.26c4.03-1.38 3.51-11.1 3.5-11.2 0-.12.06-.24.17-.3.1-.07.25-.07.35 0 .08.03 7.15 4.2 12.16 3.59a.35.35 0 0 1 .37.42c-1.68 7.1 2.08 9.37 2.24 9.46a.34.34 0 0 1 .12.5l-5.96 8.62a.35.35 0 0 1-.28.15Zm-11.92-10.82 11.85 9.97 5.54-8.03c-.95-.72-3.67-3.38-2.36-9.54-4.4.28-9.84-2.48-11.56-3.43.05 2.17-.06 9.2-3.47 11.03Z" fill="#000"/>
          <path d="M192.6 174.76c3.81.9 9.95 2.24 12.82-.66 2.88-2.9 4.39-9.45 4.32-16.17v-.01c-.06-7.87-4.5-16.63-9.7-17.45-12.8-2.01-12.01 16.5-12.01 16.5s-2.64-1.9-3.64.76c-1.25 3.35 3.02 9.51 3.02 9.51l.22 4.3" fill="#fff"/>
          <path d="M199.94 176.21c-2.68 0-5.5-.66-7.42-1.11a.34.34 0 0 1 .16-.67c3.38.8 9.68 2.27 12.5-.57 2.62-2.66 4.28-8.9 4.22-15.92v-.02c-.07-8.04-4.64-16.35-9.41-17.1-2.9-.47-5.32.14-7.17 1.8-4.81 4.28-4.45 14.24-4.45 14.34a.34.34 0 0 1-.54.3c-.01-.01-1.16-.82-2.1-.54-.44.14-.78.52-1.01 1.13-1.18 3.14 2.93 9.14 2.97 9.2.04.05.06.1.06.17l.23 4.3a.34.34 0 1 1-.69.03l-.22-4.2c-.53-.77-4.24-6.44-3-9.74.31-.83.8-1.35 1.47-1.55.78-.23 1.6.05 2.14.31-.01-2.3.29-10.35 4.68-14.27 2.01-1.8 4.62-2.46 7.73-1.97 5.64.9 9.93 10.11 10 17.77v.02c.07 7.3-1.63 13.6-4.42 16.42-1.4 1.41-3.52 1.87-5.73 1.87Z" fill="#000"/>
          <path d="M199.46 158.17c.06-.67-.3-1.25-.81-1.3-.52-.05-.98.45-1.05 1.12-.06.67.3 1.25.81 1.3.52.05.99-.45 1.05-1.12Zm6.2-.15c.07-.67-.3-1.25-.81-1.3-.51-.05-.98.45-1.05 1.12-.06.67.3 1.25.81 1.3.52.05.99-.45 1.05-1.12Z" fill="#000"/>
          <path d="M199.91 154.67s-1.47-1.19-3.53.23l3.53-.23Z" fill="#fff"/>
          <path d="M196.38 155.24a.34.34 0 0 1-.2-.63c2.24-1.54 3.88-.27 3.95-.21a.34.34 0 0 1-.43.53c-.06-.04-1.32-.99-3.12.25a.35.35 0 0 1-.2.06Z" fill="#000"/>
          <path d="M206.74 155.18s-1.48-1.18-3.53.23l3.53-.23Z" fill="#fff"/>
          <path d="M203.21 155.75a.34.34 0 0 1-.2-.63c2.24-1.53 3.88-.26 3.94-.2a.34.34 0 0 1-.42.53c-.06-.04-1.32-1-3.13.24a.34.34 0 0 1-.19.06Z" fill="#000"/>
          <path d="m202.22 159.03.57 5.57c.03.3.06.62-.06.9-.15.38-.52.62-.9.71-.4.1-.8.07-1.2.04" fill="#fff"/>
          <path d="m201.2 166.62-.6-.03a.34.34 0 1 1 .06-.68c.36.02.74.05 1.08-.03.32-.08.58-.27.67-.5.09-.22.06-.5.03-.75l-.56-5.56a.34.34 0 0 1 .68-.07l.57 5.56c.03.31.07.7-.08 1.07-.18.44-.6.78-1.15.92a2.9 2.9 0 0 1-.7.07Z" fill="#000"/>
          <path d="M197.12 168.34a5.25 5.25 0 0 0 3.95 1.42l-3.95-1.42Z" fill="#fff"/>
          <path d="M200.71 170.11c-1.4 0-2.81-.55-3.83-1.52a.34.34 0 1 1 .48-.5 4.91 4.91 0 0 0 3.69 1.32c.18-.01.35.13.36.32a.34.34 0 0 1-.31.37l-.39.01Zm-23.58-16.28c1.15 12.12 10.28 13.41 10.28 13.41s-4.27-6.16-3.01-9.51c1-2.66 3.63-.76 3.63-.76s.17 1.55 1.27 1.47c1.14-.09.91-5.16 1-5.98.06-.58.04-1 .52-1.37.59-.43 1.65-.6 2.34-.75 0 0 5.18-.61 5.52-2.05.3-1.25.6-1.3.28-1.87 4.13 2 13.6 5.71 14.91-1.8 1.69-9.65-7.23-6.54-7.23-6.54s1.51-4.4-2.48-4.92c-5.69-.75-7.37 2.6-7.37 2.6-14.36-4.24-19.03 3.92-19.66 18.07Z" fill="#000"/>
          <path d="M187.41 167.59h-.05c-.1-.02-9.4-1.48-10.57-13.73v-.05c.4-9.03 2.47-14.77 6.34-17.53 3.22-2.3 7.64-2.6 13.5-.93.53-.8 2.57-3.19 7.58-2.53 1.19.16 2.04.66 2.55 1.47.68 1.1.53 2.5.36 3.3 1.22-.32 3.99-.8 5.77.71 1.4 1.2 1.85 3.34 1.32 6.38-.34 1.98-1.27 3.37-2.74 4.12-3.35 1.71-8.75-.24-12.04-1.78-.03.14-.08.28-.13.44-.08.22-.18.5-.28.91-.38 1.59-4.91 2.2-5.82 2.3l-.26.07c-.62.12-1.47.3-1.91.63-.29.21-.32.44-.37.92l-.02.21-.02.93c-.04 2.77-.16 5.27-1.3 5.35-1.03.08-1.48-.93-1.6-1.6-.32-.2-1.22-.7-1.98-.46-.45.13-.79.52-1.02 1.13-1.18 3.14 2.93 9.14 2.97 9.2.08.1.09.25.02.37a.35.35 0 0 1-.3.17Zm-9.93-13.77c.93 9.71 6.97 12.28 9.18 12.9-1.1-1.75-3.65-6.3-2.59-9.11.31-.83.8-1.35 1.47-1.55 1.26-.38 2.63.6 2.69.64.08.05.13.14.14.24 0 0 .15 1.21.9 1.15.22-.01.6-.64.66-4.67 0-.47 0-.81.03-1l.02-.2c.04-.49.1-1 .64-1.4.56-.43 1.46-.61 2.18-.76l.29-.06c2.08-.25 5.06-.96 5.26-1.78.1-.47.22-.77.3-1 .13-.38.14-.4.01-.63a.34.34 0 0 1 .45-.48c3.09 1.5 8.75 3.76 12.04 2.08 1.28-.65 2.08-1.87 2.39-3.63.48-2.78.11-4.7-1.1-5.73-1.98-1.69-5.65-.44-5.7-.42a.34.34 0 0 1-.43-.44c0-.02.68-2-.14-3.32-.39-.63-1.08-1.02-2.05-1.14-5.38-.71-7.01 2.37-7.03 2.4a.34.34 0 0 1-.4.18c-5.76-1.7-10.07-1.46-13.16.75-3.69 2.63-5.66 8.18-6.05 16.98Z" fill="#000"/>
          <path d="m196.47 193.01 4.69 3.59c1.96-4.17 3.91-7.88 6.39-10.75l-5.12-1.46-5.96 8.62Z" fill="#71FFCC"/>
          <path d="M201.16 196.94a.35.35 0 0 1-.21-.07l-4.68-3.58a.34.34 0 0 1-.08-.47l5.95-8.62a.34.34 0 0 1 .38-.14l5.12 1.46a.35.35 0 0 1 .17.55c-2.56 2.97-4.56 6.89-6.34 10.68a.34.34 0 0 1-.31.2Zm-4.22-4 4.09 3.13c1.67-3.54 3.55-7.17 5.9-10.03l-4.36-1.25-5.63 8.15Z" fill="#000"/>
          <path d="M196.47 193.01c-1.94.73-3.5 2.65-4.91 4.98l-12.6-15.41 4.95-.14L196.47 193Z" fill="#71FFCC"/>
          <path d="M191.56 198.33c-.1 0-.2-.05-.27-.13l-12.6-15.4a.34.34 0 0 1 .26-.56l4.95-.15c.09 0 .17.03.23.09l12.56 10.57a.34.34 0 0 1-.1.58c-1.6.61-3.07 2.1-4.74 4.84a.34.34 0 0 1-.3.16Zm-11.89-15.43 11.85 14.5c1.47-2.34 2.83-3.76 4.3-4.48l-12.03-10.13-4.12.11Z" fill="#000"/>
          <path d="M193.17 233.78a.34.34 0 0 1-.34-.42c4.33-19.22 3.31-40.12 3.3-40.33a.34.34 0 0 1 .33-.36c.18 0 .35.14.36.33 0 .2 1.04 21.2-3.32 40.51a.34.34 0 0 1-.33.27Z" fill="#000"/>
          <path d="M158.05 151.42c1.1-1.81 1.05-3.86-.12-4.57-1.17-.71-3.01.18-4.11 1.99-1.1 1.8-1.05 3.85.12 4.57 1.17.7 3.01-.18 4.11-2Z" fill="#fff"/>
          <path d="M154.86 154c-.4 0-.77-.1-1.1-.3-.67-.4-1.05-1.17-1.08-2.15-.02-.93.28-1.96.84-2.89 1.22-2 3.24-2.92 4.59-2.1.67.4 1.05 1.17 1.08 2.16a5.5 5.5 0 0 1-.84 2.88c-.92 1.5-2.3 2.4-3.49 2.4Zm2.17-7.05c-.96 0-2.15.8-2.92 2.07a4.7 4.7 0 0 0-.74 2.5c.02.75.28 1.31.75 1.6.98.6 2.65-.26 3.64-1.88.5-.82.76-1.71.74-2.5-.02-.75-.28-1.31-.75-1.6a1.36 1.36 0 0 0-.72-.19Z" fill="#000"/>
          <path d="M155.3 150.36c1.22-2.03 1.27-4.24.1-4.96-1.17-.7-3.11.35-4.34 2.38-1.24 2.02-1.29 4.23-.12 4.95 1.17.7 3.12-.35 4.35-2.37Z" fill="#fff"/>
          <path d="M151.78 153.3c-.37 0-.7-.09-1.01-.27-.68-.41-1.04-1.23-1.01-2.29.02-1 .38-2.1 1-3.14a6.5 6.5 0 0 1 2.33-2.33c.93-.51 1.82-.56 2.5-.15.67.4 1.03 1.22 1 2.28-.02 1-.38 2.11-1 3.14-1.05 1.72-2.56 2.76-3.81 2.76Zm2.8-7.77c-.35 0-.75.12-1.16.34a5.8 5.8 0 0 0-2.07 2.1 5.81 5.81 0 0 0-.9 2.79c-.02.8.22 1.4.68 1.68.99.6 2.76-.43 3.87-2.26a5.8 5.8 0 0 0 .9-2.8c.02-.8-.22-1.4-.67-1.67a1.23 1.23 0 0 0-.66-.18Z" fill="#000"/>
          <path d="M152.2 149.23c1.37-2.23 1.42-4.68.13-5.46-1.3-.79-3.44.38-4.8 2.62-1.36 2.23-1.41 4.68-.12 5.46 1.29.79 3.44-.38 4.8-2.62Z" fill="#fff"/>
          <path d="M148.32 152.44c-.4 0-.77-.1-1.1-.3-1.47-.89-1.47-3.5.02-5.93a7.15 7.15 0 0 1 2.55-2.56c1.02-.56 1.99-.62 2.72-.17 1.47.9 1.47 3.5-.01 5.94a7.13 7.13 0 0 1-2.56 2.56 3.5 3.5 0 0 1-1.62.47Zm3.09-8.57c-.39 0-.83.13-1.29.38a6.45 6.45 0 0 0-2.3 2.32c-1.23 2.03-1.34 4.32-.23 5 .51.3 1.23.24 2.03-.2a6.44 6.44 0 0 0 2.3-2.31c1.23-2.03 1.34-4.32.23-5a1.4 1.4 0 0 0-.74-.2Z" fill="#000"/>
          <path d="M148.87 147.26c1.23-2.02 1.28-4.24.11-4.95s-3.11.35-4.35 2.37c-1.23 2.03-1.28 4.24-.1 4.95 1.16.72 3.1-.35 4.34-2.37Z" fill="#fff"/>
          <path d="M145.35 150.2a1.9 1.9 0 0 1-1-.27c-.68-.4-1.04-1.22-1.01-2.28.02-1 .38-2.11 1-3.14a6.52 6.52 0 0 1 2.33-2.33c.93-.51 1.82-.57 2.5-.16.67.41 1.03 1.23 1 2.29-.02 1-.38 2.1-1 3.14a6.5 6.5 0 0 1-2.33 2.33c-.52.28-1.03.43-1.49.43Zm2.8-7.76c-.34 0-.74.11-1.15.34a5.81 5.81 0 0 0-2.07 2.09 5.81 5.81 0 0 0-.9 2.8c-.03.8.22 1.4.67 1.68.46.27 1.1.21 1.81-.17a5.81 5.81 0 0 0 2.07-2.1c.56-.92.88-1.91.9-2.79.02-.8-.22-1.4-.68-1.68a1.24 1.24 0 0 0-.65-.17Z" fill="#000"/>
          <path d="M239.1 143.42s-5.5-5.58-4.24-8.12c1.26-2.54 5.7 2.48 5.7 2.48" fill="#fff"/>
          <path d="M239.1 143.76a.35.35 0 0 1-.24-.1c-.58-.6-5.64-5.83-4.3-8.51a1.5 1.5 0 0 1 1.17-.9c1.9-.24 4.77 2.94 5.09 3.3a.34.34 0 1 1-.52.46c-.8-.91-3.18-3.24-4.48-3.07-.29.04-.5.2-.65.52-.95 1.9 2.7 6.21 4.18 7.71a.34.34 0 0 1-.25.59Z" fill="#000"/>
          <path d="M258.05 247.42a21.09 21.09 0 1 0 0-42.17 21.09 21.09 0 0 0 0 42.17Z" fill="#71FFCC"/>
          <path d="M256.09 246.57a21.27 21.27 0 0 1-14.4-5.57 21.29 21.29 0 0 1-6.98-14.84 21.46 21.46 0 0 1 20.38-22.42 21.3 21.3 0 0 1 15.44 5.54 21.3 21.3 0 0 1 6.99 14.84c.27 5.72-1.7 11.2-5.55 15.44a21.3 21.3 0 0 1-15.88 7.01Zm.05-42.17c-.34 0-.68 0-1.01.02a20.77 20.77 0 0 0-12.97 36.07 20.6 20.6 0 0 0 14.94 5.37 20.6 20.6 0 0 0 14.36-6.76 20.6 20.6 0 0 0 5.37-14.94 20.6 20.6 0 0 0-6.76-14.37 20.59 20.59 0 0 0-13.94-5.4Z" fill="#000"/>
          <path d="M256.1 241.6a16.45 16.45 0 1 0 0-32.91 16.45 16.45 0 0 0 0 32.9Z" fill="#fff"/>
          <path d="M256.09 241.94c-4.18 0-8.16-1.53-11.28-4.37a16.82 16.82 0 0 1 22.6-24.86 16.82 16.82 0 0 1-11.32 29.23Zm.04-32.9-.79.01a16.13 16.13 0 0 0-10.07 28.01 16.13 16.13 0 0 0 21.68-23.84 16 16 0 0 0-10.82-4.19Z" fill="#000"/>
          <path d="M256.1 225.11a.34.34 0 0 1-.23-.6l24.93-22.29a.34.34 0 0 1 .46.51l-24.94 22.3a.34.34 0 0 1-.22.08Z" fill="#000"/>
          <path d="M282.05 205.63h-.03l-3.75-.3a.34.34 0 0 1-.32-.38l.31-3.75a.34.34 0 1 1 .69.06l-.28 3.4 3.4.28c.2.02.34.19.32.38a.34.34 0 0 1-.34.31Zm-3.09 2.53h-.03l-3.75-.3a.34.34 0 0 1-.32-.38l.3-3.75a.34.34 0 0 1 .38-.31c.19.01.33.18.31.37l-.28 3.4 3.42.28c.18.02.32.19.31.38a.34.34 0 0 1-.34.31Z" fill="#000"/>
          <path d="M155.77 113.12h-32.9v20.54h32.9v-20.54Z" fill="#FEC524"/>
          <path d="M154.44 131.35h-32.9a.34.34 0 0 1-.35-.34v-20.54c0-.2.15-.34.34-.34h32.9c.2 0 .35.15.35.34V131c0 .19-.15.34-.34.34Zm-32.56-.69h32.21v-19.85h-32.21v19.85Z" fill="#000"/>
          <path d="M139.13 126.08a5.01 5.01 0 0 1-3.2-1.4c-.78-.68-1.5-1.51-2.2-2.32-.68-.8-1.4-1.62-2.13-2.26-.75-.64-2.67-1.96-4.16-.3-1 1.12-1.53 3.42-1.23 5.45a.52.52 0 1 1-1.03.15c-.34-2.35.28-4.94 1.5-6.3 1.43-1.6 3.57-1.5 5.6.22.79.68 1.53 1.54 2.24 2.37.67.78 1.36 1.59 2.09 2.21.75.66 2.66 2 4.16.4.43-.47.8-1.13 1.17-1.83.2-.38.41-.76.64-1.12.92-1.47 2.01-2.07 2.98-1.63.56.26.96.8 1.34 1.34.26.35.52.71.78.91.85.64 1.79-.44 1.97-.66.72-.9 1.27-2.29 1.75-3.51a.51.51 0 1 1 .96.37c-.5 1.3-1.08 2.76-1.9 3.79-1.05 1.28-2.38 1.61-3.4.83-.39-.29-.7-.72-1-1.13-.3-.42-.62-.86-.93-1-.51-.23-1.2.49-1.67 1.24-.21.33-.41.7-.61 1.06-.4.72-.8 1.47-1.32 2.03a3.22 3.22 0 0 1-2.4 1.09Zm69.05 19.78-.77-.01a.34.34 0 0 1-.34-.35c0-.2.15-.35.35-.34.9.02 1.82.05 2.68-.2.9-.27 1.58-.84 1.84-1.53.33-.91-.04-1.97-.42-2.88a.34.34 0 1 1 .63-.27c.43 1.04.86 2.24.43 3.38a3.4 3.4 0 0 1-2.29 1.95c-.7.2-1.4.25-2.1.25Zm-8.64-9.16a.34.34 0 0 1-.34-.33 1.4 1.4 0 0 1 .84-1.27c.45-.22.96-.22 1.35-.2 1.17.07 2.34.41 3.36 1a.34.34 0 0 1-.34.6 6.97 6.97 0 0 0-3.06-.91c-.3-.02-.7-.02-1.02.13-.23.1-.46.36-.44.62 0 .19-.14.35-.33.36h-.02Zm-18.19 23.04a.34.34 0 0 1-.32-.2 23.2 23.2 0 0 1-1.57-12.69c.3-1.92.82-3.49 1.58-4.8a.34.34 0 0 1 .6.35 13.16 13.16 0 0 0-1.5 4.56 22.5 22.5 0 0 0 1.53 12.3.34.34 0 0 1-.32.48Zm2.27-19.78c-.1 0-.2-.05-.27-.13a.35.35 0 0 1 .06-.49 9.4 9.4 0 0 1 3.3-1.64c.19-.05.38.06.43.24a.34.34 0 0 1-.25.42c-1.09.3-2.14.82-3.05 1.53a.35.35 0 0 1-.22.07Zm5.37 14.75a.34.34 0 0 1-.34-.28l-.32-1.73c-.12-.64-.28-1.52.1-2.27.29-.59.88-1.03 1.65-1.27a8 8 0 0 1 1.42-.25l.48-.06c.96-.13 3.3-.65 4.25-2.56l.18-.4c.16-.38.32-.77.62-1.09.78-.82 2.03-.76 2.9-.64 1.19.16 2.36.44 3.5.8a.34.34 0 1 1-.22.66 18.9 18.9 0 0 0-3.37-.78c-1.15-.15-1.88-.02-2.3.44-.22.22-.36.54-.5.87-.06.15-.12.3-.2.45-.76 1.55-2.5 2.62-4.77 2.93l-.5.06c-.45.05-.88.1-1.29.23-.34.1-.96.36-1.24.91-.25.51-.16 1.14-.03 1.85l.31 1.72a.34.34 0 0 1-.33.41Z" fill="#fff"/>
        </g>
        <path d="M139.94 260.28a7.11 7.11 0 0 1-7.28-7.28c0-2.07.69-3.8 2.06-5.18a7 7 0 0 1 5.22-2.1 7.02 7.02 0 0 1 6.02 3.3l-2.38 1.38a3.63 3.63 0 0 0-1.48-1.46 4.33 4.33 0 0 0-2.16-.54c-1.36 0-2.46.43-3.3 1.28a4.57 4.57 0 0 0-1.24 3.32c0 1.35.41 2.45 1.24 3.3a4.43 4.43 0 0 0 3.3 1.28c.8 0 1.52-.17 2.16-.52a3.63 3.63 0 0 0 1.48-1.46l2.38 1.38a6.6 6.6 0 0 1-2.5 2.42 7.18 7.18 0 0 1-3.52.88ZM155.19 250h2.58v10h-2.58v-1.18a3.93 3.93 0 0 1-3.26 1.46c-1.33 0-2.48-.5-3.44-1.52a5.34 5.34 0 0 1-1.42-3.76 5.3 5.3 0 0 1 1.42-3.74 4.55 4.55 0 0 1 3.44-1.54c1.4 0 2.5.49 3.26 1.46V250Zm-4.76 7.04c.52.52 1.18.78 1.98.78s1.46-.26 1.98-.78c.54-.53.8-1.21.8-2.04 0-.83-.26-1.5-.8-2.02a2.65 2.65 0 0 0-1.98-.8c-.8 0-1.46.27-1.98.8-.52.52-.78 1.2-.78 2.02 0 .83.26 1.5.78 2.04Zm12.26-5.32a2.7 2.7 0 0 1 1.18-1.44 3.68 3.68 0 0 1 1.86-.48v2.88c-.78-.1-1.49.07-2.12.48-.61.41-.92 1.1-.92 2.06V260h-2.58v-10h2.58v1.72Zm6.36 4.34c.35 1.25 1.29 1.88 2.82 1.88.99 0 1.73-.33 2.24-1l2.08 1.2a4.96 4.96 0 0 1-4.36 2.14c-1.65 0-2.98-.5-3.98-1.5s-1.5-2.26-1.5-3.78a5.14 5.14 0 0 1 5.28-5.28c1.47 0 2.68.5 3.62 1.52a5.26 5.26 0 0 1 1.44 3.76 6 6 0 0 1-.1 1.06h-7.54Zm-.04-2h5.1a2.4 2.4 0 0 0-.92-1.52c-.45-.33-.97-.5-1.56-.5a2.5 2.5 0 0 0-2.62 2.02Zm11.58 2c.35 1.25 1.3 1.88 2.82 1.88 1 0 1.74-.33 2.24-1l2.08 1.2a4.96 4.96 0 0 1-4.36 2.14c-1.65 0-2.98-.5-3.98-1.5s-1.5-2.26-1.5-3.78a5.14 5.14 0 0 1 5.28-5.28c1.47 0 2.68.5 3.62 1.52a5.26 5.26 0 0 1 1.44 3.76 6 6 0 0 1-.1 1.06h-7.54Zm-.04-2h5.1a2.4 2.4 0 0 0-.92-1.52c-.45-.33-.97-.5-1.56-.5a2.5 2.5 0 0 0-2.62 2.02Zm12.06-2.34c.24-.64.64-1.12 1.18-1.44a3.68 3.68 0 0 1 1.87-.48v2.88c-.8-.1-1.5.07-2.13.48-.6.41-.91 1.1-.91 2.06V260h-2.59v-10h2.59v1.72Zm17.21-1.72h2.52v9.52c0 1.55-.5 2.73-1.54 3.54a5.7 5.7 0 0 1-3.68 1.22c-1.08 0-2.03-.2-2.86-.62a4.35 4.35 0 0 1-1.88-1.82l2.2-1.26c.51.93 1.38 1.4 2.62 1.4a2.7 2.7 0 0 0 1.92-.64c.47-.43.7-1.03.7-1.82v-1.08a3.77 3.77 0 0 1-3.2 1.52c-1.4 0-2.6-.5-3.56-1.48a5.1 5.1 0 0 1-1.42-3.64 5.04 5.04 0 0 1 4.98-5.12c1.38 0 2.44.5 3.2 1.52V250Zm-4.82 6.82c.54.5 1.21.76 2.02.76.82 0 1.48-.25 2-.76.54-.52.8-1.18.8-1.98 0-.79-.26-1.43-.8-1.94a2.7 2.7 0 0 0-2-.78c-.8 0-1.48.26-2.02.78a2.6 2.6 0 0 0-.78 1.94c0 .8.26 1.46.78 1.98Zm16.28-6.82h2.58v10h-2.58v-1.12c-.62.93-1.62 1.4-2.98 1.4-1.09 0-2-.37-2.72-1.1a4.2 4.2 0 0 1-1.06-3.04V250h2.58v5.82c0 .67.18 1.18.54 1.54.36.35.84.52 1.44.52.67 0 1.2-.2 1.6-.62.4-.41.6-1.03.6-1.86V250Zm6.23-1.2a1.57 1.57 0 0 1-1.58-1.58c0-.43.15-.8.46-1.12.32-.32.69-.48 1.12-.48.44 0 .81.16 1.12.48a1.53 1.53 0 0 1 0 2.24c-.31.3-.68.46-1.12.46Zm-1.28 11.2v-10h2.58v10h-2.58Zm12.52-14h2.58v14h-2.58v-1.18a3.87 3.87 0 0 1-3.24 1.46 4.6 4.6 0 0 1-3.46-1.52 5.35 5.35 0 0 1-1.42-3.76c0-1.48.47-2.73 1.42-3.74a4.57 4.57 0 0 1 3.46-1.54c1.4 0 2.48.49 3.24 1.46V246Zm-4.76 11.04c.53.52 1.2.78 2 .78s1.46-.26 1.98-.78a2.8 2.8 0 0 0 .78-2.04c0-.83-.26-1.5-.78-2.02a2.65 2.65 0 0 0-1.98-.8c-.8 0-1.47.27-2 .8-.52.52-.78 1.2-.78 2.02 0 .83.26 1.5.78 2.04Zm17.3-7.04h2.58v10h-2.58v-1.18a3.93 3.93 0 0 1-3.26 1.46c-1.34 0-2.48-.5-3.44-1.52a5.34 5.34 0 0 1-1.42-3.76c0-1.48.47-2.73 1.42-3.74a4.55 4.55 0 0 1 3.44-1.54c1.4 0 2.48.49 3.26 1.46V250Zm-4.76 7.04c.52.52 1.18.78 1.98.78s1.46-.26 1.98-.78c.53-.53.8-1.21.8-2.04 0-.83-.27-1.5-.8-2.02a2.65 2.65 0 0 0-1.98-.8c-.8 0-1.46.27-1.98.8-.52.52-.78 1.2-.78 2.02 0 .83.26 1.5.78 2.04Zm15.24-7.32c1.1 0 2 .37 2.7 1.1a4.15 4.15 0 0 1 1.08 3.04V260h-2.58v-5.82c0-.67-.18-1.17-.54-1.52a1.95 1.95 0 0 0-1.44-.54c-.67 0-1.2.2-1.6.62-.4.41-.6 1.03-.6 1.86v5.4h-2.58v-10h2.58v1.12c.62-.93 1.62-1.4 2.98-1.4Zm10.74 10.56a5.13 5.13 0 0 1-5.28-5.28 5.14 5.14 0 0 1 5.28-5.28c.97 0 1.86.23 2.66.7s1.4 1.1 1.82 1.88l-2.22 1.3c-.2-.41-.5-.74-.92-.98a2.6 2.6 0 0 0-1.36-.36c-.77 0-1.41.26-1.92.78-.5.5-.76 1.16-.76 1.96a2.6 2.6 0 0 0 2.68 2.72c.52 0 .98-.11 1.38-.34.41-.24.72-.57.92-.98l2.24 1.28a5.08 5.08 0 0 1-4.52 2.6Zm7.9-4.22c.35 1.25 1.3 1.88 2.83 1.88.99 0 1.73-.33 2.24-1l2.08 1.2a4.96 4.96 0 0 1-4.36 2.14c-1.65 0-2.98-.5-3.98-1.5s-1.5-2.26-1.5-3.78a5.13 5.13 0 0 1 5.28-5.28c1.46 0 2.67.5 3.62 1.52a5.26 5.26 0 0 1 1.44 3.76c0 .33-.04.69-.1 1.06h-7.54Zm-.03-2h5.1a2.4 2.4 0 0 0-.92-1.52 2.6 2.6 0 0 0-1.56-.5c-.7 0-1.27.18-1.72.54-.45.35-.75.84-.9 1.48Zm20.3-4.34c1.35 0 2.5.51 3.44 1.54a5.23 5.23 0 0 1 1.44 3.74 5.3 5.3 0 0 1-1.44 3.76 4.54 4.54 0 0 1-3.44 1.52c-1.4 0-2.48-.49-3.24-1.46V264h-2.58v-14h2.58v1.18a3.87 3.87 0 0 1 3.24-1.46Zm-2.46 7.32c.52.52 1.18.78 1.98.78s1.46-.26 1.98-.78c.53-.53.8-1.21.8-2.04 0-.83-.27-1.5-.8-2.02a2.65 2.65 0 0 0-1.98-.8c-.8 0-1.46.27-1.98.8-.52.52-.78 1.2-.78 2.02 0 .83.26 1.5.78 2.04Zm16.76-7.04h2.58v10h-2.58v-1.18a3.93 3.93 0 0 1-3.26 1.46c-1.33 0-2.48-.5-3.44-1.52a5.35 5.35 0 0 1-1.42-3.76c0-1.48.47-2.73 1.42-3.74a4.55 4.55 0 0 1 3.44-1.54c1.4 0 2.49.49 3.26 1.46V250Zm-4.76 7.04c.52.52 1.18.78 1.98.78s1.46-.26 1.98-.78c.53-.53.8-1.21.8-2.04 0-.83-.27-1.5-.8-2.02a2.65 2.65 0 0 0-1.98-.8c-.8 0-1.46.27-1.98.8-.52.52-.78 1.2-.78 2.02 0 .83.26 1.5.78 2.04Zm14.44 3.24a5.13 5.13 0 0 1-5.28-5.28 5.14 5.14 0 0 1 5.28-5.28c.97 0 1.86.23 2.66.7s1.4 1.1 1.82 1.88l-2.22 1.3c-.2-.41-.5-.74-.92-.98a2.6 2.6 0 0 0-1.36-.36 2.65 2.65 0 0 0-2.68 2.74 2.6 2.6 0 0 0 2.68 2.72c.52 0 .98-.11 1.38-.34.41-.24.72-.57.92-.98l2.24 1.28a5.08 5.08 0 0 1-4.52 2.6Zm15.1-.28h-3l-3.64-4.54V260h-2.58v-14h2.58v8.4l3.44-4.4h3.08l-4.02 4.94 4.14 5.06Zm8.17-10h2.58v10h-2.58v-1.18a3.93 3.93 0 0 1-3.26 1.46c-1.34 0-2.48-.5-3.44-1.52a5.35 5.35 0 0 1-1.42-3.76c0-1.48.47-2.73 1.42-3.74a4.55 4.55 0 0 1 3.44-1.54c1.4 0 2.48.49 3.26 1.46V250Zm-4.76 7.04c.52.52 1.18.78 1.98.78s1.46-.26 1.98-.78c.53-.53.8-1.21.8-2.04 0-.83-.27-1.5-.8-2.02a2.65 2.65 0 0 0-1.98-.8c-.8 0-1.46.27-1.98.8-.52.52-.78 1.2-.78 2.02 0 .83.26 1.5.78 2.04ZM360.5 250h2.52v9.52c0 1.55-.51 2.73-1.54 3.54a5.7 5.7 0 0 1-3.68 1.22 6.2 6.2 0 0 1-2.86-.62 4.35 4.35 0 0 1-1.88-1.82l2.2-1.26c.5.93 1.38 1.4 2.62 1.4.81 0 1.45-.21 1.92-.64.46-.43.7-1.03.7-1.82v-1.08a3.77 3.77 0 0 1-3.2 1.52c-1.42 0-2.6-.5-3.56-1.48a5.1 5.1 0 0 1-1.42-3.64 5.04 5.04 0 0 1 4.98-5.12c1.37 0 2.44.5 3.2 1.52V250Zm-4.82 6.82c.53.5 1.2.76 2.02.76a2.66 2.66 0 0 0 2.8-2.74 2.7 2.7 0 0 0-2.8-2.72c-.81 0-1.49.26-2.02.78a2.6 2.6 0 0 0-.78 1.94c0 .8.26 1.46.78 1.98Zm11.86-.76c.34 1.25 1.28 1.88 2.82 1.88.98 0 1.73-.33 2.24-1l2.08 1.2a4.96 4.96 0 0 1-4.36 2.14c-1.66 0-2.98-.5-3.98-1.5s-1.5-2.26-1.5-3.78a5.14 5.14 0 0 1 5.28-5.28c1.46 0 2.67.5 3.62 1.52a5.26 5.26 0 0 1 1.44 3.76c0 .33-.04.69-.1 1.06h-7.54Zm-.04-2h5.1a2.4 2.4 0 0 0-.92-1.52c-.46-.33-.98-.5-1.56-.5-.7 0-1.27.18-1.72.54-.46.35-.76.84-.9 1.48Z" fill="#000"/>
        <path d="M134.77 278.2h1.12v9.8h-1.29v-8.4l-2.08.62-.32-1.12 2.57-.9Zm12.72 9.8h-1.43l-1.96-2.65-1.97 2.65h-1.43l2.69-3.6-2.54-3.4h1.45l1.8 2.44 1.8-2.44h1.44l-2.52 3.39 2.67 3.61Zm4.75-9.8h1.3v9.8h-1.3v-9.8Zm6.77 2.62c.82 0 1.48.26 1.97.78.5.51.75 1.21.75 2.1v4.3h-1.22v-4.23c0-.57-.16-1-.46-1.31a1.7 1.7 0 0 0-1.28-.48c-.6 0-1.1.2-1.47.57-.37.38-.56.96-.56 1.74V288h-1.22v-7h1.22v1a2.5 2.5 0 0 1 2.27-1.18Zm8.22 1.36h-1.86v3.79c0 .34.07.6.2.74.14.14.35.22.63.23l1.03-.03V288c-1.06.14-1.84.06-2.33-.25-.5-.32-.75-.91-.75-1.78v-3.8h-1.38V281h1.38v-1.6l1.22-.36V281h1.86v1.18Zm2.7 0c.4-.87 1.13-1.3 2.19-1.3v1.27a2.2 2.2 0 0 0-1.54.47c-.43.35-.65.9-.65 1.67V288h-1.21v-7h1.22v1.18Zm8.9 4.94a3.6 3.6 0 0 1-2.61 1.06c-1.03 0-1.9-.35-2.62-1.06a3.56 3.56 0 0 1-1.06-2.62 3.64 3.64 0 0 1 3.68-3.68c1.03 0 1.9.35 2.62 1.06.72.71 1.07 1.58 1.07 2.62s-.35 1.9-1.07 2.62Zm-2.61-.13a2.41 2.41 0 0 0 2.48-2.5c0-.7-.24-1.3-.72-1.77a2.4 2.4 0 0 0-1.76-.71 2.41 2.41 0 0 0-2.46 2.5 2.41 2.41 0 0 0 2.46 2.48Zm11.92 1.2a3.57 3.57 0 0 1-3.68-3.69 3.58 3.58 0 0 1 3.68-3.68c.69 0 1.31.17 1.86.5.55.33.96.77 1.23 1.33l-1.02.59a2.07 2.07 0 0 0-.82-.9 2.33 2.33 0 0 0-1.25-.33 2.4 2.4 0 0 0-2.46 2.49 2.42 2.42 0 0 0 2.46 2.48 2.3 2.3 0 0 0 2.11-1.22l1.04.6a3.6 3.6 0 0 1-3.15 1.83Zm10.05-7.19h1.22v7h-1.22v-1.2a2.97 2.97 0 0 1-2.64 1.38c-.98 0-1.82-.35-2.5-1.06a3.64 3.64 0 0 1-1.05-2.62c0-1.03.35-1.9 1.04-2.6a3.35 3.35 0 0 1 2.5-1.08c1.16 0 2.05.46 2.65 1.38V281Zm-2.49 6c.71 0 1.3-.23 1.78-.7.48-.5.71-1.1.71-1.8s-.23-1.3-.71-1.78a2.4 2.4 0 0 0-1.78-.73c-.7 0-1.29.25-1.76.73a2.41 2.41 0 0 0-.72 1.78c0 .7.24 1.3.72 1.8a2.4 2.4 0 0 0 1.76.7Zm5.56 1v-10.22h1.21V288h-1.21Zm3.07 0v-10.22h1.22V288h-1.22Zm-67.91 14.22c.75.14 1.36.46 1.84.96.47.5.71 1.15.71 1.92 0 .95-.32 1.7-.98 2.26-.65.55-1.45.82-2.38.82-.75 0-1.4-.17-1.99-.5a2.84 2.84 0 0 1-1.23-1.49l1.1-.64c.28.9 1 1.36 2.12 1.36.6 0 1.1-.16 1.49-.48.38-.31.57-.76.57-1.33 0-.57-.2-1.01-.57-1.33a2.2 2.2 0 0 0-1.49-.49h-.33l-.52-.8 2.27-3.06h-4.36v-1.22h5.88v1.15l-2.13 2.87ZM150 308h-1.43l-1.96-2.65-1.97 2.65h-1.43l2.69-3.6-2.53-3.4h1.44l1.8 2.44 1.81-2.44h1.43l-2.52 3.39L150 308Zm4.76-9.8h1.3v9.8h-1.3v-9.8Zm6.76 2.62c.82 0 1.48.26 1.98.78.49.51.74 1.21.74 2.1v4.3H163v-4.23c0-.57-.15-1-.46-1.31a1.7 1.7 0 0 0-1.28-.48c-.6 0-1.1.2-1.47.57-.37.38-.56.96-.56 1.74V308h-1.21v-7h1.21v1a2.5 2.5 0 0 1 2.27-1.18Zm8.23 1.36h-1.87v3.79c0 .34.07.6.2.74.14.14.35.22.63.23l1.04-.03V308c-1.07.14-1.85.06-2.34-.25-.5-.32-.74-.91-.74-1.78v-3.8h-1.39V301h1.39v-1.6l1.21-.36V301h1.87v1.18Zm1.94 2.88c.12.63.4 1.11.85 1.46.46.34 1.02.51 1.68.51.92 0 1.6-.34 2.02-1.02l1.03.59a3.42 3.42 0 0 1-3.08 1.58 3.7 3.7 0 0 1-2.71-1.03 3.62 3.62 0 0 1-1.04-2.65 3.53 3.53 0 0 1 3.67-3.68c1.03 0 1.86.36 2.5 1.09a3.73 3.73 0 0 1 .94 3.15h-5.86Zm2.42-3.1a2.37 2.37 0 0 0-2.42 2.03h4.67a2.33 2.33 0 0 0-.78-1.5 2.25 2.25 0 0 0-1.47-.52Zm6.1.22c.4-.87 1.13-1.3 2.19-1.3v1.27a2.2 2.2 0 0 0-1.54.47c-.43.35-.65.9-.65 1.67V308H179v-7h1.21v1.18Zm8.28-1.18h1.31l-2.8 7h-1.42l-2.8-7h1.31l2.2 5.7 2.2-5.7Zm2.96-1.27a.8.8 0 0 1-.59-.24.79.79 0 0 1-.24-.58c0-.22.08-.41.24-.57a.78.78 0 0 1 .59-.25c.22 0 .42.08.57.25.16.16.24.35.24.57 0 .23-.08.42-.24.58a.78.78 0 0 1-.57.24Zm-.62 8.27v-7h1.22v7h-1.22Zm3.94-2.94c.12.63.4 1.11.85 1.46a2.7 2.7 0 0 0 1.68.51c.92 0 1.6-.34 2.02-1.02l1.03.59a3.42 3.42 0 0 1-3.08 1.58 3.7 3.7 0 0 1-2.72-1.03 3.61 3.61 0 0 1-1.03-2.65 3.53 3.53 0 0 1 3.67-3.68 3.2 3.2 0 0 1 2.5 1.09 3.74 3.74 0 0 1 .94 3.15h-5.87Zm2.42-3.1a2.36 2.36 0 0 0-2.42 2.03h4.67a2.33 2.33 0 0 0-.78-1.5 2.25 2.25 0 0 0-1.47-.52Zm12.85-.96h1.28l-2.17 7h-1.25l-1.63-5.18-1.64 5.18h-1.25l-2.17-7h1.28l1.53 5.32 1.66-5.32h1.17l1.66 5.33 1.53-5.33Zm7.08 1.89c0 .27.14.49.4.66.28.16.6.29.99.39.38.1.76.2 1.15.34.38.12.7.33.98.64.27.3.4.69.4 1.16 0 .64-.25 1.15-.74 1.53-.48.38-1.11.57-1.88.57-.68 0-1.26-.15-1.75-.45a2.5 2.5 0 0 1-1.03-1.19l1.05-.6c.11.34.32.6.63.8.3.2.68.3 1.1.3a2 2 0 0 0 1-.23.8.8 0 0 0 .4-.73c0-.27-.15-.48-.41-.64a3.6 3.6 0 0 0-.99-.4c-.38-.1-.76-.21-1.14-.34a2.3 2.3 0 0 1-.98-.65c-.27-.3-.4-.68-.4-1.15 0-.6.22-1.1.7-1.5a2.7 2.7 0 0 1 1.77-.58c.57 0 1.07.13 1.51.39.45.25.78.6 1 1.06l-1.01.58c-.26-.6-.76-.9-1.5-.9-.35 0-.64.09-.88.25a.77.77 0 0 0-.37.69Zm6.03 2.17c.12.63.4 1.11.85 1.46.46.34 1.02.51 1.68.51.93 0 1.6-.34 2.02-1.02l1.03.59a3.42 3.42 0 0 1-3.08 1.58 3.7 3.7 0 0 1-2.71-1.03 3.62 3.62 0 0 1-1.04-2.65 3.53 3.53 0 0 1 3.67-3.68c1.03 0 1.86.36 2.5 1.09a3.73 3.73 0 0 1 .94 3.15h-5.86Zm2.42-3.1a2.37 2.37 0 0 0-2.42 2.03h4.67a2.33 2.33 0 0 0-.78-1.5 2.25 2.25 0 0 0-1.47-.52Zm5.66.93c0 .27.14.49.4.66.28.16.6.29.99.39.38.1.76.2 1.15.34.38.12.7.33.98.64.27.3.4.69.4 1.16 0 .64-.24 1.15-.74 1.53-.49.38-1.11.57-1.88.57-.68 0-1.26-.15-1.75-.45a2.5 2.5 0 0 1-1.03-1.19l1.05-.6c.11.34.32.6.63.8.3.2.68.3 1.1.3a2 2 0 0 0 1-.23.8.8 0 0 0 .39-.73c0-.27-.13-.48-.4-.64a3.6 3.6 0 0 0-.99-.4c-.38-.1-.76-.21-1.14-.34a2.3 2.3 0 0 1-.98-.65 1.6 1.6 0 0 1-.41-1.15c0-.6.23-1.1.7-1.5a2.7 2.7 0 0 1 1.78-.58c.57 0 1.07.13 1.51.39.45.25.78.6 1 1.06l-1.01.58c-.26-.6-.75-.9-1.5-.9-.35 0-.64.09-.88.25a.77.77 0 0 0-.37.69Zm5.98 0c0 .27.13.49.4.66.27.16.6.29.98.39.38.1.77.2 1.15.34.38.12.71.33.98.64.27.3.4.69.4 1.16 0 .64-.24 1.15-.74 1.53-.48.38-1.1.57-1.87.57-.68 0-1.27-.15-1.75-.45a2.5 2.5 0 0 1-1.04-1.19l1.05-.6c.12.34.33.6.63.8a2 2 0 0 0 1.1.3c.41 0 .74-.08 1-.23a.8.8 0 0 0 .4-.73c0-.27-.14-.48-.41-.64-.27-.17-.6-.3-.98-.4-.38-.1-.77-.21-1.15-.34a2.3 2.3 0 0 1-.98-.65c-.27-.3-.4-.68-.4-1.15 0-.6.23-1.1.7-1.5a2.7 2.7 0 0 1 1.77-.58c.57 0 1.08.13 1.52.39.44.25.78.6 1 1.06l-1.02.58c-.25-.6-.75-.9-1.5-.9-.34 0-.64.09-.88.25a.77.77 0 0 0-.36.69Zm5.9-3.16a.8.8 0 0 1-.58-.24.79.79 0 0 1-.24-.58c0-.22.08-.41.24-.57a.78.78 0 0 1 .59-.25c.22 0 .41.08.57.25.16.16.24.35.24.57 0 .23-.08.42-.24.58a.78.78 0 0 1-.57.24Zm-.61 8.27v-7h1.22v7h-1.22Zm8.98-.88a3.6 3.6 0 0 1-2.61 1.06c-1.03 0-1.9-.35-2.62-1.06a3.56 3.56 0 0 1-1.06-2.62 3.62 3.62 0 0 1 3.68-3.68c1.02 0 1.9.35 2.61 1.06.72.71 1.08 1.58 1.08 2.62s-.36 1.9-1.08 2.62Zm-2.61-.13a2.41 2.41 0 0 0 2.48-2.5c0-.7-.24-1.3-.72-1.77a2.4 2.4 0 0 0-1.76-.71 2.41 2.41 0 0 0-2.46 2.5 2.41 2.41 0 0 0 2.46 2.48Zm8.61-6.17c.83 0 1.48.26 1.98.78.5.51.74 1.21.74 2.1v4.3h-1.22v-4.23c0-.57-.15-1-.46-1.31a1.7 1.7 0 0 0-1.27-.48 2 2 0 0 0-1.47.57c-.38.38-.56.96-.56 1.74V308H254v-7h1.22v1a2.49 2.49 0 0 1 2.26-1.18Zm5.47 2.07c0 .27.14.49.4.66.28.16.6.29.99.39.38.1.76.2 1.15.34.38.12.7.33.97.64.28.3.41.69.41 1.16 0 .64-.25 1.15-.74 1.53-.49.38-1.11.57-1.88.57-.68 0-1.26-.15-1.75-.45a2.5 2.5 0 0 1-1.03-1.19l1.05-.6c.1.34.32.6.63.8.3.2.67.3 1.1.3a2 2 0 0 0 1-.23.8.8 0 0 0 .39-.73c0-.27-.14-.48-.4-.64a3.6 3.6 0 0 0-.99-.4c-.38-.1-.76-.21-1.14-.34a2.3 2.3 0 0 1-.99-.65c-.27-.3-.4-.68-.4-1.15 0-.6.23-1.1.7-1.5a2.7 2.7 0 0 1 1.78-.58c.57 0 1.07.13 1.5.39.46.25.8.6 1.02 1.06l-1.02.58c-.26-.6-.76-.9-1.5-.9-.35 0-.64.09-.88.25a.77.77 0 0 0-.37.69ZM134.77 318.2h1.12v9.8h-1.29v-8.4l-2.08.62-.32-1.12 2.57-.9Zm12.72 9.8h-1.43l-1.96-2.65-1.97 2.65h-1.43l2.69-3.6-2.54-3.4h1.45l1.8 2.44 1.8-2.44h1.44l-2.52 3.39 2.67 3.61Zm10.56 0-2.2-3.75h-2.3V328h-1.3v-9.8h3.91c.84 0 1.56.3 2.16.9.6.58.9 1.3.9 2.14 0 .63-.2 1.21-.58 1.73a3 3 0 0 1-1.45 1.11l2.3 3.92h-1.44Zm-4.5-8.58v3.65h2.61c.5 0 .9-.18 1.24-.53.34-.36.51-.8.51-1.3s-.17-.94-.51-1.29a1.63 1.63 0 0 0-1.24-.53h-2.61Zm7.63 5.64c.12.63.4 1.11.85 1.46.46.34 1.02.51 1.68.51.92 0 1.6-.34 2.02-1.02l1.03.59a3.42 3.42 0 0 1-3.08 1.58 3.7 3.7 0 0 1-2.71-1.03 3.62 3.62 0 0 1-1.04-2.65 3.53 3.53 0 0 1 3.67-3.68c1.03 0 1.86.36 2.5 1.09a3.73 3.73 0 0 1 .94 3.15h-5.86Zm2.42-3.1a2.37 2.37 0 0 0-2.42 2.03h4.67a2.33 2.33 0 0 0-.78-1.5 2.25 2.25 0 0 0-1.47-.52Zm5.66.93c0 .27.14.49.4.66.28.16.6.29.99.39.38.1.76.2 1.14.34.39.12.71.33.99.64.27.3.4.69.4 1.16 0 .64-.25 1.15-.74 1.53-.49.38-1.11.57-1.88.57-.68 0-1.26-.15-1.75-.45a2.5 2.5 0 0 1-1.03-1.19l1.05-.6c.1.34.32.6.63.8.3.2.67.3 1.1.3a2 2 0 0 0 1-.23.8.8 0 0 0 .39-.73c0-.27-.14-.48-.4-.64a3.6 3.6 0 0 0-.99-.4c-.38-.1-.76-.21-1.15-.34a2.3 2.3 0 0 1-.97-.65 1.6 1.6 0 0 1-.41-1.15c0-.6.23-1.1.7-1.5a2.7 2.7 0 0 1 1.78-.58c.57 0 1.07.13 1.5.39.46.25.8.6 1.02 1.06l-1.03.58c-.25-.6-.75-.9-1.5-.9-.34 0-.63.09-.88.25a.77.77 0 0 0-.36.69ZM179.4 321h1.21v7h-1.22v-1a2.48 2.48 0 0 1-2.26 1.18c-.82 0-1.48-.25-1.98-.77a2.95 2.95 0 0 1-.74-2.11V321h1.22v4.23c0 .57.15 1.01.46 1.33.3.3.73.46 1.27.46.61 0 1.1-.19 1.47-.56.38-.38.56-.97.56-1.75V321Zm10.63-.18c.78 0 1.42.25 1.9.77.49.5.73 1.19.73 2.06V328h-1.22v-4.31c0-.54-.14-.96-.42-1.26-.28-.3-.65-.45-1.12-.45-.52 0-.94.18-1.26.53-.3.35-.46.88-.46 1.6V328h-1.22v-4.31c0-.54-.13-.96-.4-1.26-.27-.3-.63-.45-1.08-.45-.52 0-.94.18-1.3.53-.33.36-.5.89-.5 1.6V328h-1.21v-7h1.22v.94a2.32 2.32 0 0 1 2.08-1.12c.94 0 1.63.4 2.06 1.19a2.4 2.4 0 0 1 2.2-1.2Zm5.17 4.24c.12.63.4 1.11.86 1.46a2.7 2.7 0 0 0 1.68.51c.92 0 1.6-.34 2.01-1.02l1.04.59a3.42 3.42 0 0 1-3.08 1.58 3.7 3.7 0 0 1-2.72-1.03 3.61 3.61 0 0 1-1.03-2.65 3.53 3.53 0 0 1 3.67-3.68c1.02 0 1.86.36 2.5 1.09a3.74 3.74 0 0 1 .94 3.15h-5.87Zm2.42-3.1a2.37 2.37 0 0 0-2.42 2.03h4.68a2.33 2.33 0 0 0-.79-1.5 2.25 2.25 0 0 0-1.47-.52Zm12.25-1.14c.98 0 1.82.36 2.51 1.08.7.7 1.04 1.57 1.04 2.6s-.35 1.9-1.04 2.62a3.37 3.37 0 0 1-2.5 1.06 2.97 2.97 0 0 1-2.65-1.38v1.2H206v-9.8h1.22v4a2.97 2.97 0 0 1 2.64-1.38Zm-.15 6.19a2.46 2.46 0 0 0 2.48-2.5c0-.72-.24-1.31-.72-1.79a2.37 2.37 0 0 0-1.76-.73c-.7 0-1.3.25-1.78.73a2.41 2.41 0 0 0-.71 1.78 2.46 2.46 0 0 0 2.49 2.5Zm9.98-6.01h1.22v7h-1.22v-1a2.5 2.5 0 0 1-2.27 1.18c-.82 0-1.48-.25-1.97-.77a2.95 2.95 0 0 1-.74-2.11V321h1.21v4.23c0 .57.16 1.01.47 1.33.3.3.73.46 1.27.46a2 2 0 0 0 1.47-.56c.37-.38.56-.97.56-1.75V321Zm3.69-1.27a.8.8 0 0 1-.59-.24.78.78 0 0 1-.24-.58c0-.22.08-.41.24-.57a.78.78 0 0 1 .59-.25c.22 0 .41.08.57.25.16.16.24.35.24.57 0 .23-.08.42-.24.58a.78.78 0 0 1-.57.24Zm-.62 8.27v-7h1.22v7h-1.22Zm3.08 0v-10.22h1.22V328h-1.22Zm8.87-9.8h1.22v9.8h-1.22v-1.2a2.97 2.97 0 0 1-2.65 1.38c-.98 0-1.81-.35-2.5-1.06a3.64 3.64 0 0 1-1.04-2.62c0-1.03.35-1.9 1.04-2.6a3.35 3.35 0 0 1 2.5-1.08c1.16 0 2.04.46 2.65 1.38v-4Zm-2.5 8.8c.72 0 1.31-.23 1.79-.7.47-.5.71-1.1.71-1.8s-.24-1.3-.71-1.78a2.39 2.39 0 0 0-1.78-.73c-.7 0-1.29.25-1.77.73a2.41 2.41 0 0 0-.71 1.78c0 .7.24 1.3.71 1.8a2.4 2.4 0 0 0 1.77.7Zm6.18-7.27a.8.8 0 0 1-.59-.24.78.78 0 0 1-.24-.58c0-.22.08-.41.24-.57a.77.77 0 0 1 .59-.25c.22 0 .42.08.57.25.16.16.24.35.24.57 0 .23-.08.42-.24.58a.78.78 0 0 1-.57.24Zm-.62 8.27v-7H239v7h-1.22Zm6.57-7.18c.82 0 1.47.26 1.97.78.5.51.74 1.21.74 2.1v4.3h-1.22v-4.23c0-.57-.15-1-.46-1.31a1.7 1.7 0 0 0-1.27-.48c-.6 0-1.1.2-1.47.57-.38.38-.56.96-.56 1.74V328h-1.22v-7h1.22v1a2.5 2.5 0 0 1 2.27-1.18Zm10.22.18h1.2v6.7c0 1.04-.34 1.85-1.04 2.41-.7.58-1.54.87-2.52.87-.79 0-1.46-.15-2.03-.45-.57-.28-1-.7-1.3-1.26l1.07-.6c.38.79 1.15 1.18 2.28 1.18.73 0 1.3-.2 1.71-.58a2 2 0 0 0 .63-1.56v-1c-.61.94-1.5 1.4-2.63 1.4-1 0-1.84-.35-2.53-1.06a3.57 3.57 0 0 1-1.04-2.6c0-1 .34-1.87 1.04-2.57a3.4 3.4 0 0 1 2.53-1.06c1.15 0 2.03.46 2.63 1.38V321Zm-4.27 5.24c.48.47 1.07.71 1.78.71a2.44 2.44 0 0 0 2.49-2.49 2.41 2.41 0 0 0-2.5-2.48c-.7 0-1.3.24-1.77.71a2.4 2.4 0 0 0-.71 1.77c0 .7.24 1.3.71 1.78Z" fill="#5E5F5D"/>
        <g filter="url(#e)">
          <path d="M113 384h360v68H113z" fill="#fff"/>
          <rect fill="#141414" height="38" rx="4" width="79" x="345" y="393"/>
          <path d="M379.2 411.92c.86.5 1.29 1.24 1.29 2.24 0 .83-.3 1.51-.88 2.04-.6.53-1.31.8-2.17.8h-4.16v-9.8h3.86a3 3 0 0 1 2.12.78c.57.52.87 1.17.87 1.98s-.31 1.46-.93 1.96Zm-2.06-2.91h-1.93v2.15h1.93a1.05 1.05 0 0 0 1.05-1.08c0-.3-.1-.56-.3-.77a1 1 0 0 0-.75-.3Zm.3 6.18c.32 0 .6-.1.8-.32.22-.22.33-.5.33-.84 0-.32-.1-.6-.32-.81a1.08 1.08 0 0 0-.81-.34h-2.23v2.31h2.23Zm9.1-5.19h1.8v7h-1.8v-.78c-.44.65-1.13.98-2.08.98-.77 0-1.4-.26-1.9-.77a2.94 2.94 0 0 1-.75-2.13V410h1.8v4.07c0 .47.13.83.38 1.08.26.25.6.37 1.01.37.47 0 .84-.15 1.12-.44.28-.29.42-.72.42-1.3V410Zm8.13 0h1.93l-2.55 7c-.36 1-.85 1.74-1.46 2.18-.6.46-1.34.67-2.24.62v-1.68c.49 0 .87-.1 1.15-.3.3-.22.52-.57.69-1.04l-2.87-6.78h1.97l1.82 4.7 1.56-4.7Z" fill="#fff"/>
          <path d="M138.18 415.76c0 .65-.22 1.2-.65 1.62-.43.42-.99.67-1.68.75v1.07h-.75v-1.06a3.4 3.4 0 0 1-1.68-.54 2.68 2.68 0 0 1-1-1.26l.96-.55c.27.75.84 1.17 1.72 1.26v-2.9a4.68 4.68 0 0 1-1.56-.8c-.24-.18-.42-.4-.54-.67a2.44 2.44 0 0 1-.17-.93c0-.65.21-1.18.65-1.59.43-.4.97-.64 1.62-.7v-1.06h.75v1.07a2.68 2.68 0 0 1 2.16 1.6l-.93.53a1.58 1.58 0 0 0-1.23-1.04v2.76c.37.14.66.26.88.36.21.1.45.25.7.44.26.19.45.42.57.69.12.27.18.59.18.95Zm-4.25-4.01c0 .3.1.55.28.74.18.2.48.37.89.54v-2.48c-.36.05-.64.18-.86.4-.2.2-.3.47-.3.8Zm1.92 5.28c.39-.06.68-.2.89-.42.22-.23.32-.51.32-.84 0-.33-.1-.59-.3-.78-.19-.2-.5-.39-.9-.57v2.6Zm7.9-3.37c.4.2.72.48.95.84.24.35.35.75.35 1.2a2.2 2.2 0 0 1-.8 1.8 3.2 3.2 0 0 1-2.08.66c-.84 0-1.53-.22-2.06-.65a2.22 2.22 0 0 1-.8-1.81c0-.45.11-.85.34-1.2.23-.36.55-.64.96-.84a2.05 2.05 0 0 1-1.03-1.84c0-.76.25-1.34.76-1.75a2.82 2.82 0 0 1 1.83-.63c.72 0 1.33.21 1.84.63.51.4.77.99.77 1.75 0 .8-.35 1.4-1.04 1.84Zm-1.58-3.15c-.42 0-.78.11-1.07.34-.28.22-.42.55-.42 1 0 .42.15.75.44.99.28.23.64.35 1.05.35.42 0 .77-.12 1.06-.35.29-.24.43-.57.43-1 0-.44-.14-.77-.42-1a1.66 1.66 0 0 0-1.07-.33Zm0 6.58c.54 0 .97-.13 1.29-.37.32-.26.49-.62.49-1.1 0-.46-.17-.82-.5-1.06a2 2 0 0 0-1.28-.39 2 2 0 0 0-1.28.39c-.32.24-.48.6-.48 1.06 0 .48.16.84.48 1.1.33.24.75.37 1.28.37Zm9.75-.12a2.77 2.77 0 0 1-2.39 1.19c-1.02 0-1.82-.4-2.38-1.2a5.33 5.33 0 0 1-.86-3.16c0-1.32.29-2.38.86-3.17a2.77 2.77 0 0 1 2.38-1.19c1.03 0 1.82.4 2.4 1.2.56.78.84 1.84.84 3.16s-.28 2.38-.85 3.17Zm-3.96-.76c.37.57.9.85 1.57.85.68 0 1.2-.28 1.58-.85.37-.57.56-1.37.56-2.41s-.19-1.84-.56-2.41c-.37-.58-.9-.87-1.58-.87s-1.2.29-1.57.86a4.46 4.46 0 0 0-.55 2.42c0 1.04.18 1.84.55 2.41Zm11.77.76a2.77 2.77 0 0 1-2.39 1.19c-1.02 0-1.82-.4-2.38-1.2a5.33 5.33 0 0 1-.86-3.16c0-1.32.29-2.38.86-3.17a2.77 2.77 0 0 1 2.38-1.19c1.03 0 1.82.4 2.39 1.2.57.78.85 1.84.85 3.16s-.28 2.38-.85 3.17Zm-3.96-.76c.37.57.9.85 1.57.85.68 0 1.2-.28 1.57-.85.38-.57.57-1.37.57-2.41s-.19-1.84-.56-2.41c-.37-.58-.9-.87-1.58-.87s-1.2.29-1.57.86a4.46 4.46 0 0 0-.55 2.42c0 1.04.18 1.84.55 2.41Z" fill="#141414" fill-opacity=".5"/>
          <path d="M132 414.4h29.12v.6H132v-.6Z" fill="#141414" fill-opacity=".5"/>
          <path d="M177.43 414.47c0 1.06-.33 1.92-1 2.58a4.44 4.44 0 0 1-2.63 1.17v1.58h-1.21v-1.57c-1-.07-1.87-.35-2.6-.84a4.08 4.08 0 0 1-1.54-2l2.14-1.24c.39.96 1.05 1.5 2 1.64v-3.12h-.02l-.03-.02a7.98 7.98 0 0 1-1.96-.94 3.84 3.84 0 0 1-.83-.7 3.56 3.56 0 0 1-.74-2.21c0-1.05.34-1.9 1.02-2.54.7-.63 1.55-1 2.56-1.1v-1.56h1.2v1.6a4.08 4.08 0 0 1 3.46 2.54l-2.09 1.22c-.28-.72-.74-1.15-1.36-1.31v3c1.11.45 1.86.8 2.25 1.07a3.2 3.2 0 0 1 1.38 2.75Zm-5.96-5.65c0 .26.09.5.26.7.16.2.45.4.86.6v-2.52c-.36.07-.64.21-.83.43-.19.21-.29.48-.29.79Zm2.33 6.93c.76-.17 1.15-.59 1.15-1.26 0-.3-.1-.55-.29-.76-.18-.2-.47-.4-.86-.57v2.59Zm14.52-2.2v2.3h-1.35V418h-2.5v-2.14h-5.96v-2.3l4.2-8.16h2.66l-4.18 8.15h3.28v-2.98h2.5v2.98h1.35Zm6.17 4.7a4.4 4.4 0 0 1-3.7-1.78c-.9-1.2-1.34-2.79-1.34-4.77 0-1.98.44-3.56 1.33-4.75.9-1.2 2.14-1.8 3.71-1.8 1.58 0 2.82.6 3.7 1.8.9 1.19 1.34 2.77 1.34 4.75s-.44 3.57-1.33 4.77a4.37 4.37 0 0 1-3.71 1.78Zm-1.9-3.47a2.1 2.1 0 0 0 1.9 1.04 2.1 2.1 0 0 0 1.9-1.06c.45-.7.67-1.73.67-3.06a5.9 5.9 0 0 0-.66-3.08 2.1 2.1 0 0 0-1.91-1.06 2.1 2.1 0 0 0-1.9 1.06c-.44.71-.66 1.74-.66 3.08s.22 2.37.65 3.08Zm13.49 3.47a4.4 4.4 0 0 1-3.71-1.78c-.89-1.2-1.33-2.79-1.33-4.77 0-1.98.44-3.56 1.33-4.75.9-1.2 2.14-1.8 3.7-1.8 1.6 0 2.83.6 3.72 1.8.88 1.19 1.33 2.77 1.33 4.75s-.45 3.57-1.33 4.77a4.37 4.37 0 0 1-3.71 1.78Zm-1.91-3.47a2.1 2.1 0 0 0 1.9 1.04 2.1 2.1 0 0 0 1.92-1.06c.44-.7.66-1.73.66-3.06a5.9 5.9 0 0 0-.66-3.08 2.1 2.1 0 0 0-1.91-1.06 2.1 2.1 0 0 0-1.91 1.06c-.43.71-.65 1.74-.65 3.08s.22 2.37.65 3.08Z" fill="#141414"/>
        </g>
      </g>
    </g>
  </g>
  <defs>
    <clipPath id="a">
      <rect fill="#fff" height="546" rx="80" width="557"/>
    </clipPath>
    <clipPath id="c">
      <rect fill="#fff" height="357" rx="24" width="328" x="114" y="95"/>
    </clipPath>
    <clipPath id="d">
      <path d="M114 95h328v118H114z" fill="#fff"/>
    </clipPath>
    <filter color-interpolation-filters="sRGB" filterUnits="userSpaceOnUse" height="405" id="b" width="376" x="94" y="75">
      <feFlood flood-opacity="0" result="BackgroundImageFix"/>
      <feColorMatrix in="SourceAlpha" result="hardAlpha" values="0 0 0 0 0 0 0 0 0 0 0 0 0 0 0 0 0 0 127 0"/>
      <feOffset dx="4" dy="4"/>
      <feGaussianBlur stdDeviation="12"/>
      <feComposite in2="hardAlpha" operator="out"/>
      <feColorMatrix values="0 0 0 0 0 0 0 0 0 0 0 0 0 0 0 0 0 0 0.12 0"/>
      <feBlend in2="BackgroundImageFix" result="effect1_dropShadow_7266_21973"/>
      <feBlend in="SourceGraphic" in2="effect1_dropShadow_7266_21973" result="shape"/>
    </filter>
    <filter color-interpolation-filters="sRGB" filterUnits="userSpaceOnUse" height="76" id="e" width="368" x="109" y="376">
      <feFlood flood-opacity="0" result="BackgroundImageFix"/>
      <feColorMatrix in="SourceAlpha" result="hardAlpha" values="0 0 0 0 0 0 0 0 0 0 0 0 0 0 0 0 0 0 127 0"/>
      <feOffset dy="-4"/>
      <feGaussianBlur stdDeviation="2"/>
      <feComposite in2="hardAlpha" operator="out"/>
      <feColorMatrix values="0 0 0 0 0 0 0 0 0 0 0 0 0 0 0 0 0 0 0.05 0"/>
      <feBlend in2="BackgroundImageFix" result="effect1_dropShadow_7266_21973"/>
      <feBlend in="SourceGraphic" in2="effect1_dropShadow_7266_21973" result="shape"/>
    </filter>
  </defs>
</svg>