<?xml version="1.0" encoding="utf-8"?>
<svg xmlns="http://www.w3.org/2000/svg" fill="none" viewBox="0 0 557 546">
  <g clip-path="url(#a)">
    <rect fill="#F9D8EE" height="546" rx="80" width="557"/>
    <g filter="url(#b)">
      <g clip-path="url(#c)">
        <rect fill="#fff" height="357" rx="24" width="328" x="114" y="95"/>
        <g clip-path="url(#d)">
          <path d="M114 119a24 24 0 0 1 24-24h280a24 24 0 0 1 24 24v94H114v-94Z" fill="#FF81D5"/>
          <path d="M276.4 112.06h-64.56c-4.16 0-7.54 3.21-7.54 7.18v56.96c0 3.97 3.38 7.18 7.54 7.18h64.56c4.16 0 7.54-3.22 7.54-7.18v-56.96c0-3.97-3.38-7.18-7.54-7.18Z" fill="#fff"/>
          <path d="M276.4 183.66h-64.56c-4.32 0-7.83-3.34-7.83-7.46v-56.96c0-4.11 3.51-7.46 7.83-7.46h64.56c4.32 0 7.83 3.35 7.83 7.46v56.96c0 4.12-3.51 7.46-7.83 7.46Zm-64.56-71.32c-4 0-7.25 3.1-7.25 6.9v56.96c0 3.81 3.25 6.9 7.25 6.9h64.56c4 0 7.24-3.09 7.24-6.9v-56.96c0-3.8-3.25-6.9-7.24-6.9h-64.56Z" fill="#000"/>
          <path d="M277.4 131.6v24.33c0 1.4-1.2 2.55-2.68 2.55h-31.09a2.61 2.61 0 0 1-2.67-2.55V131.6c0-1.41 1.2-2.55 2.67-2.55h31.1a2.61 2.61 0 0 1 2.67 2.55Z" fill="#fff"/>
          <path d="M274.72 158.76h-31.09a2.9 2.9 0 0 1-2.96-2.83v-24.34a2.9 2.9 0 0 1 2.96-2.82h31.1a2.9 2.9 0 0 1 2.96 2.82v24.34a2.9 2.9 0 0 1-2.97 2.83Zm-31.09-29.44a2.33 2.33 0 0 0-2.38 2.27v24.34a2.33 2.33 0 0 0 2.38 2.27h31.1a2.33 2.33 0 0 0 2.37-2.27v-24.34a2.33 2.33 0 0 0-2.38-2.27h-31.09Z" fill="#000"/>
          <path d="M273.3 153.52h-28.25l7.17-10.47 3.85 4.37 6.96-8.91 10.27 15.01Z" fill="#BF92FB"/>
          <path d="M273.3 153.8h-28.25a.3.3 0 0 1-.26-.15.27.27 0 0 1 .02-.28l7.16-10.47a.3.3 0 0 1 .47-.03l3.61 4.1 6.74-8.63a.3.3 0 0 1 .25-.11.3.3 0 0 1 .23.12l10.27 15.02c.06.08.07.2.01.28a.3.3 0 0 1-.25.15Zm-27.71-.56h27.17L263 139l-6.71 8.6a.3.3 0 0 1-.23.1.3.3 0 0 1-.23-.1l-3.6-4.08-6.65 9.73Z" fill="#000"/>
          <path d="M254.3 150.3a.3.3 0 0 1-.17-.05.27.27 0 0 1-.08-.38l1.77-2.6a.3.3 0 0 1 .4-.08c.14.08.18.25.1.38l-1.78 2.6a.3.3 0 0 1-.25.13Z" fill="#000"/>
          <path d="M256.07 141.36c1.65 0 3-1.27 3-2.85a2.93 2.93 0 0 0-3-2.85c-1.65 0-3 1.27-3 2.85a2.93 2.93 0 0 0 3 2.85Z" fill="#FEC524"/>
          <path d="M236.54 133.28h-25.7a.29.29 0 0 1-.3-.28c0-.15.14-.28.3-.28h25.7c.16 0 .3.13.3.28 0 .15-.14.28-.3.28Zm-14.32 6.03h-11.38a.29.29 0 0 1-.3-.28c0-.15.14-.28.3-.28h11.38c.16 0 .29.13.29.28 0 .16-.13.28-.3.28Zm14.32 0h-6.56a.29.29 0 0 1-.3-.28c0-.15.13-.28.3-.28h6.56c.16 0 .3.13.3.28 0 .16-.14.28-.3.28Zm0 6.03h-25.7a.29.29 0 0 1-.3-.28c0-.15.14-.28.3-.28h25.7c.16 0 .3.13.3.28 0 .16-.14.28-.3.28Zm-20.47 6.03h-5.23a.29.29 0 0 1-.3-.28c0-.15.14-.27.3-.27h5.23c.16 0 .3.12.3.28 0 .15-.14.27-.3.27Zm20.47 0H219.8a.29.29 0 0 1-.3-.28c0-.15.14-.27.3-.27h16.74c.16 0 .3.12.3.28 0 .15-.14.27-.3.27Zm-12.85 6.04h-12.85a.29.29 0 0 1-.3-.28c0-.16.14-.28.3-.28h12.85c.16 0 .3.12.3.28 0 .15-.14.28-.3.28Zm12.85 0h-8.4a.29.29 0 0 1-.3-.28c0-.16.13-.28.3-.28h8.4c.16 0 .3.12.3.28 0 .15-.14.28-.3.28Zm40.86 6.03h-66.56a.29.29 0 0 1-.3-.28c0-.16.14-.28.3-.28h66.56c.16 0 .29.12.29.28 0 .15-.13.28-.3.28Zm-47.82 6.03h-18.74a.29.29 0 0 1-.3-.28c0-.15.14-.28.3-.28h18.74c.16 0 .3.13.3.28 0 .15-.14.28-.3.28Zm47.82 0h-39.41a.29.29 0 0 1-.3-.28c0-.15.14-.28.3-.28h39.4c.17 0 .3.13.3.28 0 .15-.13.28-.3.28Zm-23 6.03h-43.56a.29.29 0 0 1-.3-.28c0-.15.14-.28.3-.28h43.57c.16 0 .29.13.29.28 0 .16-.13.28-.3.28Zm23 0h-15.23a.29.29 0 0 1-.3-.28c0-.15.14-.28.3-.28h15.23c.16 0 .29.13.29.28 0 .16-.13.28-.3.28Zm6.54-52.75h-79.52a.29.29 0 0 1-.3-.28c0-.15.13-.28.3-.28h79.52c.16 0 .29.13.29.28 0 .16-.13.28-.3.28Z" fill="#000"/>
          <path d="M213.16 117.77c0 .96-.82 1.73-1.82 1.73s-1.81-.77-1.81-1.73.8-1.73 1.81-1.73c1 0 1.82.77 1.82 1.73Z" fill="#FEC524"/>
          <path d="M218.56 117.77c0 .96-.82 1.73-1.82 1.73s-1.82-.77-1.82-1.73.82-1.73 1.82-1.73 1.82.77 1.82 1.73Z" fill="#BF92FB"/>
          <path d="M223.96 117.77c0 .96-.82 1.73-1.82 1.73s-1.82-.77-1.82-1.73.82-1.73 1.82-1.73 1.82.77 1.82 1.73Z" fill="#71FFCC"/>
          <path d="m232.58 153.72 4.14-3.06 3.45-.13 2.87-.1-.82 2.62-.99 3.15-4.14 3.07-4.51-5.55Z" fill="#fff"/>
          <path d="M237.1 159.55h-.04a.3.3 0 0 1-.2-.1l-4.51-5.55a.27.27 0 0 1 .05-.4l4.14-3.06a.3.3 0 0 1 .17-.05l6.32-.24c.1 0 .19.03.24.1.06.08.08.17.05.26l-1.8 5.78a.28.28 0 0 1-.11.14l-4.14 3.06a.3.3 0 0 1-.18.06Zm-4.11-5.77 4.15 5.1 3.84-2.84 1.67-5.32-5.83.22-3.83 2.84Z" fill="#000"/>
          <path d="M227.1 164.44s1.7-11.72 4.34-12.28c2.65-.56 1.06 9.45 1.06 9.45l-5.4 2.83Z" fill="#fff"/>
          <path d="M227.1 164.71a.3.3 0 0 1-.17-.05.27.27 0 0 1-.12-.26c.17-1.22 1.8-11.93 4.57-12.51.38-.08.73 0 1.01.25 1.63 1.46.54 8.69.4 9.5a.28.28 0 0 1-.14.21l-5.41 2.83a.3.3 0 0 1-.14.03Zm4.55-12.3-.14.02c-1.73.37-3.32 6.88-4.04 11.5l4.77-2.5c.34-2.25.92-7.84-.25-8.88a.5.5 0 0 0-.34-.13Z" fill="#000"/>
          <path d="M236.59 150.76c.28 2.75 1.79 4.6 4.51 5.54l-19.02 14.08-4.52-5.54 19.03-14.08Z" fill="#FEC524"/>
          <path d="M222.07 170.66h-.03a.3.3 0 0 1-.2-.11l-4.5-5.55a.27.27 0 0 1 .04-.39l19.03-14.08a.3.3 0 0 1 .3-.03c.1.04.16.13.17.23.28 2.66 1.69 4.4 4.32 5.3.1.04.17.13.19.22.02.1-.03.2-.11.27l-19.03 14.08a.3.3 0 0 1-.18.06Zm-4.1-5.78 4.16 5.1 18.39-13.6a6.35 6.35 0 0 1-4.16-5.1l-18.39 13.6Z" fill="#000"/>
          <path d="m232.98 181.06-11.72-6.53s2.07-5.21 3.04-6.9c1.71-2.99 8.28-11.93 10.2-9.94.76.8.7 2.68.01 3.78 0 0 5.94 3 6.35 5.55.28 1.67-7.88 14.04-7.88 14.04Z" fill="#fff"/>
          <path d="M232.98 181.34a.3.3 0 0 1-.15-.04l-11.72-6.52a.27.27 0 0 1-.12-.34 85.5 85.5 0 0 1 3.05-6.93c1.16-2.02 6.7-10.04 9.58-10.37.44-.05.81.08 1.1.37.83.88.77 2.67.19 3.86 1.17.62 5.86 3.23 6.25 5.61.28 1.73-7.1 12.96-7.93 14.23a.3.3 0 0 1-.25.13Zm-11.36-6.93 11.26 6.28c3.14-4.77 7.88-12.5 7.7-13.62-.4-2.4-6.14-5.31-6.2-5.34a.28.28 0 0 1-.14-.17.26.26 0 0 1 .02-.22c.66-1.07.66-2.78.02-3.45-.15-.16-.34-.22-.6-.2-2.32.27-7.52 7.28-9.12 10.08a82.64 82.64 0 0 0-2.94 6.64Z" fill="#000"/>
          <path d="M216.61 165.54c-4.48 3.31.04 8.86 4.51 5.54l.95-.7-4.5-5.54-.96.7Z" fill="#71FFCC"/>
          <path d="M218.3 172.4a3.9 3.9 0 0 1-3.02-1.43c-1.18-1.44-1.31-3.82 1.15-5.65l.95-.7a.3.3 0 0 1 .41.05l4.52 5.54a.3.3 0 0 1 .05.2.28.28 0 0 1-.1.2l-.96.7a5.03 5.03 0 0 1-3 1.09Zm-1.51-6.64c-1.28.95-1.88 2.15-1.7 3.4a3.1 3.1 0 0 0 1.99 2.44c1.21.47 2.59.21 3.86-.73l.72-.53-4.15-5.1-.72.52Zm23.38-15.23 2.87-.1-.82 2.62-2.05-2.52Z" fill="#000"/>
          <path d="M242.22 153.33a.3.3 0 0 1-.23-.11l-2.05-2.52a.27.27 0 0 1-.04-.3.3.3 0 0 1 .26-.15l2.87-.1c.1-.01.19.03.24.1.06.07.08.16.05.25l-.82 2.63a.29.29 0 0 1-.22.19h-.06Zm-1.47-2.55 1.35 1.67.55-1.74-1.9.07Zm-13.25 20.56a.29.29 0 0 1-.3-.25c-.01-.16.1-.3.27-.31 2.13-.22 3.53-.9 4.16-2 .99-1.72-.17-3.96-.18-3.98a.27.27 0 0 1 .07-.33c.01-.02 1.76-1.53 2.74-3.13a.3.3 0 0 1 .4-.1c.14.07.19.24.1.38-.86 1.4-2.23 2.7-2.7 3.12.29.63 1.05 2.62.09 4.3-.74 1.28-2.29 2.06-4.62 2.3h-.03Z" fill="#000"/>
          <path d="M234.48 161.62c.47-.81 1.46-1.15 2.2-.75.74.4.96 1.37.49 2.18-.48.8-1.95 1.97-2.7 1.57-.73-.4-.46-2.2.01-3Z" fill="#fff"/>
          <path d="M234.81 164.98a1 1 0 0 1-.47-.1c-.44-.24-.66-.81-.6-1.62.03-.63.22-1.33.48-1.77.27-.46.68-.8 1.16-.96.5-.16 1-.13 1.44.1.44.23.74.63.84 1.12.11.48.03 1-.24 1.44-.44.75-1.67 1.8-2.6 1.8Zm1.2-4a1.57 1.57 0 0 0-1.27.77c-.23.38-.4 1-.43 1.54-.03.56.09.98.31 1.1.5.26 1.83-.68 2.3-1.47.19-.33.25-.7.17-1.05a1.1 1.1 0 0 0-1.09-.88Z" fill="#000"/>
          <path d="M236.58 163.67c.48-.8 1.46-1.14 2.2-.75.75.4.97 1.38.5 2.18-.48.81-1.96 1.97-2.7 1.58-.74-.4-.47-2.2 0-3.01Z" fill="#fff"/>
          <path d="M236.93 167.03a1 1 0 0 1-.49-.11c-.43-.23-.65-.8-.6-1.6a4.3 4.3 0 0 1 .5-1.79c.54-.94 1.7-1.32 2.6-.85.43.23.72.63.83 1.12.1.48.02.99-.24 1.44-.27.45-.79.97-1.33 1.33-.47.3-.9.46-1.27.46Zm1.18-4c-.48 0-.98.29-1.27.77-.22.38-.39 1-.42 1.54-.03.56.09.97.3 1.1.23.1.66-.01 1.15-.33.47-.31.93-.77 1.15-1.15.2-.33.26-.7.18-1.05a1.1 1.1 0 0 0-1.09-.88Z" fill="#000"/>
          <path d="M238.34 165.87c.47-.8 1.46-1.14 2.2-.74.75.4.96 1.37.49 2.18-.48.8-1.95 1.97-2.7 1.57-.73-.4-.46-2.2.01-3Z" fill="#fff"/>
          <path d="M238.67 169.24a1 1 0 0 1-.47-.11c-.94-.5-.64-2.5-.11-3.39.55-.94 1.71-1.32 2.6-.85.88.47 1.14 1.62.6 2.56-.45.75-1.68 1.8-2.62 1.8Zm1.2-4c-.49 0-.99.29-1.27.77-.47.8-.61 2.37-.12 2.63.5.27 1.83-.67 2.3-1.46.39-.68.22-1.49-.38-1.8a1.15 1.15 0 0 0-.54-.14Z" fill="#000"/>
          <path d="M233.47 182.57s-.4 1.22-1.1 3.18c-2.94 8.15-10.12 25.71-18.28 26.94-11.62 1.74-39.35-16.89-39.35-16.89l1.28-16.2s8.41.5 16.69 3.7c6.52 2.53 5.28 2.06 16.7 7.78l8.3-14.2 1.68-3.14c2.93-3.63 17 5.2 14.08 8.83Z" fill="#fff"/>
          <path d="M233.47 182.57s-.4 1.21-1.1 3.18c-2.2-7.68-14.66-8.85-14.66-8.85v-.01l1.68-3.15c2.93-3.63 17 5.2 14.08 8.83Z" fill="#71FFCC"/>
          <path d="M212.43 213.08c-12.32 0-36.78-16.32-37.86-17.05a.27.27 0 0 1-.13-.25l1.29-16.2c.01-.16.15-.27.31-.26.08 0 8.55.55 16.78 3.73 5.42 2.1 5.55 2.17 11.9 5.36l4.58 2.3 9.83-17.1.03-.04c1.74-2.16 6.93-.41 10.94 2.53 2.7 1.98 5.06 4.75 3.63 6.6-.56 1.72-9.51 28.75-19.6 30.26-.54.08-1.1.12-1.7.12Zm-37.39-17.42c2.12 1.4 28.05 18.4 39 16.75 9.84-1.47 19.06-29.63 19.15-29.92a.28.28 0 0 1 .04-.08c1.24-1.54-1.1-4.12-3.49-5.87-3.7-2.72-8.64-4.42-10.1-2.64l-9.97 17.32a.3.3 0 0 1-.39.11l-4.84-2.43c-6.44-3.24-6.44-3.24-11.84-5.33a63.05 63.05 0 0 0-16.31-3.67l-1.25 15.76Z" fill="#000"/>
          <path d="M201.2 245.91h-53.6s-8.05-56.6-.98-60.82a35 35 0 0 1 7.45-3.2l.64-.19a63.34 63.34 0 0 1 23.33-1.91c1.68.18 3.25.44 4.68.77l11.59 15.56c4.45 18.62 6.9 49.79 6.9 49.79Z" fill="#fff"/>
          <path d="m178.1 179.83-.2 26-23.83-23.94.64-.19a63.35 63.35 0 0 1 23.33-1.91l.07.04Z" fill="#71FFCC"/>
          <path d="M147.61 246.19a.29.29 0 0 1-.29-.25c-.33-2.31-8-56.83-.85-61.09a35.21 35.21 0 0 1 8.16-3.42 63.93 63.93 0 0 1 22.52-2.02c2.03.19 3.93.48 5.64.87.16.04.26.19.22.34a.3.3 0 0 1-.35.2 42.95 42.95 0 0 0-5.57-.85 63.3 63.3 0 0 0-22.29 2 33.88 33.88 0 0 0-8.02 3.36c-1.95 1.16-3.88 7.6-2.02 31.72a515.55 515.55 0 0 0 3.14 28.82c.02.15-.09.3-.25.31h-.04Zm53.6 0a.29.29 0 0 1-.29-.26c-.02-.31-2.5-31.37-6.9-49.75a.28.28 0 0 1 .22-.33.3.3 0 0 1 .35.2c4.41 18.43 6.89 49.52 6.91 49.84.02.15-.1.28-.27.3h-.02Z" fill="#000"/>
          <path d="M170.14 232.19s-.72.22-1.95.56c-6.39 1.82-26.68 7.1-32.8 2.98-9.12-6.15-1.48-36.12 2.03-42.56 3.37-6.19 11.9-9.63 15.75-10.92l1.75 10.49c.62 4.64-6.27 27.5-6.27 27.5l17.94-2.2c5.97-2.94 8.99 11.17 3.55 14.15Z" fill="#fff"/>
          <path d="M142.89 237.55c-3.22 0-5.97-.45-7.67-1.6-9.42-6.34-1.47-36.65 1.94-42.91 3.45-6.34 12.28-9.84 15.91-11.06a.3.3 0 0 1 .38.18c.05.14-.03.3-.18.35-3.58 1.19-12.24 4.62-15.6 10.79-3.63 6.67-10.88 36.3-2.11 42.2 6.98 4.7 33.42-3.26 34.46-3.57 3.2-1.8 3.4-8.04 1.29-11.73-.7-1.22-2.22-3.09-4.6-1.92a.3.3 0 0 1-.09.03l-17.94 2.2a.3.3 0 0 1-.26-.1.27.27 0 0 1-.06-.26c.07-.22 6.87-22.85 6.27-27.38-.02-.15.1-.3.25-.31a.3.3 0 0 1 .33.24c.58 4.36-5.21 24.01-6.17 27.2l17.46-2.14c2.04-.98 3.97-.19 5.32 2.17 2.05 3.58 2.3 10.4-1.54 12.5a.3.3 0 0 1-.06.02c-.86.27-16.7 5.1-27.33 5.1Z" fill="#000"/>
          <path d="m157.02 181.19 19 19.46V179.6s-4.32-1.86-4.03-9.26c-5.02 1.56-12.73.4-12.73.4s1.78 8.23-2.24 10.44Z" fill="#fff"/>
          <path d="M176.03 200.93a.3.3 0 0 1-.22-.09l-19-19.47a.27.27 0 0 1-.07-.23.28.28 0 0 1 .14-.2c3.79-2.09 2.12-10.06 2.1-10.14a.27.27 0 0 1 .07-.25.3.3 0 0 1 .26-.08c.08 0 7.7 1.13 12.6-.4a.3.3 0 0 1 .27.04.3.3 0 0 1 .11.23c-.28 7.11 3.81 8.99 3.86 9 .1.06.17.15.17.26v21.05c0 .12-.08.22-.19.26a.29.29 0 0 1-.1.02Zm-18.55-19.7 18.25 18.71v-20.17c-.81-.43-4.16-2.6-4.03-9.06-4.41 1.23-10.45.57-12.07.36.3 1.65 1.18 7.94-2.15 10.17Z" fill="#000"/>
          <path d="M164.66 171.92c3.97.14 8.79-.6 11.07-3.88 2.3-3.3 2.78-8.98 1.4-15.34v-.01c-1.62-7.45-6.5-14.26-11.82-14.67-8.23-.62-8.7 17.9-8.7 17.9s-3-1.3-3.46 1.4c-.6 3.4 4.67 5.7 4.67 5.7l1.55 8.31" fill="#fff"/>
          <path d="m165.5 172.22-.85-.01a.28.28 0 0 1-.28-.3c0-.14.14-.27.3-.26 3 .1 8.39-.25 10.82-3.76 2.21-3.18 2.72-8.83 1.35-15.12v-.02c-1.7-7.86-6.67-14.07-11.55-14.44a4.55 4.55 0 0 0-3.43 1.16c-4.58 3.93-4.95 16.34-4.95 16.46 0 .1-.06.18-.14.23a.3.3 0 0 1-.28.02s-1.33-.57-2.23-.11c-.43.22-.7.65-.82 1.3-.55 3.16 4.45 5.39 4.5 5.41a.3.3 0 0 1 .17.2l1.55 8.31c.03.15-.08.3-.24.32a.3.3 0 0 1-.34-.22l-1.52-8.17c-.87-.4-5.27-2.65-4.7-5.94.15-.83.52-1.4 1.13-1.7.8-.42 1.8-.22 2.35-.05.1-2.2.78-12.74 5.13-16.48a5.16 5.16 0 0 1 3.87-1.3c5.12.39 10.31 6.78 12.07 14.88v.02c1.42 6.52.9 12.2-1.43 15.55-2.37 3.41-7.28 4.02-10.48 4.02Z" fill="#000"/>
          <path d="M167.4 156.18c.52-.05.89-.62.82-1.27-.07-.64-.54-1.13-1.06-1.08-.53.05-.9.62-.82 1.26.06.65.54 1.14 1.06 1.09Zm6.14-1.31c.52-.05.88-.61.81-1.26-.06-.65-.54-1.13-1.06-1.08-.52.05-.89.61-.82 1.26.07.65.55 1.13 1.07 1.08Z" fill="#000"/>
          <path d="M167.98 151.5s-1.7-.84-3.47.88l3.47-.88Z" fill="#fff"/>
          <path d="M164.51 152.67a.3.3 0 0 1-.2-.08.27.27 0 0 1 0-.4c1.89-1.84 3.78-.94 3.8-.93.15.07.2.24.13.38a.3.3 0 0 1-.4.12c-.06-.03-1.54-.72-3.12.82a.3.3 0 0 1-.2.09Z" fill="#000"/>
          <path d="M174.87 150.7s-1.7-.84-3.46.89l3.46-.88Z" fill="#fff"/>
          <path d="M171.4 151.86a.3.3 0 0 1-.2-.08.27.27 0 0 1 0-.4c1.89-1.84 3.78-.93 3.8-.92.15.07.2.24.13.37a.3.3 0 0 1-.4.12c-.06-.03-1.54-.71-3.12.83a.3.3 0 0 1-.2.08Z" fill="#000"/>
          <path d="m171.13 155.21 1.66 5.17c.09.28.18.58.12.87-.07.38-.4.68-.76.84a4 4 0 0 1-1.18.26" fill="#fff"/>
          <path d="M170.97 162.63a.29.29 0 0 1-.29-.25c-.02-.15.1-.29.26-.3.37-.05.76-.1 1.08-.24.33-.15.55-.38.6-.64.05-.23-.04-.5-.11-.74l-1.66-5.17a.28.28 0 0 1 .2-.35.3.3 0 0 1 .36.19l1.66 5.17c.09.28.2.64.13 1-.09.43-.44.82-.93 1.04-.41.19-.86.24-1.26.29h-.04Z" fill="#000"/>
          <path d="M167.9 165a5.6 5.6 0 0 0 4.2.6l-4.2-.6Z" fill="#fff"/>
          <path d="M170.73 166.04c-1.05 0-2.1-.28-3-.81a.27.27 0 0 1-.08-.39.3.3 0 0 1 .4-.09c1.16.7 2.64.92 3.97.57a.3.3 0 0 1 .36.2c.04.14-.05.3-.2.34a5.7 5.7 0 0 1-1.45.18Zm-10.31-17.38c-.67.28-1.69.63-2.18 1.16-.4.43-.3.83-.25 1.4.07.78 1.3 5.55.17 5.85-1.06.28-1.54-1.15-1.54-1.15s-3-1.31-3.47 1.4c-.6 3.4 4.67 5.7 4.67 5.7l1.55 8.31c.08.44-8.85-2.96-10.58-4.74-3.33-3.43-7.12-8.95-5.28-13.84.46-1.24 1.37-2.09 2.11-3.14a7.15 7.15 0 0 0 1.42-5.67c-.3-2.01-.96-4.06-.44-6.04a5.76 5.76 0 0 1 3.03-3.63 6.51 6.51 0 0 1 4.86-.3c2.17.72 3.98 2.58 6.27 2.53 1.64-.03 3.06-1.03 4.42-1.9a15.36 15.36 0 0 1 5.84-2.4c2.11-.32 4.41.08 6.02 1.42 1.61 1.34 2.34 3.7 1.39 5.52-.35.66-.88 1.22-1.3 1.84-.43.62-.76 1.37-.6 2.1.16.82 2.01.94 1.73 1.73-2.12 5.98-16.25 3.2-17.84 3.85Z" fill="#000"/>
          <path d="M159.33 171.64c-1.39 0-9.28-3.33-10.75-4.85-2.3-2.38-7.45-8.53-5.35-14.13.34-.9.9-1.62 1.46-2.3l.69-.9a6.89 6.89 0 0 0 1.37-5.48c-.06-.46-.16-.93-.24-1.38-.3-1.56-.6-3.18-.2-4.76a6.04 6.04 0 0 1 3.18-3.81 6.85 6.85 0 0 1 5.1-.33c.85.29 1.65.74 2.42 1.18 1.24.7 2.42 1.37 3.75 1.35 1.4-.03 2.66-.83 3.88-1.61l.38-.25a15.4 15.4 0 0 1 5.95-2.44c2.37-.36 4.72.2 6.27 1.48 1.79 1.5 2.41 4 1.45 5.86a8.2 8.2 0 0 1-.83 1.21c-.17.22-.34.44-.49.66-.48.7-.67 1.34-.56 1.89.05.25.43.45.8.64.52.27 1.15.6.93 1.24-1.65 4.63-9.9 4.24-14.83 4-1.46-.06-2.83-.13-3.18.01l-.28.11c-.6.24-1.4.57-1.8.98-.25.27-.24.51-.19.98l.02.2c.01.15.08.5.16.9.5 2.6.87 4.97-.2 5.25-.98.26-1.62-.62-1.86-1.21-.33-.12-1.38-.45-2.12-.07-.43.22-.7.66-.82 1.3-.55 3.16 4.45 5.4 4.5 5.41a.3.3 0 0 1 .17.2l1.54 8.32a.3.3 0 0 1-.17.32.33.33 0 0 1-.15.03Zm-6.89-37.72c-.93 0-1.86.2-2.68.6-1.42.7-2.5 2-2.88 3.45-.38 1.46-.08 3.02.2 4.53.1.46.18.93.25 1.4a7.38 7.38 0 0 1-1.47 5.87c-.23.32-.47.63-.7.92-.55.69-1.07 1.33-1.38 2.15-1.99 5.32 3 11.26 5.23 13.57 1.46 1.5 8.42 4.26 10 4.64l-1.45-7.83c-.87-.4-5.27-2.65-4.7-5.95.14-.82.52-1.4 1.13-1.7 1.15-.59 2.68.07 2.75.1.07.03.13.1.16.17 0 0 .4 1.17 1.19.96.29-.08.48-.94-.23-4.61a8.66 8.66 0 0 1-.16-.95l-.02-.19c-.06-.49-.1-.95.34-1.42a5.8 5.8 0 0 1 2-1.11l.28-.11c.45-.19 1.49-.15 3.43-.05 4.77.23 12.75.6 14.25-3.63.06-.17-.12-.3-.64-.57-.47-.24-1-.51-1.1-1.03-.15-.7.07-1.47.64-2.3l.5-.68c.3-.38.58-.73.78-1.13.85-1.63.29-3.86-1.31-5.19-1.42-1.18-3.59-1.68-5.79-1.36-1.77.27-3.6 1.02-5.72 2.37l-.38.24c-1.29.82-2.62 1.68-4.2 1.7-1.51.03-2.8-.7-4.06-1.42-.74-.43-1.51-.86-2.3-1.13a6.15 6.15 0 0 0-1.96-.31Z" fill="#000"/>
          <path d="m259.16 228.6-18.21-4.06a3.73 3.73 0 0 1-2.92-4.49l4.26-17.36c.49-2 2.6-3.26 4.7-2.79l18.22 4.07a3.73 3.73 0 0 1 2.92 4.48l-4.26 17.37c-.5 2-2.6 3.25-4.7 2.78Z" fill="#FEC524"/>
          <path d="M258.51 225.59a5.4 5.4 0 0 1-.96-.1l-18.2-4.07a4.18 4.18 0 0 1-2.63-1.8 3.83 3.83 0 0 1-.52-3.02l4.26-17.37a4 4 0 0 1 1.88-2.5 4.36 4.36 0 0 1 3.18-.49l18.21 4.06c1.1.25 2.03.88 2.62 1.8.6.9.78 1.98.52 3.03l-4.26 17.36a4.18 4.18 0 0 1-4.1 3.1Zm-.82-.65c1.94.43 3.9-.72 4.35-2.58L266.3 205a3.3 3.3 0 0 0-.45-2.61 3.6 3.6 0 0 0-2.25-1.54l-18.21-4.07a3.75 3.75 0 0 0-2.74.43 3.45 3.45 0 0 0-1.62 2.15l-4.26 17.36a3.3 3.3 0 0 0 .45 2.62 3.6 3.6 0 0 0 2.25 1.54l18.22 4.06Z" fill="#000"/>
          <path d="m258.18 208.89-.14.45c-.05.13-.1.22-.15.3a.43.43 0 0 1-.16.14.27.27 0 0 1-.18.02l-3.16-.7-2.38 9.7a.27.27 0 0 1-.1.14.47.47 0 0 1-.24.08c-.1 0-.24 0-.41-.02a5.73 5.73 0 0 1-1.62-.43.45.45 0 0 1-.18-.17.25.25 0 0 1-.02-.18l2.38-9.7-3.16-.7a.26.26 0 0 1-.16-.1.44.44 0 0 1-.07-.2 1.2 1.2 0 0 1 0-.32 3.7 3.7 0 0 1 .38-1.23c.05-.07.1-.12.16-.14a.28.28 0 0 1 .18-.02l8.9 1.99c.05.01.1.04.14.08.04.05.07.11.08.2.02.08.02.2 0 .33s-.05.29-.1.48Zm-63.81-94.73-15.58-3.93a4.33 4.33 0 0 0-5.27 2.92l-2.46 8.9a4.08 4.08 0 0 0 3.06 5.01L189.7 131c2.3.58 4.66-.73 5.26-2.92l2.47-8.9a4.1 4.1 0 0 0-3.06-5.01Z" fill="#fff"/>
          <path d="M190.8 131.4a4.8 4.8 0 0 1-1.18-.14l-15.58-3.93a4.37 4.37 0 0 1-3.27-5.36l2.47-8.9a4.39 4.39 0 0 1 2.13-2.66 4.76 4.76 0 0 1 3.49-.45l15.58 3.93a4.55 4.55 0 0 1 2.8 2.03 4.2 4.2 0 0 1 .47 3.33l-2.47 8.89a4.57 4.57 0 0 1-4.44 3.26Zm-13.12-21.03c-.7 0-1.4.18-2.01.52a3.83 3.83 0 0 0-1.86 2.33l-2.47 8.9a3.82 3.82 0 0 0 2.85 4.67l15.58 3.93c1.04.26 2.12.12 3.05-.4a3.83 3.83 0 0 0 1.86-2.32l2.47-8.9c.27-.98.13-2.01-.41-2.9a3.97 3.97 0 0 0-2.45-1.77l-15.58-3.93a4.19 4.19 0 0 0-1.03-.13Z" fill="#000"/>
          <path d="m187.94 122.95-5.7 1.71c-1.38.41-2.7-.78-2.32-2.11l1.63-5.88c.37-1.33 2.13-1.75 3.11-.75l4.08 4.17c.92.95.5 2.48-.8 2.86Z" fill="#71FFCC"/>
          <path d="M175.77 139.27a.3.3 0 0 1-.17-.05.27.27 0 0 1-.06-.4c.38-.5.62-1.04.7-1.56a2.32 2.32 0 0 0-.31-1.61c-.49-.74-1.38-1.13-2.42-1.52a.27.27 0 0 1-.16-.36.3.3 0 0 1 .38-.16c.87.33 2.07.78 2.7 1.74.36.57.5 1.27.4 1.99-.1.61-.38 1.24-.82 1.81a.3.3 0 0 1-.24.12Zm-1.74 7.36a.29.29 0 0 1-.29-.23.28.28 0 0 1 .24-.32 2.89 2.89 0 0 0 1.68-.78c.35-.37.55-1.03.21-1.5-.05-.07-.1-.14-.17-.2-.08-.1-.17-.19-.24-.3-.28-.42-.3-1-.08-1.55.19-.46.52-.85.82-1.2a.3.3 0 0 1 .4-.03c.13.1.15.27.05.39-.28.33-.57.66-.73 1.05-.16.38-.14.77.03 1.04.06.08.12.16.2.23l.2.26c.5.71.25 1.64-.25 2.19a3.46 3.46 0 0 1-2.07.95Zm-17.66 5.99a.3.3 0 0 1-.27-.16c-.3-.6-.67-1.35-.78-2.14-.12-.89.14-1.73.69-2.26.73-.71 1.87-.8 2.67-.8.62 0 1.25.04 1.86.07a28 28 0 0 0 1.85.08c1.43 0 2.56-.25 3.43-.74a.3.3 0 0 1 .4.1c.09.13.04.3-.1.38a7.6 7.6 0 0 1-3.73.81c-.64 0-1.27-.03-1.89-.07-.6-.04-1.22-.07-1.82-.07-.7 0-1.68.06-2.26.63a2.1 2.1 0 0 0-.52 1.8c.1.65.37 1.25.73 1.97.07.14 0 .3-.14.37a.31.31 0 0 1-.12.03Zm-7.36-7.4a.29.29 0 0 1-.28-.2c-.4-1.26-.81-2.76-.79-4.3a6.23 6.23 0 0 1 1.54-4.17 4.62 4.62 0 0 1 4.36-1.4c.15.03.25.19.2.34a.3.3 0 0 1-.35.2 4 4 0 0 0-3.78 1.23 5.68 5.68 0 0 0-1.38 3.8c-.03 1.47.37 2.92.76 4.14.05.15-.04.3-.2.35a.31.31 0 0 1-.08.01Z" fill="#fff"/>
        </g>
        <path d="M138.52 246a4.65 4.65 0 0 1 4.78 4.7 4.65 4.65 0 0 1-4.78 4.7h-2.46v4.6h-2.76v-14h5.22Zm0 6.82c.59 0 1.07-.2 1.46-.6.39-.41.58-.92.58-1.52 0-.61-.2-1.12-.58-1.52-.39-.4-.87-.6-1.46-.6h-2.46v4.24h2.46Zm7.97 3.24c.35 1.25 1.29 1.88 2.82 1.88.99 0 1.74-.33 2.24-1l2.08 1.2a4.96 4.96 0 0 1-4.36 2.14c-1.65 0-2.98-.5-3.98-1.5s-1.5-2.26-1.5-3.78a5.13 5.13 0 0 1 5.28-5.28c1.47 0 2.68.5 3.62 1.52a5.26 5.26 0 0 1 1.44 3.76c0 .33-.03.69-.1 1.06h-7.54Zm-.04-2h5.1a2.4 2.4 0 0 0-.92-1.52c-.45-.33-.97-.5-1.56-.5-.7 0-1.26.18-1.72.54-.45.35-.75.84-.9 1.48Zm12.06-2.34a2.7 2.7 0 0 1 1.18-1.44 3.68 3.68 0 0 1 1.86-.48v2.88c-.78-.1-1.49.07-2.12.48-.6.41-.92 1.1-.92 2.06V260h-2.58v-10h2.58v1.72Zm6.62 1.12c0 .27.17.49.52.66.36.16.8.3 1.3.44.5.12 1.01.28 1.52.48.5.19.93.5 1.28.96.36.45.54 1.02.54 1.7 0 1.03-.39 1.82-1.16 2.38-.76.55-1.71.82-2.86.82-2.05 0-3.45-.8-4.2-2.38l2.24-1.26c.3.87.95 1.3 1.96 1.3.92 0 1.38-.29 1.38-.86 0-.27-.18-.48-.54-.64a6.67 6.67 0 0 0-1.28-.46c-.5-.13-1.01-.3-1.52-.5-.5-.2-.94-.51-1.3-.94a2.57 2.57 0 0 1-.52-1.64c0-.99.36-1.76 1.08-2.32a4.28 4.28 0 0 1 2.72-.86c.81 0 1.55.19 2.22.56.67.36 1.2.88 1.58 1.56l-2.2 1.2a1.65 1.65 0 0 0-1.6-1.02c-.33 0-.61.07-.84.22a.7.7 0 0 0-.32.6Zm15.2 5.92a5.15 5.15 0 0 1-3.76 1.52c-1.48 0-2.73-.5-3.76-1.52a5.15 5.15 0 0 1-1.52-3.76c0-1.48.5-2.73 1.52-3.74a5.11 5.11 0 0 1 3.76-1.54 5.1 5.1 0 0 1 3.76 1.54 5.05 5.05 0 0 1 1.54 3.74 5.1 5.1 0 0 1-1.54 3.76Zm-5.7-1.78c.52.52 1.17.78 1.94.78a2.68 2.68 0 0 0 2.72-2.76 2.68 2.68 0 0 0-2.72-2.76 2.63 2.63 0 0 0-2.7 2.76c0 .8.26 1.46.76 1.98Zm14.62-7.26c1.1 0 2 .37 2.7 1.1a4.15 4.15 0 0 1 1.08 3.04V260h-2.58v-5.82c0-.67-.18-1.17-.54-1.52a1.95 1.95 0 0 0-1.44-.54c-.67 0-1.2.2-1.6.62-.4.41-.6 1.03-.6 1.86v5.4h-2.58v-10h2.58v1.12c.62-.93 1.62-1.4 2.98-1.4Zm13.58.28h2.58v10h-2.58v-1.18a3.93 3.93 0 0 1-3.26 1.46c-1.33 0-2.48-.5-3.44-1.52a5.34 5.34 0 0 1-1.42-3.76c0-1.48.47-2.73 1.42-3.74a4.55 4.55 0 0 1 3.44-1.54c1.4 0 2.49.49 3.26 1.46V250Zm-4.76 7.04c.52.52 1.18.78 1.98.78s1.46-.26 1.98-.78c.53-.53.8-1.21.8-2.04 0-.83-.27-1.5-.8-2.02a2.65 2.65 0 0 0-1.98-.8c-.8 0-1.46.27-1.98.8-.52.52-.78 1.2-.78 2.02 0 .83.26 1.5.78 2.04Zm9.68 2.96v-14.6h2.58V260h-2.58Zm15.76-10.28c1.35 0 2.5.51 3.44 1.54a5.23 5.23 0 0 1 1.44 3.74 5.3 5.3 0 0 1-1.44 3.76 4.54 4.54 0 0 1-3.44 1.52c-1.4 0-2.48-.49-3.24-1.46V260h-2.58v-14h2.58v5.18a3.87 3.87 0 0 1 3.24-1.46Zm-2.46 7.32c.52.52 1.18.78 1.98.78s1.46-.26 1.98-.78c.53-.53.8-1.21.8-2.04 0-.83-.27-1.5-.8-2.02a2.65 2.65 0 0 0-1.98-.8c-.8 0-1.46.27-1.98.8-.52.52-.78 1.2-.78 2.02 0 .83.26 1.5.78 2.04Zm11.74-5.32c.24-.64.64-1.12 1.18-1.44a3.68 3.68 0 0 1 1.86-.48v2.88c-.79-.1-1.5.07-2.12.48-.61.41-.92 1.1-.92 2.06V260h-2.58v-10h2.58v1.72Zm11.78-1.72h2.58v10h-2.58v-1.18a3.93 3.93 0 0 1-3.26 1.46c-1.33 0-2.48-.5-3.44-1.52a5.34 5.34 0 0 1-1.42-3.76c0-1.48.47-2.73 1.42-3.74a4.55 4.55 0 0 1 3.44-1.54c1.4 0 2.49.49 3.26 1.46V250Zm-4.76 7.04c.52.52 1.18.78 1.98.78s1.46-.26 1.98-.78c.53-.53.8-1.21.8-2.04 0-.83-.27-1.5-.8-2.02a2.65 2.65 0 0 0-1.98-.8c-.8 0-1.46.27-1.98.8-.52.52-.78 1.2-.78 2.02 0 .83.26 1.5.78 2.04Zm15.24-7.32c1.1 0 2 .37 2.7 1.1a4.15 4.15 0 0 1 1.08 3.04V260h-2.58v-5.82c0-.67-.18-1.17-.54-1.52a1.95 1.95 0 0 0-1.44-.54c-.67 0-1.2.2-1.6.62-.4.41-.6 1.03-.6 1.86v5.4h-2.58v-10h2.58v1.12c.63-.93 1.62-1.4 2.98-1.4ZM268.6 246h2.58v14h-2.58v-1.18a3.87 3.87 0 0 1-3.24 1.46 4.6 4.6 0 0 1-3.46-1.52 5.34 5.34 0 0 1-1.42-3.76c0-1.48.47-2.73 1.42-3.74a4.57 4.57 0 0 1 3.46-1.54c1.4 0 2.48.49 3.24 1.46V246Zm-4.76 11.04c.53.52 1.2.78 2 .78s1.46-.26 1.98-.78a2.8 2.8 0 0 0 .78-2.04c0-.83-.26-1.5-.78-2.02a2.65 2.65 0 0 0-1.98-.8c-.8 0-1.47.27-2 .8-.52.52-.78 1.2-.78 2.02 0 .83.26 1.5.78 2.04Zm10.98-8.24a1.57 1.57 0 0 1-1.58-1.58c0-.43.15-.8.46-1.12a1.55 1.55 0 0 1 2.24 0 1.53 1.53 0 0 1 0 2.24c-.3.3-.68.46-1.12.46Zm-1.28 11.2v-10h2.58v10h-2.58Zm10.5-10.28c1.1 0 2 .37 2.7 1.1a4.15 4.15 0 0 1 1.08 3.04V260h-2.58v-5.82c0-.67-.18-1.17-.54-1.52a1.95 1.95 0 0 0-1.44-.54c-.66 0-1.2.2-1.6.62-.4.41-.6 1.03-.6 1.86v5.4h-2.58v-10h2.58v1.12c.63-.93 1.62-1.4 2.98-1.4Zm13.64.28h2.52v9.52c0 1.55-.5 2.73-1.53 3.54a5.7 5.7 0 0 1-3.69 1.22c-1.07 0-2.03-.2-2.86-.62a4.35 4.35 0 0 1-1.88-1.82l2.2-1.26c.51.93 1.38 1.4 2.63 1.4.8 0 1.45-.21 1.92-.64.46-.43.7-1.03.7-1.82v-1.08a3.77 3.77 0 0 1-3.2 1.52c-1.42 0-2.6-.5-3.56-1.48a5.1 5.1 0 0 1-1.43-3.64 5.04 5.04 0 0 1 4.99-5.12c1.37 0 2.44.5 3.2 1.52V250Zm-4.81 6.82c.53.5 1.2.76 2.01.76a2.7 2.7 0 0 0 2-.76c.54-.52.8-1.18.8-1.98 0-.79-.26-1.43-.8-1.94a2.7 2.7 0 0 0-2-.78c-.8 0-1.48.26-2.01.78a2.6 2.6 0 0 0-.78 1.94c0 .8.25 1.46.77 1.98Zm25.94-6.82h2.74l-3.19 10h-2.45l-1.85-6.06-1.83 6.06h-2.47l-3.17-10h2.73l1.7 6.14 1.83-6.14h2.44l1.81 6.16 1.7-6.16Zm12.25 8.76a5.15 5.15 0 0 1-3.75 1.52 5.15 5.15 0 0 1-5.28-5.28c0-1.48.5-2.73 1.51-3.74a5.11 5.11 0 0 1 3.76-1.54c1.49 0 2.74.51 3.76 1.54a5.05 5.05 0 0 1 1.55 3.74c0 1.48-.52 2.73-1.55 3.76Zm-5.7-1.78c.52.52 1.17.78 1.94.78a2.68 2.68 0 0 0 2.72-2.76 2.68 2.68 0 0 0-2.71-2.76 2.63 2.63 0 0 0-2.7 2.76c0 .8.25 1.46.75 1.98Zm11.64-5.26a2.7 2.7 0 0 1 1.18-1.44 3.68 3.68 0 0 1 1.86-.48v2.88c-.79-.1-1.5.07-2.12.48-.61.41-.92 1.1-.92 2.06V260h-2.58v-10H337v1.72Zm13.77 8.28h-3l-3.64-4.54V260h-2.58v-14h2.58v8.4l3.44-4.4h3.08l-4.02 4.94 4.14 5.06Zm3-7.16c0 .27.18.49.52.66.36.16.8.3 1.3.44.5.12 1.02.28 1.52.48a2.8 2.8 0 0 1 1.82 2.66c0 1.03-.38 1.82-1.16 2.38-.76.55-1.71.82-2.86.82-2.05 0-3.45-.8-4.2-2.38l2.24-1.26c.3.87.95 1.3 1.96 1.3.92 0 1.38-.29 1.38-.86 0-.27-.18-.48-.54-.64a6.73 6.73 0 0 0-1.28-.46c-.5-.13-1.01-.3-1.52-.5-.5-.2-.94-.51-1.3-.94a2.57 2.57 0 0 1-.52-1.64c0-.99.36-1.76 1.08-2.32a4.28 4.28 0 0 1 2.72-.86c.82 0 1.56.19 2.22.56.67.36 1.2.88 1.58 1.56l-2.2 1.2a1.65 1.65 0 0 0-1.6-1.02c-.33 0-.61.07-.84.22a.69.69 0 0 0-.32.6Zm12.38-3.12c1.1 0 2 .37 2.7 1.1a4.15 4.15 0 0 1 1.08 3.04V260h-2.58v-5.82c0-.67-.18-1.17-.54-1.52a1.95 1.95 0 0 0-1.44-.54c-.67 0-1.2.2-1.6.62-.4.41-.6 1.03-.6 1.86v5.4h-2.58v-14h2.58v5.12c.63-.93 1.62-1.4 2.98-1.4Zm14.5 9.04a5.15 5.15 0 0 1-3.76 1.52 5.15 5.15 0 0 1-5.27-5.28c0-1.48.5-2.73 1.51-3.74a5.11 5.11 0 0 1 3.76-1.54c1.49 0 2.74.51 3.77 1.54a5.05 5.05 0 0 1 1.53 3.74 5.1 5.1 0 0 1-1.53 3.76Zm-5.7-1.78c.53.52 1.17.78 1.94.78a2.68 2.68 0 0 0 2.72-2.76 2.68 2.68 0 0 0-2.72-2.76 2.63 2.63 0 0 0-2.7 2.76c0 .8.26 1.46.76 1.98Zm14.88-7.26c1.35 0 2.5.51 3.44 1.54a5.23 5.23 0 0 1 1.44 3.74 5.3 5.3 0 0 1-1.44 3.76 4.54 4.54 0 0 1-3.44 1.52c-1.4 0-2.48-.49-3.24-1.46V264h-2.58v-14h2.58v1.18a3.87 3.87 0 0 1 3.24-1.46Zm-2.46 7.32c.52.52 1.18.78 1.98.78s1.46-.26 1.98-.78c.53-.53.8-1.21.8-2.04 0-.83-.27-1.5-.8-2.02a2.65 2.65 0 0 0-1.98-.8c-.8 0-1.46.27-1.98.8-.52.52-.78 1.2-.78 2.02 0 .83.26 1.5.78 2.04Z" fill="#000"/>
        <path d="M139.32 278.2v1.23h-2.9V288h-1.28v-8.57h-2.89v-1.23h7.07Zm5.8 8.92a3.62 3.62 0 0 1-2.62 1.06 3.6 3.6 0 0 1-2.62-1.06 3.56 3.56 0 0 1-1.06-2.62 3.6 3.6 0 0 1 3.68-3.68c1.03 0 1.9.35 2.62 1.06.72.71 1.08 1.58 1.08 2.62s-.36 1.9-1.08 2.62Zm-2.62-.13a2.41 2.41 0 0 0 2.48-2.5c0-.7-.24-1.3-.71-1.77a2.4 2.4 0 0 0-1.77-.71 2.41 2.41 0 0 0-2.46 2.5 2.42 2.42 0 0 0 2.46 2.48Zm12.7-6.17c.78 0 1.41.25 1.9.77.48.5.73 1.19.73 2.06V288h-1.22v-4.31c0-.54-.14-.96-.42-1.26-.28-.3-.65-.45-1.12-.45-.52 0-.94.18-1.26.53-.3.35-.46.88-.46 1.6V288h-1.22v-4.31c0-.54-.14-.96-.4-1.26-.27-.3-.63-.45-1.08-.45-.52 0-.95.18-1.3.53-.33.36-.5.89-.5 1.6V288h-1.22v-7h1.22v.94a2.32 2.32 0 0 1 2.09-1.12c.94 0 1.63.4 2.06 1.19a2.4 2.4 0 0 1 2.2-1.2Zm10.22 6.3a3.6 3.6 0 0 1-2.61 1.06c-1.03 0-1.9-.35-2.62-1.06a3.56 3.56 0 0 1-1.07-2.62 3.62 3.62 0 0 1 3.69-3.68c1.02 0 1.9.35 2.61 1.06.72.71 1.08 1.58 1.08 2.62s-.36 1.9-1.08 2.62Zm-2.61-.13a2.41 2.41 0 0 0 2.48-2.5c0-.7-.24-1.3-.72-1.77a2.4 2.4 0 0 0-1.76-.71 2.41 2.41 0 0 0-2.46 2.5 2.41 2.41 0 0 0 2.46 2.48Zm6.35-4.81c.4-.87 1.13-1.3 2.18-1.3v1.27a2.2 2.2 0 0 0-1.54.47c-.43.35-.64.9-.64 1.67V288h-1.22v-7h1.22v1.18Zm4.59 0c.4-.87 1.13-1.3 2.18-1.3v1.27c-.6-.03-1.1.13-1.54.47-.43.35-.64.9-.64 1.67V288h-1.22v-7h1.22v1.18Zm8.9 4.94c-.72.7-1.6 1.06-2.62 1.06a3.6 3.6 0 0 1-2.62-1.06 3.56 3.56 0 0 1-1.06-2.62c0-1.04.36-1.9 1.06-2.62a3.6 3.6 0 0 1 2.62-1.06c1.03 0 1.9.35 2.62 1.06.72.71 1.08 1.58 1.08 2.62s-.36 1.9-1.08 2.62Zm-2.62-.13a2.41 2.41 0 0 0 2.48-2.5c0-.7-.24-1.3-.71-1.77a2.4 2.4 0 0 0-1.77-.71 2.41 2.41 0 0 0-2.46 2.5 2.42 2.42 0 0 0 2.46 2.48Zm13.1-5.99h1.28l-2.17 7H191l-1.63-5.18-1.64 5.18h-1.25l-2.17-7h1.28l1.54 5.32 1.65-5.32h1.17l1.66 5.33 1.54-5.33Zm6.16 9.8v-12.88h1.22v12.88h-1.22Zm9.55-8.78c.93 0 1.7.28 2.34.83.64.54.97 1.3.97 2.25s-.33 1.7-.98 2.26c-.66.55-1.45.82-2.38.82a3.8 3.8 0 0 1-2-.53c-.6-.36-1-.89-1.24-1.57l1.1-.63a2 2 0 0 0 .76 1.1c.38.24.84.36 1.38.36.61 0 1.11-.16 1.5-.48.38-.31.57-.76.57-1.33 0-.57-.2-1.01-.58-1.33a2.18 2.18 0 0 0-1.47-.49h-2.77l.37-5.08h5.36v1.22h-4.19l-.17 2.6h1.43Zm5.25.63a.88.88 0 0 1-.65-.26.87.87 0 0 1-.26-.65c0-.25.08-.47.26-.64a.9.9 0 0 1 .65-.27c.26 0 .47.1.64.27.18.17.27.39.27.64s-.1.47-.27.65a.85.85 0 0 1-.64.26Zm0 5.5a.88.88 0 0 1-.65-.26.87.87 0 0 1-.26-.65c0-.25.08-.46.26-.64s.4-.27.65-.27c.26 0 .47.1.64.27.18.18.27.4.27.64 0 .26-.1.47-.27.65a.85.85 0 0 1-.64.26Zm8.9-1.35a3.23 3.23 0 0 1-2.78 1.38c-1.2 0-2.13-.46-2.8-1.38-.65-.93-.98-2.16-.98-3.7s.33-2.77.99-3.7a3.23 3.23 0 0 1 2.79-1.38c1.19 0 2.12.46 2.78 1.38.66.93 1 2.16 1 3.7s-.34 2.77-1 3.7Zm-4.62-.89c.43.67 1.04 1 1.84 1 .79 0 1.4-.33 1.83-1 .44-.66.66-1.6.66-2.81s-.22-2.15-.66-2.81a2.04 2.04 0 0 0-1.83-1.01c-.8 0-1.41.33-1.84 1a5.2 5.2 0 0 0-.64 2.82c0 1.21.21 2.15.64 2.81Zm13.44.89a3.23 3.23 0 0 1-2.79 1.38c-1.2 0-2.12-.46-2.78-1.38-.67-.93-1-2.16-1-3.7s.33-2.77 1-3.7a3.23 3.23 0 0 1 2.78-1.38c1.2 0 2.13.46 2.79 1.38.66.93 1 2.16 1 3.7s-.34 2.77-1 3.7Zm-4.62-.89c.43.67 1.04 1 1.83 1 .8 0 1.4-.33 1.84-1 .44-.66.65-1.6.65-2.81s-.21-2.15-.65-2.81a2.04 2.04 0 0 0-1.84-1.01c-.79 0-1.4.33-1.83 1a5.2 5.2 0 0 0-.65 2.82c0 1.21.22 2.15.65 2.81Zm11.03-5.1c.98 0 1.81.37 2.5 1.09a3.6 3.6 0 0 1 1.04 2.6c0 1.03-.34 1.9-1.03 2.62-.7.7-1.53 1.06-2.51 1.06a2.97 2.97 0 0 1-2.65-1.38v4h-1.21V281h1.21v1.2a2.97 2.97 0 0 1 2.65-1.38Zm-.15 6.2a2.46 2.46 0 0 0 2.48-2.5c0-.72-.24-1.31-.72-1.79a2.37 2.37 0 0 0-1.76-.73c-.71 0-1.3.25-1.78.73a2.41 2.41 0 0 0-.72 1.78 2.46 2.46 0 0 0 2.5 2.5Zm12.7-6.2c.79 0 1.42.26 1.9.78.5.5.74 1.19.74 2.06V288h-1.22v-4.31c0-.54-.14-.96-.42-1.26-.28-.3-.65-.45-1.12-.45-.52 0-.94.18-1.26.53-.3.35-.46.88-.46 1.6V288h-1.22v-4.31c0-.54-.14-.96-.4-1.26-.27-.3-.63-.45-1.09-.45-.5 0-.94.18-1.28.53-.34.36-.5.89-.5 1.6V288h-1.22v-7h1.21v.94a2.32 2.32 0 0 1 2.09-1.12c.94 0 1.63.4 2.06 1.19a2.4 2.4 0 0 1 2.2-1.2Z" fill="#5E5F5D"/>
        <g filter="url(#e)">
          <path d="M113 384h360v68H113z" fill="#fff"/>
          <rect fill="#141414" height="38" rx="4" width="79" x="345" y="393"/>
          <path d="M374.17 417.2c-1.54 0-2.62-.63-3.24-1.87l1.67-.95c.3.62.83.93 1.57.93.51 0 .9-.13 1.15-.37.25-.24.38-.57.38-1v-6.74h1.91v6.75c0 1.03-.32 1.82-.96 2.4a3.6 3.6 0 0 1-2.48.85Zm11.1-1.07a3.6 3.6 0 0 1-2.64 1.07 3.6 3.6 0 0 1-3.7-3.7c0-1.04.36-1.9 1.07-2.62a3.58 3.58 0 0 1 2.63-1.08c1.04 0 1.92.36 2.63 1.08.72.71 1.08 1.58 1.08 2.62s-.36 1.91-1.07 2.63Zm-4-1.24c.37.36.82.54 1.36.54a1.88 1.88 0 0 0 1.91-1.93 1.88 1.88 0 0 0-1.9-1.93 1.84 1.84 0 0 0-1.9 1.93c0 .56.18 1.02.53 1.39Zm7.34-5.73a1.1 1.1 0 0 1-1.1-1.1c0-.3.1-.57.32-.79a1.06 1.06 0 0 1 1.56 0 1.07 1.07 0 0 1 0 1.57c-.21.21-.47.32-.78.32Zm-.9 7.84v-7h1.81v7h-1.8Zm7.46-7.2c.76 0 1.39.26 1.88.77.5.52.76 1.23.76 2.13v4.3h-1.8v-4.07c0-.47-.13-.82-.38-1.07a1.36 1.36 0 0 0-1.01-.38c-.47 0-.84.15-1.12.44-.28.29-.42.72-.42 1.3V417h-1.8v-7h1.8v.78c.44-.65 1.13-.98 2.09-.98Z" fill="#fff"/>
          <path d="M141.43 414.47c0 1.06-.33 1.92-1 2.58a4.44 4.44 0 0 1-2.63 1.17v1.58h-1.21v-1.57c-1-.07-1.87-.35-2.6-.84a4.08 4.08 0 0 1-1.54-2l2.14-1.24c.39.96 1.05 1.5 2 1.64v-3.12h-.02l-.03-.02a7.98 7.98 0 0 1-1.96-.94 3.84 3.84 0 0 1-.83-.7 3.56 3.56 0 0 1-.74-2.21c0-1.05.34-1.9 1.02-2.54.7-.63 1.55-1 2.56-1.1v-1.56h1.2v1.6a4.08 4.08 0 0 1 3.46 2.54l-2.09 1.22c-.28-.72-.74-1.15-1.36-1.31v3c1.11.45 1.86.8 2.25 1.07a3.2 3.2 0 0 1 1.38 2.75Zm-5.96-5.65c0 .26.09.5.26.7.16.2.45.4.86.6v-2.52c-.36.07-.64.21-.83.43-.19.21-.29.48-.29.79Zm2.33 6.93c.76-.17 1.15-.59 1.15-1.26 0-.3-.1-.55-.29-.76-.18-.2-.47-.4-.86-.57v2.59Zm9.37-5.76c1.21 0 2.23.37 3.06 1.1a3.8 3.8 0 0 1 1.24 3.02c0 1.3-.44 2.31-1.31 3.04a4.76 4.76 0 0 1-3.19 1.1 5.25 5.25 0 0 1-2.7-.68 3.9 3.9 0 0 1-1.7-2.02l2.13-1.24c.31 1 1.07 1.51 2.27 1.51a2.2 2.2 0 0 0 1.48-.45c.36-.31.54-.73.54-1.26 0-.51-.18-.93-.53-1.24a2.05 2.05 0 0 0-1.42-.47h-3.81l.5-7h7.15v2.32h-4.84l-.17 2.27h1.3Z" fill="#141414"/>
        </g>
      </g>
    </g>
  </g>
  <defs>
    <clipPath id="a">
      <rect fill="#fff" height="546" rx="80" width="557"/>
    </clipPath>
    <clipPath id="c">
      <rect fill="#fff" height="357" rx="24" width="328" x="114" y="95"/>
    </clipPath>
    <clipPath id="d">
      <path d="M114 119a24 24 0 0 1 24-24h280a24 24 0 0 1 24 24v94H114v-94Z" fill="#fff"/>
    </clipPath>
    <filter color-interpolation-filters="sRGB" filterUnits="userSpaceOnUse" height="405" id="b" width="376" x="94" y="75">
      <feFlood flood-opacity="0" result="BackgroundImageFix"/>
      <feColorMatrix in="SourceAlpha" result="hardAlpha" values="0 0 0 0 0 0 0 0 0 0 0 0 0 0 0 0 0 0 127 0"/>
      <feOffset dx="4" dy="4"/>
      <feGaussianBlur stdDeviation="12"/>
      <feComposite in2="hardAlpha" operator="out"/>
      <feColorMatrix values="0 0 0 0 0 0 0 0 0 0 0 0 0 0 0 0 0 0 0.12 0"/>
      <feBlend in2="BackgroundImageFix" result="effect1_dropShadow_7266_22099"/>
      <feBlend in="SourceGraphic" in2="effect1_dropShadow_7266_22099" result="shape"/>
    </filter>
    <filter color-interpolation-filters="sRGB" filterUnits="userSpaceOnUse" height="76" id="e" width="368" x="109" y="376">
      <feFlood flood-opacity="0" result="BackgroundImageFix"/>
      <feColorMatrix in="SourceAlpha" result="hardAlpha" values="0 0 0 0 0 0 0 0 0 0 0 0 0 0 0 0 0 0 127 0"/>
      <feOffset dy="-4"/>
      <feGaussianBlur stdDeviation="2"/>
      <feComposite in2="hardAlpha" operator="out"/>
      <feColorMatrix values="0 0 0 0 0 0 0 0 0 0 0 0 0 0 0 0 0 0 0.05 0"/>
      <feBlend in2="BackgroundImageFix" result="effect1_dropShadow_7266_22099"/>
      <feBlend in="SourceGraphic" in2="effect1_dropShadow_7266_22099" result="shape"/>
    </filter>
  </defs>
</svg>