<?xml version="1.0" encoding="utf-8"?>
<svg xmlns="http://www.w3.org/2000/svg" width="557" height="546" fill="none">
  <g clip-path="url(#a)">
    <rect width="557" height="546" fill="#F7C394" rx="80"/>
    <g clip-path="url(#b)">
      <rect width="328" height="357" x="114" y="95" fill="#fff" rx="24"/>
      <path fill="#000" d="M147 257v14h-2.74v-9.08l-3.94 6.5H140l-3.94-6.48V271h-2.76v-14h2.84l4.02 6.62 4-6.62H147Zm11.009 12.76c-1.027 1.013-2.28 1.52-3.76 1.52s-2.734-.507-3.76-1.52c-1.014-1.027-1.52-2.28-1.52-3.76s.506-2.727 1.52-3.74c1.026-1.027 2.28-1.54 3.76-1.54s2.733.513 3.76 1.54c1.026 1.013 1.54 2.26 1.54 3.74 0 1.48-.514 2.733-1.54 3.76Zm-5.7-1.78c.52.52 1.166.78 1.94.78.773 0 1.42-.26 1.94-.78s.78-1.18.78-1.98-.26-1.46-.78-1.98-1.167-.78-1.94-.78c-.774 0-1.42.26-1.94.78-.507.52-.76 1.18-.76 1.98s.253 1.46.76 1.98Zm14.615-7.26c1.093 0 1.993.367 2.7 1.1.72.733 1.08 1.747 1.08 3.04V271h-2.58v-5.82c0-.667-.18-1.173-.54-1.52-.36-.36-.84-.54-1.44-.54-.667 0-1.2.207-1.6.62-.4.413-.6 1.033-.6 1.86v5.4h-2.58v-10h2.58v1.12c.626-.933 1.62-1.4 2.98-1.4Zm11.703 2.76h-2.26v4.16c0 .347.086.6.26.76.173.16.426.253.76.28.333.013.746.007 1.24-.02V271c-1.774.2-3.027.033-3.76-.5-.72-.533-1.08-1.487-1.08-2.86v-4.16h-1.74V261h1.74v-2.02l2.58-.78v2.8h2.26v2.48Zm7.379-2.76c1.093 0 1.993.367 2.7 1.1.72.733 1.08 1.747 1.08 3.04V271h-2.58v-5.82c0-.667-.18-1.173-.54-1.52-.36-.36-.84-.54-1.44-.54-.667 0-1.2.207-1.6.62-.4.413-.6 1.033-.6 1.86v5.4h-2.58v-14h2.58v5.12c.626-.933 1.62-1.4 2.98-1.4Zm5.983 10.28v-14.6h2.58V271h-2.58Zm11.461-10h2.76l-3.64 10c-.52 1.44-1.213 2.48-2.08 3.12-.853.653-1.92.947-3.2.88v-2.4c.693.013 1.24-.133 1.64-.44.413-.307.74-.8.98-1.48l-4.1-9.68h2.82l2.6 6.72 2.22-6.72Zm11.708-4h2.4v14h-2.76v-11.08l-2.64.74-.68-2.36 3.68-1.3Zm7.714 6.6c-.333.333-.733.5-1.2.5a1.64 1.64 0 0 1-1.2-.5 1.637 1.637 0 0 1-.5-1.2c0-.467.167-.867.5-1.2a1.64 1.64 0 0 1 1.2-.5c.467 0 .867.167 1.2.5.334.333.5.733.5 1.2 0 .467-.166.867-.5 1.2Zm0 7.16c-.333.333-.733.5-1.2.5a1.64 1.64 0 0 1-1.2-.5 1.637 1.637 0 0 1-.5-1.2c0-.467.167-.867.5-1.2a1.64 1.64 0 0 1 1.2-.5c.467 0 .867.167 1.2.5.334.333.5.733.5 1.2 0 .467-.166.867-.5 1.2Zm5.372-13.76h2.4v14h-2.76v-11.08l-2.64.74-.68-2.36 3.68-1.3Zm12.394 6.84c0 .267.173.487.52.66.36.16.793.307 1.3.44.507.12 1.013.28 1.52.48a2.82 2.82 0 0 1 1.28.96c.36.453.54 1.02.54 1.7 0 1.027-.387 1.82-1.16 2.38-.76.547-1.713.82-2.86.82-2.053 0-3.453-.793-4.2-2.38l2.24-1.26c.293.867.947 1.3 1.96 1.3.92 0 1.38-.287 1.38-.86 0-.267-.18-.48-.54-.64a6.7 6.7 0 0 0-1.28-.46 13.42 13.42 0 0 1-1.52-.5c-.507-.2-.94-.513-1.3-.94-.347-.44-.52-.987-.52-1.64 0-.987.36-1.76 1.08-2.32.733-.573 1.64-.86 2.72-.86a4.47 4.47 0 0 1 2.22.56c.667.36 1.193.88 1.58 1.56l-2.2 1.2c-.32-.68-.853-1.02-1.6-1.02-.333 0-.613.073-.84.22a.693.693 0 0 0-.32.6Zm13.419-2.84h2.58v10h-2.58v-1.12c-.626.933-1.62 1.4-2.98 1.4-1.093 0-2-.367-2.72-1.1-.706-.733-1.06-1.747-1.06-3.04V261h2.58v5.82c0 .667.18 1.18.54 1.54.36.347.84.52 1.44.52.667 0 1.2-.207 1.6-.62.4-.413.6-1.033.6-1.86V261Zm10.763-.28c1.347 0 2.494.513 3.44 1.54.96 1.013 1.44 2.26 1.44 3.74 0 1.48-.48 2.733-1.44 3.76-.946 1.013-2.093 1.52-3.44 1.52-1.4 0-2.48-.487-3.24-1.46V271H259v-14h2.58v5.18c.76-.973 1.84-1.46 3.24-1.46Zm-2.46 7.32c.52.52 1.18.78 1.98.78s1.46-.26 1.98-.78c.534-.533.8-1.213.8-2.04s-.266-1.5-.8-2.02c-.52-.533-1.18-.8-1.98-.8s-1.46.267-1.98.8c-.52.52-.78 1.193-.78 2.02s.26 1.507.78 2.04Zm11.325-4.2c0 .267.173.487.52.66.36.16.793.307 1.3.44.507.12 1.013.28 1.52.48a2.82 2.82 0 0 1 1.28.96c.36.453.54 1.02.54 1.7 0 1.027-.387 1.82-1.16 2.38-.76.547-1.713.82-2.86.82-2.053 0-3.453-.793-4.2-2.38l2.24-1.26c.293.867.947 1.3 1.96 1.3.92 0 1.38-.287 1.38-.86 0-.267-.18-.48-.54-.64a6.7 6.7 0 0 0-1.28-.46 13.42 13.42 0 0 1-1.52-.5c-.507-.2-.94-.513-1.3-.94-.347-.44-.52-.987-.52-1.64 0-.987.36-1.76 1.08-2.32.733-.573 1.64-.86 2.72-.86a4.47 4.47 0 0 1 2.22.56c.667.36 1.193.88 1.58 1.56l-2.2 1.2c-.32-.68-.853-1.02-1.6-1.02-.333 0-.613.073-.84.22a.693.693 0 0 0-.32.6Zm11.443 7.44c-1.507 0-2.767-.507-3.78-1.52-1-1.013-1.501-2.267-1.501-3.76 0-1.493.501-2.747 1.501-3.76 1.013-1.013 2.273-1.52 3.78-1.52.973 0 1.86.233 2.66.7a4.659 4.659 0 0 1 1.82 1.88l-2.22 1.3c-.2-.413-.507-.74-.92-.98-.4-.24-.854-.36-1.36-.36-.774 0-1.414.26-1.92.78-.507.507-.76 1.16-.76 1.96 0 .787.253 1.44.76 1.96.506.507 1.146.76 1.92.76.52 0 .98-.113 1.38-.34.413-.24.72-.567.92-.98l2.24 1.28a5.08 5.08 0 0 1-1.86 1.9c-.8.467-1.687.7-2.66.7Zm8.542-8.56c.24-.64.633-1.12 1.18-1.44.56-.32 1.18-.48 1.86-.48v2.88c-.787-.093-1.493.067-2.12.48-.613.413-.92 1.1-.92 2.06V271h-2.58v-10h2.58v1.72Zm5.829-2.92c-.427 0-.8-.153-1.12-.46a1.566 1.566 0 0 1-.46-1.12c0-.427.153-.8.46-1.12.32-.32.693-.48 1.12-.48.44 0 .813.16 1.12.48.32.32.48.693.48 1.12 0 .427-.16.8-.48 1.12-.307.307-.68.46-1.12.46Zm-1.28 11.2v-10h2.58v10h-2.58Zm10.761-10.28c1.347 0 2.494.513 3.44 1.54.96 1.013 1.44 2.26 1.44 3.74 0 1.48-.48 2.733-1.44 3.76-.946 1.013-2.093 1.52-3.44 1.52-1.4 0-2.48-.487-3.24-1.46V275h-2.58v-14h2.58v1.18c.76-.973 1.84-1.46 3.24-1.46Zm-2.46 7.32c.52.52 1.18.78 1.98.78s1.46-.26 1.98-.78c.534-.533.8-1.213.8-2.04s-.266-1.5-.8-2.02c-.52-.533-1.18-.8-1.98-.8s-1.46.267-1.98.8c-.52.52-.78 1.193-.78 2.02s.26 1.507.78 2.04Zm14.665-4.56h-2.26v4.16c0 .347.087.6.26.76.173.16.427.253.76.28.333.013.747.007 1.24-.02V271c-1.773.2-3.027.033-3.76-.5-.72-.533-1.08-1.487-1.08-2.86v-4.16h-1.74V261h1.74v-2.02l2.58-.78v2.8h2.26v2.48Zm3.099-3.68a1.568 1.568 0 0 1-1.58-1.58c0-.427.154-.8.46-1.12.32-.32.694-.48 1.12-.48.44 0 .814.16 1.12.48.32.32.48.693.48 1.12 0 .427-.16.8-.48 1.12-.306.307-.68.46-1.12.46Zm-1.28 11.2v-10h2.58v10h-2.58Zm13.462-1.24c-1.027 1.013-2.28 1.52-3.76 1.52s-2.734-.507-3.76-1.52c-1.014-1.027-1.52-2.28-1.52-3.76s.506-2.727 1.52-3.74c1.026-1.027 2.28-1.54 3.76-1.54s2.733.513 3.76 1.54c1.026 1.013 1.54 2.26 1.54 3.74 0 1.48-.514 2.733-1.54 3.76Zm-5.7-1.78c.52.52 1.166.78 1.94.78.773 0 1.42-.26 1.94-.78s.78-1.18.78-1.98-.26-1.46-.78-1.98-1.167-.78-1.94-.78c-.774 0-1.42.26-1.94.78-.507.52-.76 1.18-.76 1.98s.253 1.46.76 1.98Zm14.615-7.26c1.093 0 1.993.367 2.7 1.1.72.733 1.08 1.747 1.08 3.04V271h-2.58v-5.82c0-.667-.18-1.173-.54-1.52-.36-.36-.84-.54-1.44-.54-.667 0-1.2.207-1.6.62-.4.413-.6 1.033-.6 1.86v5.4h-2.58v-10h2.58v1.12c.626-.933 1.62-1.4 2.98-1.4Z"/>
      <path fill="#5E5F5D" d="M134.352 293.768h4.228V295h-5.53v-9.8h1.302v8.568Zm5.989-1.708c.121.625.406 1.111.854 1.456.457.345 1.017.518 1.68.518.924 0 1.596-.341 2.016-1.022l1.036.588c-.682 1.055-1.708 1.582-3.08 1.582-1.111 0-2.016-.345-2.716-1.036-.691-.7-1.036-1.582-1.036-2.646 0-1.055.34-1.932 1.022-2.632.681-.7 1.563-1.05 2.646-1.05 1.026 0 1.862.364 2.506 1.092.653.719.98 1.587.98 2.604 0 .177-.014.359-.042.546h-5.866Zm2.422-3.094c-.654 0-1.195.187-1.624.56-.43.364-.696.854-.798 1.47h4.676c-.103-.663-.364-1.167-.784-1.512a2.247 2.247 0 0 0-1.47-.518Zm8.489.21h-1.862v3.794c0 .345.065.593.196.742.14.14.35.215.63.224.28 0 .625-.009 1.036-.028V295c-1.064.14-1.844.056-2.338-.252-.495-.317-.742-.91-.742-1.778v-3.794h-1.386V288h1.386v-1.596l1.218-.364V288h1.862v1.176Zm3.453-3.99-.91 3.402h-1.05l.56-3.402h1.4Zm1.65 4.704c0 .271.135.49.406.658.271.159.597.289.98.392.383.093.765.205 1.148.336.383.121.709.336.98.644.271.299.406.686.406 1.162 0 .635-.247 1.143-.742 1.526-.485.383-1.111.574-1.876.574-.681 0-1.265-.149-1.75-.448a2.504 2.504 0 0 1-1.036-1.19l1.05-.602c.112.336.322.602.63.798.308.196.677.294 1.106.294.401 0 .733-.075.994-.224.261-.159.392-.401.392-.728 0-.271-.135-.485-.406-.644a3.35 3.35 0 0 0-.98-.392 17.931 17.931 0 0 1-1.148-.35 2.308 2.308 0 0 1-.98-.644c-.271-.299-.406-.681-.406-1.148 0-.607.233-1.106.7-1.498.476-.392 1.069-.588 1.778-.588.569 0 1.073.131 1.512.392.448.252.784.607 1.008 1.064l-1.022.574c-.252-.597-.751-.896-1.498-.896-.345 0-.639.084-.882.252a.77.77 0 0 0-.364.686Zm12.152 5.292c-1.055 0-1.932-.35-2.632-1.05-.7-.709-1.05-1.587-1.05-2.632 0-1.045.35-1.918 1.05-2.618.7-.709 1.577-1.064 2.632-1.064.691 0 1.311.168 1.862.504.551.327.961.77 1.232 1.33l-1.022.588a2.065 2.065 0 0 0-.826-.896 2.328 2.328 0 0 0-1.246-.336c-.7 0-1.288.238-1.764.714-.467.476-.7 1.069-.7 1.778 0 .7.233 1.288.7 1.764.476.476 1.064.714 1.764.714.467 0 .887-.107 1.26-.322.373-.224.658-.523.854-.896l1.036.602a3.453 3.453 0 0 1-1.288 1.33c-.56.327-1.181.49-1.862.49Zm10.165-1.064c-.719.709-1.591 1.064-2.618 1.064s-1.899-.355-2.618-1.064c-.709-.709-1.064-1.582-1.064-2.618 0-1.036.355-1.909 1.064-2.618.719-.709 1.591-1.064 2.618-1.064s1.899.355 2.618 1.064c.719.709 1.078 1.582 1.078 2.618 0 1.036-.359 1.909-1.078 2.618Zm-2.618-.126c.7 0 1.288-.238 1.764-.714s.714-1.069.714-1.778c0-.709-.238-1.302-.714-1.778s-1.064-.714-1.764-.714c-.691 0-1.274.238-1.75.714s-.714 1.069-.714 1.778c0 .709.238 1.302.714 1.778s1.059.714 1.75.714Zm8.618-6.174c.821 0 1.479.261 1.974.784.494.513.742 1.213.742 2.1V295h-1.218v-4.228c0-.569-.154-1.008-.462-1.316-.308-.317-.733-.476-1.274-.476-.607 0-1.097.191-1.47.574-.374.373-.56.952-.56 1.736V295h-1.218v-7h1.218v1.008c.494-.793 1.25-1.19 2.268-1.19Zm7.902 0c.821 0 1.479.261 1.974.784.495.513.742 1.213.742 2.1V295h-1.218v-4.228c0-.569-.154-1.008-.462-1.316-.308-.317-.733-.476-1.274-.476-.607 0-1.097.191-1.47.574-.373.373-.56.952-.56 1.736V295h-1.218v-7h1.218v1.008c.495-.793 1.251-1.19 2.268-1.19Zm5.27 4.242c.122.625.406 1.111.854 1.456.458.345 1.018.518 1.68.518.924 0 1.596-.341 2.016-1.022l1.036.588c-.681 1.055-1.708 1.582-3.08 1.582-1.11 0-2.016-.345-2.716-1.036-.69-.7-1.036-1.582-1.036-2.646 0-1.055.341-1.932 1.022-2.632.682-.7 1.564-1.05 2.646-1.05 1.027 0 1.862.364 2.506 1.092.654.719.98 1.587.98 2.604 0 .177-.014.359-.042.546h-5.866Zm2.422-3.094c-.653 0-1.194.187-1.624.56-.429.364-.695.854-.798 1.47h4.676c-.102-.663-.364-1.167-.784-1.512a2.247 2.247 0 0 0-1.47-.518Zm8.163 6.216c-1.055 0-1.932-.35-2.632-1.05-.7-.709-1.05-1.587-1.05-2.632 0-1.045.35-1.918 1.05-2.618.7-.709 1.577-1.064 2.632-1.064.691 0 1.311.168 1.862.504.551.327.961.77 1.232 1.33l-1.022.588a2.065 2.065 0 0 0-.826-.896 2.328 2.328 0 0 0-1.246-.336c-.7 0-1.288.238-1.764.714-.467.476-.7 1.069-.7 1.778 0 .7.233 1.288.7 1.764.476.476 1.064.714 1.764.714.467 0 .887-.107 1.26-.322.373-.224.658-.523.854-.896l1.036.602a3.453 3.453 0 0 1-1.288 1.33c-.56.327-1.181.49-1.862.49Zm8.16-6.006h-1.862v3.794c0 .345.066.593.196.742.14.14.35.215.63.224.28 0 .626-.009 1.036-.028V295c-1.064.14-1.843.056-2.338-.252-.494-.317-.742-.91-.742-1.778v-3.794h-1.386V288h1.386v-1.596l1.218-.364V288h1.862v1.176Zm12.543-1.358c.784 0 1.419.257 1.904.77.486.504.728 1.19.728 2.058V295h-1.218v-4.312c0-.541-.14-.961-.42-1.26-.28-.299-.653-.448-1.12-.448-.522 0-.942.177-1.26.532-.308.345-.462.877-.462 1.596V295h-1.218v-4.312c0-.541-.135-.961-.406-1.26-.261-.299-.62-.448-1.078-.448-.513 0-.942.177-1.288.532-.336.355-.504.887-.504 1.596V295h-1.218v-7h1.218v.938c.476-.747 1.172-1.12 2.086-1.12.943 0 1.629.397 2.058 1.19.486-.793 1.218-1.19 2.198-1.19Zm10.229 6.3c-.718.709-1.591 1.064-2.618 1.064-1.026 0-1.899-.355-2.618-1.064-.709-.709-1.064-1.582-1.064-2.618 0-1.036.355-1.909 1.064-2.618.719-.709 1.592-1.064 2.618-1.064 1.027 0 1.9.355 2.618 1.064.719.709 1.078 1.582 1.078 2.618 0 1.036-.359 1.909-1.078 2.618Zm-2.618-.126c.7 0 1.288-.238 1.764-.714s.714-1.069.714-1.778c0-.709-.238-1.302-.714-1.778s-1.064-.714-1.764-.714c-.69 0-1.274.238-1.75.714s-.714 1.069-.714 1.778c0 .709.238 1.302.714 1.778s1.06.714 1.75.714Zm8.618-6.174c.822 0 1.48.261 1.974.784.495.513.742 1.213.742 2.1V295h-1.218v-4.228c0-.569-.154-1.008-.462-1.316-.308-.317-.732-.476-1.274-.476-.606 0-1.096.191-1.47.574-.373.373-.56.952-.56 1.736V295h-1.218v-7h1.218v1.008c.495-.793 1.251-1.19 2.268-1.19Zm8.225 1.358h-1.862v3.794c0 .345.065.593.196.742.14.14.35.215.63.224.28 0 .625-.009 1.036-.028V295c-1.064.14-1.844.056-2.338-.252-.495-.317-.742-.91-.742-1.778v-3.794h-1.386V288h1.386v-1.596l1.218-.364V288h1.862v1.176Zm4.928-1.358c.821 0 1.479.261 1.974.784.494.513.742 1.213.742 2.1V295h-1.218v-4.228c0-.569-.154-1.008-.462-1.316-.308-.317-.733-.476-1.274-.476-.607 0-1.097.191-1.47.574-.374.373-.56.952-.56 1.736V295h-1.218v-9.8h1.218v3.808c.494-.793 1.25-1.19 2.268-1.19ZM262.93 295v-10.22h1.218V295h-1.218Zm7.962-7h1.302l-2.856 7.434c-.299.793-.719 1.395-1.26 1.806-.532.42-1.148.607-1.848.56v-1.134c.859.065 1.489-.411 1.89-1.428l.126-.266-3.052-6.972h1.302l2.38 5.488 2.016-5.488Zm9.627 1.176h-1.862v3.794c0 .345.065.593.196.742.14.14.35.215.63.224.28 0 .625-.009 1.036-.028V295c-1.064.14-1.843.056-2.338-.252-.495-.317-.742-.91-.742-1.778v-3.794h-1.386V288h1.386v-1.596l1.218-.364V288h1.862v1.176Zm6.995 4.942c-.719.709-1.592 1.064-2.618 1.064-1.027 0-1.9-.355-2.618-1.064-.71-.709-1.064-1.582-1.064-2.618 0-1.036.354-1.909 1.064-2.618.718-.709 1.591-1.064 2.618-1.064 1.026 0 1.899.355 2.618 1.064.718.709 1.078 1.582 1.078 2.618 0 1.036-.36 1.909-1.078 2.618Zm-2.618-.126c.7 0 1.288-.238 1.764-.714s.714-1.069.714-1.778c0-.709-.238-1.302-.714-1.778s-1.064-.714-1.764-.714c-.691 0-1.274.238-1.75.714s-.714 1.069-.714 1.778c0 .709.238 1.302.714 1.778s1.059.714 1.75.714Zm12.23-7.798c-1.232-.103-1.848.429-1.848 1.596v.21h1.848v1.176h-1.848V295h-1.218v-5.824h-1.12V288h1.12v-.21c0-.943.261-1.657.784-2.142.532-.485 1.292-.695 2.282-.63v1.176Zm6.34 1.806h1.218v7h-1.218v-1.204c-.607.924-1.489 1.386-2.646 1.386-.98 0-1.815-.355-2.506-1.064-.691-.719-1.036-1.591-1.036-2.618s.345-1.895 1.036-2.604c.691-.719 1.526-1.078 2.506-1.078 1.157 0 2.039.462 2.646 1.386V288Zm-2.492 6.006c.709 0 1.302-.238 1.778-.714.476-.485.714-1.083.714-1.792 0-.709-.238-1.302-.714-1.778-.476-.485-1.069-.728-1.778-.728-.7 0-1.288.243-1.764.728-.476.476-.714 1.069-.714 1.778 0 .709.238 1.307.714 1.792.476.476 1.064.714 1.764.714Zm6.592-4.116c0 .271.135.49.406.658.27.159.597.289.98.392.382.093.765.205 1.148.336.382.121.709.336.98.644.27.299.406.686.406 1.162 0 .635-.248 1.143-.742 1.526-.486.383-1.111.574-1.876.574-.682 0-1.265-.149-1.75-.448a2.5 2.5 0 0 1-1.036-1.19l1.05-.602c.112.336.322.602.63.798.308.196.676.294 1.106.294.401 0 .732-.075.994-.224.261-.159.392-.401.392-.728 0-.271-.136-.485-.406-.644a3.361 3.361 0 0 0-.98-.392 17.739 17.739 0 0 1-1.148-.35 2.302 2.302 0 0 1-.98-.644c-.271-.299-.406-.681-.406-1.148 0-.607.233-1.106.7-1.498.476-.392 1.068-.588 1.778-.588.569 0 1.073.131 1.512.392.448.252.784.607 1.008 1.064l-1.022.574c-.252-.597-.752-.896-1.498-.896-.346 0-.64.084-.882.252a.77.77 0 0 0-.364.686Zm8.896-.714H314.6v3.794c0 .345.066.593.196.742.14.14.35.215.63.224.28 0 .626-.009 1.036-.028V295c-1.064.14-1.843.056-2.338-.252-.494-.317-.742-.91-.742-1.778v-3.794h-1.386V288h1.386v-1.596l1.218-.364V288h1.862v1.176Zm-179.73 20h-1.862v3.794c0 .345.065.593.196.742.14.14.35.215.63.224.28 0 .625-.009 1.036-.028V315c-1.064.14-1.843.056-2.338-.252-.495-.317-.742-.91-.742-1.778v-3.794h-1.386V308h1.386v-1.596l1.218-.364V308h1.862v1.176Zm2.701 0c.401-.868 1.129-1.302 2.184-1.302v1.274c-.597-.028-1.111.131-1.54.476-.429.345-.644.901-.644 1.666V315h-1.218v-7h1.218v1.176Zm8.789-1.176h1.218v7h-1.218v-1.204c-.607.924-1.489 1.386-2.646 1.386-.98 0-1.815-.355-2.506-1.064-.691-.719-1.036-1.591-1.036-2.618s.345-1.895 1.036-2.604c.691-.719 1.526-1.078 2.506-1.078 1.157 0 2.039.462 2.646 1.386V308Zm-2.492 6.006c.709 0 1.302-.238 1.778-.714.476-.485.714-1.083.714-1.792 0-.709-.238-1.302-.714-1.778-.476-.485-1.069-.728-1.778-.728-.7 0-1.288.243-1.764.728-.476.476-.714 1.069-.714 1.778 0 .709.238 1.307.714 1.792.476.476 1.064.714 1.764.714Zm8.845 1.176c-1.054 0-1.932-.35-2.632-1.05-.7-.709-1.05-1.587-1.05-2.632 0-1.045.35-1.918 1.05-2.618.7-.709 1.578-1.064 2.632-1.064a3.5 3.5 0 0 1 1.862.504c.551.327.962.77 1.232 1.33l-1.022.588a2.06 2.06 0 0 0-.826-.896 2.328 2.328 0 0 0-1.246-.336c-.7 0-1.288.238-1.764.714-.466.476-.7 1.069-.7 1.778 0 .7.234 1.288.7 1.764.476.476 1.064.714 1.764.714.467 0 .887-.107 1.26-.322.374-.224.658-.523.854-.896l1.036.602a3.446 3.446 0 0 1-1.288 1.33c-.56.327-1.18.49-1.862.49ZM164.85 315h-1.512l-3.192-3.318V315h-1.218v-9.8h1.218v5.894L163.17 308h1.568l-3.346 3.388L164.85 315Zm9.519-7h1.302l-2.856 7.434c-.299.793-.719 1.395-1.26 1.806-.532.42-1.148.607-1.848.56v-1.134c.858.065 1.488-.411 1.89-1.428l.126-.266-3.052-6.972h1.302l2.38 5.488 2.016-5.488Zm7.953 6.118c-.718.709-1.591 1.064-2.618 1.064-1.026 0-1.899-.355-2.618-1.064-.709-.709-1.064-1.582-1.064-2.618 0-1.036.355-1.909 1.064-2.618.719-.709 1.592-1.064 2.618-1.064 1.027 0 1.9.355 2.618 1.064.719.709 1.078 1.582 1.078 2.618 0 1.036-.359 1.909-1.078 2.618Zm-2.618-.126c.7 0 1.288-.238 1.764-.714s.714-1.069.714-1.778c0-.709-.238-1.302-.714-1.778s-1.064-.714-1.764-.714c-.69 0-1.274.238-1.75.714s-.714 1.069-.714 1.778c0 .709.238 1.302.714 1.778s1.06.714 1.75.714Zm9.962-5.992h1.218v7h-1.218v-1.008c-.495.793-1.251 1.19-2.268 1.19-.821 0-1.479-.257-1.974-.77-.495-.523-.742-1.227-.742-2.114V308h1.218v4.228c0 .569.154 1.013.462 1.33.308.308.733.462 1.274.462.607 0 1.097-.187 1.47-.56.373-.383.56-.966.56-1.75V308Zm4.29 1.176c.402-.868 1.13-1.302 2.184-1.302v1.274c-.597-.028-1.11.131-1.54.476-.429.345-.644.901-.644 1.666V315h-1.218v-7h1.218v1.176Zm10.166 6.006c-1.054 0-1.932-.35-2.632-1.05-.7-.709-1.05-1.587-1.05-2.632 0-1.045.35-1.918 1.05-2.618.7-.709 1.578-1.064 2.632-1.064a3.5 3.5 0 0 1 1.862.504c.551.327.962.77 1.232 1.33l-1.022.588a2.06 2.06 0 0 0-.826-.896 2.328 2.328 0 0 0-1.246-.336c-.7 0-1.288.238-1.764.714-.466.476-.7 1.069-.7 1.778 0 .7.234 1.288.7 1.764.476.476 1.064.714 1.764.714.467 0 .887-.107 1.26-.322.374-.224.658-.523.854-.896l1.036.602a3.446 3.446 0 0 1-1.288 1.33c-.56.327-1.18.49-1.862.49ZM214.175 308h1.218v7h-1.218v-1.204c-.607.924-1.489 1.386-2.646 1.386-.98 0-1.815-.355-2.506-1.064-.691-.719-1.036-1.591-1.036-2.618s.345-1.895 1.036-2.604c.691-.719 1.526-1.078 2.506-1.078 1.157 0 2.039.462 2.646 1.386V308Zm-2.492 6.006c.709 0 1.302-.238 1.778-.714.476-.485.714-1.083.714-1.792 0-.709-.238-1.302-.714-1.778-.476-.485-1.069-.728-1.778-.728-.7 0-1.288.243-1.764.728-.476.476-.714 1.069-.714 1.778 0 .709.238 1.307.714 1.792.476.476 1.064.714 1.764.714Zm6.773-4.83c.402-.868 1.13-1.302 2.184-1.302v1.274c-.597-.028-1.11.131-1.54.476-.429.345-.644.901-.644 1.666V315h-1.218v-7h1.218v1.176Zm3.847 2.884c.122.625.406 1.111.854 1.456.458.345 1.018.518 1.68.518.924 0 1.596-.341 2.016-1.022l1.036.588c-.681 1.055-1.708 1.582-3.08 1.582-1.11 0-2.016-.345-2.716-1.036-.69-.7-1.036-1.582-1.036-2.646 0-1.055.341-1.932 1.022-2.632.682-.7 1.564-1.05 2.646-1.05 1.027 0 1.862.364 2.506 1.092.654.719.98 1.587.98 2.604 0 .177-.014.359-.042.546h-5.866Zm2.422-3.094c-.653 0-1.194.187-1.624.56-.429.364-.695.854-.798 1.47h4.676c-.102-.663-.364-1.167-.784-1.512a2.247 2.247 0 0 0-1.47-.518Zm5.727 3.094c.121.625.406 1.111.854 1.456.457.345 1.017.518 1.68.518.924 0 1.596-.341 2.016-1.022l1.036.588c-.682 1.055-1.708 1.582-3.08 1.582-1.111 0-2.016-.345-2.716-1.036-.691-.7-1.036-1.582-1.036-2.646 0-1.055.34-1.932 1.022-2.632.681-.7 1.563-1.05 2.646-1.05 1.026 0 1.862.364 2.506 1.092.653.719.98 1.587.98 2.604 0 .177-.014.359-.042.546h-5.866Zm2.422-3.094c-.654 0-1.195.187-1.624.56-.43.364-.696.854-.798 1.47h4.676c-.103-.663-.364-1.167-.784-1.512a2.247 2.247 0 0 0-1.47-.518Zm6.104.21c.401-.868 1.129-1.302 2.184-1.302v1.274c-.597-.028-1.111.131-1.54.476-.429.345-.644.901-.644 1.666V315h-1.218v-7h1.218v1.176Z"/>
      <path fill="#DE7E47" d="M114 95h328v136H114z"/>
      <path fill="#fff" fill-opacity=".06" d="M146.5 137.75a4.25 4.25 0 0 1 4.25-4.25h34v-5.667a1.414 1.414 0 0 0-1.417-1.416h-42.5a1.414 1.414 0 0 0-1.416 1.416v42.5a1.416 1.416 0 0 0 1.416 1.417h5.667v-34Z"/>
      <path fill="#fff" fill-opacity=".24" d="M156.417 147.667a4.25 4.25 0 0 1 4.25-4.25h34v-5.667a1.42 1.42 0 0 0-1.417-1.417h-42.5a1.42 1.42 0 0 0-1.417 1.417v42.5a1.42 1.42 0 0 0 1.417 1.417h5.667v-34Z"/>
      <path fill="#F7C394" d="M203.167 146.25h-42.5a1.416 1.416 0 0 0-1.417 1.417v42.5a1.414 1.414 0 0 0 1.417 1.416h42.5a1.414 1.414 0 0 0 1.416-1.416v-42.5a1.416 1.416 0 0 0-1.416-1.417Zm-6.928 13.288-1.048 5.044v.099a1.352 1.352 0 0 1-.114.255 1.136 1.136 0 0 1-.34.411c-.04.04-.082.078-.127.113h-.142a1.404 1.404 0 0 1-.453.099h-.283l-5.256-.892a1.441 1.441 0 0 1 .524-2.834l1.828.383a11.453 11.453 0 0 0-11.415-3.9 11.446 11.446 0 1 0 7.165 21.636 1.419 1.419 0 0 1 1.147 2.593 14.296 14.296 0 0 1-19.699-16.422 14.291 14.291 0 0 1 10.768-10.589 14.297 14.297 0 0 1 14.258 4.982l.325-1.559a1.451 1.451 0 0 1 1.708-1.126 1.443 1.443 0 0 1 1.129 1.143c.036.187.035.378-.003.564h.028Z"/>
      <g filter="url(#c)">
        <path fill="#fff" d="M113 384h360v68H113z"/>
        <rect width="79" height="38" x="345" y="393" fill="#141414" rx="4"/>
        <path fill="#fff" d="M379.201 411.918c.858.495 1.288 1.241 1.288 2.24 0 .831-.294 1.512-.882 2.044-.588.532-1.312.798-2.17.798h-4.158v-9.8h3.864c.84 0 1.544.261 2.114.784.578.513.868 1.171.868 1.974 0 .812-.308 1.465-.924 1.96Zm-2.058-2.912h-1.932v2.156h1.932a.984.984 0 0 0 .742-.308c.205-.205.308-.462.308-.77a1.07 1.07 0 0 0-.294-.77 1 1 0 0 0-.756-.308Zm.294 6.188c.326 0 .597-.107.812-.322.214-.224.322-.504.322-.84 0-.327-.108-.597-.322-.812a1.079 1.079 0 0 0-.812-.336h-2.226v2.31h2.226Zm9.105-5.194h1.806v7h-1.806v-.784c-.439.653-1.134.98-2.086.98-.766 0-1.4-.257-1.904-.77-.495-.513-.742-1.223-.742-2.128V410h1.806v4.074c0 .467.126.826.378 1.078.252.243.588.364 1.008.364.466 0 .84-.145 1.12-.434.28-.289.42-.723.42-1.302V410Zm8.124 0h1.932l-2.548 7c-.364 1.008-.85 1.736-1.456 2.184-.598.457-1.344.663-2.24.616v-1.68c.485.009.868-.093 1.148-.308.289-.215.518-.56.686-1.036l-2.87-6.776h1.974l1.82 4.704 1.554-4.704Z"/>
        <path fill="#141414" d="M141.432 414.472c0 1.056-.336 1.914-1.008 2.574-.672.648-1.548 1.038-2.628 1.17v1.584h-1.206v-1.566c-1.008-.072-1.872-.354-2.592-.846a4.076 4.076 0 0 1-1.548-1.998l2.142-1.242c.384.96 1.05 1.506 1.998 1.638v-3.114h-.018l-.036-.018c-.42-.156-.762-.294-1.026-.414a7.985 7.985 0 0 1-.936-.522 3.84 3.84 0 0 1-.828-.702 4.15 4.15 0 0 1-.522-.954 3.561 3.561 0 0 1-.216-1.26c0-1.056.342-1.902 1.026-2.538.696-.636 1.548-1.002 2.556-1.098V403.6h1.206v1.602c1.632.192 2.784 1.038 3.456 2.538l-2.088 1.224c-.288-.72-.744-1.158-1.368-1.314v3.006c1.116.444 1.866.798 2.25 1.062.924.66 1.386 1.578 1.386 2.754Zm-5.958-5.652c0 .264.084.498.252.702.168.192.456.39.864.594v-2.52c-.36.072-.636.216-.828.432a1.15 1.15 0 0 0-.288.792Zm2.322 6.93c.768-.168 1.152-.588 1.152-1.26 0-.3-.096-.552-.288-.756-.18-.204-.468-.396-.864-.576v2.592Zm7.843-10.35h2.16V418h-2.484v-9.972l-2.376.666-.612-2.124 3.312-1.17Zm9.371 12.852c-1.572 0-2.808-.594-3.708-1.782-.888-1.2-1.332-2.79-1.332-4.77 0-1.98.444-3.564 1.332-4.752.9-1.2 2.136-1.8 3.708-1.8 1.584 0 2.82.6 3.708 1.8.888 1.188 1.332 2.772 1.332 4.752s-.444 3.57-1.332 4.77c-.888 1.188-2.124 1.782-3.708 1.782Zm-1.908-3.474c.432.696 1.068 1.044 1.908 1.044.84 0 1.476-.354 1.908-1.062.444-.708.666-1.728.666-3.06 0-1.344-.222-2.37-.666-3.078-.432-.708-1.068-1.062-1.908-1.062-.84 0-1.476.354-1.908 1.062-.432.708-.648 1.734-.648 3.078 0 1.344.216 2.37.648 3.078Z"/>
        <path fill="#5E5F5D" d="M170.606 408.2c.905 0 1.657.303 2.254.91.607.597.91 1.344.91 2.24 0 .887-.303 1.633-.91 2.24-.597.607-1.349.91-2.254.91h-2.254v3.5h-1.302v-9.8h3.556Zm0 5.082c.541 0 .989-.182 1.344-.546.355-.373.532-.835.532-1.386 0-.56-.177-1.022-.532-1.386-.355-.364-.803-.546-1.344-.546h-2.254v3.864h2.254Zm6.004 3.486h4.55V418h-5.852v-9.8h5.782v1.232h-4.48v3.01h4.13v1.218h-4.13v3.108ZM188.542 418l-2.198-3.752h-2.31V418h-1.302v-9.8h3.92c.84 0 1.558.299 2.156.896.597.588.896 1.302.896 2.142 0 .635-.192 1.213-.574 1.736a3.003 3.003 0 0 1-1.456 1.106l2.31 3.92h-1.442Zm-4.508-8.582v3.654h2.618c.485 0 .896-.177 1.232-.532.345-.364.518-.798.518-1.302a1.78 1.78 0 0 0-.518-1.288 1.631 1.631 0 0 0-1.232-.532h-2.618Zm19.926-1.218v9.8h-1.288v-7.658l-3.206 5.334h-.168l-3.206-5.32V418h-1.302v-9.8h1.47l3.122 5.18 3.108-5.18h1.47Zm10.244 8.498c-.98.989-2.179 1.484-3.598 1.484s-2.618-.495-3.598-1.484-1.47-2.189-1.47-3.598c0-1.419.49-2.618 1.47-3.598.98-.989 2.179-1.484 3.598-1.484s2.618.495 3.598 1.484c.989.98 1.484 2.179 1.484 3.598 0 1.409-.495 2.609-1.484 3.598Zm-6.3-.882c.728.728 1.629 1.092 2.702 1.092s1.969-.364 2.688-1.092c.728-.737 1.092-1.643 1.092-2.716 0-1.083-.364-1.988-1.092-2.716-.719-.737-1.615-1.106-2.688-1.106-1.073 0-1.974.369-2.702 1.106-.719.728-1.078 1.633-1.078 2.716 0 1.073.359 1.979 1.078 2.716Zm15.439-7.616h1.302v9.8h-1.05l-5.04-7.322V418h-1.302v-9.8h1.05l5.04 7.308V408.2Zm9.67 0v1.232h-2.898V418h-1.288v-8.568h-2.884V408.2h7.07Zm7.351 0h1.288v9.8h-1.288v-4.41h-4.76V418h-1.302v-9.8h1.302v4.158h4.76V408.2Z"/>
      </g>
    </g>
  </g>
  <defs>
    <clipPath id="a">
      <rect width="557" height="546" fill="#fff" rx="80"/>
    </clipPath>
    <clipPath id="b">
      <rect width="328" height="357" x="114" y="95" fill="#fff" rx="24"/>
    </clipPath>
    <filter id="c" width="368" height="76" x="109" y="376" color-interpolation-filters="sRGB" filterUnits="userSpaceOnUse">
      <feFlood flood-opacity="0" result="BackgroundImageFix"/>
      <feColorMatrix in="SourceAlpha" result="hardAlpha" values="0 0 0 0 0 0 0 0 0 0 0 0 0 0 0 0 0 0 127 0"/>
      <feOffset dy="-4"/>
      <feGaussianBlur stdDeviation="2"/>
      <feComposite in2="hardAlpha" operator="out"/>
      <feColorMatrix values="0 0 0 0 0 0 0 0 0 0 0 0 0 0 0 0 0 0 0.05 0"/>
      <feBlend in2="BackgroundImageFix" result="effect1_dropShadow_4384_33265"/>
      <feBlend in="SourceGraphic" in2="effect1_dropShadow_4384_33265" result="shape"/>
    </filter>
  </defs>
</svg>