<?xml version="1.0" encoding="utf-8"?>
<svg xmlns="http://www.w3.org/2000/svg" width="557" height="546" fill="none">
  <g clip-path="url(#a)">
    <rect width="557" height="546" fill="#D7EDFF" rx="80"/>
    <g clip-path="url(#b)">
      <rect width="328" height="357" x="120" y="86" fill="#fff" rx="24"/>
      <path fill="#000" d="M147.66 250.64h-5.6v3.32h5.44v2.64h-5.44v5.4h-2.76v-14h8.36v2.64Zm3.171.16c-.427 0-.8-.153-1.12-.46a1.566 1.566 0 0 1-.46-1.12c0-.427.153-.8.46-1.12.32-.32.693-.48 1.12-.48.44 0 .813.16 1.12.48.32.32.48.693.48 1.12 0 .427-.16.8-.48 1.12-.307.307-.68.46-1.12.46Zm-1.28 11.2v-10h2.58v10h-2.58Zm10.502-10.28c1.093 0 1.993.367 2.7 1.1.72.733 1.08 1.747 1.08 3.04V262h-2.58v-5.82c0-.667-.18-1.173-.54-1.52-.36-.36-.84-.54-1.44-.54-.667 0-1.2.207-1.6.62-.4.413-.6 1.033-.6 1.86v5.4h-2.58v-10h2.58v1.12c.626-.933 1.62-1.4 2.98-1.4Zm8.162 6.34c.347 1.253 1.287 1.88 2.82 1.88.987 0 1.734-.333 2.24-1l2.08 1.2c-.986 1.427-2.44 2.14-4.36 2.14-1.653 0-2.98-.5-3.98-1.5s-1.5-2.26-1.5-3.78c0-1.507.494-2.76 1.48-3.76.987-1.013 2.254-1.52 3.8-1.52 1.467 0 2.674.507 3.62 1.52.96 1.013 1.44 2.267 1.44 3.76 0 .333-.033.687-.1 1.06h-7.54Zm-.04-2h5.1c-.146-.68-.453-1.187-.92-1.52a2.565 2.565 0 0 0-1.56-.5c-.693 0-1.266.18-1.72.54-.453.347-.753.84-.9 1.48Zm20.202-1.58h-2.26v4.16c0 .347.086.6.26.76.173.16.426.253.76.28.333.013.746.007 1.24-.02V262c-1.774.2-3.027.033-3.76-.5-.72-.533-1.08-1.487-1.08-2.86v-4.16h-1.74V252h1.74v-2.02l2.58-.78v2.8h2.26v2.48Zm8.575-2.48h2.58v10h-2.58v-1.12c-.627.933-1.62 1.4-2.98 1.4-1.093 0-2-.367-2.72-1.1-.707-.733-1.06-1.747-1.06-3.04V252h2.58v5.82c0 .667.18 1.18.54 1.54.36.347.84.52 1.44.52.667 0 1.2-.207 1.6-.62.4-.413.6-1.033.6-1.86V252Zm10.503-.28c1.093 0 1.993.367 2.7 1.1.72.733 1.08 1.747 1.08 3.04V262h-2.58v-5.82c0-.667-.18-1.173-.54-1.52-.36-.36-.84-.54-1.44-.54-.667 0-1.2.207-1.6.62-.4.413-.6 1.033-.6 1.86v5.4h-2.58v-10h2.58v1.12c.627-.933 1.62-1.4 2.98-1.4Zm7.263-.92c-.427 0-.8-.153-1.12-.46a1.566 1.566 0 0 1-.46-1.12c0-.427.153-.8.46-1.12.32-.32.693-.48 1.12-.48.44 0 .813.16 1.12.48.32.32.48.693.48 1.12 0 .427-.16.8-.48 1.12-.307.307-.68.46-1.12.46Zm-1.28 11.2v-10h2.58v10h-2.58Zm10.501-10.28c1.094 0 1.994.367 2.7 1.1.72.733 1.08 1.747 1.08 3.04V262h-2.58v-5.82c0-.667-.18-1.173-.54-1.52-.36-.36-.84-.54-1.44-.54-.666 0-1.2.207-1.6.62-.4.413-.6 1.033-.6 1.86v5.4h-2.58v-10h2.58v1.12c.627-.933 1.62-1.4 2.98-1.4Zm13.643.28h2.52v9.52c0 1.547-.513 2.727-1.54 3.54-1.013.813-2.24 1.22-3.68 1.22-1.08 0-2.033-.207-2.86-.62a4.347 4.347 0 0 1-1.88-1.82l2.2-1.26c.507.933 1.38 1.4 2.62 1.4.814 0 1.454-.213 1.92-.64.467-.427.7-1.033.7-1.82v-1.08c-.76 1.013-1.826 1.52-3.2 1.52-1.413 0-2.6-.493-3.56-1.48-.946-1-1.42-2.213-1.42-3.64 0-1.413.48-2.62 1.44-3.62s2.14-1.5 3.54-1.5c1.374 0 2.44.507 3.2 1.52V252Zm-4.82 6.82c.534.507 1.207.76 2.02.76.814 0 1.48-.253 2-.76.534-.52.8-1.18.8-1.98 0-.787-.266-1.433-.8-1.94-.52-.52-1.186-.78-2-.78-.813 0-1.486.26-2.02.78-.52.507-.78 1.153-.78 1.94 0 .8.26 1.46.78 1.98Zm14.68 3.18v-14.6h2.58V262h-2.58Zm6.221-11.2c-.427 0-.8-.153-1.12-.46a1.566 1.566 0 0 1-.46-1.12c0-.427.153-.8.46-1.12.32-.32.693-.48 1.12-.48.44 0 .813.16 1.12.48.32.32.48.693.48 1.12 0 .427-.16.8-.48 1.12-.307.307-.68.46-1.12.46Zm-1.28 11.2v-10h2.58v10h-2.58Zm10.322-11.8c-1.414-.107-2.12.46-2.12 1.7v.1h2.12v2.48h-2.12V262h-2.58v-7.52h-1.44V252h1.44v-.1c0-1.413.393-2.487 1.18-3.22.786-.733 1.96-1.053 3.52-.96v2.48Zm2.991 7.86c.347 1.253 1.287 1.88 2.82 1.88.987 0 1.733-.333 2.24-1l2.08 1.2c-.987 1.427-2.44 2.14-4.36 2.14-1.653 0-2.98-.5-3.98-1.5s-1.5-2.26-1.5-3.78c0-1.507.493-2.76 1.48-3.76.987-1.013 2.253-1.52 3.8-1.52 1.467 0 2.673.507 3.62 1.52.96 1.013 1.44 2.267 1.44 3.76 0 .333-.033.687-.1 1.06h-7.54Zm-.04-2h5.1c-.147-.68-.453-1.187-.92-1.52a2.565 2.565 0 0 0-1.56-.5c-.693 0-1.267.18-1.72.54-.453.347-.753.84-.9 1.48Z"/>
      <path fill="#5E5F5D" d="M143.656 286.182c-1.484 0-2.711-.49-3.682-1.47-.961-.98-1.442-2.184-1.442-3.612s.481-2.632 1.442-3.612c.971-.98 2.198-1.47 3.682-1.47a4.86 4.86 0 0 1 2.464.644 4.633 4.633 0 0 1 1.764 1.736l-1.134.658a3.1 3.1 0 0 0-1.26-1.288 3.525 3.525 0 0 0-1.834-.49c-1.129 0-2.053.364-2.772 1.092-.709.728-1.064 1.638-1.064 2.73 0 1.083.355 1.988 1.064 2.716.719.728 1.643 1.092 2.772 1.092.672 0 1.283-.159 1.834-.476.56-.327.98-.756 1.26-1.288l1.134.644a4.638 4.638 0 0 1-1.75 1.75 4.935 4.935 0 0 1-2.478.644Zm11.457-1.064c-.718.709-1.591 1.064-2.618 1.064-1.026 0-1.899-.355-2.618-1.064-.709-.709-1.064-1.582-1.064-2.618 0-1.036.355-1.909 1.064-2.618.719-.709 1.592-1.064 2.618-1.064 1.027 0 1.9.355 2.618 1.064.719.709 1.078 1.582 1.078 2.618 0 1.036-.359 1.909-1.078 2.618Zm-2.618-.126c.7 0 1.288-.238 1.764-.714s.714-1.069.714-1.778c0-.709-.238-1.302-.714-1.778s-1.064-.714-1.764-.714c-.69 0-1.274.238-1.75.714s-.714 1.069-.714 1.778c0 .709.238 1.302.714 1.778s1.06.714 1.75.714Zm9.962-5.992h1.218v7h-1.218v-1.008c-.495.793-1.251 1.19-2.268 1.19-.821 0-1.479-.257-1.974-.77-.495-.523-.742-1.227-.742-2.114V279h1.218v4.228c0 .569.154 1.013.462 1.33.308.308.733.462 1.274.462.607 0 1.097-.187 1.47-.56.373-.383.56-.966.56-1.75V279Zm4.29 1.176c.402-.868 1.13-1.302 2.184-1.302v1.274c-.597-.028-1.11.131-1.54.476-.429.345-.644.901-.644 1.666V286h-1.218v-7h1.218v1.176Zm4.166.714c0 .271.136.49.406.658.271.159.598.289.98.392.383.093.766.205 1.148.336.383.121.71.336.98.644.271.299.406.686.406 1.162 0 .635-.247 1.143-.742 1.526-.485.383-1.11.574-1.876.574-.681 0-1.264-.149-1.75-.448a2.51 2.51 0 0 1-1.036-1.19l1.05-.602c.112.336.322.602.63.798.308.196.677.294 1.106.294.402 0 .733-.075.994-.224.262-.159.392-.401.392-.728 0-.271-.135-.485-.406-.644a3.339 3.339 0 0 0-.98-.392 18.129 18.129 0 0 1-1.148-.35 2.314 2.314 0 0 1-.98-.644c-.27-.299-.406-.681-.406-1.148 0-.607.234-1.106.7-1.498.476-.392 1.069-.588 1.778-.588.57 0 1.074.131 1.512.392.448.252.784.607 1.008 1.064l-1.022.574c-.252-.597-.751-.896-1.498-.896-.345 0-.639.084-.882.252a.772.772 0 0 0-.364.686Zm6.025 2.17c.121.625.406 1.111.854 1.456.457.345 1.017.518 1.68.518.924 0 1.596-.341 2.016-1.022l1.036.588c-.681 1.055-1.708 1.582-3.08 1.582-1.111 0-2.016-.345-2.716-1.036-.691-.7-1.036-1.582-1.036-2.646 0-1.055.341-1.932 1.022-2.632.681-.7 1.563-1.05 2.646-1.05 1.027 0 1.862.364 2.506 1.092.653.719.98 1.587.98 2.604 0 .177-.014.359-.042.546h-5.866Zm2.422-3.094c-.653 0-1.195.187-1.624.56-.429.364-.695.854-.798 1.47h4.676c-.103-.663-.364-1.167-.784-1.512a2.247 2.247 0 0 0-1.47-.518Zm8.512 8.834v-12.88h1.218v12.88h-1.218Zm13.599-5.88v1.218h-1.19V286h-1.302v-1.862h-4.998v-1.218l3.514-6.72h1.4l-3.514 6.72h3.598v-2.772h1.302v2.772h1.19Zm1.989 3.234a.878.878 0 0 1-.644-.266.874.874 0 0 1-.266-.644c0-.252.088-.467.266-.644a.878.878 0 0 1 .644-.266.85.85 0 0 1 .644.266.878.878 0 0 1 .266.644.878.878 0 0 1-.266.644.85.85 0 0 1-.644.266Zm5.49-6.132c.924 0 1.703.275 2.338.826.644.541.966 1.293.966 2.254 0 .952-.327 1.703-.98 2.254-.653.551-1.447.826-2.38.826-.747 0-1.414-.177-2.002-.532a2.88 2.88 0 0 1-1.232-1.568l1.106-.63c.131.476.383.84.756 1.092.373.243.831.364 1.372.364.616 0 1.115-.159 1.498-.476.383-.317.574-.761.574-1.33 0-.569-.191-1.013-.574-1.33-.383-.327-.873-.49-1.47-.49h-2.772l.364-5.082h5.362v1.218h-4.186l-.168 2.604h1.428Zm5.081 7.378h-.728l5.6-12.6h.728l-5.6 12.6Zm9.917-7.378c.924 0 1.703.275 2.338.826.644.541.966 1.293.966 2.254 0 .952-.327 1.703-.98 2.254-.653.551-1.447.826-2.38.826-.747 0-1.414-.177-2.002-.532a2.88 2.88 0 0 1-1.232-1.568l1.106-.63c.131.476.383.84.756 1.092.373.243.831.364 1.372.364.616 0 1.115-.159 1.498-.476.383-.317.574-.761.574-1.33 0-.569-.191-1.013-.574-1.33-.383-.327-.873-.49-1.47-.49h-2.772l.364-5.082h5.362v1.218h-4.186l-.168 2.604h1.428Zm9.674 7.378c-1.027-2.053-1.54-4.153-1.54-6.3 0-2.147.513-4.247 1.54-6.3h1.218c-1.027 2.053-1.54 4.153-1.54 6.3 0 2.147.513 4.247 1.54 6.3h-1.218Zm4.343-11.2h1.12v9.8h-1.288v-8.4l-2.086.616-.322-1.12 2.576-.896Zm7.931 4.732c.476.243.849.569 1.12.98.27.411.406.877.406 1.4 0 .896-.313 1.601-.938 2.114-.626.504-1.433.756-2.422.756-.98 0-1.783-.252-2.408-.756-.626-.513-.938-1.218-.938-2.114 0-.523.135-.989.406-1.4.27-.411.644-.737 1.12-.98-.803-.504-1.204-1.218-1.204-2.142 0-.887.294-1.568.882-2.044.597-.485 1.311-.728 2.142-.728.84 0 1.554.243 2.142.728.597.476.896 1.157.896 2.044 0 .924-.402 1.638-1.204 2.142Zm-1.834-3.668c-.495 0-.91.131-1.246.392-.327.261-.49.649-.49 1.162 0 .495.168.882.504 1.162.336.271.746.406 1.232.406.485 0 .896-.135 1.232-.406.336-.28.504-.667.504-1.162 0-.513-.164-.901-.49-1.162-.327-.261-.742-.392-1.246-.392Zm0 7.672c.625 0 1.124-.145 1.498-.434.382-.299.574-.723.574-1.274 0-.541-.192-.957-.574-1.246-.374-.299-.873-.448-1.498-.448-.616 0-1.116.149-1.498.448-.374.289-.56.705-.56 1.246 0 .551.186.975.56 1.274.382.289.882.434 1.498.434ZM258.309 286l-2.198-3.752h-2.31V286h-1.302v-9.8h3.92c.84 0 1.559.299 2.156.896a2.89 2.89 0 0 1 .896 2.142 2.87 2.87 0 0 1-.574 1.736 2.994 2.994 0 0 1-1.456 1.106l2.31 3.92h-1.442Zm-4.508-8.582v3.654h2.618a1.63 1.63 0 0 0 1.232-.532c.346-.364.518-.798.518-1.302s-.172-.933-.518-1.288a1.63 1.63 0 0 0-1.232-.532h-2.618ZM266.372 279h1.218v7h-1.218v-1.204c-.606.924-1.488 1.386-2.646 1.386-.98 0-1.815-.355-2.506-1.064-.69-.719-1.036-1.591-1.036-2.618s.346-1.895 1.036-2.604c.691-.719 1.526-1.078 2.506-1.078 1.158 0 2.04.462 2.646 1.386V279Zm-2.492 6.006c.71 0 1.302-.238 1.778-.714.476-.485.714-1.083.714-1.792 0-.709-.238-1.302-.714-1.778-.476-.485-1.068-.728-1.778-.728-.7 0-1.288.243-1.764.728-.476.476-.714 1.069-.714 1.778 0 .709.238 1.307.714 1.792.476.476 1.064.714 1.764.714Zm9.364-4.83h-1.862v3.794c0 .345.065.593.196.742.14.14.35.215.63.224.28 0 .625-.009 1.036-.028V286c-1.064.14-1.844.056-2.338-.252-.495-.317-.742-.91-.742-1.778v-3.794h-1.386V279h1.386v-1.596l1.218-.364V279h1.862v1.176Zm2.058-2.45a.795.795 0 0 1-.588-.238.781.781 0 0 1-.238-.574c0-.224.079-.415.238-.574a.775.775 0 0 1 .588-.252c.224 0 .415.084.574.252.158.159.238.35.238.574 0 .224-.08.415-.238.574a.781.781 0 0 1-.574.238Zm-.616 8.274v-7h1.218v7h-1.218Zm6.562-7.182c.821 0 1.479.261 1.974.784.495.513.742 1.213.742 2.1V286h-1.218v-4.228c0-.569-.154-1.008-.462-1.316-.308-.317-.733-.476-1.274-.476-.607 0-1.097.191-1.47.574-.373.373-.56.952-.56 1.736V286h-1.218v-7h1.218v1.008c.495-.793 1.251-1.19 2.268-1.19Zm10.226.182h1.204v6.706c0 1.036-.35 1.839-1.05 2.408-.7.579-1.54.868-2.52.868-.784 0-1.46-.149-2.03-.448a2.902 2.902 0 0 1-1.288-1.26l1.064-.602c.383.784 1.144 1.176 2.282 1.176.728 0 1.298-.191 1.708-.574.42-.383.63-.905.63-1.568v-.994c-.616.933-1.493 1.4-2.632 1.4-.998 0-1.843-.355-2.534-1.064-.69-.709-1.036-1.573-1.036-2.59s.346-1.876 1.036-2.576c.691-.709 1.536-1.064 2.534-1.064 1.148 0 2.026.462 2.632 1.386V279Zm-4.27 5.236c.476.476 1.069.714 1.778.714.71 0 1.302-.238 1.778-.714s.714-1.069.714-1.778c0-.7-.238-1.288-.714-1.764s-1.068-.714-1.778-.714c-.709 0-1.302.238-1.778.714s-.714 1.064-.714 1.764c0 .709.238 1.302.714 1.778Zm8.356-3.346c0 .271.135.49.406.658.271.159.597.289.98.392.383.093.765.205 1.148.336.383.121.709.336.98.644.271.299.406.686.406 1.162 0 .635-.247 1.143-.742 1.526-.485.383-1.111.574-1.876.574-.681 0-1.265-.149-1.75-.448a2.504 2.504 0 0 1-1.036-1.19l1.05-.602c.112.336.322.602.63.798.308.196.677.294 1.106.294.401 0 .733-.075.994-.224.261-.159.392-.401.392-.728 0-.271-.135-.485-.406-.644a3.35 3.35 0 0 0-.98-.392 17.931 17.931 0 0 1-1.148-.35 2.308 2.308 0 0 1-.98-.644c-.271-.299-.406-.681-.406-1.148 0-.607.233-1.106.7-1.498.476-.392 1.069-.588 1.778-.588.569 0 1.073.131 1.512.392.448.252.784.607 1.008 1.064l-1.022.574c-.252-.597-.751-.896-1.498-.896-.345 0-.639.084-.882.252a.77.77 0 0 0-.364.686Zm6.006 6.51h-1.218c1.027-2.053 1.54-4.153 1.54-6.3 0-2.147-.513-4.247-1.54-6.3h1.218c1.027 2.053 1.54 4.153 1.54 6.3 0 2.147-.513 4.247-1.54 6.3Z"/>
      <path fill="#77BBF4" d="M120 86h328v136H120z"/>
      <path fill="#D7EDFF" d="M157.732 127.184c-3.902-.41-7.449 2.48-7.859 6.382l-3.681 35.015c-.41 3.901 2.459 7.466 6.361 7.876l35.034 3.682c3.902.41 7.449-2.48 7.859-6.382l3.68-35.014c.41-3.902-2.459-7.467-6.36-7.877l-10.126-1.064-2.331 22.181a2.477 2.477 0 0 1-4.381 1.285l-2.846-3.514-3.538 2.843a2.47 2.47 0 0 1-2.729.25 2.47 2.47 0 0 1-1.289-2.418l2.331-22.181-10.125-1.064Z"/>
      <g filter="url(#c)">
        <path fill="#fff" d="M119 375h360v68H119z"/>
        <rect width="79" height="38" x="351" y="384" fill="#141414" rx="4"/>
        <path fill="#fff" d="M385.201 402.918c.858.495 1.288 1.241 1.288 2.24 0 .831-.294 1.512-.882 2.044-.588.532-1.312.798-2.17.798h-4.158v-9.8h3.864c.84 0 1.544.261 2.114.784.578.513.868 1.171.868 1.974 0 .812-.308 1.465-.924 1.96Zm-2.058-2.912h-1.932v2.156h1.932a.984.984 0 0 0 .742-.308c.205-.205.308-.462.308-.77a1.07 1.07 0 0 0-.294-.77 1 1 0 0 0-.756-.308Zm.294 6.188c.326 0 .597-.107.812-.322.214-.224.322-.504.322-.84 0-.327-.108-.597-.322-.812a1.079 1.079 0 0 0-.812-.336h-2.226v2.31h2.226Zm9.105-5.194h1.806v7h-1.806v-.784c-.439.653-1.134.98-2.086.98-.766 0-1.4-.257-1.904-.77-.495-.513-.742-1.223-.742-2.128V401h1.806v4.074c0 .467.126.826.378 1.078.252.243.588.364 1.008.364.466 0 .84-.145 1.12-.434.28-.289.42-.723.42-1.302V401Zm8.124 0h1.932l-2.548 7c-.364 1.008-.85 1.736-1.456 2.184-.598.457-1.344.663-2.24.616v-1.68c.485.009.868-.093 1.148-.308.289-.215.518-.56.686-1.036l-2.87-6.776h1.974l1.82 4.704 1.554-4.704Z"/>
        <path fill="#141414" d="M147.432 405.472c0 1.056-.336 1.914-1.008 2.574-.672.648-1.548 1.038-2.628 1.17v1.584h-1.206v-1.566c-1.008-.072-1.872-.354-2.592-.846a4.076 4.076 0 0 1-1.548-1.998l2.142-1.242c.384.96 1.05 1.506 1.998 1.638v-3.114h-.018l-.036-.018c-.42-.156-.762-.294-1.026-.414a7.985 7.985 0 0 1-.936-.522 3.84 3.84 0 0 1-.828-.702 4.15 4.15 0 0 1-.522-.954 3.561 3.561 0 0 1-.216-1.26c0-1.056.342-1.902 1.026-2.538.696-.636 1.548-1.002 2.556-1.098V394.6h1.206v1.602c1.632.192 2.784 1.038 3.456 2.538l-2.088 1.224c-.288-.72-.744-1.158-1.368-1.314v3.006c1.116.444 1.866.798 2.25 1.062.924.66 1.386 1.578 1.386 2.754Zm-5.958-5.652c0 .264.084.498.252.702.168.192.456.39.864.594v-2.52c-.36.072-.636.216-.828.432a1.15 1.15 0 0 0-.288.792Zm2.322 6.93c.768-.168 1.152-.588 1.152-1.26 0-.3-.096-.552-.288-.756-.18-.204-.468-.396-.864-.576v2.592Zm9.373-5.76c1.212 0 2.232.366 3.06 1.098.828.72 1.242 1.728 1.242 3.024s-.438 2.31-1.314 3.042c-.864.732-1.926 1.098-3.186 1.098-1.02 0-1.92-.228-2.7-.684-.78-.456-1.344-1.128-1.692-2.016l2.124-1.242c.312 1.008 1.068 1.512 2.268 1.512.636 0 1.128-.15 1.476-.45.36-.312.54-.732.54-1.26 0-.516-.174-.93-.522-1.242-.348-.312-.822-.468-1.422-.468h-3.816l.504-7.002h7.146v2.322h-4.842l-.162 2.268h1.296Z"/>
      </g>
    </g>
    <g filter="url(#d)">
      <rect width="162" height="55" x="12" y="320" fill="#fff" fill-opacity=".5" rx="12" shape-rendering="crispEdges"/>
      <path fill="#141414" d="M73.94 355.28c-2.107 0-3.847-.7-5.22-2.1-1.373-1.4-2.06-3.127-2.06-5.18 0-2.067.687-3.793 2.06-5.18 1.373-1.4 3.113-2.1 5.22-2.1 1.267 0 2.433.3 3.5.9 1.08.587 1.92 1.387 2.52 2.4l-2.38 1.38a3.63 3.63 0 0 0-1.48-1.46c-.64-.36-1.36-.54-2.16-.54-1.36 0-2.46.427-3.3 1.28-.827.853-1.24 1.96-1.24 3.32 0 1.347.413 2.447 1.24 3.3.84.853 1.94 1.28 3.3 1.28.8 0 1.52-.173 2.16-.52.653-.36 1.147-.847 1.48-1.46l2.38 1.38c-.6 1.013-1.433 1.82-2.5 2.42-1.067.587-2.24.88-3.52.88Zm16.174-1.52c-1.027 1.013-2.28 1.52-3.76 1.52s-2.733-.507-3.76-1.52c-1.013-1.027-1.52-2.28-1.52-3.76s.507-2.727 1.52-3.74c1.027-1.027 2.28-1.54 3.76-1.54s2.733.513 3.76 1.54c1.027 1.013 1.54 2.26 1.54 3.74 0 1.48-.513 2.733-1.54 3.76Zm-5.7-1.78c.52.52 1.167.78 1.94.78.773 0 1.42-.26 1.94-.78s.78-1.18.78-1.98-.26-1.46-.78-1.98-1.167-.78-1.94-.78c-.773 0-1.42.26-1.94.78-.507.52-.76 1.18-.76 1.98s.253 1.46.76 1.98ZM100.07 345h2.58v10h-2.58v-1.12c-.627.933-1.62 1.4-2.98 1.4-1.093 0-2-.367-2.72-1.1-.707-.733-1.06-1.747-1.06-3.04V345h2.58v5.82c0 .667.18 1.18.54 1.54.36.347.84.52 1.44.52.667 0 1.2-.207 1.6-.62.4-.413.6-1.033.6-1.86V345Zm7.523 1.72c.24-.64.633-1.12 1.18-1.44.56-.32 1.18-.48 1.86-.48v2.88c-.787-.093-1.493.067-2.12.48-.613.413-.92 1.1-.92 2.06V355h-2.58v-10h2.58v1.72Zm6.616 1.12c0 .267.174.487.52.66.36.16.794.307 1.3.44.507.12 1.014.28 1.52.48.507.187.934.507 1.28.96.36.453.54 1.02.54 1.7 0 1.027-.386 1.82-1.16 2.38-.76.547-1.713.82-2.86.82-2.053 0-3.453-.793-4.2-2.38l2.24-1.26c.294.867.947 1.3 1.96 1.3.92 0 1.38-.287 1.38-.86 0-.267-.18-.48-.54-.64a6.675 6.675 0 0 0-1.28-.46c-.506-.133-1.013-.3-1.52-.5-.506-.2-.94-.513-1.3-.94-.346-.44-.52-.987-.52-1.64 0-.987.36-1.76 1.08-2.32.734-.573 1.64-.86 2.72-.86.814 0 1.554.187 2.22.56.667.36 1.194.88 1.58 1.56l-2.2 1.2c-.32-.68-.853-1.02-1.6-1.02-.333 0-.613.073-.84.22a.693.693 0 0 0-.32.6Zm8.863 3.22c.347 1.253 1.287 1.88 2.82 1.88.987 0 1.733-.333 2.24-1l2.08 1.2c-.987 1.427-2.44 2.14-4.36 2.14-1.653 0-2.98-.5-3.98-1.5s-1.5-2.26-1.5-3.78c0-1.507.493-2.76 1.48-3.76.987-1.013 2.253-1.52 3.8-1.52 1.467 0 2.673.507 3.62 1.52.96 1.013 1.44 2.267 1.44 3.76 0 .333-.033.687-.1 1.06h-7.54Zm-.04-2h5.1c-.147-.68-.453-1.187-.92-1.52a2.565 2.565 0 0 0-1.56-.5c-.693 0-1.267.18-1.72.54-.453.347-.753.84-.9 1.48Zm11.47-1.22c0 .267.174.487.52.66.36.16.794.307 1.3.44.507.12 1.014.28 1.52.48.507.187.934.507 1.28.96.36.453.54 1.02.54 1.7 0 1.027-.386 1.82-1.16 2.38-.76.547-1.713.82-2.86.82-2.053 0-3.453-.793-4.2-2.38l2.24-1.26c.294.867.947 1.3 1.96 1.3.92 0 1.38-.287 1.38-.86 0-.267-.18-.48-.54-.64a6.675 6.675 0 0 0-1.28-.46c-.506-.133-1.013-.3-1.52-.5-.506-.2-.94-.513-1.3-.94-.346-.44-.52-.987-.52-1.64 0-.987.36-1.76 1.08-2.32.734-.573 1.64-.86 2.72-.86.814 0 1.554.187 2.22.56.667.36 1.194.88 1.58 1.56l-2.2 1.2c-.32-.68-.853-1.02-1.6-1.02-.333 0-.613.073-.84.22a.693.693 0 0 0-.32.6Z"/>
      <path fill="#231F20" d="M54.513 347.438c0-7.134-6.062-12.938-13.513-12.938-7.45 0-13.513 5.804-13.513 12.938 0 .188.005.375.014.562a12.363 12.363 0 0 0-.01.886v.001c.18 6.984 6.171 12.613 13.51 12.613 7.45 0 13.512-5.804 13.512-12.938 0-.188-.005-.375-.013-.562.008-.187.013-.374.013-.562Z"/>
      <path fill="#77BBF4" d="M41 359.812c6.49 0 11.75-5.036 11.75-11.25 0-6.213-5.26-11.25-11.75-11.25s-11.75 5.037-11.75 11.25c0 6.214 5.26 11.25 11.75 11.25Z"/>
      <path fill="#B964E3" d="M41 337.312c6.293 0 11.43 4.736 11.736 10.688.01-.186.015-.374.015-.562 0-6.214-5.261-11.25-11.75-11.25-6.49 0-11.751 5.036-11.751 11.25 0 .188.005.376.015.562.306-5.952 5.443-10.688 11.735-10.688Z"/>
      <path fill="#B964E3" d="m48.856 345.722-2.785-2.785-9.546 9.546 2.785 2.784 9.546-9.545Z"/>
      <path fill="#B964E3" d="m39.31 355.267 2.784-2.785-6.165-6.165-2.785 2.785 6.166 6.165Z"/>
      <path fill="#fff" d="m48.855 345.159-2.784-2.784-9.546 9.546 2.784 2.784 9.546-9.546Z"/>
      <path fill="#fff" d="m39.31 354.706 2.784-2.784-6.165-6.165-2.785 2.784 6.166 6.165Z"/>
    </g>
    <g filter="url(#e)">
      <rect width="217" height="55" x="327" y="271.357" fill="#fff" fill-opacity=".5" rx="12" shape-rendering="crispEdges" transform="rotate(-3 327 271.357)"/>
      <path fill="#141414" d="M388.876 289.143c1.917-.101 3.55.488 4.899 1.766 1.362 1.277 2.094 2.901 2.198 4.872.103 1.97-.456 3.662-1.677 5.074-1.208 1.412-2.77 2.168-4.688 2.269l-5.552.291-.733-13.981 5.553-.291Zm.594 11.344c1.212-.063 2.176-.514 2.893-1.353.717-.852 1.041-1.924.973-3.215-.067-1.292-.502-2.317-1.302-3.076-.802-.773-1.809-1.127-3.02-1.064l-2.796.147.456 8.708 2.796-.147Zm9.396-9.064a1.563 1.563 0 0 1-1.142-.401 1.565 1.565 0 0 1-.518-1.094 1.57 1.57 0 0 1 .401-1.143c.303-.336.667-.515 1.093-.537.439-.023.821.117 1.144.42.336.303.515.668.538 1.094.022.426-.118.807-.421 1.143-.29.322-.655.495-1.095.518Zm-.692 11.252-.523-9.986 2.576-.135.524 9.986-2.577.135Zm12.061-10.646 2.517-.132.498 9.507c.081 1.545-.37 2.75-1.353 3.616-.969.865-2.173 1.335-3.611 1.411-1.078.056-2.041-.1-2.888-.47a4.344 4.344 0 0 1-1.973-1.719l2.131-1.373c.555.905 1.451 1.326 2.69 1.261.812-.043 1.44-.289 1.884-.74.443-.45.645-1.068.603-1.854l-.056-1.079c-.706 1.052-1.745 1.614-3.116 1.686-1.412.074-2.622-.357-3.633-1.292-.997-.949-1.534-2.136-1.608-3.561-.074-1.411.342-2.641 1.248-3.69.907-1.049 2.059-1.61 3.457-1.683 1.371-.072 2.463.378 3.275 1.35l-.065-1.238Zm-4.456 7.063c.559.478 1.244.696 2.057.653.812-.042 1.464-.33 1.957-.863.506-.548.737-1.221.695-2.02-.041-.785-.341-1.417-.9-1.895-.546-.492-1.226-.717-2.038-.674-.812.042-1.471.337-1.976.884-.493.533-.719 1.193-.678 1.978.042.799.336 1.445.883 1.937Zm10.524-8.583a1.566 1.566 0 0 1-1.66-1.495 1.565 1.565 0 0 1 .401-1.142c.303-.337.667-.516 1.093-.538.439-.023.821.117 1.144.42.336.303.515.668.538 1.094.022.426-.118.807-.421 1.143-.29.323-.655.495-1.095.518Zm-.692 11.252-.523-9.986 2.576-.135.524 9.986-2.577.135Zm10.254-8.068-2.257.119.217 4.154c.019.346.118.595.3.745.181.151.439.231.773.24.334-.004.746-.032 1.238-.085l.122 2.337c-1.76.293-3.021.192-3.781-.303-.747-.494-1.156-1.428-1.228-2.799l-.218-4.154-1.737.091-.13-2.477 1.737-.091-.105-2.017 2.535-.914.147 2.796 2.257-.118.13 2.476Zm8.964-2.953 2.576-.135.524 9.986-2.577.135-.061-1.178c-.722 1.013-1.782 1.555-3.18 1.629-1.331.069-2.503-.377-3.514-1.338-1-.976-1.538-2.203-1.615-3.681-.078-1.478.33-2.747 1.222-3.809.905-1.075 2.023-1.648 3.355-1.718 1.398-.073 2.508.356 3.332 1.288l-.062-1.179Zm-4.385 7.28c.546.492 1.219.717 2.018.675.799-.042 1.444-.336 1.936-.883.505-.56.736-1.253.693-2.079-.044-.825-.345-1.484-.905-1.975-.547-.505-1.22-.737-2.019-.695-.799.041-1.444.342-1.936.902-.492.547-.716 1.233-.673 2.058.043.826.339 1.491.886 1.997Zm9.821 2.449-.764-14.58 2.576-.135.765 14.58-2.577.135Zm15.202-11.091c1.345-.07 2.517.382 3.516 1.358 1.011.962 1.556 2.182 1.633 3.66.078 1.477-.336 2.754-1.241 3.83-.892 1.061-2.011 1.627-3.355 1.698-1.399.073-2.503-.357-3.312-1.289l.271 5.173-2.577.135-.733-13.981 2.577-.135.062 1.179c.708-1.012 1.761-1.555 3.159-1.628Zm-2.074 7.439c.547.492 1.22.717 2.018.675.799-.042 1.445-.336 1.937-.882.505-.561.735-1.254.692-2.079-.043-.826-.345-1.484-.905-1.976-.547-.505-1.22-.737-2.019-.695-.799.042-1.444.343-1.935.902-.492.547-.717 1.233-.673 2.058.043.826.338 1.491.885 1.997Zm11.445-5.927c.207-.652.574-1.152 1.103-1.5a3.69 3.69 0 0 1 1.833-.577l.15 2.876c-.79-.052-1.487.145-2.092.591-.59.444-.861 1.146-.81 2.105l.25 4.773-2.577.135-.523-9.986 2.576-.135.09 1.718Zm13.049 6.366c-.972 1.065-2.197 1.637-3.675 1.714-1.478.078-2.756-.363-3.835-1.321-1.065-.972-1.637-2.197-1.714-3.675-.078-1.478.363-2.75 1.322-3.815.971-1.079 2.196-1.657 3.674-1.734 1.478-.078 2.757.369 3.836 1.341 1.078.958 1.656 2.176 1.733 3.654.078 1.478-.369 2.757-1.341 3.836Zm-5.785-1.48c.546.492 1.206.718 1.978.678.772-.041 1.404-.334 1.897-.881.492-.546.717-1.219.675-2.018-.042-.799-.336-1.444-.883-1.936-.546-.492-1.206-.718-1.978-.678-.772.041-1.404.334-1.896.881-.479.546-.698 1.218-.656 2.017.042.799.33 1.445.863 1.937Zm16.037-11.835 2.577-.135.733 13.981-2.577.135-.062-1.179c-.708 1.012-1.761 1.554-3.159 1.628-1.345.07-2.523-.375-3.535-1.337-.999-.976-1.537-2.203-1.614-3.681-.078-1.478.33-2.747 1.222-3.809.905-1.075 2.03-1.648 3.375-1.719 1.398-.073 2.502.356 3.311 1.289l-.271-5.173Zm-4.175 11.274c.56.491 1.239.716 2.038.674.799-.042 1.444-.336 1.936-.883.492-.559.716-1.252.672-2.078-.043-.825-.338-1.484-.884-1.976-.547-.505-1.22-.737-2.019-.695-.799.042-1.451.343-1.956.903-.492.547-.716 1.233-.673 2.058.043.826.339 1.491.886 1.997Zm15.908-7.884 2.577-.135.523 9.987-2.576.135-.059-1.119c-.577.965-1.544 1.483-2.902 1.554-1.092.057-2.017-.261-2.774-.956-.744-.695-1.15-1.689-1.218-2.98l-.321-6.132 2.576-.135.305 5.812c.035.666.241 1.169.62 1.51.377.327.866.475 1.465.444.666-.035 1.187-.27 1.565-.703.378-.434.545-1.064.502-1.889l-.283-5.393Zm10.228 9.758c-1.504.079-2.789-.361-3.854-1.32-1.052-.959-1.617-2.185-1.695-3.676-.078-1.491.356-2.769 1.301-3.833.959-1.065 2.191-1.637 3.695-1.716a5.183 5.183 0 0 1 2.693.56 4.65 4.65 0 0 1 1.916 1.782l-2.149 1.414a2.243 2.243 0 0 0-.97-.93 2.594 2.594 0 0 0-1.377-.289c-.772.041-1.397.334-1.876.88-.48.532-.698 1.198-.656 1.997.041.786.328 1.425.861 1.918.533.479 1.185.698 1.957.658.519-.027.973-.164 1.36-.412.401-.261.69-.603.868-1.027l2.304 1.161a5.076 5.076 0 0 1-1.758 1.995 5.184 5.184 0 0 1-2.62.838Zm11.181-8.396-2.257.118.217 4.154c.018.347.118.595.3.746.181.15.439.23.773.24.334-.005.746-.033 1.238-.085l.122 2.336c-1.76.293-3.021.192-3.781-.302-.747-.495-1.156-1.428-1.228-2.8l-.218-4.154-1.737.091-.13-2.476 1.737-.092-.105-2.017 2.535-.914.147 2.796 2.257-.118.13 2.477Z"/>
      <path fill="#231F20" d="M370.891 296.532c-.373-7.124-6.731-12.603-14.172-12.213-7.441.39-13.19 6.503-12.817 13.627.01.189.025.375.043.561.001.187.006.375.016.563.005.108.013.215.021.323.546 6.966 6.823 12.273 14.15 11.889 7.441-.39 13.191-6.503 12.818-13.627-.01-.188-.025-.375-.043-.561a13.272 13.272 0 0 0-.016-.562Z"/>
      <path fill="#77BBF4" d="M358.044 309.597c6.481-.34 11.471-5.645 11.146-11.849-.325-6.205-5.843-10.96-12.323-10.62-6.481.34-11.471 5.645-11.146 11.85.325 6.204 5.843 10.959 12.323 10.619Z"/>
      <path fill="#B964E3" d="M356.867 287.128c6.284-.329 11.662 4.131 12.279 10.059 0-.187-.005-.374-.015-.563-.325-6.204-5.842-10.959-12.323-10.619-6.481.339-11.471 5.644-11.146 11.849.01.188.025.375.044.561-.005-5.96 4.877-10.958 11.161-11.287Z"/>
      <path fill="#B964E3" d="m365.151 295.114-2.926-2.634-9.033 10.032 2.926 2.635 9.033-10.033Z"/>
      <path fill="#B964E3" d="m356.118 305.146 2.634-2.926-6.479-5.834-2.635 2.926 6.48 5.834Z"/>
      <path fill="#fff" d="m365.122 294.553-2.926-2.635-9.034 10.033 2.926 2.634 9.034-10.032Z"/>
      <path fill="#fff" d="m356.088 304.586 2.635-2.926-6.479-5.834-2.635 2.926 6.479 5.834Z"/>
    </g>
    <g filter="url(#f)">
      <g clip-path="url(#g)">
        <rect width="232" height="55" x="120.878" y="428" fill="#fff" fill-opacity=".5" rx="12" shape-rendering="crispEdges" transform="rotate(3 120.878 428)"/>
        <path fill="#141414" d="m177.165 463.354 5.892.309-.138 2.636-8.648-.453.733-13.981 8.548.448-.138 2.637-5.792-.304-.156 2.976 5.292.278-.136 2.596-5.292-.277-.165 3.135Zm16.784 3.524-2.975-.156-1.998-3.149-2.337 2.921-2.975-.156 3.921-4.901-3.238-5.076 2.976.156 1.869 2.921 2.165-2.71 2.956.155-3.751 4.69 3.387 5.305Zm5.323.559c-1.504-.079-2.736-.651-3.695-1.716-.946-1.064-1.379-2.342-1.301-3.833.078-1.492.643-2.717 1.694-3.677 1.065-.958 2.35-1.399 3.855-1.32a5.185 5.185 0 0 1 2.62.839 4.654 4.654 0 0 1 1.719 1.972l-2.285 1.182a2.255 2.255 0 0 0-.868-1.027 2.591 2.591 0 0 0-1.339-.43c-.772-.041-1.425.185-1.958.678-.533.48-.82 1.119-.862 1.918-.041.785.178 1.451.657 1.997.479.532 1.105.819 1.877.859.519.028.985-.062 1.396-.267.425-.218.749-.528.97-.93l2.17 1.395a5.08 5.08 0 0 1-1.957 1.8 5.183 5.183 0 0 1-2.693.56Zm5.891.028.764-14.58 2.577.135-.764 14.58-2.577-.135Zm12.049-9.382 2.577.135-.524 9.986-2.576-.135.058-1.118c-.674.899-1.691 1.313-3.049 1.242-1.092-.057-1.978-.471-2.658-1.241-.668-.769-.968-1.8-.9-3.091l.321-6.132 2.577.135-.305 5.812c-.035.666.118 1.188.459 1.566.341.365.812.564 1.411.595.666.035 1.209-.144 1.63-.535.421-.392.653-1.001.697-1.826l.282-5.393Zm7.086 3.215c-.013.267.148.495.485.687.351.178.776.347 1.275.507.5.146.998.333 1.493.559.496.213.906.555 1.228 1.026.336.471.486 1.046.451 1.725-.054 1.026-.482 1.798-1.283 2.317-.788.506-1.754.729-2.899.669-2.051-.108-3.408-.973-4.07-2.597l2.303-1.141c.247.881.877 1.348 1.889 1.401.919.048 1.393-.214 1.423-.787.014-.266-.155-.488-.506-.667a6.667 6.667 0 0 0-1.254-.526c-.499-.16-.996-.353-1.492-.579a3.249 3.249 0 0 1-1.249-1.007c-.323-.458-.467-1.013-.433-1.665.052-.985.452-1.739 1.2-2.26.762-.534 1.683-.773 2.761-.717a4.469 4.469 0 0 1 2.188.676 3.951 3.951 0 0 1 1.496 1.64l-2.26 1.083c-.284-.695-.799-1.063-1.544-1.102-.333-.017-.617.041-.851.176a.693.693 0 0 0-.351.582Zm8.3-3.61a1.569 1.569 0 0 1-1.495-1.661c.022-.426.195-.791.518-1.094a1.534 1.534 0 0 1 1.143-.421c.44.023.804.202 1.094.538.303.336.443.717.421 1.144-.023.426-.202.79-.538 1.093-.323.29-.704.424-1.143.401Zm-1.864 11.117.523-9.986 2.576.135-.523 9.986-2.576-.135Zm12.029-9.383 2.836.149-4.318 9.787-2.936-.154-3.272-10.185 2.836.149 2.051 7.117 2.803-6.863Zm5.548 6.359c.28 1.27 1.186 1.945 2.718 2.025.985.052 1.748-.242 2.289-.881l2.014 1.307c-1.06 1.373-2.548 2.009-4.466 1.909-1.651-.087-2.95-.655-3.896-1.706-.946-1.051-1.38-2.336-1.3-3.854.079-1.504.637-2.73 1.675-3.677 1.038-.96 2.33-1.4 3.874-1.319 1.465.077 2.643.646 3.536 1.707.905 1.062 1.319 2.339 1.241 3.83a6.117 6.117 0 0 1-.155 1.054l-7.53-.395Zm.065-1.999 5.093.267c-.111-.687-.391-1.209-.84-1.566a2.555 2.555 0 0 0-1.531-.581c-.693-.037-1.275.113-1.746.449-.471.322-.796.799-.976 1.431ZM267.265 471c-1.505-.079-2.737-.651-3.696-1.716-.945-1.064-1.379-2.342-1.301-3.833.078-1.491.643-2.717 1.695-3.676 1.065-.959 2.35-1.399 3.854-1.32.972.051 1.846.33 2.62.838a4.643 4.643 0 0 1 1.719 1.973l-2.285 1.182a2.243 2.243 0 0 0-.867-1.027 2.595 2.595 0 0 0-1.339-.431c-.773-.04-1.425.186-1.959.679-.532.479-.819 1.118-.861 1.917-.041.786.177 1.451.656 1.997.48.533 1.105.819 1.878.86.519.027.984-.062 1.396-.268.425-.218.748-.528.97-.93l2.17 1.395a5.08 5.08 0 0 1-1.957 1.8c-.824.425-1.721.611-2.693.56Zm14.308-.772c-1.078.958-2.356 1.399-3.834 1.321-1.478-.077-2.703-.649-3.676-1.715-.958-1.078-1.398-2.356-1.321-3.834.078-1.478.649-2.696 1.714-3.655 1.079-.972 2.357-1.419 3.835-1.341 1.478.077 2.703.655 3.675 1.734.972 1.066 1.419 2.338 1.342 3.816-.078 1.478-.656 2.702-1.735 3.674Zm-5.599-2.076c.492.547 1.124.84 1.897.881.772.04 1.431-.186 1.978-.678.546-.492.84-1.137.882-1.936.042-.799-.183-1.472-.675-2.018-.492-.547-1.124-.84-1.897-.881-.772-.04-1.431.185-1.978.678-.533.492-.82 1.138-.862 1.937-.042.799.176 1.471.655 2.017Zm14.975-6.485c1.092.057 1.971.47 2.639 1.24.68.77.987 1.801.919 3.092l-.321 6.132-2.577-.135.305-5.812c.035-.666-.118-1.182-.46-1.547-.34-.378-.81-.583-1.41-.614-.665-.035-1.209.143-1.63.535-.421.392-.653 1.001-.696 1.826l-.283 5.393-2.576-.135.523-9.986 2.576.135-.058 1.118c.674-.899 1.691-1.313 3.049-1.242Zm11.542 3.369-2.256-.119-.218 4.155c-.018.346.055.603.22.772.164.169.413.276.744.32.332.03.745.045 1.239.045l-.122 2.336c-1.781.107-3.024-.125-3.729-.696-.691-.57-1.001-1.541-.929-2.912l.218-4.155-1.738-.091.13-2.476 1.738.091.106-2.017 2.617-.644-.147 2.796 2.257.118-.13 2.477Zm3.495 3.768c.28 1.269 1.186 1.944 2.717 2.025.986.051 1.749-.242 2.29-.882l2.014 1.308c-1.06 1.373-2.549 2.009-4.466 1.908-1.651-.086-2.95-.655-3.896-1.706-.946-1.051-1.38-2.335-1.3-3.853.079-1.505.637-2.731 1.675-3.678 1.038-.96 2.329-1.4 3.874-1.319 1.465.077 2.643.646 3.535 1.708.906 1.062 1.32 2.339 1.242 3.83-.018.333-.07.684-.156 1.053l-7.529-.394Zm.064-2 5.093.267c-.111-.686-.39-1.209-.839-1.566a2.57 2.57 0 0 0-1.532-.581c-.692-.036-1.274.114-1.745.449-.471.323-.797.8-.977 1.431Zm15.248-3.547c1.092.058 1.971.471 2.639 1.24.68.77.987 1.801.919 3.093l-.321 6.131-2.577-.135.305-5.812c.035-.666-.118-1.181-.46-1.546-.34-.378-.81-.583-1.41-.615-.665-.035-1.209.144-1.63.536-.421.392-.653 1-.696 1.826l-.283 5.392-2.576-.135.523-9.986 2.576.135-.058 1.119c.674-.9 1.691-1.314 3.049-1.243Zm11.542 3.369-2.256-.118-.218 4.154c-.018.346.055.604.22.773.164.169.412.275.744.319.332.031.745.046 1.239.045l-.122 2.337c-1.782.107-3.024-.125-3.729-.696-.691-.571-1.001-1.541-.929-2.913l.218-4.154-1.738-.091.13-2.477 1.738.091.106-2.017 2.617-.644-.147 2.796 2.257.119-.13 2.476Z"/>
        <path fill="#231F20" d="M161.898 457.625c.373-7.124-5.377-13.237-12.818-13.627-7.441-.39-13.798 5.088-14.171 12.212-.01.189-.015.376-.016.563a12.982 12.982 0 0 0-.056.884v.001c-.185 6.984 5.502 12.919 12.83 13.303 7.441.39 13.798-5.089 14.172-12.213.01-.188.014-.375.016-.562.018-.186.033-.373.043-.561Z"/>
        <path fill="#77BBF4" d="M147.755 469.276c6.481.339 11.998-4.415 12.324-10.62.325-6.205-4.665-11.51-11.146-11.849-6.481-.34-11.998 4.414-12.323 10.619-.325 6.205 4.665 11.51 11.145 11.85Z"/>
        <path fill="#B964E3" d="M148.933 446.807c6.284.329 11.166 5.327 11.161 11.287.019-.186.034-.373.044-.561.325-6.205-4.665-11.51-11.146-11.85-6.481-.34-11.998 4.415-12.323 10.62-.01.188-.015.376-.015.562.617-5.927 5.995-10.388 12.279-10.058Z"/>
        <path fill="#B964E3" d="m156.338 455.615-2.635-2.926-10.033 9.033 2.635 2.926 10.033-9.033Z"/>
        <path fill="#B964E3" d="m146.305 464.648 2.926-2.635-5.834-6.479-2.926 2.635 5.834 6.479Z"/>
        <path fill="#fff" d="m156.367 455.054-2.635-2.926-10.033 9.033 2.635 2.926 10.033-9.033Z"/>
        <path fill="#fff" d="m146.334 464.088 2.926-2.635-5.834-6.479-2.926 2.635 5.834 6.479Z"/>
      </g>
    </g>
  </g>
  <defs>
    <filter id="c" width="368" height="76" x="115" y="367" color-interpolation-filters="sRGB" filterUnits="userSpaceOnUse">
      <feFlood flood-opacity="0" result="BackgroundImageFix"/>
      <feColorMatrix in="SourceAlpha" result="hardAlpha" values="0 0 0 0 0 0 0 0 0 0 0 0 0 0 0 0 0 0 127 0"/>
      <feOffset dy="-4"/>
      <feGaussianBlur stdDeviation="2"/>
      <feComposite in2="hardAlpha" operator="out"/>
      <feColorMatrix values="0 0 0 0 0 0 0 0 0 0 0 0 0 0 0 0 0 0 0.05 0"/>
      <feBlend in2="BackgroundImageFix" result="effect1_dropShadow_4384_33218"/>
      <feBlend in="SourceGraphic" in2="effect1_dropShadow_4384_33218" result="shape"/>
    </filter>
    <filter id="d" width="170" height="63" x="8" y="320" color-interpolation-filters="sRGB" filterUnits="userSpaceOnUse">
      <feFlood flood-opacity="0" result="BackgroundImageFix"/>
      <feColorMatrix in="SourceAlpha" result="hardAlpha" values="0 0 0 0 0 0 0 0 0 0 0 0 0 0 0 0 0 0 127 0"/>
      <feOffset dy="4"/>
      <feGaussianBlur stdDeviation="2"/>
      <feComposite in2="hardAlpha" operator="out"/>
      <feColorMatrix values="0 0 0 0 0 0 0 0 0 0 0 0 0 0 0 0 0 0 0.05 0"/>
      <feBlend in2="BackgroundImageFix" result="effect1_dropShadow_4384_33218"/>
      <feBlend in="SourceGraphic" in2="effect1_dropShadow_4384_33218" result="shape"/>
    </filter>
    <filter id="e" width="227.581" height="74.282" x="323" y="260" color-interpolation-filters="sRGB" filterUnits="userSpaceOnUse">
      <feFlood flood-opacity="0" result="BackgroundImageFix"/>
      <feColorMatrix in="SourceAlpha" result="hardAlpha" values="0 0 0 0 0 0 0 0 0 0 0 0 0 0 0 0 0 0 127 0"/>
      <feOffset dy="4"/>
      <feGaussianBlur stdDeviation="2"/>
      <feComposite in2="hardAlpha" operator="out"/>
      <feColorMatrix values="0 0 0 0 0 0 0 0 0 0 0 0 0 0 0 0 0 0 0.05 0"/>
      <feBlend in2="BackgroundImageFix" result="effect1_dropShadow_4384_33218"/>
      <feBlend in="SourceGraphic" in2="effect1_dropShadow_4384_33218" result="shape"/>
    </filter>
    <filter id="f" width="242.561" height="75.067" x="114" y="428" color-interpolation-filters="sRGB" filterUnits="userSpaceOnUse">
      <feFlood flood-opacity="0" result="BackgroundImageFix"/>
      <feColorMatrix in="SourceAlpha" result="hardAlpha" values="0 0 0 0 0 0 0 0 0 0 0 0 0 0 0 0 0 0 127 0"/>
      <feOffset dy="4"/>
      <feGaussianBlur stdDeviation="2"/>
      <feComposite in2="hardAlpha" operator="out"/>
      <feColorMatrix values="0 0 0 0 0 0 0 0 0 0 0 0 0 0 0 0 0 0 0.05 0"/>
      <feBlend in2="BackgroundImageFix" result="effect1_dropShadow_4384_33218"/>
      <feBlend in="SourceGraphic" in2="effect1_dropShadow_4384_33218" result="shape"/>
    </filter>
    <clipPath id="a">
      <rect width="557" height="546" fill="#fff" rx="80"/>
    </clipPath>
    <clipPath id="b">
      <rect width="328" height="357" x="120" y="86" fill="#fff" rx="24"/>
    </clipPath>
    <clipPath id="g">
      <rect width="232" height="55" x="120.878" y="428" fill="#fff" rx="12" transform="rotate(3 120.878 428)"/>
    </clipPath>
  </defs>
</svg>