<?xml version="1.0" encoding="utf-8"?>
<svg xmlns="http://www.w3.org/2000/svg" fill="none" height="517" width="530">
  <g clip-path="url(#a)">
    <g clip-path="url(#b)">
      <path d="M70 137a91 91 0 0 1 91-91h200a91 91 0 0 1 91 91v194a91 91 0 0 1-91 91H161a91 91 0 0 1-91-91V137Z" fill="#E29CD4"/>
      <path d="M24 151.2V19h132.2C156.2 92 97 151.2 24 151.2Zm0 146.1V165h132.2c0 73-59.2 132.3-132.2 132.3ZM24 446V313.8h132.2C156.2 386.8 97 446 24 446Zm302.5-294.8V19h132.2c0 73-59.2 132.2-132.2 132.2Zm0 146.1V165h132.2c0 73-59.2 132.3-132.2 132.3Zm0 148.7V313.8h132.2c0 73-59.2 132.2-132.2 132.2Z" fill="#DB5DC6"/>
    </g>
    <g filter="url(#c)">
      <rect fill="#fff" height="105" rx="24" width="479" x="22" y="387"/>
      <path d="M61 418v14h-2.7v-9l-4 6.4H54l-4-6.5v9.1h-2.7v-14h2.8l4 6.6 4-6.6H61Zm4.7 10c.3 1.3 1.3 2 2.8 2 1 0 1.7-.4 2.2-1l2.1 1.1a5 5 0 0 1-4.4 2.2c-1.6 0-3-.5-4-1.5S63 428.5 63 427a5.1 5.1 0 0 1 5.2-5.3c1.5 0 2.7.5 3.7 1.5s1.4 2.3 1.4 3.8v1h-7.6Zm0-2h5c-.1-.6-.4-1.1-.9-1.5a2.8 2.8 0 0 0-3.3.1c-.4.3-.7.8-.9 1.5Zm17-4h2.5v9.5c0 1.6-.5 2.7-1.5 3.6-1 .8-2.3 1.2-3.7 1.2-1 0-2-.2-2.9-.6-.8-.5-1.4-1-1.8-1.9l2.2-1.2c.5 1 1.3 1.4 2.6 1.4.8 0 1.4-.2 1.9-.7.5-.4.7-1 .7-1.8v-1c-.8 1-1.8 1.5-3.2 1.5-1.4 0-2.6-.5-3.6-1.5s-1.4-2.2-1.4-3.7a5 5 0 0 1 5-5c1.4 0 2.4.4 3.2 1.4V422Zm-4.8 6.8c.5.5 1.2.8 2 .8s1.5-.3 2-.8.8-1.2.8-2a2.7 2.7 0 0 0-2.8-2.7c-.8 0-1.5.3-2 .8s-.8 1.2-.8 2c0 .7.3 1.4.8 2Zm17.3-6.8h2.5v10h-2.5v-1.2a4 4 0 0 1-3.3 1.5c-1.3 0-2.5-.5-3.4-1.5-1-1-1.5-2.3-1.5-3.8s.5-2.7 1.5-3.7 2-1.6 3.4-1.6a4 4 0 0 1 3.3 1.5V422Zm-4.8 7c.5.6 1.2.8 2 .8s1.4-.2 2-.8c.5-.5.8-1.2.8-2s-.3-1.5-.8-2c-.6-.6-1.2-.8-2-.8s-1.5.2-2 .8c-.5.5-.8 1.2-.8 2s.3 1.5.8 2Zm15.2-7.3c1.1 0 2 .4 2.7 1.1a4 4 0 0 1 1.1 3v6.2h-2.6v-5.8c0-.7-.1-1.2-.5-1.5a2 2 0 0 0-1.4-.6c-.7 0-1.2.2-1.6.6-.4.5-.6 1-.6 1.9v5.4H100v-10h2.6v1.1c.6-1 1.6-1.4 3-1.4Zm16 0c1.1 0 2 .4 2.8 1.2.7.7 1 1.7 1 3v6.1h-1.3v-6.1c0-1-.2-1.6-.7-2.1-.5-.5-1.1-.8-2-.8-1 0-1.7.3-2.3 1-.6.6-1 1.5-1 2.8v5.2h-1.3v-14h1.4v5.6a3.7 3.7 0 0 1 3.3-1.8Zm11 0c1.5 0 2.7.6 3.6 1.6a5.4 5.4 0 0 1 1.3 4.4h-8.8a4 4 0 0 0 1.3 2.4c.8.6 1.7.9 2.7.9a4 4 0 0 0 2-.5c.5-.3 1-.7 1.2-1.2l1.2.6c-.4.7-1 1.3-1.8 1.7-.8.4-1.6.6-2.6.6-1.6 0-2.8-.5-3.8-1.4a5 5 0 0 1-1.5-3.8c0-1.5.5-2.7 1.4-3.7a5 5 0 0 1 3.8-1.5Zm0 1.3c-1 0-2 .4-2.6 1a4 4 0 0 0-1.3 2.4h7.5a3.5 3.5 0 0 0-3.6-3.3Zm7 9v-14.6h1.4V432h-1.3Zm9.5-10.2a5 5 0 0 1 3.7 1.5 5 5 0 0 1 1.5 3.7 5 5 0 0 1-1.5 3.7 5 5 0 0 1-3.7 1.5c-1.7 0-3-.7-4-2.2v6h-1.3v-14h1.3v2c1-1.5 2.3-2.2 4-2.2Zm-2.9 8c.8.8 1.7 1.2 2.8 1.2 1.2 0 2-.4 2.8-1.2.8-.8 1.2-1.7 1.2-2.8 0-1.1-.4-2-1.2-2.8a3.8 3.8 0 0 0-2.8-1.2c-1 0-2 .4-2.8 1.2a4 4 0 0 0-1 2.8c0 1.1.3 2 1 2.8Zm11.1-5.2c0 .5.2.8.6 1.1.4.3 1 .5 1.5.6l1.7.5c.6.2 1 .5 1.5 1 .4.3.6.9.6 1.6 0 .8-.4 1.5-1 2a4 4 0 0 1-2.6.8c-1 0-1.8-.2-2.5-.6-.7-.4-1.1-1-1.4-1.7l1.1-.6c.2.5.5 1 1 1.2a3.5 3.5 0 0 0 3.4.1c.4-.3.7-.7.7-1.2s-.2-.9-.6-1.1a4 4 0 0 0-1.5-.6 43 43 0 0 1-1.7-.5c-.6-.2-1-.5-1.5-1-.4-.3-.6-.9-.6-1.6 0-.8.3-1.5 1-2 .6-.6 1.5-.8 2.4-.8a4 4 0 0 1 2.2.5c.6.4 1 .9 1.3 1.5l-1 .6c-.4-.9-1.2-1.4-2.5-1.4-.5 0-1 .2-1.4.5-.4.2-.7.6-.7 1.1Zm18.4-2.8a5 5 0 0 1 3.7 1.5 5 5 0 0 1 1.5 3.7 5 5 0 0 1-1.5 3.7 5 5 0 0 1-3.7 1.5c-1.7 0-3-.7-4-2.2v6h-1.3v-14h1.3v2c1-1.5 2.3-2.2 4-2.2Zm-2.9 8c.8.8 1.7 1.2 2.8 1.2 1.2 0 2-.4 2.8-1.2.8-.8 1.2-1.7 1.2-2.8 0-1.1-.4-2-1.2-2.8a3.8 3.8 0 0 0-2.8-1.2c-1 0-2 .4-2.8 1.2a4 4 0 0 0-1 2.8c0 1.1.3 2 1 2.8Zm15-8c1.4 0 2.6.5 3.5 1.5a5.4 5.4 0 0 1 1.3 4.4H184c.1 1 .5 1.8 1.2 2.4.8.6 1.7.9 2.7.9a4 4 0 0 0 2-.5 3 3 0 0 0 1.3-1.2l1.1.6c-.4.7-1 1.3-1.8 1.7-.7.4-1.6.6-2.6.6-1.6 0-2.8-.5-3.8-1.4a5 5 0 0 1-1.5-3.8 5 5 0 0 1 1.5-3.7 5 5 0 0 1 3.7-1.5Zm0 1.2a4 4 0 0 0-2.7 1c-.7.6-1.1 1.4-1.2 2.4h7.4a3.5 3.5 0 0 0-3.6-3.3Zm15.4 7.7c-1 1-2.3 1.5-3.8 1.5a5.2 5.2 0 0 1-5.2-5.2 5 5 0 0 1 1.5-3.7c1-1 2.3-1.5 3.7-1.5a5 5 0 0 1 3.8 1.5 5 5 0 0 1 1.5 3.7 5 5 0 0 1-1.5 3.7Zm-6.6-.9c.8.8 1.7 1.2 2.8 1.2 1.1 0 2-.4 2.8-1.2.8-.8 1.2-1.7 1.2-2.8 0-1.1-.4-2-1.2-2.8a3.8 3.8 0 0 0-2.8-1.2c-1 0-2 .4-2.8 1.2a4.1 4.1 0 0 0 0 5.6Zm15.7-8a5 5 0 0 1 3.6 1.5 5 5 0 0 1 1.5 3.7 5 5 0 0 1-1.5 3.7 5 5 0 0 1-3.6 1.5c-1.8 0-3.1-.7-4-2.2v6h-1.4v-14h1.3v2c1-1.5 2.3-2.2 4-2.2Zm-3 8a4 4 0 0 0 5.7 0 4.1 4.1 0 0 0 0-5.6 3.8 3.8 0 0 0-2.8-1.2c-1.1 0-2 .4-2.8 1.2-.8.8-1.2 1.7-1.2 2.8 0 1.1.4 2 1.2 2.8Zm10.3 2.2v-14.6h1.3V432h-1.3Zm8.8-10.2c1.4 0 2.6.5 3.5 1.5a5.4 5.4 0 0 1 1.4 4.4h-8.8c.1 1 .6 1.8 1.3 2.4a4 4 0 0 0 2.7.9 4 4 0 0 0 2-.5c.5-.3 1-.7 1.2-1.2l1.2.6c-.5.7-1 1.3-1.8 1.7-.8.4-1.7.6-2.6.6-1.6 0-2.9-.5-3.9-1.4a5 5 0 0 1-1.5-3.8 5 5 0 0 1 1.5-3.7 5 5 0 0 1 3.8-1.5Zm0 1.2c-1 0-2 .4-2.7 1-.6.6-1 1.4-1.2 2.4h7.5c-.2-1-.6-1.9-1.3-2.5-.6-.6-1.4-.9-2.3-.9Zm20.6-1h1.3v9.6c0 1.4-.4 2.6-1.4 3.4-1 .8-2.2 1.2-3.6 1.2-2.3 0-3.9-.8-4.7-2.4l1.1-.7c.6 1.3 1.8 1.9 3.6 1.9 1.2 0 2-.3 2.7-1a3 3 0 0 0 1-2.4V430a4.5 4.5 0 0 1-4 2.2 5 5 0 0 1-3.7-1.5 5 5 0 0 1-1.5-3.7 5 5 0 0 1 1.5-3.7 5 5 0 0 1 3.7-1.5c1.8 0 3.1.7 4 2.2v-2Zm-6.7 7.8c.7.8 1.7 1.2 2.8 1.2 1 0 2-.4 2.8-1.2a4.1 4.1 0 0 0 0-5.6 3.8 3.8 0 0 0-2.8-1.2c-1.1 0-2 .4-2.8 1.2-.8.8-1.2 1.7-1.2 2.8 0 1.1.4 2 1.2 2.8Zm12.2-6.1c.6-1.3 1.6-1.9 3.1-1.9v1.3c-.9 0-1.6.3-2.2.8-.6.6-1 1.4-1 2.5v5.6h-1.3v-10h1.4v1.7Zm12.7 7a5 5 0 0 1-3.7 1.5 5.2 5.2 0 0 1-5.3-5.2 5 5 0 0 1 1.5-3.7c1-1 2.3-1.5 3.8-1.5a5 5 0 0 1 3.7 1.5 5 5 0 0 1 1.5 3.7 5 5 0 0 1-1.5 3.7Zm-6.5-.9c.7.8 1.7 1.2 2.8 1.2 1 0 2-.4 2.8-1.2a4.1 4.1 0 0 0 0-5.6 3.8 3.8 0 0 0-2.8-1.2c-1.1 0-2 .4-2.8 1.2-.8.8-1.2 1.7-1.2 2.8 0 1.1.4 2 1.2 2.8Zm21.9-7.8h1.4l-3.1 10h-1.5l-2.5-8-2.6 8h-1.5l-3-10h1.3l2.5 8.3 2.6-8.3h1.3l2.6 8.3 2.5-8.3Zm9.7-2.4a1 1 0 0 1-.7.3 1 1 0 0 1-.7-.3 1 1 0 0 1-.2-.7c0-.2 0-.5.2-.7l.7-.2c.3 0 .5 0 .7.2.2.2.3.5.3.7 0 .3-.1.5-.3.7ZM291 432v-10h1.3v10H291Zm8.8-10.2c1.2 0 2.1.3 2.8 1 .7.8 1 1.8 1 3v6.2h-1.2v-6.1c0-1-.3-1.6-.8-2.1-.4-.5-1.1-.8-2-.8-1 0-1.7.3-2.3 1-.6.6-.9 1.5-.9 2.8v5.2h-1.3v-10h1.3v1.6a3.7 3.7 0 0 1 3.4-1.8ZM52.7 451.3h-2.9v6c0 .6.1 1 .3 1.2.3.2.6.4 1 .4h1.6v1.1c-1.4.2-2.5.1-3.2-.3-.7-.4-1-1.2-1-2.4v-6h-2.1V450h2.1v-2.4l1.3-.4v2.8h2.9v1.3Zm6.9-1.5c1.2 0 2.1.3 2.8 1 .7.8 1.1 1.8 1.1 3v6.2h-1.3v-6.1c0-1-.3-1.6-.7-2.1-.5-.5-1.2-.8-2-.8a3 3 0 0 0-2.4 1c-.6.6-.9 1.5-.9 2.8v5.2H55v-14h1.3v5.6a3.7 3.7 0 0 1 3.4-1.8Zm11 0c1.6 0 2.7.5 3.7 1.5a5.4 5.4 0 0 1 1.3 4.4h-8.8c.1 1 .6 1.8 1.3 2.4a4 4 0 0 0 2.7.9 4 4 0 0 0 2-.5c.5-.3 1-.7 1.2-1.2l1.2.6c-.5.7-1 1.3-1.8 1.7-.8.4-1.7.6-2.6.6-1.6 0-2.9-.5-3.9-1.4a5 5 0 0 1-1.4-3.8c0-1.5.4-2.7 1.4-3.7a5 5 0 0 1 3.8-1.5Zm0 1.2c-1 0-1.8.4-2.5 1s-1.2 1.4-1.3 2.4h7.5c-.2-1-.6-1.9-1.2-2.5-.7-.6-1.5-.9-2.4-.9Zm8.5-3.4a1 1 0 0 1-.7.3 1 1 0 0 1-.7-.3 1 1 0 0 1-.3-.7c0-.2.1-.5.3-.7l.7-.2c.3 0 .5 0 .7.2.2.2.3.5.3.7 0 .3-.1.5-.3.7ZM77.7 460v-10h1.4v10h-1.4Zm5.5-8.3c.6-1.3 1.6-1.9 3.1-1.9v1.3c-.9 0-1.6.3-2.2.8-.6.6-1 1.4-1 2.5v5.6H82v-10h1.3v1.7Zm14.6 8.5a5.1 5.1 0 0 1-5.3-5.2 5 5 0 0 1 1.5-3.7 5 5 0 0 1 3.8-1.5c1 0 1.9.2 2.7.7a4 4 0 0 1 1.7 1.9l-1.1.6a3 3 0 0 0-1.3-1.4 3.8 3.8 0 0 0-4.8.6c-.8.8-1.1 1.7-1.1 2.8a3.9 3.9 0 0 0 3.9 4c.7 0 1.4-.2 2-.6.6-.3 1-.8 1.4-1.4l1 .6c-.3.8-1 1.5-1.7 2a6 6 0 0 1-2.7.6Zm14.9-10.2h1.3v10h-1.3v-2a4.5 4.5 0 0 1-4 2.2 5 5 0 0 1-3.7-1.5 5 5 0 0 1-1.5-3.7 5 5 0 0 1 1.5-3.7 5 5 0 0 1 3.6-1.5c1.8 0 3.2.7 4 2.2v-2Zm-6.8 7.8c.8.8 1.7 1.2 2.8 1.2 1.1 0 2-.4 2.8-1.2.8-.8 1.2-1.7 1.2-2.8 0-1.1-.4-2-1.2-2.8a3.8 3.8 0 0 0-2.8-1.2c-1 0-2 .4-2.8 1.2a4.1 4.1 0 0 0 0 5.6Zm12.2-6.1c.6-1.3 1.7-1.9 3.2-1.9v1.3c-1 0-1.7.3-2.3.8-.6.6-.9 1.4-.9 2.5v5.6h-1.3v-10h1.3v1.7Zm9-2c1.5 0 2.7.6 3.6 1.6a5.4 5.4 0 0 1 1.3 4.4h-8.8a4 4 0 0 0 1.3 2.4c.8.6 1.7.9 2.7.9a4 4 0 0 0 2-.5c.5-.3 1-.7 1.2-1.2l1.2.6c-.4.7-1 1.3-1.8 1.7-.8.4-1.6.6-2.6.6-1.6 0-2.9-.5-3.8-1.4a5 5 0 0 1-1.5-3.8c0-1.5.5-2.7 1.4-3.7a5 5 0 0 1 3.8-1.5Zm0 1.3c-1 0-2 .4-2.6 1a4 4 0 0 0-1.3 2.4h7.5a3.5 3.5 0 0 0-3.6-3.3Zm11.7-1.2c1.5 0 2.7.5 3.6 1.5a5.4 5.4 0 0 1 1.3 4.4h-8.8a4 4 0 0 0 1.3 2.4 4 4 0 0 0 2.7.9 4 4 0 0 0 2-.5c.5-.3 1-.7 1.2-1.2l1.2.6a4.9 4.9 0 0 1-4.4 2.3c-1.6 0-2.9-.5-3.9-1.4a5 5 0 0 1-1.4-3.8c0-1.5.4-2.7 1.4-3.7a5 5 0 0 1 3.8-1.5Zm0 1.2c-1 0-2 .4-2.6 1a4 4 0 0 0-1.3 2.4h7.5c-.2-1-.6-1.9-1.2-2.5-.7-.6-1.5-.9-2.4-.9Zm8.4.7c.6-1.3 1.6-1.9 3.1-1.9v1.3c-.9 0-1.6.3-2.2.8-.6.6-1 1.4-1 2.5v5.6h-1.3v-10h1.4v1.7Z" fill="#141414"/>
      <rect fill="#DFE7F0" height="38" rx="12" width="120" x="365" y="420"/>
      <path d="M396 430.8h-16a2 2 0 0 0-2.1 2.2v12.8a2 2 0 0 0 2 2h3v4.4l6.5-4.3h6.7c1.1 0 2-1 2-2.1V433a2 2 0 0 0-.6-1.5 2 2 0 0 0-1.4-.7Zm15.4 3v2.1h-3v9.1h-2.2v-9h-3v-2.2h8.2ZM418 444a4 4 0 0 1-3 1.2c-1.1 0-2.1-.4-3-1.2a4.1 4.1 0 0 1-1.2-3 4 4 0 0 1 1.2-3 4 4 0 0 1 3-1.2 4 4 0 0 1 3 1.2 4 4 0 0 1 1.3 3 4 4 0 0 1-1.3 3Zm-4.5-1.4c.4.4 1 .6 1.5.6.7 0 1.2-.2 1.6-.6.4-.4.6-1 .6-1.6a2.1 2.1 0 0 0-2.2-2.2 2.1 2.1 0 0 0-2.1 2.2c0 .6.2 1.2.6 1.6Zm11.9-5.8c1 0 2 .4 2.7 1.2.8.8 1.2 1.8 1.2 3s-.4 2.2-1.2 3c-.7.8-1.6 1.2-2.7 1.2s-2-.4-2.6-1.1v4.1h-2V437h2v1a3 3 0 0 1 2.6-1.2Zm-2 5.8c.4.4 1 .7 1.6.7.6 0 1.2-.3 1.6-.7.4-.4.6-1 .6-1.6a2.1 2.1 0 0 0-2.2-2.3c-.6 0-1.2.3-1.6.7-.4.4-.6 1-.6 1.6 0 .7.2 1.2.6 1.6Zm14.2 2.4-3.7-11.2h2.4l2.7 8.6 2.7-8.6h2.4l-3.8 11.2h-2.7Zm13.4-1c-.9.8-1.9 1.2-3 1.2a4.1 4.1 0 0 1-4.2-4.2 4 4 0 0 1 1.2-3 4 4 0 0 1 3-1.2 4 4 0 0 1 3 1.2 4 4 0 0 1 1.2 3 4 4 0 0 1-1.2 3Zm-4.6-1.4c.4.4 1 .6 1.6.6a2 2 0 0 0 1.5-.6c.4-.4.6-1 .6-1.6a2.1 2.1 0 0 0-2.1-2.2 2.1 2.1 0 0 0-2.2 2.2c0 .6.2 1.2.6 1.6Zm8.3-6.6a1.3 1.3 0 0 1-1.3-1.2c0-.4.1-.7.4-1 .2-.2.5-.3.9-.3.3 0 .6.1.9.4a1.2 1.2 0 0 1 0 1.8c-.3.2-.6.3-1 .3Zm-1 9v-8h2v8h-2Zm7.7.2a4.1 4.1 0 0 1-4.2-4.2 4.1 4.1 0 0 1 4.2-4.2c.8 0 1.5.2 2.1.5.7.4 1.2 1 1.5 1.5l-1.8 1c-.1-.3-.4-.5-.7-.7a2 2 0 0 0-1.1-.3 2.1 2.1 0 0 0-2.1 2.2c0 .6.2 1.2.6 1.6.4.4.9.6 1.5.6a2 2 0 0 0 1.1-.3c.3-.2.6-.4.7-.8l1.8 1a4 4 0 0 1-3.6 2.1Zm6.3-3.4c.3 1 1 1.6 2.3 1.6.8 0 1.4-.3 1.8-.8l1.7 1a4 4 0 0 1-3.5 1.6 4.1 4.1 0 0 1-4.4-4.2 4.1 4.1 0 0 1 4.2-4.2c1.2 0 2.1.4 2.9 1.2a4 4 0 0 1 1.2 3l-.1.8h-6Zm0-1.6h4a2 2 0 0 0-.6-1.2 2 2 0 0 0-1.3-.4c-.6 0-1 .2-1.4.5a2 2 0 0 0-.7 1.1Z" fill="#2D64BC"/>
      <g clip-path="url(#d)" fill="#DFE7F0">
        <path d="M382 437.8h2.7v8.2H382v-8.3Zm10 0h-.7c-1.5 0-2.5 1-2.9 1.5v-1.6h-2.6v8.3h2.6v-4.5s2-2.8 3-.8v5.3h2.6v-5.6a2.7 2.7 0 0 0-2-2.6Zm-8.7-1.2a1.3 1.3 0 1 0 0-2.6 1.3 1.3 0 0 0 0 2.6Z"/>
      </g>
    </g>
    <path d="M376 83.8a53.8 53.8 0 1 1 107.5 0v2.4a53.8 53.8 0 0 1-107.5 0v-2.4Z" fill="#E29CD4"/>
    <path d="M467.6 87.8c-6.5-7-17.2-9.9-26.3-7.2-2.7.8-5 2-6.8 3.6-.4-4.6-1-9.3-1.8-14 1.5.6 3.2.9 5 .9 1.2 0 2.6-.2 4-.5a23.6 23.6 0 0 0 15.5-12.8c1.8-.3 3.7.7 4.8 2 1 1.1 1.7 2.4 2.3 3.8a1.2 1.2 0 0 0 1.2.7c.5 0 1-.3 1.1-.8a9.9 9.9 0 0 0-3.3-10.8l-.3-.1a26.6 26.6 0 0 0-27-2.6c-4.1 2-7 5-8.3 8.3-.3.8-.5 1.8-.5 2.8h-.3l-1.8.9a4 4 0 0 0-2.3 4.2l.6 5.5a16 16 0 0 0-11-2.7 26.6 26.6 0 0 0-22.1 16.4 10 10 0 0 0 2.7 10.9 1.3 1.3 0 0 0 1.4.2c.5-.3.7-.8.6-1.3-.2-1.5-.2-3 0-4.4.3-1.7 1.4-3.6 3.1-4.2a44 44 0 0 1 2.6 1.5 22.9 22.9 0 0 0 17.4 1.5c2.3-.7 4.2-1.8 5.7-3.2a141 141 0 0 1-3.1 26l-7 1c-1.7.2-3 1.6-3 3.3l-.3 2.1a3.4 3.4 0 0 0 3.4 3.8H442c1.3 0 2.5-.6 3.5-1.5a5 5 0 0 0 1.4-3.5v-1.7a3.5 3.5 0 0 0-4-3.5l-7.2 1-1 .3-.7-.5c.5-4.3.8-8.7 1-13a14.2 14.2 0 0 0 8.4 1.7A23.6 23.6 0 0 0 461 92c1.9 0 3.6 1.4 4.4 2.8a13 13 0 0 1 1.6 4.1 1.2 1.2 0 0 0 1.2 1c.5 0 1-.3 1.2-.7a9.9 9.9 0 0 0-1.5-11.1l-.2-.2Zm-38.7-29.1c1.1-3 3.8-5.8 7.6-7.6 7.8-3.8 17.6-3 24.8 1.7a7.6 7.6 0 0 0-3.5 2.1c-1 1-1.7 2.3-2.3 3.5l-.8 1.4c-2.7 4.5-8 8.3-13.3 9.6a12.6 12.6 0 0 1-10.4-1.6 30 30 0 0 1 12.6-11.1.6.6 0 1 0-.6-1.1 32.7 32.7 0 0 0-13 11.3 8.7 8.7 0 0 1-1.1-8.2Zm-11.2 29.7a22.3 22.3 0 0 1-16.4-1.4l-1.3-.7c-1.2-.7-2.5-1.5-3.9-1.8-.6-.2-1.4-.3-2.1-.3a6 6 0 0 0-1.9.2 25.4 25.4 0 0 1 20.3-14.2c4.2-.3 8 .6 10.5 2.6a8.7 8.7 0 0 1 3.2 7.7 32.7 32.7 0 0 0-17-3c-.3 0-.5.2-.5.6 0 .3.3.6.7.5 5.6-.5 11.4.6 16.5 3l-.3.7a12 12 0 0 1-7.8 6.1Zm14.8 29.8a67.4 67.4 0 0 1-2 1.7.6.6 0 0 1-.4-1l1.5-1.5a1.2 1.2 0 0 0-.1-1.8L428 113a.6.6 0 0 1 .7-1l3.5 2.5a2.4 2.4 0 0 1 .3 3.6Zm-20.3 2.4a2 2 0 0 1-.5-1.6l.2-2.2c0-1.1.8-2 2-2.2l7-1a2.3 2.3 0 0 1 1.9.6c.5.4.8 1 .8 1.7v5.5h-9.8a2 2 0 0 1-1.6-.8Zm30.8-7a2.3 2.3 0 0 1 2.6 2.3v1.7a3.7 3.7 0 0 1-3.6 3.7h-8.4l2-2.4a3.5 3.5 0 0 0 .2-4.2h.1l7.1-1Zm-10.2-1.1-4.2-2.6a3.5 3.5 0 0 0-4.5.6l-2 2h-.2c2-9 3-18.2 3.2-27.4a11.8 11.8 0 0 0 1.8-2.9 30 30 0 0 1 3.5 2.1.6.6 0 0 0 .4-1.1l-3.6-2.2c.6-2.9-.6-6-2.5-8.2L424 66c-.1-1.2.5-2.4 1.7-2.9l1.5-.7c0 2 .8 4 2.2 5.6l-2 3.6a.6.6 0 1 0 1.2.5c.5-1 1-2.2 1.7-3.3l.6.4.4.3c1 5.3 1.6 10.6 2 15.8a9.9 9.9 0 0 0-1.5 11.9c-1 1-1.8 2.2-2.5 3.3a.6.6 0 1 0 1 .7l2.2-3 .5.5.7.6c0 4.4-.4 8.8-.9 13.2Zm26.3-20.2-1 1.1c-3.5 4-9.3 7-14.8 7.3a12.6 12.6 0 0 1-10-3.4c4-4.1 9-7.2 14.4-8.8a.6.6 0 0 0-.4-1.2 32.7 32.7 0 0 0-14.7 9 8.7 8.7 0 0 1 .3-8.3c1.6-2.8 4.7-5 8.8-6.2 8.3-2.4 17.8 0 24 6-1.2 0-2.6.7-3.7 1.4-1.2.9-2 2-3 3Z" fill="#010101"/>
    <path d="M455.5 100.3a.6.6 0 0 0-.8-.1 19 19 0 0 1-13.7 4.1c-.3 0-.6.2-.7.6 0 .3.3.6.6.6l2 .1c4.5 0 9-1.5 12.6-4.4.2-.2.3-.6 0-.9Zm2.4-.7.7-.4a.6.6 0 0 0-.7-1.1l-.7.4a.6.6 0 0 0 .7 1ZM409 94.5c2 0 4-.3 6-1a.6.6 0 1 0-.4-1.2c-4.2 1.5-9 1.2-13-.7a.6.6 0 0 0-.5 1.1c2.5 1.2 5.2 1.8 8 1.8Zm8.5-2h.2l.7-.3a.6.6 0 1 0-.4-1.1l-.7.3a.6.6 0 0 0 .2 1.2Z" fill="#010101"/>
  </g>
  <defs>
    <clipPath id="a">
      <path d="M0 0h530v517H0z" fill="#fff"/>
    </clipPath>
    <clipPath id="b">
      <path d="M70 137a91 91 0 0 1 91-91h200a91 91 0 0 1 91 91v194a91 91 0 0 1-91 91H161a91 91 0 0 1-91-91V137Z" fill="#fff"/>
    </clipPath>
    <clipPath id="d">
      <path d="M382 434h12v12h-12z" fill="#fff"/>
    </clipPath>
    <filter color-interpolation-filters="sRGB" filterUnits="userSpaceOnUse" height="153" id="c" width="527" x="2" y="367">
      <feFlood flood-opacity="0" result="BackgroundImageFix"/>
      <feColorMatrix in="SourceAlpha" result="hardAlpha" values="0 0 0 0 0 0 0 0 0 0 0 0 0 0 0 0 0 0 127 0"/>
      <feOffset dx="4" dy="4"/>
      <feGaussianBlur stdDeviation="12"/>
      <feComposite in2="hardAlpha" operator="out"/>
      <feColorMatrix values="0 0 0 0 0 0 0 0 0 0 0 0 0 0 0 0 0 0 0.12 0"/>
      <feBlend in2="BackgroundImageFix" result="effect1_dropShadow_692_23252"/>
      <feBlend in="SourceGraphic" in2="effect1_dropShadow_692_23252" result="shape"/>
    </filter>
  </defs>
</svg>