<?xml version="1.0" encoding="utf-8"?>
<svg xmlns="http://www.w3.org/2000/svg" fill="none" height="512" width="530">
  <g clip-path="url(#a)">
    <g clip-path="url(#b)">
      <path d="M70 132a91 91 0 0 1 91-91h200a91 91 0 0 1 91 91v194a91 91 0 0 1-91 91H161a91 91 0 0 1-91-91V132Z" fill="#91BBFA"/>
      <path d="M24 146.2V14h132.2C156.2 87 97 146.2 24 146.2Zm0 146.1V160h132.2c0 73-59.2 132.3-132.2 132.3ZM24 441V308.8h132.2C156.2 381.8 97 441 24 441Zm302.5-294.8V14h132.2c0 73-59.2 132.2-132.2 132.2Zm0 146.1V160h132.2c0 73-59.2 132.3-132.2 132.3Zm0 148.7V308.8h132.2c0 73-59.2 132.2-132.2 132.2Z" fill="#2A7EFF"/>
    </g>
    <g filter="url(#c)">
      <rect fill="#fff" height="105" rx="24" width="479" x="22" y="382"/>
      <path d="M52.9 413c1.9 0 3.5.7 4.8 2a7 7 0 0 1 1.9 5 7 7 0 0 1-2 5 6.3 6.3 0 0 1-4.7 2h-5.6v-14h5.6Zm0 11.4a4 4 0 0 0 3-1.2c.7-.9 1-2 1-3.2 0-1.3-.3-2.3-1-3.1a3.9 3.9 0 0 0-3-1.3H50v8.8h2.8ZM69 417h2.6v10H69v-1.2a4 4 0 0 1-3.2 1.5c-1.4 0-2.5-.5-3.5-1.5S61 423.5 61 422s.5-2.7 1.4-3.7c1-1 2.1-1.6 3.5-1.6a4 4 0 0 1 3.2 1.5V417Zm-4.7 7c.5.6 1.2.8 2 .8s1.4-.2 2-.8c.5-.5.7-1.2.7-2s-.2-1.5-.8-2c-.5-.6-1.1-.8-2-.8-.7 0-1.4.2-2 .8-.4.5-.7 1.2-.7 2s.3 1.5.8 2Zm15.2-7.3c1.1 0 2 .4 2.7 1.1.7.8 1.1 1.8 1.1 3v6.2h-2.6v-5.8c0-.7-.2-1.2-.5-1.5a2 2 0 0 0-1.5-.6c-.6 0-1.2.2-1.6.6-.4.5-.6 1-.6 1.9v5.4H74v-10h2.5v1.1c.7-1 1.7-1.4 3-1.4Zm11.6 0c1 0 2 .4 2.7 1.1.7.8 1 1.8 1 3v6.2h-2.5v-5.8c0-.7-.2-1.2-.6-1.5a2 2 0 0 0-1.4-.6c-.7 0-1.2.2-1.6.6-.4.5-.6 1-.6 1.9v5.4h-2.6v-10h2.6v1.1c.6-1 1.6-1.4 3-1.4Zm12.2.3h2.8l-3.6 10a6.5 6.5 0 0 1-2.1 3.1c-.9.7-2 1-3.2.9v-2.4c.7 0 1.2-.1 1.6-.4a3 3 0 0 0 1-1.5l-4-9.7h2.7l2.6 6.7 2.2-6.7Zm14-.2c1.2 0 2.1.3 2.8 1 .7.8 1 1.8 1 3v6.2h-1.3v-6.1c0-1-.2-1.6-.7-2.1-.4-.5-1.1-.8-2-.8-1 0-1.7.3-2.3 1-.6.6-1 1.5-1 2.8v5.2h-1.2v-14h1.3v5.6a3.7 3.7 0 0 1 3.3-1.8Zm11 0c1.5 0 2.7.5 3.6 1.5a5.4 5.4 0 0 1 1.3 4.4h-8.7c.1 1 .5 1.8 1.2 2.4.8.6 1.7.9 2.7.9a4 4 0 0 0 2-.5 3 3 0 0 0 1.3-1.2l1.1.6c-.4.7-1 1.3-1.8 1.7-.7.4-1.6.6-2.6.6-1.5 0-2.8-.5-3.8-1.4a5 5 0 0 1-1.5-3.8 5 5 0 0 1 1.5-3.7 5 5 0 0 1 3.7-1.5Zm0 1.2a4 4 0 0 0-2.6 1c-.7.6-1.1 1.4-1.2 2.4h7.4a3.5 3.5 0 0 0-3.6-3.3Zm7 9v-14.6h1.4V427h-1.3Zm9.6-10.2a5 5 0 0 1 3.6 1.5 5 5 0 0 1 1.5 3.7 5 5 0 0 1-1.5 3.7 5 5 0 0 1-3.6 1.5c-1.8 0-3.2-.7-4-2.2v6h-1.4v-14h1.3v2c1-1.5 2.3-2.2 4-2.2Zm-3 8a4 4 0 0 0 5.7 0 4.1 4.1 0 0 0 0-5.6 3.8 3.8 0 0 0-2.8-1.2c-1.1 0-2 .4-2.8 1.2-.8.8-1.2 1.7-1.2 2.8 0 1.1.4 2 1.2 2.8Zm11.2-5.2c0 .5.2.8.6 1.1.4.3.9.5 1.4.6l1.7.5a3 3 0 0 1 1.5 1c.4.3.6.9.6 1.6 0 .8-.3 1.5-1 2a4 4 0 0 1-2.6.8c-1 0-1.8-.2-2.5-.6a4 4 0 0 1-1.4-1.7l1.1-.6c.2.5.6 1 1 1.2a3.5 3.5 0 0 0 3.4.1c.5-.3.7-.7.7-1.2s-.2-.9-.6-1.1c-.4-.3-.9-.5-1.5-.6l-1.7-.5c-.6-.2-1-.5-1.5-1-.4-.3-.6-.9-.6-1.6 0-.8.4-1.5 1-2 .7-.6 1.5-.8 2.5-.8a4 4 0 0 1 2.1.5c.6.4 1 .9 1.4 1.5l-1.1.6c-.4-.9-1.2-1.4-2.4-1.4-.6 0-1.1.2-1.5.5-.4.2-.6.6-.6 1.1Zm18.4-2.8a5 5 0 0 1 3.6 1.5 5 5 0 0 1 1.5 3.7 5 5 0 0 1-1.5 3.7 5 5 0 0 1-3.6 1.5c-1.8 0-3.1-.7-4-2.2v6H166v-14h1.3v2c1-1.5 2.3-2.2 4-2.2Zm-3 8a4 4 0 0 0 5.7 0 4.1 4.1 0 0 0 0-5.6 3.8 3.8 0 0 0-2.8-1.2c-1.1 0-2 .4-2.8 1.2-.8.8-1.2 1.7-1.2 2.8 0 1.1.4 2 1.2 2.8Zm15-8c1.4 0 2.6.5 3.5 1.5a5.4 5.4 0 0 1 1.4 4.4h-8.8c.1 1 .5 1.8 1.3 2.4a4 4 0 0 0 2.7.9 4 4 0 0 0 2-.5c.5-.3 1-.7 1.2-1.2l1.1.6c-.4.7-1 1.3-1.8 1.7-.7.4-1.6.6-2.6.6-1.5 0-2.8-.5-3.8-1.4a5 5 0 0 1-1.5-3.8 5 5 0 0 1 1.5-3.7 5 5 0 0 1 3.7-1.5Zm0 1.2c-1 0-2 .4-2.7 1-.7.6-1 1.4-1.2 2.4h7.4c0-1-.5-1.9-1.2-2.5-.7-.6-1.4-.9-2.4-.9Zm15.4 7.7a5 5 0 0 1-3.7 1.5 5.2 5.2 0 0 1-5.3-5.2 5 5 0 0 1 1.5-3.7c1-1 2.3-1.5 3.8-1.5a5 5 0 0 1 3.7 1.5 5 5 0 0 1 1.5 3.7 5 5 0 0 1-1.5 3.7Zm-6.5-.9c.7.8 1.7 1.2 2.8 1.2 1 0 2-.4 2.8-1.2a4.1 4.1 0 0 0 0-5.6 3.8 3.8 0 0 0-2.8-1.2c-1.1 0-2 .4-2.8 1.2-.8.8-1.2 1.7-1.2 2.8 0 1.1.4 2 1.2 2.8Zm15.6-8a5 5 0 0 1 3.6 1.5 5 5 0 0 1 1.6 3.7 5 5 0 0 1-1.6 3.7 5 5 0 0 1-3.6 1.5c-1.8 0-3.1-.7-4-2.2v6h-1.4v-14h1.4v2a4.3 4.3 0 0 1 4-2.2Zm-3 8c.9.8 1.8 1.2 2.9 1.2 1.1 0 2-.4 2.8-1.2.8-.8 1.1-1.7 1.1-2.8 0-1.1-.3-2-1.1-2.8a3.8 3.8 0 0 0-2.8-1.2c-1.1 0-2 .4-2.8 1.2-.8.8-1.1 1.7-1.1 2.8 0 1.1.3 2 1 2.8Zm10.3 2.2v-14.6h1.4V427h-1.4Zm8.8-10.2c1.5 0 2.7.5 3.6 1.5a5.4 5.4 0 0 1 1.3 4.4h-8.8a4 4 0 0 0 1.3 2.4 4 4 0 0 0 2.7.9 4 4 0 0 0 2-.5c.5-.3 1-.7 1.2-1.2l1.2.6c-.4.7-1 1.3-1.8 1.7-.8.4-1.6.6-2.6.6-1.6 0-2.9-.5-3.8-1.4-1-1-1.5-2.3-1.5-3.8s.5-2.7 1.4-3.7a5 5 0 0 1 3.8-1.5Zm0 1.2c-1 0-2 .4-2.6 1a4 4 0 0 0-1.3 2.4h7.5a3.5 3.5 0 0 0-3.6-3.3Zm20.7-1h1.3v9.6c0 1.4-.5 2.6-1.5 3.4-1 .8-2.2 1.2-3.5 1.2-2.4 0-4-.8-4.8-2.4l1.2-.7c.6 1.3 1.8 1.9 3.6 1.9 1.1 0 2-.3 2.7-1 .6-.6 1-1.4 1-2.4V425a4.5 4.5 0 0 1-4 2.2 5 5 0 0 1-3.8-1.5 5 5 0 0 1-1.4-3.7 5 5 0 0 1 1.5-3.7 5 5 0 0 1 3.6-1.5c1.8 0 3.1.7 4 2.2v-2Zm-6.8 7.8c.8.8 1.7 1.2 2.8 1.2 1.1 0 2-.4 2.8-1.2.8-.8 1.2-1.7 1.2-2.8 0-1.1-.4-2-1.2-2.8a3.8 3.8 0 0 0-2.8-1.2c-1.1 0-2 .4-2.8 1.2-.8.8-1.1 1.7-1.1 2.8 0 1.1.3 2 1.1 2.8Zm15.5-8c1.5 0 2.7.5 3.6 1.5a5.4 5.4 0 0 1 1.3 4.4h-8.8a4 4 0 0 0 1.3 2.4 4 4 0 0 0 2.7.9 4 4 0 0 0 2-.5c.5-.3 1-.7 1.2-1.2l1.2.6a4.9 4.9 0 0 1-4.4 2.3c-1.6 0-2.9-.5-3.9-1.4a5 5 0 0 1-1.4-3.8c0-1.5.5-2.7 1.4-3.7a5 5 0 0 1 3.8-1.5Zm0 1.2c-1 0-2 .4-2.6 1a4 4 0 0 0-1.3 2.4h7.5c-.1-1-.6-1.9-1.2-2.5-.7-.6-1.5-.9-2.4-.9Zm12 .3h-2.8v6c0 .6 0 1 .3 1.2.2.2.5.4 1 .4h1.6v1.1c-1.4.2-2.5.1-3.2-.3-.7-.4-1-1.2-1-2.4v-6h-2.1V417h2v-2.4l1.4-.4v2.8h2.9v1.3Zm15.9-1.3h1.3v10h-1.3v-2a4.5 4.5 0 0 1-4 2.2 5 5 0 0 1-3.7-1.5 5 5 0 0 1-1.5-3.7 5 5 0 0 1 1.5-3.7 5 5 0 0 1 3.6-1.5c1.8 0 3.1.7 4 2.2v-2Zm-6.8 7.8c.8.8 1.7 1.2 2.8 1.2 1.1 0 2-.4 2.8-1.2.8-.8 1.2-1.7 1.2-2.8 0-1.1-.4-2-1.2-2.8a3.8 3.8 0 0 0-2.8-1.2c-1 0-2 .4-2.8 1.2a4.1 4.1 0 0 0 0 5.6ZM48 441.2l.6-.2c.3 0 .5 0 .7.2.2.2.3.5.3.7 0 .3 0 .5-.3.7a1 1 0 0 1-.7.3 1 1 0 0 1-.6-.3 1 1 0 0 1-.3-.7c0-.2 0-.5.3-.7Zm0 14.6V445h1.3v10.8c0 1.2-.3 2.1-1 2.7-.6.6-1.5.8-2.6.7V458c.8 0 1.4 0 1.7-.4.4-.4.6-1 .6-1.8Zm12.5-2a5 5 0 0 1-3.7 1.4 5.2 5.2 0 0 1-5.3-5.2 5 5 0 0 1 1.5-3.7c1-1 2.3-1.5 3.8-1.5a5 5 0 0 1 3.7 1.5A5 5 0 0 1 62 450a5 5 0 0 1-1.5 3.7Zm-6.5-1c.7.8 1.7 1.2 2.8 1.2 1 0 2-.4 2.8-1.2a4.1 4.1 0 0 0 0-5.6 3.8 3.8 0 0 0-2.8-1.2c-1.1 0-2 .4-2.8 1.2-.8.8-1.2 1.7-1.2 2.8 0 1.1.4 2 1.2 2.8Zm15.6-8a5 5 0 0 1 3.6 1.5 5 5 0 0 1 1.6 3.7 5 5 0 0 1-1.6 3.7 5 5 0 0 1-3.6 1.5c-1.8 0-3.1-.7-4-2.2v2H64v-14h1.4v6a4.3 4.3 0 0 1 4-2.2Zm-2.9 8c.8.8 1.7 1.2 2.8 1.2 1.1 0 2-.4 2.8-1.2.8-.8 1.1-1.7 1.1-2.8 0-1.1-.3-2-1.1-2.8a3.8 3.8 0 0 0-2.8-1.2c-1.1 0-2 .4-2.8 1.2-.8.8-1.1 1.7-1.1 2.8 0 1.1.3 2 1.1 2.8Zm16.6-10.2a1 1 0 0 1-.7.3 1 1 0 0 1-.7-.3 1 1 0 0 1-.2-.7c0-.2 0-.5.2-.7l.7-.2c.3 0 .5 0 .7.2.2.2.3.5.3.7 0 .3-.1.5-.3.7ZM81.9 455v-10h1.3v10h-1.3Zm8.8-10.2c1.2 0 2.1.3 2.8 1 .7.8 1 1.8 1 3v6.2h-1.2v-6.1c0-1-.3-1.6-.8-2.1-.4-.5-1.1-.8-2-.8-1 0-1.7.3-2.3 1-.6.6-1 1.5-1 2.8v5.2H86v-10h1.3v1.6a3.7 3.7 0 0 1 3.4-1.8Zm16.7 1.5h-2.9v6c0 .6.2 1 .4 1.2.2.2.5.4 1 .4h1.5v1.1c-1.4.2-2.4.1-3.1-.3-.7-.4-1-1.2-1-2.4v-6H101V445h2.1v-2.4l1.3-.4v2.8h3v1.3Zm6.2-1.5c1.5 0 2.7.5 3.6 1.5a5.4 5.4 0 0 1 1.4 4.4h-8.8c.1 1 .5 1.8 1.3 2.4a4 4 0 0 0 2.7.9 4 4 0 0 0 2-.5c.5-.3.9-.7 1.2-1.2l1.1.6c-.4.7-1 1.3-1.8 1.7-.7.4-1.6.6-2.6.6-1.5 0-2.8-.5-3.8-1.4a5 5 0 0 1-1.5-3.8 5 5 0 0 1 1.5-3.7 5 5 0 0 1 3.7-1.5Zm0 1.2a4 4 0 0 0-2.6 1c-.7.6-1 1.4-1.2 2.4h7.4c0-1-.5-1.9-1.2-2.5-.7-.6-1.5-.9-2.4-.9Zm11.8 9.2a5.1 5.1 0 0 1-5.3-5.2 5 5 0 0 1 1.5-3.7 5 5 0 0 1 3.8-1.5c1 0 1.8.2 2.6.7.8.4 1.4 1 1.7 1.9l-1 .6a3 3 0 0 0-1.3-1.4 3.8 3.8 0 0 0-4.8.6c-.8.8-1.2 1.7-1.2 2.8a3.9 3.9 0 0 0 4 4c.7 0 1.4-.2 2-.6.5-.3 1-.8 1.3-1.4l1.1.6a5 5 0 0 1-1.8 2c-.8.4-1.7.6-2.6.6Zm11-10.4c1.2 0 2.2.3 2.9 1 .7.8 1 1.8 1 3v6.2H139v-6.1c0-1-.2-1.6-.7-2.1-.5-.5-1.1-.8-2-.8-1 0-1.7.3-2.3 1-.6.6-1 1.5-1 2.8v5.2h-1.3v-14h1.4v5.6a3.7 3.7 0 0 1 3.3-1.8Z" fill="#141414"/>
      <g clip-path="url(#d)">
        <rect fill="#1D9BF0" fill-opacity=".1" height="38" rx="12" width="106" x="379" y="415"/>
        <path d="M399.1 433.3c.8.3 1.4.7 1.9 1.2.5.6.7 1.3.7 2 0 1.2-.4 2.1-1.2 2.7-.7.7-1.7 1-2.8 1-.9 0-1.7-.2-2.4-.6a4 4 0 0 1-1.4-1.7l1.8-1.1c.3.8 1 1.3 2 1.3.6 0 1-.2 1.3-.4.3-.3.5-.7.5-1.2 0-.4-.2-.8-.5-1-.3-.3-.7-.5-1.3-.5h-.5l-.8-1.3 2.2-2.8h-4.4v-2.1h7v1.8l-2 2.7Zm8.1 7a4 4 0 0 1-3.3-1.7 7 7 0 0 1-1.1-4.2c0-1.8.4-3.2 1.1-4.2.8-1 2-1.6 3.3-1.6 1.5 0 2.6.5 3.3 1.6.8 1 1.2 2.4 1.2 4.2a7 7 0 0 1-1.2 4.2 3.7 3.7 0 0 1-3.3 1.6Zm-1.7-3.2c.4.7 1 1 1.7 1 .8 0 1.4-.4 1.7-1a5 5 0 0 0 .6-2.7 5 5 0 0 0-.6-2.7c-.3-.7-1-1-1.7-1s-1.3.3-1.7 1c-.3.6-.5 1.5-.5 2.7 0 1.2.2 2.1.5 2.7Zm11.8 3.1a4 4 0 0 1-3.3-1.6 7 7 0 0 1-1.2-4.2c0-1.8.4-3.2 1.2-4.2.8-1 2-1.6 3.3-1.6 1.4 0 2.5.5 3.3 1.6.8 1 1.2 2.4 1.2 4.2a7 7 0 0 1-1.2 4.2 3.8 3.8 0 0 1-3.3 1.6Zm-1.7-3c.4.6 1 .9 1.7.9.8 0 1.3-.4 1.7-1a5 5 0 0 0 .6-2.7 5 5 0 0 0-.6-2.7c-.4-.7-1-1-1.7-1s-1.3.3-1.7 1a5 5 0 0 0-.6 2.7 5 5 0 0 0 .6 2.7Zm15 2.8h-2.3l-3-3.6v3.6h-2v-11.2h2v6.7l2.8-3.5h2.5l-3.2 4 3.3 4Zm7.6-6.6v2h-2.7v2.6h-1.9v-2.6H431v-2h2.6v-2.6h2v2.6h2.6Z" fill="#141414"/>
        <path d="m460 432.7 6.5-8.1h-1.9l-5.5 6.9-5.6-7h-6.2l8.7 10.8-6.5 8.1h1.9l5.5-6.9 5.6 7h6.2l-8.7-10.8Zm-9.6-6.7h2.4l12.8 16h-2.4l-12.8-16Z" fill="#000"/>
      </g>
    </g>
    <path d="M382 78.8a53.8 53.8 0 1 1 107.5 0v2.4a53.8 53.8 0 0 1-107.5 0v-2.4Z" fill="#91BBFA"/>
    <path d="M424.6 58.5c2.1-1 3-3.3 2-5.2-1-2-3.4-2.8-5.5-2-2 1-3 3.3-2 5.3s3.4 2.8 5.5 1.9Zm7.6 9.9c.5 0 .9-.4.8-.9l-.3-1a12 12 0 0 0-2.8-4 9.2 9.2 0 0 0-6.5-2.4c-2.1.2-4 1-6 2.8-1.3 1.2-3 3-3.2 5.7 0 .3 0 .5.2.7.5.5.2.2 17.8-.9Zm-13.6-4.3a7.5 7.5 0 0 1 5.4-2.3c1.6 0 3.1.6 4.4 1.5 1.2 1 1.8 2.1 2.5 3.5l-14.8 1a8.2 8.2 0 0 1 2.5-3.7Zm16.8-1 16.8-.4c.5 0 .8-.4.8-.9 0-.4-.4-.8-.9-.8l-16.7.4a.9.9 0 0 0 0 1.7Zm17.2 10.5c-11.8.1-23.6.8-35.3 2.1a.9.9 0 0 0 .2 1.7c11.6-1.3 23.4-2 35.1-2a.9.9 0 0 0 0-1.8ZM430.8 85c0-.4-.3-.8-.8-.8a76 76 0 0 0-10.8.3.9.9 0 0 0 .2 1.7 74 74 0 0 1 4-.3c.4 2.9 1.2 8.7-.3 11.1-.5.9-1.4 1.4-2.1 1.4-.8 0-1.5-.6-1.5-1.2a.9.9 0 1 0-1.7 0c0 1.6 1.5 3 3.2 3 1.4 0 2.8-1 3.5-2.3 1.8-3 1-8.6.7-12h4.7c.5 0 .9-.4.9-.9Z" fill="#000"/>
    <path d="M433.9 86.5c-5.4-.6-8 7.8-4.1 10.9a5.6 5.6 0 0 0 6.6-.1c1.8-1.4 2.7-4 2.2-6.3-.5-2.4-2.5-4.3-4.7-4.5Zm1.5 9.4a4 4 0 0 1-4.6.2c-2.6-2-.8-8 2.6-8 1.7 0 3.2 1.5 3.5 3.3.4 1.7-.2 3.5-1.5 4.5Zm11.3-5c2.4-2.2 2-6-1.3-7.1a6 6 0 0 0-4.4.2 1 1 0 0 0-.4.8L441 97c0 .4.2.7.5.8 1.8.8 4.6 1.5 6 .2 2.4-2 2-5.6-1-7Zm-.1 5.7c-.6.5-2.1.3-3.8-.3l-.5-11c1.5-.4 3.5 0 4 1.4.6 1.4-.5 3.3-2.2 3.7-1 .3-.8 1.8.2 1.7 1.3 0 2.5.6 3 1.6.4 1 .1 2.2-.7 3Z" fill="#000"/>
    <path d="m410.6 112.4 1.3.5c.2.1.5.2.7.1 17.1-3.4 25.7 2.1 42.6-3l.3-.1.3-.2c2.8-3 5.3-7.6 7.3-11.1.3-.2.5-.5.5-.8 0-15.5-1.3-34-1.3-49.4 0-.4-.3-.8-.8-.8-17.7-1-33.3-3.2-51 .2-.4 0-.6.3-.7.6a9.6 9.6 0 0 0-2.1 3.7 501 501 0 0 0 1.8 58.9c.1.6.5 1.2 1.1 1.4Zm43.1-12.6 7.2-.9c-1.6 3-3.4 6-5.3 8.4-.5-2.5-1.5-5.2-1.9-7.5Zm-42.3-50.5c17-3 32.1-1.1 49.2 0 0 15 1.3 32.8 1.3 47.8-8.8 1.4-9.2.6-9.8 1.3-.3.4-.2.8 0 1.4-.6 2.6 1.5 7.1 1.3 9-15.3 4.2-24-.6-40.2 2.4-2.1-14.5-1.6-21.9-2.2-34 0-9 .2-18 .4-27.9Z" fill="#000"/>
  </g>
  <defs>
    <clipPath id="a">
      <path d="M0 0h530v512H0z" fill="#fff"/>
    </clipPath>
    <clipPath id="b">
      <path d="M70 132a91 91 0 0 1 91-91h200a91 91 0 0 1 91 91v194a91 91 0 0 1-91 91H161a91 91 0 0 1-91-91V132Z" fill="#fff"/>
    </clipPath>
    <clipPath id="d">
      <rect fill="#fff" height="38" rx="12" width="106" x="379" y="415"/>
    </clipPath>
    <filter color-interpolation-filters="sRGB" filterUnits="userSpaceOnUse" height="153" id="c" width="527" x="2" y="362">
      <feFlood flood-opacity="0" result="BackgroundImageFix"/>
      <feColorMatrix in="SourceAlpha" result="hardAlpha" values="0 0 0 0 0 0 0 0 0 0 0 0 0 0 0 0 0 0 127 0"/>
      <feOffset dx="4" dy="4"/>
      <feGaussianBlur stdDeviation="12"/>
      <feComposite in2="hardAlpha" operator="out"/>
      <feColorMatrix values="0 0 0 0 0 0 0 0 0 0 0 0 0 0 0 0 0 0 0.12 0"/>
      <feBlend in2="BackgroundImageFix" result="effect1_dropShadow_692_23277"/>
      <feBlend in="SourceGraphic" in2="effect1_dropShadow_692_23277" result="shape"/>
    </filter>
  </defs>
</svg>