<?xml version="1.0" encoding="utf-8"?>
<svg xmlns="http://www.w3.org/2000/svg" fill="none" height="524" width="530">
  <g clip-path="url(#a)">
    <g clip-path="url(#b)">
      <path d="M70 144a91 91 0 0 1 91-91h200a91 91 0 0 1 91 91v194a91 91 0 0 1-91 91H161a91 91 0 0 1-91-91V144Z" fill="#CFEFEE"/>
      <path d="M24 158.2V26h132.2C156.2 99 97 158.2 24 158.2Zm0 146.1V172h132.2c0 73-59.2 132.3-132.2 132.3ZM24 453V320.8h132.2C156.2 393.8 97 453 24 453Zm302.5-294.8V26h132.2c0 73-59.2 132.2-132.2 132.2Zm0 146.1V172h132.2c0 73-59.2 132.3-132.2 132.3Zm0 148.7V320.8h132.2c0 73-59.2 132.2-132.2 132.2Z" fill="#7CC0BE"/>
    </g>
    <g filter="url(#c)">
      <rect fill="#fff" height="105" rx="24" width="479" x="22" y="394"/>
      <path d="M56.4 425h2.8v14H57l-6-8.6v8.6h-2.8v-14h2.1l6 8.5V425Zm6.6 2.8a1.6 1.6 0 0 1-1.7-1.6c0-.4.2-.8.5-1.1a1.5 1.5 0 0 1 2.2 0 1.5 1.5 0 0 1 0 2.2c-.3.3-.6.5-1 .5ZM61.5 439v-10h2.6v10h-2.6Zm12.7-14h2.5v14h-2.5v-1.2a4 4 0 0 1-3.3 1.5c-1.3 0-2.5-.5-3.4-1.5-1-1-1.5-2.3-1.5-3.8s.5-2.7 1.5-3.7 2-1.6 3.4-1.6 2.5.5 3.3 1.5V425Zm-4.8 11c.5.6 1.2.8 2 .8s1.5-.2 2-.8c.5-.5.8-1.2.8-2s-.3-1.5-.8-2c-.5-.6-1.2-.8-2-.8s-1.5.2-2 .8c-.5.5-.8 1.2-.8 2s.3 1.5.8 2Zm15.3-7.3c1 0 2 .4 2.7 1.1.7.8 1 1.8 1 3v6.2H86v-5.8c0-.7-.2-1.2-.6-1.5a2 2 0 0 0-1.4-.6c-.7 0-1.2.2-1.6.6-.4.5-.6 1-.6 1.9v5.4H79v-14h2.6v5.1c.6-1 1.6-1.4 3-1.4Zm7.3-.9a1.6 1.6 0 0 1-1.7-1.6c0-.4.2-.8.5-1.1a1.5 1.5 0 0 1 2.2 0 1.5 1.5 0 0 1 0 2.2c-.3.3-.6.5-1 .5ZM90.5 439v-10h2.6v10h-2.6Zm15-10.2c1.2 0 2.1.3 2.8 1 .7.8 1.1 1.8 1.1 3v6.2h-1.3v-6.1c0-1-.3-1.6-.7-2.1-.5-.5-1.2-.8-2-.8a3 3 0 0 0-2.4 1c-.6.6-.9 1.5-.9 2.8v5.2h-1.3v-14h1.3v5.6a3.7 3.7 0 0 1 3.4-1.8Zm11.1 0c1.5 0 2.6.5 3.6 1.5a5.4 5.4 0 0 1 1.3 4.4h-8.8c.1 1 .6 1.8 1.3 2.4a4 4 0 0 0 2.7.9 4 4 0 0 0 2-.5c.5-.3 1-.7 1.2-1.2l1.2.6c-.5.7-1 1.3-1.8 1.7-.8.4-1.7.6-2.6.6-1.6 0-2.9-.5-3.9-1.4a5 5 0 0 1-1.4-3.8c0-1.5.4-2.7 1.4-3.7a5 5 0 0 1 3.8-1.5Zm0 1.2c-1 0-2 .4-2.6 1-.7.6-1.2 1.4-1.3 2.4h7.5c-.2-1-.6-1.9-1.2-2.5-.7-.6-1.5-.9-2.4-.9Zm7 9v-14.6h1.4V439h-1.4Zm9.5-10.2a5 5 0 0 1 3.7 1.5 5 5 0 0 1 1.5 3.7 5 5 0 0 1-1.5 3.7 5 5 0 0 1-3.7 1.5c-1.8 0-3.1-.7-4-2.2v6h-1.3v-14h1.3v2a4.3 4.3 0 0 1 4-2.2Zm-2.9 8c.8.8 1.7 1.2 2.8 1.2 1.1 0 2-.4 2.8-1.2.8-.8 1.2-1.7 1.2-2.8 0-1.1-.4-2-1.2-2.8a3.8 3.8 0 0 0-2.8-1.2c-1 0-2 .4-2.8 1.2a4.1 4.1 0 0 0 0 5.6Zm11.1-5.2c0 .5.2.8.6 1.1.4.3.9.5 1.5.6l1.7.5c.6.2 1 .5 1.5 1 .4.3.6.9.6 1.6 0 .8-.4 1.5-1 2a4 4 0 0 1-2.7.8c-1 0-1.7-.2-2.4-.6a3 3 0 0 1-1.4-1.7l1-.6c.3.5.6 1 1 1.2a4 4 0 0 0 1.8.5c.7 0 1.2-.2 1.7-.4.4-.3.6-.7.6-1.2s-.2-.9-.6-1.1c-.4-.3-.9-.5-1.4-.6l-1.7-.5a3 3 0 0 1-1.5-1c-.4-.3-.6-.9-.6-1.6 0-.8.3-1.5 1-2 .6-.6 1.4-.8 2.4-.8a4 4 0 0 1 2.2.5c.6.4 1 .9 1.3 1.5l-1 .6c-.5-.9-1.3-1.4-2.5-1.4-.6 0-1 .2-1.5.5-.4.2-.6.6-.6 1.1Zm18.4-2.8a5 5 0 0 1 3.7 1.5 5 5 0 0 1 1.5 3.7 5 5 0 0 1-1.5 3.7 5 5 0 0 1-3.7 1.5c-1.8 0-3.1-.7-4-2.2v6h-1.3v-14h1.3v2a4.3 4.3 0 0 1 4-2.2Zm-2.9 8c.8.8 1.7 1.2 2.8 1.2 1.1 0 2-.4 2.8-1.2.8-.8 1.2-1.7 1.2-2.8 0-1.1-.4-2-1.2-2.8a3.8 3.8 0 0 0-2.8-1.2c-1 0-2 .4-2.8 1.2a4.1 4.1 0 0 0 0 5.6Zm14.9-8c1.5 0 2.7.5 3.6 1.5a5.4 5.4 0 0 1 1.3 4.4h-8.8a4 4 0 0 0 1.3 2.4 4 4 0 0 0 2.7.9 4 4 0 0 0 2-.5c.5-.3 1-.7 1.2-1.2l1.2.6c-.4.7-1 1.3-1.8 1.7-.8.4-1.6.6-2.6.6-1.6 0-2.9-.5-3.8-1.4a5 5 0 0 1-1.5-3.8c0-1.5.5-2.7 1.4-3.7a5 5 0 0 1 3.8-1.5Zm0 1.2c-1 0-2 .4-2.6 1a4 4 0 0 0-1.3 2.4h7.5a3.5 3.5 0 0 0-3.6-3.3Zm15.4 7.7a5 5 0 0 1-3.7 1.5 5.2 5.2 0 0 1-5.2-5.2 5 5 0 0 1 1.5-3.7 5 5 0 0 1 3.7-1.5 5 5 0 0 1 3.7 1.5 5 5 0 0 1 1.6 3.7 5 5 0 0 1-1.6 3.7Zm-6.5-.9c.8.8 1.7 1.2 2.8 1.2 1.1 0 2-.4 2.8-1.2.8-.8 1.2-1.7 1.2-2.8 0-1.1-.4-2-1.2-2.8a3.8 3.8 0 0 0-2.8-1.2c-1 0-2 .4-2.8 1.2a4.1 4.1 0 0 0 0 5.6Zm15.6-8a5 5 0 0 1 3.7 1.5 5 5 0 0 1 1.5 3.7 5 5 0 0 1-1.5 3.7 5 5 0 0 1-3.7 1.5c-1.7 0-3-.7-4-2.2v6h-1.3v-14h1.3v2c1-1.5 2.3-2.2 4-2.2Zm-2.9 8c.8.8 1.7 1.2 2.8 1.2 1.1 0 2-.4 2.8-1.2.8-.8 1.2-1.7 1.2-2.8 0-1.1-.4-2-1.2-2.8a3.8 3.8 0 0 0-2.8-1.2c-1 0-2 .4-2.8 1.2a4.1 4.1 0 0 0 0 5.6Zm10.3 2.2v-14.6h1.3V439h-1.3Zm8.7-10.2c1.5 0 2.7.5 3.6 1.5a5.4 5.4 0 0 1 1.4 4.4h-8.8c.1 1 .5 1.8 1.3 2.4a4 4 0 0 0 2.7.9 4 4 0 0 0 2-.5c.5-.3.9-.7 1.2-1.2l1.1.6c-.4.7-1 1.3-1.8 1.7-.7.4-1.6.6-2.6.6-1.5 0-2.8-.5-3.8-1.4-1-1-1.5-2.3-1.5-3.8s.5-2.7 1.5-3.7a5 5 0 0 1 3.7-1.5Zm0 1.2a4 4 0 0 0-2.6 1c-.7.6-1 1.4-1.2 2.4h7.4a3.5 3.5 0 0 0-3.6-3.3Zm22.7-1.2c1.2 0 2 .3 2.8 1a4 4 0 0 1 1 3v6.2h-1.3v-6.2c0-1-.3-1.6-.7-2-.4-.5-1-.8-1.8-.8s-1.5.3-2 .9c-.5.5-.7 1.4-.7 2.6v5.5h-1.4v-6.2c0-1-.2-1.6-.6-2-.4-.5-1-.8-1.7-.8-.8 0-1.5.3-2 .9-.6.5-.9 1.4-.9 2.6v5.5h-1.3v-10h1.3v1.5a3.4 3.4 0 0 1 3-1.7c1.5 0 2.5.6 3.1 1.8a3.5 3.5 0 0 1 3.3-1.8Zm14.7 8.9a5 5 0 0 1-3.7 1.5 5.2 5.2 0 0 1-5.3-5.2 5 5 0 0 1 1.6-3.7 5 5 0 0 1 3.7-1.5 5 5 0 0 1 3.7 1.5 5 5 0 0 1 1.6 3.7 5 5 0 0 1-1.6 3.7Zm-6.5-.9c.8.8 1.7 1.2 2.8 1.2 1.1 0 2-.4 2.8-1.2.8-.8 1.1-1.7 1.1-2.8a4 4 0 0 0-1-2.8 3.8 3.8 0 0 0-2.9-1.2c-1.1 0-2 .4-2.8 1.2-.8.8-1.1 1.7-1.1 2.8 0 1.1.3 2 1.1 2.8Zm17.1-7.8h1.4l-4.1 10H256l-4.1-10h1.4l3.5 8.6 3.5-8.6Zm7.2-.2c1.5 0 2.7.5 3.6 1.5a5.4 5.4 0 0 1 1.3 4.4h-8.7c0 1 .5 1.8 1.2 2.4.8.6 1.7.9 2.7.9a4 4 0 0 0 2-.5 3 3 0 0 0 1.3-1.2l1.1.6c-.4.7-1 1.3-1.8 1.7-.7.4-1.6.6-2.6.6-1.6 0-2.8-.5-3.8-1.4-1-1-1.5-2.3-1.5-3.8s.5-2.7 1.5-3.7a5 5 0 0 1 3.7-1.5Zm0 1.2a4 4 0 0 0-2.6 1c-.7.6-1.1 1.4-1.2 2.4h7.4a3.5 3.5 0 0 0-3.6-3.3Zm20.7-1h1.3v10h-1.3v-2a4.5 4.5 0 0 1-4 2.2 5 5 0 0 1-3.7-1.5 5 5 0 0 1-1.5-3.7 5 5 0 0 1 1.5-3.7 5 5 0 0 1 3.6-1.5c1.8 0 3.2.7 4 2.2v-2Zm-6.8 7.8c.8.8 1.7 1.2 2.8 1.2 1.1 0 2-.4 2.8-1.2.8-.8 1.2-1.7 1.2-2.8 0-1.1-.4-2-1.2-2.8a3.8 3.8 0 0 0-2.8-1.2c-1 0-2 .4-2.8 1.2a4.1 4.1 0 0 0 0 5.6Zm16.2-8a5 5 0 0 1 3.7 1.5 5 5 0 0 1 1.5 3.7 5 5 0 0 1-1.5 3.7 5 5 0 0 1-3.7 1.5c-1.7 0-3-.7-4-2.2v2h-1.3v-14h1.3v6c1-1.5 2.3-2.2 4-2.2Zm-2.9 8c.8.8 1.7 1.2 2.8 1.2 1.2 0 2-.4 2.8-1.2.8-.8 1.2-1.7 1.2-2.8 0-1.1-.4-2-1.2-2.8a3.8 3.8 0 0 0-2.8-1.2c-1 0-2 .4-2.8 1.2a4 4 0 0 0-1 2.8c0 1.1.3 2 1 2.8Zm11.6-6.1c.6-1.3 1.7-1.9 3.2-1.9v1.3c-1 0-1.7.3-2.3.8-.6.6-.9 1.4-.9 2.5v5.6H305v-10h1.3v1.7Zm12.7 7a5 5 0 0 1-3.7 1.5 5.2 5.2 0 0 1-5.2-5.2 5 5 0 0 1 1.5-3.7c1-1 2.3-1.5 3.7-1.5a5 5 0 0 1 3.8 1.5 5 5 0 0 1 1.5 3.7 5 5 0 0 1-1.5 3.7Zm-6.5-.9c.8.8 1.7 1.2 2.8 1.2 1.2 0 2-.4 2.8-1.2.8-.8 1.2-1.7 1.2-2.8 0-1.1-.4-2-1.2-2.8a3.8 3.8 0 0 0-2.8-1.2c-1 0-2 .4-2.8 1.2a4.1 4.1 0 0 0 0 5.6Zm18.9-7.8h1.3v10h-1.3v-2a4.5 4.5 0 0 1-4 2.2 5 5 0 0 1-3.7-1.5 5 5 0 0 1-1.5-3.7 5 5 0 0 1 1.5-3.7 5 5 0 0 1 3.7-1.5c1.7 0 3 .7 4 2.2v-2Zm-6.7 7.8c.7.8 1.7 1.2 2.8 1.2 1 0 2-.4 2.8-1.2a4.1 4.1 0 0 0 0-5.6 3.8 3.8 0 0 0-2.8-1.2c-1.1 0-2 .4-2.8 1.2-.8.8-1.2 1.7-1.2 2.8 0 1.1.4 2 1.2 2.8Zm19.4-11.8h1.3v14h-1.3v-2a4.5 4.5 0 0 1-4 2.2 5 5 0 0 1-3.7-1.5 5 5 0 0 1-1.5-3.7 5 5 0 0 1 1.5-3.7 5 5 0 0 1 3.7-1.5c1.8 0 3.1.7 4 2.2v-6Zm-6.7 11.8c.7.8 1.7 1.2 2.8 1.2 1.1 0 2-.4 2.8-1.2a4.1 4.1 0 0 0 0-5.6 3.8 3.8 0 0 0-2.8-1.2c-1.1 0-2 .4-2.8 1.2-.8.8-1.2 1.7-1.2 2.8 0 1.1.4 2 1.2 2.8ZM53.4 454c-1 0-1.7.1-2.2.5-.4.5-.7 1.1-.7 2.1v.4h2.9v1.3h-2.9v8.7h-1.3v-8.7h-1.7V457h1.7v-.4c0-1.3.4-2.3 1-3 .8-.6 1.9-1 3.2-.8v1.2Zm9.2 11.7a5 5 0 0 1-3.7 1.5 5.2 5.2 0 0 1-5.3-5.2 5 5 0 0 1 1.5-3.7c1-1 2.3-1.5 3.8-1.5a5 5 0 0 1 3.7 1.5A5 5 0 0 1 64 462a5 5 0 0 1-1.5 3.7Zm-6.5-.9c.7.8 1.7 1.2 2.8 1.2 1 0 2-.4 2.8-1.2a4.1 4.1 0 0 0 0-5.6 3.8 3.8 0 0 0-2.8-1.2c-1.1 0-2 .4-2.8 1.2-.8.8-1.2 1.7-1.2 2.8 0 1.1.4 2 1.2 2.8Zm11.5-6.1a3.3 3.3 0 0 1 3.2-1.9v1.3c-.9 0-1.7.3-2.3.8-.6.6-.9 1.4-.9 2.5v5.6h-1.3v-10h1.3v1.7Zm14.6-1.9c1.5 0 2.7.5 3.6 1.5a5.4 5.4 0 0 1 1.4 4.4h-8.8c.1 1 .5 1.8 1.3 2.4a4 4 0 0 0 2.7.9 4 4 0 0 0 2-.5c.5-.3.9-.7 1.2-1.2l1.1.6c-.4.7-1 1.3-1.8 1.7-.7.4-1.6.6-2.6.6-1.5 0-2.8-.5-3.8-1.4A5 5 0 0 1 77 462a5 5 0 0 1 1.5-3.7 5 5 0 0 1 3.7-1.5Zm0 1.2a4 4 0 0 0-2.6 1c-.7.6-1 1.4-1.2 2.4h7.4c0-1-.5-1.9-1.2-2.5-.7-.6-1.5-.9-2.4-.9Zm15.7-5h1.3v14H98v-2a4.5 4.5 0 0 1-4 2.2 5 5 0 0 1-3.7-1.5 5 5 0 0 1-1.5-3.7 5 5 0 0 1 1.5-3.7 5 5 0 0 1 3.7-1.5c1.7 0 3 .7 4 2.2v-6Zm-6.7 11.8c.7.8 1.7 1.2 2.8 1.2 1 0 2-.4 2.8-1.2a4.1 4.1 0 0 0 0-5.6A3.8 3.8 0 0 0 94 458c-1.1 0-2 .4-2.8 1.2-.8.8-1.2 1.7-1.2 2.8 0 1.1.4 2 1.2 2.8ZM109 457h1.4v10H109v-1.6a3.7 3.7 0 0 1-3.4 1.8c-1.2 0-2.2-.3-2.9-1-.7-.8-1-1.8-1-3V457h1.3v6.1c0 1 .2 1.6.7 2.1.5.5 1.1.8 2 .8a3 3 0 0 0 2.4-1c.6-.6.9-1.5.9-2.8V457Zm8.8 10.2a5.1 5.1 0 0 1-5.2-5.2 5 5 0 0 1 1.5-3.7 5 5 0 0 1 3.7-1.5c1 0 1.9.2 2.7.7.8.4 1.3 1 1.7 1.9l-1 .6a3 3 0 0 0-1.4-1.4c-.6-.4-1.2-.6-2-.6-1 0-2 .4-2.8 1.2-.7.8-1.1 1.7-1.1 2.8a3.9 3.9 0 0 0 4 4 3.9 3.9 0 0 0 3.3-2l1.1.6a5 5 0 0 1-1.8 2 6 6 0 0 1-2.7.6Zm14.9-10.2h1.3v10h-1.3v-2a4.5 4.5 0 0 1-4 2.2 5 5 0 0 1-3.7-1.5 5 5 0 0 1-1.5-3.7 5 5 0 0 1 1.5-3.7 5 5 0 0 1 3.7-1.5c1.7 0 3 .7 4 2.2v-2Zm-6.7 7.8c.7.8 1.7 1.2 2.8 1.2 1 0 2-.4 2.8-1.2a4.1 4.1 0 0 0 0-5.6 3.8 3.8 0 0 0-2.8-1.2c-1.1 0-2 .4-2.8 1.2-.8.8-1.2 1.7-1.2 2.8 0 1.1.4 2 1.2 2.8Zm16.1-6.5h-2.9v6c0 .6.1 1 .4 1.2.2.2.5.4 1 .4h1.5v1.1c-1.4.2-2.4.1-3.1-.3-.7-.4-1-1.2-1-2.4v-6h-2.2V457h2.1v-2.4l1.3-.4v2.8h3v1.3Zm3.6-3.7a1 1 0 0 1-.7.3 1 1 0 0 1-.7-.3 1 1 0 0 1-.3-.7c0-.2.1-.5.3-.7l.7-.2c.2 0 .5 0 .7.2l.2.7c0 .3 0 .5-.2.7Zm-1.4 12.4v-10h1.3v10h-1.3Zm12.5-1.3a5 5 0 0 1-3.7 1.5 5.2 5.2 0 0 1-5.3-5.2 5 5 0 0 1 1.6-3.7 5 5 0 0 1 3.7-1.5 5 5 0 0 1 3.7 1.5 5 5 0 0 1 1.6 3.7 5 5 0 0 1-1.6 3.7Zm-6.5-.9c.8.8 1.7 1.2 2.8 1.2 1.1 0 2-.4 2.8-1.2.8-.8 1.1-1.7 1.1-2.8 0-1.1-.3-2-1.1-2.8a3.8 3.8 0 0 0-2.8-1.2c-1.1 0-2 .4-2.8 1.2-.8.8-1.1 1.7-1.1 2.8 0 1.1.3 2 1.1 2.8Zm14.9-8c1.3 0 2.2.3 3 1a5 5 0 0 1 1 3v6.2h-1.4v-6.1c0-1-.2-1.6-.7-2.1-.4-.5-1.1-.8-2-.8-1 0-1.7.3-2.3 1-.6.6-1 1.5-1 2.8v5.2h-1.2v-10h1.3v1.6a3.7 3.7 0 0 1 3.3-1.8Zm20.1.2h1.3v10h-1.3v-2a4.5 4.5 0 0 1-4 2.2 5 5 0 0 1-3.7-1.5 5 5 0 0 1-1.5-3.7 5 5 0 0 1 1.5-3.7 5 5 0 0 1 3.7-1.5c1.8 0 3.1.7 4 2.2v-2Zm-6.7 7.8c.7.8 1.7 1.2 2.8 1.2 1 0 2-.4 2.8-1.2a4.1 4.1 0 0 0 0-5.6 3.8 3.8 0 0 0-2.8-1.2c-1.1 0-2 .4-2.8 1.2-.8.8-1.2 1.7-1.2 2.8 0 1.1.4 2 1.2 2.8Zm15.5-8c1.2 0 2.2.3 2.9 1 .7.8 1 1.8 1 3v6.2h-1.3v-6.1c0-1-.2-1.6-.7-2.1-.5-.5-1.1-.8-2-.8-1 0-1.7.3-2.3 1-.6.6-1 1.5-1 2.8v5.2h-1.3v-10h1.4v1.6a3.7 3.7 0 0 1 3.3-1.8Zm15.1-3.8h1.3v14h-1.3v-2a4.5 4.5 0 0 1-4 2.2 5 5 0 0 1-3.7-1.5 5 5 0 0 1-1.5-3.7 5 5 0 0 1 1.5-3.7 5 5 0 0 1 3.6-1.5c1.8 0 3.2.7 4 2.2v-6Zm-6.8 11.8c.8.8 1.7 1.2 2.8 1.2 1.2 0 2-.4 2.8-1.2.8-.8 1.2-1.7 1.2-2.8 0-1.1-.4-2-1.2-2.8a3.8 3.8 0 0 0-2.8-1.2c-1 0-2 .4-2.8 1.2a4 4 0 0 0-1 2.8c0 1.1.3 2 1 2.8Zm27.9-7.8h1.4l-3 10h-1.5l-2.6-8-2.6 8h-1.4l-3.1-10h1.4l2.4 8.3 2.6-8.3h1.4l2.6 8.3 2.4-8.3Zm11.4 8.7a5 5 0 0 1-3.7 1.5 5.2 5.2 0 0 1-5.3-5.2 5 5 0 0 1 1.5-3.7c1-1 2.3-1.5 3.8-1.5a5 5 0 0 1 3.7 1.5 5 5 0 0 1 1.5 3.7 5 5 0 0 1-1.5 3.7Zm-6.5-.9c.7.8 1.7 1.2 2.8 1.2 1 0 2-.4 2.8-1.2a4.1 4.1 0 0 0 0-5.6 3.8 3.8 0 0 0-2.8-1.2c-1.1 0-2 .4-2.8 1.2-.8.8-1.2 1.7-1.2 2.8 0 1.1.4 2 1.2 2.8Zm11.6-6.1c.6-1.3 1.6-1.9 3.1-1.9v1.3c-.9 0-1.6.3-2.2.8-.6.6-1 1.4-1 2.5v5.6h-1.3v-10h1.4v1.7Zm13 8.3H258l-5-4.8v4.8h-1.3v-14h1.3v8.4l4.8-4.4h1.8l-5.2 4.8 5.4 5.2Z" fill="#141414"/>
      <g clip-path="url(#d)">
        <rect fill="#FF4F3C" fill-opacity=".1" height="38" rx="12" width="99" x="386" y="427"/>
        <path d="M405.1 440.8h2V452h-2.3v-8.9l-2 .6-.6-1.9 3-1Zm15.1 0V452H418v-7.3l-3.2 5.2h-.2l-3.2-5.1v7.2h-2.2v-11.2h2.3l3.2 5.3 3.2-5.3h2.3Zm9.1 4.6v2h-2.7v2.6h-1.9v-2.6h-2.6v-2h2.6v-2.6h2v2.6h2.6Z" fill="#D9307D"/>
        <g clip-path="url(#e)">
          <path d="m449.6 459-3-.6a5 5 0 0 1-1.8-1.2c-.5-.5-1-1.2-1.2-1.8-.3-1-.5-2-.5-3a109.2 109.2 0 0 1 .5-15.8 5 5 0 0 1 1.2-1.8c.5-.5 1.2-1 1.8-1.2 1-.3 2-.5 3-.5a110.5 110.5 0 0 1 15.8.5 5 5 0 0 1 1.8 1.2 5 5 0 0 1 1.2 1.8c.3 1 .5 2 .5 3a109.6 109.6 0 0 1-.5 15.8 5.3 5.3 0 0 1-3 3c-1 .3-2 .5-3 .5a109.6 109.6 0 0 1-12.8 0" fill="url(#f)"/>
          <path d="m449.6 459-3-.6a5 5 0 0 1-1.8-1.2c-.5-.5-1-1.2-1.2-1.8-.3-1-.5-2-.5-3a109.2 109.2 0 0 1 .5-15.8 5 5 0 0 1 1.2-1.8c.5-.5 1.2-1 1.8-1.2 1-.3 2-.5 3-.5a110.5 110.5 0 0 1 15.8.5 5 5 0 0 1 1.8 1.2 5 5 0 0 1 1.2 1.8c.3 1 .5 2 .5 3a109.6 109.6 0 0 1-.5 15.8 5.3 5.3 0 0 1-3 3c-1 .3-2 .5-3 .5a109.6 109.6 0 0 1-12.8 0" fill="url(#g)"/>
          <path d="M452.8 446a3.2 3.2 0 1 1 6.4 0 3.2 3.2 0 0 1-6.4 0Zm-1.7 0a5 5 0 1 0 9.9 0 5 5 0 0 0-10 0Zm9-5.1a1.2 1.2 0 0 0 1.3 1.1 1.2 1.2 0 1 0-1.4-1.1m-7.9 13-1.8-.3a3.2 3.2 0 0 1-1.8-1.8l-.3-1.8a66.6 66.6 0 0 1 .3-9.6 3.2 3.2 0 0 1 1.8-1.9l1.8-.3a67.6 67.6 0 0 1 9.6.3 3.2 3.2 0 0 1 1.9 1.9 66.7 66.7 0 0 1 0 11.4 3.2 3.2 0 0 1-1.9 1.8 66.6 66.6 0 0 1-9.6.3m0-17.4c-.9 0-1.6.1-2.4.4a5 5 0 0 0-2.8 2.8 7 7 0 0 0-.5 2.4 67.2 67.2 0 0 0 .5 10.3 5 5 0 0 0 2.8 2.8 7 7 0 0 0 2.3.5 68.2 68.2 0 0 0 10.4-.5 5 5 0 0 0 2.8-2.8 7 7 0 0 0 .4-2.4 69 69 0 0 0-.4-10.3 5 5 0 0 0-2.8-2.8 7 7 0 0 0-2.4-.4 68.6 68.6 0 0 0-8 0" fill="#fff"/>
        </g>
      </g>
    </g>
    <path d="M382 90.8a53.8 53.8 0 1 1 107.5 0v2.4a53.8 53.8 0 0 1-107.5 0v-2.4Z" fill="#CFEFEE"/>
    <path d="M427 92c0 .4.4.7.9.8l2.1.7a89.2 89.2 0 0 0 2.9 1l.7 2.9.1.3a1.5 1.5 0 0 0 2 1l.8-.3 1.3-.5c.6-.2 1-.8 1-1.4V95a77.3 77.3 0 0 0 0-1.7l2.4-1.8.7 2.7 1.3 5.1a1.6 1.6 0 0 0 2.5.8l1-.9 1.9-1.5c.3-.4.5-.8.5-1.3l-.2-10.8a41 41 0 0 0 5.3-5.2 7.5 7.5 0 0 0 1.3-2c.4-1 .4-2 0-2.7a3.3 3.3 0 0 0-3.6-1.4c-1.3.2-2.3 1-3.1 1.6l-4 3-10.7-2.8c-.4-.1-.9 0-1.3.3l-2.1 1.5-1 .7a1.6 1.6 0 0 0 .3 2.6l4.4 2.4 3 1.6a161 161 0 0 0-3.4 3l-2.5-.6-1.2-.4c-.6-.1-1.3.1-1.6.7a37.5 37.5 0 0 0-1.6 2.6c-.3.4-.3.9-.2 1.3Zm1.2-.7.7-1 .9-1.6h.2l1.2.3 2.5.6c.5.1 1 0 1.4-.3l4-3.7a.7.7 0 0 0-.1-1l-4-2.1a1038.6 1038.6 0 0 1-4.5-2.5v-.2l1-.7 2.1-1.6h.2l11 3c.3 0 .5 0 .7-.2l4-3.2c.8-.6 1.7-1.2 2.6-1.4.8-.2 1.8 0 2.2.7.2.4.2 1 0 1.6l-1.1 1.6a40.3 40.3 0 0 1-5.4 5.3c-.2.1-.3.3-.3.5l.3 11.2-.1.1-1.8 1.6-1 .9h-.3l-.1-.1-1.3-5-1-3.8a.7.7 0 0 0-1-.4l-.7.6-2.5 1.8c-.4.3-.6.8-.6 1.3V95a85 85 0 0 0 0 1.6 38 38 0 0 0-2.3.8l-.1-.1-.1-.4-.7-2.8c-.1-.5-.5-.9-1-1l-2.7-1-2.2-.6-.1-.1v-.2Z" fill="#010101"/>
    <path d="M455.5 124.6c1 0 2.5 0 3.5-.9 1.5-1 1.7-3 1.8-4.7.3-7.8.3-46 0-54-.1-1.8-.4-3.7-1.8-4.7-1-.8-2.4-.9-3.5-1H416c-2.8 0-5 2.3-5.1 5-.2 14.4-.1 48.4.1 54.7.1 1.8.4 3.7 1.8 4.7 1 .8 2.5.9 3.5 1h.8a177.8 177.8 0 0 0 .9 0h.6a1874.3 1874.3 0 0 0 37 0Zm-23.9-64 23.9.1c1 0 2 .1 2.7.6 1 .8 1.2 2.3 1.2 3.8.4 7.9.4 46 0 53.8 0 1.4-.2 3-1.2 3.8-.7.5-1.6.5-2.7.6h-32V60.7h8.1ZM417 103.3V83.7a.7.7 0 1 1 1.3 0v19.6a.7.7 0 1 1-1.3 0Zm1.7 6.2a.7.7 0 0 1-1.3 0v-1.6a.7.7 0 1 1 1.3 0v1.6Zm44.8-24.1c.4 0 .7-.3.7-.7v-12a.7.7 0 1 0-1.4 0v12c0 .4.3.7.7.7Zm.1 4.9c.4 0 .7-.3.7-.7v-1.4a.7.7 0 1 0-1.3 0v1.4c0 .4.3.7.6.7Zm-55.2-15.8c.3 0 .6-.3.6-.7v-7.5a.7.7 0 1 0-1.3 0v7.5c0 .4.3.7.7.7Zm0 4.6c.5 0 .8-.3.8-.7v-1a.7.7 0 1 0-1.4 0v1c0 .4.3.7.7.7Z" fill="#010101"/>
    <path d="M430.5 109.4h20.3a.7.7 0 1 0 0-1.3h-20.3a.7.7 0 1 0 0 1.3Zm20.7 4.5h-20.6a.7.7 0 1 0 0 1.4h20.6a.7.7 0 1 0 0-1.4Z" fill="#010101"/>
  </g>
  <defs>
    <clipPath id="a">
      <path d="M0 0h530v524H0z" fill="#fff"/>
    </clipPath>
    <clipPath id="b">
      <path d="M70 144a91 91 0 0 1 91-91h200a91 91 0 0 1 91 91v194a91 91 0 0 1-91 91H161a91 91 0 0 1-91-91V144Z" fill="#fff"/>
    </clipPath>
    <clipPath id="d">
      <rect fill="#fff" height="38" rx="12" width="99" x="386" y="427"/>
    </clipPath>
    <clipPath id="e">
      <path d="M443 433h26v26h-26z" fill="#fff"/>
    </clipPath>
    <radialGradient cx="0" cy="0" gradientTransform="translate(444.7 458.4) scale(33.0103)" gradientUnits="userSpaceOnUse" id="f" r="1">
      <stop offset=".1" stop-color="#FA8F21"/>
      <stop offset=".8" stop-color="#D82D7E"/>
    </radialGradient>
    <radialGradient cx="0" cy="0" gradientTransform="translate(461 457.6) scale(29.0494)" gradientUnits="userSpaceOnUse" id="g" r="1">
      <stop offset=".6" stop-color="#8C3AAA" stop-opacity="0"/>
      <stop offset="1" stop-color="#8C3AAA"/>
    </radialGradient>
    <filter color-interpolation-filters="sRGB" filterUnits="userSpaceOnUse" height="153" id="c" width="527" x="2" y="374">
      <feFlood flood-opacity="0" result="BackgroundImageFix"/>
      <feColorMatrix in="SourceAlpha" result="hardAlpha" values="0 0 0 0 0 0 0 0 0 0 0 0 0 0 0 0 0 0 127 0"/>
      <feOffset dx="4" dy="4"/>
      <feGaussianBlur stdDeviation="12"/>
      <feComposite in2="hardAlpha" operator="out"/>
      <feColorMatrix values="0 0 0 0 0 0 0 0 0 0 0 0 0 0 0 0 0 0 0.12 0"/>
      <feBlend in2="BackgroundImageFix" result="effect1_dropShadow_692_23228"/>
      <feBlend in="SourceGraphic" in2="effect1_dropShadow_692_23228" result="shape"/>
    </filter>
  </defs>
</svg>