<?xml version="1.0" encoding="utf-8"?>
<svg xmlns="http://www.w3.org/2000/svg" width="391" height="48" fill="none">
  <rect width="391" height="48" fill="#008060" fill-opacity=".11" rx="24"/>
  <path fill="#141414" d="M68.6 19.856h-5.2v4.128h4.96v1.056H63.4V30h-1.12V18.8h6.32v1.056Zm2.826.224a.74.74 0 0 1-.544.224.74.74 0 0 1-.544-.224.74.74 0 0 1-.224-.544.74.74 0 0 1 .224-.544.74.74 0 0 1 .544-.224.74.74 0 0 1 .544.224c.15.15.224.33.224.544a.74.74 0 0 1-.224.544ZM70.354 30v-8h1.056v8h-1.056Zm7.041-8.192c.97 0 1.734.299 2.288.896.566.587.848 1.381.848 2.384V30h-1.056v-4.912c0-.715-.192-1.27-.576-1.664-.373-.395-.906-.592-1.6-.592-.768 0-1.392.245-1.872.736-.48.48-.72 1.227-.72 2.24V30h-1.056v-8h1.056v1.248c.598-.96 1.494-1.44 2.688-1.44ZM89.453 18.8h1.056V30h-1.056v-1.568c-.736 1.173-1.813 1.76-3.232 1.76-1.141 0-2.117-.405-2.928-1.216-.8-.81-1.2-1.803-1.2-2.976s.4-2.165 1.2-2.976c.81-.81 1.787-1.216 2.928-1.216 1.419 0 2.496.587 3.232 1.76V18.8Zm-5.392 9.456c.608.608 1.355.912 2.24.912.885 0 1.632-.304 2.24-.912.608-.619.912-1.37.912-2.256 0-.885-.304-1.632-.912-2.24-.608-.619-1.355-.928-2.24-.928-.885 0-1.632.31-2.24.928-.608.608-.912 1.355-.912 2.24 0 .885.304 1.637.912 2.256ZM102.505 22h1.12l-3.424 8.736c-.31.79-.752 1.408-1.328 1.856-.565.459-1.2.661-1.904.608v-.992c.96.107 1.69-.448 2.192-1.664l.208-.496L95.785 22h1.12l3.008 6.704L102.505 22Zm8.788 6.992c-.811.8-1.803 1.2-2.976 1.2-1.174 0-2.171-.4-2.992-1.2-.811-.81-1.216-1.808-1.216-2.992s.405-2.176 1.216-2.976c.821-.81 1.818-1.216 2.992-1.216 1.173 0 2.165.405 2.976 1.216.821.8 1.232 1.792 1.232 2.976s-.411 2.181-1.232 2.992Zm-5.216-.736c.608.608 1.354.912 2.24.912.885 0 1.632-.304 2.24-.912.608-.619.912-1.37.912-2.256 0-.885-.304-1.632-.912-2.24-.608-.619-1.355-.928-2.24-.928-.886 0-1.632.31-2.24.928-.608.608-.912 1.355-.912 2.24 0 .885.304 1.637.912 2.256ZM119.924 22h1.056v8h-1.056v-1.248c-.597.96-1.493 1.44-2.688 1.44-.971 0-1.739-.293-2.304-.88-.555-.597-.832-1.397-.832-2.4V22h1.056v4.912c0 .715.187 1.27.56 1.664.384.395.923.592 1.616.592.768 0 1.392-.24 1.872-.72.48-.49.72-1.243.72-2.256V22Zm4.346 1.328c.49-.97 1.333-1.456 2.528-1.456v1.024c-.726 0-1.328.213-1.808.64-.48.427-.72 1.099-.72 2.016V30h-1.056v-8h1.056v1.328Zm16.647-1.552c.917 0 1.648.299 2.192.896.555.597.832 1.397.832 2.4V30h-2.064v-4.784c0-.48-.117-.853-.352-1.12-.235-.267-.565-.4-.992-.4-.469 0-.837.155-1.104.464-.256.31-.384.757-.384 1.344V30h-2.064v-4.784c0-.48-.117-.853-.352-1.12-.235-.267-.565-.4-.992-.4-.459 0-.827.155-1.104.464-.267.31-.4.757-.4 1.344V30h-2.064v-8h2.064v.848c.48-.715 1.221-1.072 2.224-1.072.981 0 1.707.384 2.176 1.152.533-.768 1.328-1.152 2.384-1.152Zm6.521 5.072c.277 1.003 1.029 1.504 2.256 1.504.789 0 1.387-.267 1.792-.8l1.664.96c-.789 1.141-1.952 1.712-3.488 1.712-1.323 0-2.384-.4-3.184-1.2-.8-.8-1.2-1.808-1.2-3.024 0-1.205.395-2.208 1.184-3.008.789-.81 1.803-1.216 3.04-1.216 1.173 0 2.139.405 2.896 1.216.768.81 1.152 1.813 1.152 3.008 0 .267-.027.55-.08.848h-6.032Zm-.032-1.6h4.08c-.117-.544-.363-.95-.736-1.216a2.053 2.053 0 0 0-1.248-.4c-.555 0-1.013.144-1.376.432-.363.277-.603.672-.72 1.184Zm12.033-3.472c.875 0 1.595.293 2.16.88.576.587.864 1.397.864 2.432V30h-2.064v-4.656c0-.533-.144-.939-.432-1.216-.288-.288-.672-.432-1.152-.432-.533 0-.96.165-1.28.496-.32.33-.48.827-.48 1.488V30h-2.064v-8h2.064v.896c.501-.747 1.296-1.12 2.384-1.12Zm9.362 2.208h-1.808v3.328c0 .277.07.48.208.608.139.128.342.203.608.224.267.01.598.005.992-.016V30c-1.418.16-2.421.027-3.008-.4-.576-.427-.864-1.19-.864-2.288v-3.328h-1.392V22h1.392v-1.616l2.064-.624V22h1.808v1.984ZM176.087 22h2.064v8h-2.064v-.944c-.619.779-1.488 1.168-2.608 1.168-1.067 0-1.984-.405-2.752-1.216-.758-.821-1.137-1.824-1.137-3.008s.379-2.181 1.137-2.992c.768-.821 1.685-1.232 2.752-1.232 1.12 0 1.989.39 2.608 1.168V22Zm-3.808 5.632c.416.416.944.624 1.584.624.64 0 1.168-.208 1.584-.624.426-.427.64-.97.64-1.632 0-.661-.214-1.2-.64-1.616-.416-.427-.944-.64-1.584-.64-.64 0-1.168.213-1.584.64-.416.416-.624.955-.624 1.616 0 .661.208 1.205.624 1.632ZM180.022 30V18.32h2.064V30h-2.064Zm12.401-8.224c.875 0 1.595.293 2.16.88.576.587.864 1.397.864 2.432V30h-2.064v-4.656c0-.533-.144-.939-.432-1.216-.288-.288-.672-.432-1.152-.432-.533 0-.96.165-1.28.496-.32.33-.48.827-.48 1.488V30h-2.064V18.8h2.064v4.096c.502-.747 1.296-1.12 2.384-1.12Zm6.531 5.072c.277 1.003 1.029 1.504 2.256 1.504.789 0 1.386-.267 1.792-.8l1.664.96c-.79 1.141-1.952 1.712-3.488 1.712-1.323 0-2.384-.4-3.184-1.2-.8-.8-1.2-1.808-1.2-3.024 0-1.205.394-2.208 1.184-3.008.789-.81 1.802-1.216 3.04-1.216 1.173 0 2.138.405 2.896 1.216.768.81 1.152 1.813 1.152 3.008 0 .267-.027.55-.08.848h-6.032Zm-.032-1.6h4.08c-.118-.544-.363-.95-.736-1.216a2.053 2.053 0 0 0-1.248-.4c-.555 0-1.014.144-1.376.432-.363.277-.603.672-.72 1.184ZM212.524 22h2.064v8h-2.064v-.944c-.619.779-1.488 1.168-2.608 1.168-1.067 0-1.984-.405-2.752-1.216-.757-.821-1.136-1.824-1.136-3.008s.379-2.181 1.136-2.992c.768-.821 1.685-1.232 2.752-1.232 1.12 0 1.989.39 2.608 1.168V22Zm-3.808 5.632c.416.416.944.624 1.584.624.64 0 1.168-.208 1.584-.624.427-.427.64-.97.64-1.632 0-.661-.213-1.2-.64-1.616-.416-.427-.944-.64-1.584-.64-.64 0-1.168.213-1.584.64-.416.416-.624.955-.624 1.616 0 .661.208 1.205.624 1.632ZM216.46 30V18.32h2.064V30h-2.064Zm8.529-6.016h-1.808v3.328c0 .277.069.48.208.608.138.128.341.203.608.224.266.01.597.005.992-.016V30c-1.419.16-2.422.027-3.008-.4-.576-.427-.864-1.19-.864-2.288v-3.328h-1.392V22h1.392v-1.616l2.064-.624V22h1.808v1.984Zm5.903-2.208c.875 0 1.595.293 2.16.88.576.587.864 1.397.864 2.432V30h-2.064v-4.656c0-.533-.144-.939-.432-1.216-.288-.288-.672-.432-1.152-.432-.533 0-.96.165-1.28.496-.32.33-.48.827-.48 1.488V30h-2.064V18.8h2.064v4.096c.501-.747 1.296-1.12 2.384-1.12Zm12.69 8.416c-1.205 0-2.208-.4-3.008-1.2-.8-.81-1.2-1.808-1.2-2.992s.4-2.176 1.2-2.976c.8-.81 1.803-1.216 3.008-1.216.79 0 1.499.192 2.128.576a3.32 3.32 0 0 1 1.376 1.52l-.864.496a2.43 2.43 0 0 0-1.04-1.136 2.995 2.995 0 0 0-1.6-.432c-.885 0-1.632.31-2.24.928-.608.608-.912 1.355-.912 2.24 0 .885.304 1.637.912 2.256.608.608 1.355.912 2.24.912.598 0 1.131-.139 1.6-.416.47-.288.838-.672 1.104-1.152l.88.512a3.693 3.693 0 0 1-1.456 1.52c-.64.373-1.349.56-2.128.56Zm11.726-1.2c-.81.8-1.802 1.2-2.976 1.2-1.173 0-2.17-.4-2.992-1.2-.81-.81-1.216-1.808-1.216-2.992s.406-2.176 1.216-2.976c.822-.81 1.819-1.216 2.992-1.216 1.174 0 2.166.405 2.976 1.216.822.8 1.232 1.792 1.232 2.976s-.41 2.181-1.232 2.992Zm-5.216-.736c.608.608 1.355.912 2.24.912.886 0 1.632-.304 2.24-.912.608-.619.912-1.37.912-2.256 0-.885-.304-1.632-.912-2.24-.608-.619-1.354-.928-2.24-.928-.885 0-1.632.31-2.24.928-.608.608-.912 1.355-.912 2.24 0 .885.304 1.637.912 2.256Zm16.744-6.448c.896 0 1.616.288 2.16.864.554.576.832 1.355.832 2.336V30h-1.056v-4.992c0-.693-.182-1.227-.544-1.6-.352-.384-.822-.576-1.408-.576-.662 0-1.2.224-1.616.672-.406.437-.608 1.125-.608 2.064V30h-1.056v-4.992c0-.704-.171-1.243-.512-1.616-.331-.373-.784-.56-1.36-.56-.64 0-1.184.224-1.632.672-.448.448-.672 1.136-.672 2.064V30h-1.056v-8h1.056v1.168c.576-.907 1.392-1.36 2.448-1.36 1.152 0 1.962.485 2.432 1.456.576-.97 1.44-1.456 2.592-1.456Zm9.322 0c1.141 0 2.112.405 2.912 1.216.811.81 1.216 1.803 1.216 2.976s-.405 2.165-1.216 2.976c-.8.81-1.771 1.216-2.912 1.216-1.419 0-2.496-.587-3.232-1.76V33.2h-1.056V22h1.056v1.568c.736-1.173 1.813-1.76 3.232-1.76Zm-2.32 6.448c.608.608 1.355.912 2.24.912.885 0 1.632-.304 2.24-.912.608-.619.912-1.37.912-2.256 0-.885-.304-1.632-.912-2.24-.608-.619-1.355-.928-2.24-.928-.885 0-1.632.31-2.24.928-.608.608-.912 1.355-.912 2.24 0 .885.304 1.637.912 2.256ZM288.922 22h1.056v8h-1.056v-1.568c-.736 1.173-1.813 1.76-3.232 1.76-1.141 0-2.117-.405-2.928-1.216-.8-.81-1.2-1.803-1.2-2.976s.4-2.165 1.2-2.976c.811-.81 1.787-1.216 2.928-1.216 1.419 0 2.496.587 3.232 1.76V22Zm-5.392 6.256c.608.608 1.355.912 2.24.912.885 0 1.632-.304 2.24-.912.608-.619.912-1.37.912-2.256 0-.885-.304-1.632-.912-2.24-.608-.619-1.355-.928-2.24-.928-.885 0-1.632.31-2.24.928-.608.608-.912 1.355-.912 2.24 0 .885.304 1.637.912 2.256Zm12.428-6.448c.97 0 1.733.299 2.288.896.565.587.848 1.381.848 2.384V30h-1.056v-4.912c0-.715-.192-1.27-.576-1.664-.374-.395-.907-.592-1.6-.592-.768 0-1.392.245-1.872.736-.48.48-.72 1.227-.72 2.24V30h-1.056v-8h1.056v1.248c.597-.96 1.493-1.44 2.688-1.44Zm6.25-1.728a.742.742 0 0 1-.544.224.74.74 0 0 1-.544-.224.738.738 0 0 1-.224-.544c0-.213.074-.395.224-.544a.74.74 0 0 1 .544-.224c.213 0 .394.075.544.224.149.15.224.33.224.544a.742.742 0 0 1-.224.544ZM301.136 30v-8h1.056v8h-1.056Zm10.001-1.008c-.811.8-1.803 1.2-2.976 1.2-1.174 0-2.171-.4-2.992-1.2-.811-.81-1.216-1.808-1.216-2.992s.405-2.176 1.216-2.976c.821-.81 1.818-1.216 2.992-1.216 1.173 0 2.165.405 2.976 1.216.821.8 1.232 1.792 1.232 2.976s-.411 2.181-1.232 2.992Zm-5.216-.736c.608.608 1.354.912 2.24.912.885 0 1.632-.304 2.24-.912.608-.619.911-1.37.911-2.256 0-.885-.303-1.632-.911-2.24-.608-.619-1.355-.928-2.24-.928-.886 0-1.632.31-2.24.928-.608.608-.912 1.355-.912 2.24 0 .885.304 1.637.912 2.256Zm11.959-6.448c.97 0 1.733.299 2.288.896.565.587.848 1.381.848 2.384V30h-1.056v-4.912c0-.715-.192-1.27-.576-1.664-.374-.395-.907-.592-1.6-.592-.768 0-1.392.245-1.872.736-.48.48-.72 1.227-.72 2.24V30h-1.056v-8h1.056v1.248c.597-.96 1.493-1.44 2.688-1.44Z"/>
  <path stroke="#141414" stroke-linecap="round" stroke-linejoin="round" stroke-width="2" d="M358.67 24h18.667M368 14.67l9.333 9.333L368 33.337"/>
  <path fill="#DFA249" d="M20.654 21.626c-.145-.158-.198-.231-.264-.29-2.321-1.977-3.405-4.655-3.908-7.525-.317-1.838.179-3.643 1.481-5.117.628-.708 1.508-.893 2.327-1.223 2.063-.827 4-.404 5.905.496.443.211.8.529 1.09.925.576.78 1.058 1.614 1.541 2.447.45.773.536 1.646.569 2.525.013.397 0 .8 0 1.296.37-.251.496-.542.628-.806.72-1.429 1.811-2.533 3.14-3.372.794-.51 1.76-.668 2.665-.926.258-.073.509.06.754.145.833.311 1.672.589 2.499.913.793.31 1.388.892 1.778 1.613.55 1.012 1.177 2.003 1.25 3.226.04.609.046 1.21-.178 1.753-.556 1.335-1.362 2.499-2.579 3.325-.562.384-1.164.695-1.752 1.045.092.205.264.185.397.205 1.447.284 2.737.985 3.92 1.792 1.845 1.263 2.638 3.087 2.466 5.375-.112 1.5-.998 2.427-2.023 3.313-.377.323-.806.594-1.177.925-.317.284-.674.476-1.09.503-1.065.066-2.09.145-3.16-.298-1.105-.456-2.262-.787-3.3-1.5-.12.31-.027.541.013.76.231 1.282.298 2.571.192 3.867-.02.219-.04.457-.139.648-.648 1.303-1.5 2.36-2.876 3.035a6.84 6.84 0 0 1-4.159.602c-2.017-.324-4.02-.873-4.965-3.042-.708-1.613-1.078-3.266-.582-5.018.284-1.011.562-2.03.886-3.18-.72.621-1.243 1.276-1.918 1.752-1.183.833-2.353 1.732-3.834 1.93-2.229.305-4.238-.376-5.958-1.751-1.381-1.105-1.666-3.419-.806-5.244a11.57 11.57 0 0 1 2.697-3.636c1.336-1.216 2.982-1.514 4.682-1.633.866-.06 1.738-.053 2.585.231.383.12.74-.026 1.203-.086Z"/>
  <path fill="#D78042" d="M26.376 22.979c-1.091-.132-2.195.033-3.273-.106-2.274-.284-4.516-.066-6.73.403-2.804.589-5.032 2.195-6.983 4.219-.403.416-.416.965-.317 1.534.231-.08.291-.225.39-.338 2.559-3.067 5.845-4.72 9.812-5.005 2.129-.152 4.251.152 6.38.12.013 0 .027.02.08.059-1.065.053-2.096.092-3.121.152-1.15.06-2.268.245-3.392.522-1.898.47-3.603 1.369-5.349 2.169-1.428.655-2.823 1.395-4.086 2.36-.773.589-.773.589-.522 1.501.192.681.304.754 1.031.661.946-.119 1.845-.39 2.75-.668 2.606-.786 5.217-1.58 7.829-2.353a25.056 25.056 0 0 0 3.14-1.19c-.02.079-.072.099-.112.139-1.825 1.679-4.145 2.426-6.38 3.299-2.202.86-4.556.945-6.896 1.031-.265.007-.74-.119-.74.12.006.336.383.594.746.726.12.04.258.033.384.027.403-.02.813-.073 1.216-.08 3.57-.02 6.77-1.322 9.898-2.85.589-.29 1.124-.693 1.7-1.057.046.238-.087.417-.166.588-1.223 2.738-1.23 5.62-.952 8.516.093.946.443 1.832.754 2.724.145.41.542.53.853.437.27-.08.046-.417-.014-.628-.138-.503-.35-.979-.462-1.488-.794-3.769-.49-7.399 1.342-10.85.39-.734.886-1.335 1.593-1.924-.046.232-.066.357-.106.476-.568 1.977-1.203 3.928-1.5 5.977-.338 2.308-.833 4.595-.688 6.956.026.443.073.886.119 1.329.046.43.39.476.7.476.398-.007.173-.337.173-.503-.014-.687-.12-1.368-.106-2.05.086-3.656.734-7.213 1.772-10.71.277-.926.535-1.858.8-2.79l.145.02c-.238 1.23-.072 2.472-.225 3.709-.27 2.208-.601 4.403-.832 6.611-.172 1.594-.37 3.16-.999 4.655-.125.304-.192.641-.271.965-.066.285.1.39.357.443.212.04.403.106.476-.192.403-1.573 1.124-3.067 1.21-4.727.04-.74.112-1.481.205-2.215.364-2.717.84-5.422.833-8.172 0-.41.08-.82.126-1.276.211.185.224.377.264.549.556 2.677.49 5.395.285 8.086a19.973 19.973 0 0 1-2.004 7.306c-.1.205-.344.496.02.668.324.158.602.06.76-.311.556-1.316 1.137-2.612 1.488-4.007.747-2.962.826-5.97.707-8.998-.013-.331-.145-.668-.04-1.118.463 1.098.754 2.11.867 3.194.39 3.768-.245 7.306-2.209 10.578-.119.205-.462.47-.218.655.265.205.642-.007.906-.212.113-.086.179-.238.251-.363 1.871-3.26 2.546-6.764 2.176-10.493a17.71 17.71 0 0 0-.39-2.407c1.309 1.442 2.486 2.969 4.125 4.047 1.164.767 2.347 1.494 3.617 2.063.41.185.84.323 1.276.079.139-.08.344-.146.33-.33-.013-.173-.218-.173-.35-.219-2.975-1.084-5.474-2.816-7.504-5.263-.833-1.011-1.468-2.142-2.275-3.167.192.073.338.179.49.284 1.342.96 2.565 2.09 4.033 2.863 1.349.714 2.618 1.54 3.927 2.314.985.582 1.924 1.25 2.87 1.905.363.25.581.072.793-.192.212-.265-.046-.357-.198-.47-2.176-1.56-4.47-2.915-6.797-4.224-1.918-1.078-3.544-2.533-5.283-3.855.192.026.364.08.516.165 1.778.992 3.53 2.043 5.342 2.969 2.374 1.21 4.668 2.519 6.466 4.542.126.139.232.192.43.093.403-.192.476-.397.159-.74a15.874 15.874 0 0 0-4.02-3.22c-1.884-1.072-3.815-2.057-5.72-3.102-.727-.396-1.427-.852-2.155-1.289.582-.238 1.098-.112 1.627.027.529.138.965.509 1.487.601 1.164.199 2.228.661 3.32 1.071 1.302.496 2.459 1.197 3.53 2.063.708.569 1.422 1.13 2.136 1.693.099.08.191.211.337.125.106-.06.073-.198.086-.304.046-.377-.046-.687-.384-.912-.218-.146-.41-.318-.614-.483-1.58-1.27-3.214-2.407-5.138-3.154-1.487-.575-3.054-.872-4.522-1.5-.43-.186-.893-.358-1.409-.271.311-.192.622-.338.946-.477 2.559-1.064 5.005-2.334 7.127-4.152.49-.423.992-.833 1.488-1.256.337-.284.225-.68.106-.972-.106-.258-.31 0-.43.106a27.443 27.443 0 0 1-8.833 5.574c-.556.218-1.091.489-1.64.733a.304.304 0 0 1 .12-.218c1.467-1.223 3.113-2.208 4.614-3.392 1.72-1.355 3.478-2.65 5.17-4.04.404-.33.331-.674.1-.951-.272-.338-.404.119-.589.224-.145.08-.258.212-.383.318-3.148 2.598-6.473 4.959-9.746 7.385-.092.066-.165.205-.324.159.033-.199.172-.33.291-.463 1.455-1.68 2.883-3.385 4.39-5.018 1.395-1.514 2.85-2.976 4.595-4.1.265-.165.232-.29-.04-.416-.442-.218-.806-.086-1.176.198-1.977 1.495-3.67 3.286-5.303 5.138-1.157 1.315-2.28 2.657-3.445 4.013-.066-.205.034-.33.093-.456 1.071-2.248 2.36-4.364 3.742-6.434.794-1.196 1.785-2.221 2.903-3.12.106-.086.304-.152.251-.324-.066-.205-.278-.132-.436-.146-.496-.02-.906.205-1.23.55-.562.588-1.17 1.15-1.646 1.804-1.733 2.367-3.2 4.9-4.463 7.544-.047.1-.033.264-.238.264-.159-.634-.053-1.289-.14-1.93a27.018 27.018 0 0 0-3.82-10.645c-.206-.33-.457-.522-.854-.502-.125.006-.264-.14-.363-.014-.12.152.046.271.119.39 1.68 2.691 2.995 5.541 3.656 8.662.231 1.104.496 2.195.403 3.372-.165-.179-.158-.37-.191-.543-.186-.832-.39-1.666-.754-2.44a1857.38 1857.38 0 0 0-4.047-8.416 6.24 6.24 0 0 0-.509-.86c-.225-.323-.509-.125-.74-.006-.271.139-.04.317.033.463.33.641.688 1.27 1.005 1.917.919 1.878 1.812 3.776 2.744 5.653.773 1.554 1.362 3.16 1.653 4.88.033.191.119.39-.033.641-.238-.31-.463-.595-.668-.9a6.982 6.982 0 0 1-.542-.905c-1.428-3.055-2.718-6.169-3.776-9.369a10.706 10.706 0 0 0-.866-1.924c-.198-.344-.476-.231-.72-.112-.285.132-.12.35-.034.515.437.8.767 1.64 1.025 2.52.199.674.41 1.348.688 1.996a117.134 117.134 0 0 1 1.898 4.628c.357.933.859 1.805 1.322 2.691.178.344.443.648.668.966-.04.026-.073.053-.113.08-.608-.59-1.203-1.178-1.673-1.898-.912-1.395-1.738-2.843-2.532-4.311-1.051-1.924-1.997-3.895-2.453-6.057-.04-.191-.026-.548-.31-.482-.252.06-.55.264-.53.628.014.185.053.363.1.549.377 1.56 1.005 3.028 1.739 4.443 1.203 2.327 2.426 4.648 4.145 6.863-1.864-.814-3.08-2.15-4.271-3.524-1.197-1.382-2.208-2.896-3.213-4.576-.106.972-.007 1.7.489 2.414 1.276 1.831 2.645 3.57 4.337 5.038.78.674 1.732 1.064 2.572 1.626.906.608 1.812 1.11 2.922 1.23-.125.033-.25.1-.363.086Zm-14.44 5.706c1.759-1.032 3.623-1.871 5.494-2.658 1.673-.7 3.438-1.137 5.283-1.15 1.051-.007 2.096-.1 3.213-.16-.191.259-.43.358-.634.497-2.077 1.448-4.477 2.102-6.85 2.816-2.308.694-4.608 1.375-6.923 2.056-.568.166-1.15.252-1.765.186.635-.668 1.408-1.131 2.182-1.587Z"/>
</svg>